<svg width="205" height="65" viewBox="0 0 205 65" fill="none" xmlns="http://www.w3.org/2000/svg">
<rect width="205" height="65" rx="10" fill="black"/>
<path d="M44.534 32.894C44.4768 27.4405 48.9935 24.7852 49.2222 24.671C46.678 20.9306 42.7044 20.4452 41.3036 20.3881C37.9589 20.0455 34.7286 22.3868 33.042 22.3868C31.2982 22.3868 28.6967 20.4167 25.8666 20.4738C22.2361 20.5309 18.8628 22.6152 17.0046 25.8701C13.174 32.4943 16.0327 42.2591 19.6918 47.6269C21.5214 50.2537 23.694 53.1946 26.4955 53.0804C29.2399 52.9662 30.269 51.3387 33.5851 51.3387C36.8726 51.3387 37.8446 53.0804 40.7033 53.0233C43.6478 52.9662 45.5059 50.3965 47.2783 47.7411C49.3938 44.7431 50.2514 41.7737 50.28 41.6024C50.2514 41.6024 44.5911 39.4324 44.534 32.894Z" fill="white"/>
<path d="M39.102 16.8481C40.5886 14.9922 41.5891 12.4796 41.3032 9.93848C39.1592 10.0241 36.472 11.4232 34.9283 13.222C33.5562 14.8209 32.3269 17.4191 32.67 19.8746C35.0999 20.0745 37.5583 18.6754 39.102 16.8481Z" fill="white"/>
<path d="M61.7175 22.0115V12.6705H64.7467C65.8409 12.6705 66.7394 12.8618 67.4422 13.2443C68.1539 13.6268 68.6788 14.1695 69.0168 14.8723C69.3638 15.5662 69.5373 16.3936 69.5373 17.3543C69.5373 18.3062 69.3638 19.1336 69.0168 19.8364C68.6788 20.5303 68.1539 21.0685 67.4422 21.451C66.7394 21.8247 65.8409 22.0115 64.7467 22.0115H61.7175ZM63.132 20.8105H64.6933C65.5384 20.8105 66.2056 20.6726 66.6949 20.3968C67.1931 20.121 67.549 19.7252 67.7625 19.2092C67.9849 18.6932 68.0961 18.0749 68.0961 17.3543C68.0961 16.6337 67.9849 16.011 67.7625 15.4861C67.549 14.9613 67.1931 14.5609 66.6949 14.2852C66.2056 14.0005 65.5384 13.8581 64.6933 13.8581H63.132V20.8105Z" fill="white"/>
<path d="M71.1002 22.0115V12.6705H72.5147V22.0115H71.1002Z" fill="white"/>
<path d="M77.4927 22.1716C76.8077 22.1716 76.2072 22.0515 75.6912 21.8113C75.1753 21.5711 74.7705 21.2286 74.4769 20.7838C74.1922 20.339 74.0455 19.8097 74.0366 19.1958H75.5311C75.54 19.694 75.7135 20.1166 76.0515 20.4635C76.3896 20.8105 76.8655 20.984 77.4794 20.984C78.022 20.984 78.4446 20.855 78.7471 20.597C79.0584 20.3301 79.2141 19.992 79.2141 19.5828C79.2141 19.2537 79.1385 18.9868 78.9873 18.7822C78.8449 18.5776 78.6448 18.4085 78.3868 18.2751C78.1377 18.1416 77.8486 18.0215 77.5194 17.9148C77.1903 17.808 76.8433 17.6924 76.4786 17.5678C75.758 17.3276 75.2153 17.0163 74.8506 16.6337C74.4947 16.2512 74.3168 15.7486 74.3168 15.1258C74.3079 14.601 74.428 14.1428 74.6771 13.7514C74.9351 13.36 75.2909 13.0575 75.7446 12.844C76.2072 12.6216 76.7454 12.5104 77.3593 12.5104C77.9642 12.5104 78.4935 12.6216 78.9472 12.844C79.4098 13.0664 79.7701 13.3778 80.0281 13.7781C80.2861 14.1695 80.4196 14.6277 80.4285 15.1525H78.9339C78.9339 14.9123 78.8716 14.6855 78.7471 14.472C78.6225 14.2496 78.4402 14.0672 78.2 13.9249C77.9598 13.7825 77.6662 13.7114 77.3192 13.7114C76.8744 13.7025 76.5052 13.8137 76.2117 14.045C75.927 14.2763 75.7847 14.5965 75.7847 15.0057C75.7847 15.3705 75.8914 15.6507 76.1049 15.8464C76.3184 16.0422 76.612 16.2067 76.9856 16.3402C77.3593 16.4647 77.7863 16.6115 78.2667 16.7805C78.7293 16.9318 79.143 17.1141 79.5077 17.3276C79.8724 17.5412 80.1616 17.8214 80.3751 18.1683C80.5975 18.5153 80.7087 18.9556 80.7087 19.4894C80.7087 19.9609 80.5886 20.4013 80.3484 20.8105C80.1082 21.2108 79.7479 21.54 79.2675 21.798C78.7871 22.0471 78.1955 22.1716 77.4927 22.1716Z" fill="white"/>
<path d="M82.2552 22.0115V12.6705H85.5245C86.254 12.6705 86.8589 12.7951 87.3393 13.0441C87.8197 13.2843 88.1756 13.6179 88.4069 14.045C88.647 14.4631 88.7671 14.939 88.7671 15.4728C88.7671 15.9799 88.6515 16.4469 88.4202 16.8739C88.1978 17.2921 87.8464 17.6257 87.366 17.8748C86.8856 18.1239 86.2718 18.2484 85.5245 18.2484H83.6696V22.0115H82.2552ZM83.6696 17.0875H85.4578C86.125 17.0875 86.6009 16.9451 86.8856 16.6604C87.1792 16.3669 87.326 15.971 87.326 15.4728C87.326 14.9568 87.1792 14.5565 86.8856 14.2718C86.6009 13.9782 86.125 13.8315 85.4578 13.8315H83.6696V17.0875Z" fill="white"/>
<path d="M94.4755 22.1716C93.5503 22.1716 92.7407 21.967 92.0468 21.5578C91.3529 21.1486 90.8102 20.5836 90.4188 19.8631C90.0274 19.1336 89.8317 18.2929 89.8317 17.341C89.8317 16.3891 90.0274 15.5529 90.4188 14.8323C90.8102 14.1028 91.3529 13.5334 92.0468 13.1242C92.7407 12.715 93.5503 12.5104 94.4755 12.5104C95.4007 12.5104 96.2102 12.715 96.9041 13.1242C97.598 13.5334 98.1362 14.1028 98.5188 14.8323C98.9102 15.5529 99.1059 16.3891 99.1059 17.341C99.1059 18.2929 98.9102 19.1336 98.5188 19.8631C98.1362 20.5836 97.598 21.1486 96.9041 21.5578C96.2102 21.967 95.4007 22.1716 94.4755 22.1716ZM94.4755 20.9039C95.116 20.9039 95.672 20.7616 96.1435 20.4769C96.6239 20.1922 96.9975 19.783 97.2644 19.2492C97.5313 18.7154 97.6647 18.0794 97.6647 17.341C97.6647 16.6026 97.5313 15.9665 97.2644 15.4328C96.9975 14.899 96.6239 14.4898 96.1435 14.2051C95.672 13.9204 95.116 13.7781 94.4755 13.7781C93.8349 13.7781 93.2745 13.9204 92.7941 14.2051C92.3137 14.4898 91.9401 14.899 91.6732 15.4328C91.4152 15.9665 91.2862 16.6026 91.2862 17.341C91.2862 18.0794 91.4152 18.7154 91.6732 19.2492C91.9401 19.783 92.3137 20.1922 92.7941 20.4769C93.2745 20.7616 93.8349 20.9039 94.4755 20.9039Z" fill="white"/>
<path d="M100.682 22.0115V12.6705H102.096L106.78 19.7029V12.6705H108.194V22.0115H106.78L102.096 14.9791V22.0115H100.682Z" fill="white"/>
<path d="M110.09 22.0115V12.6705H111.505V22.0115H110.09Z" fill="white"/>
<path d="M113.4 22.0115V12.6705H116.923C117.893 12.6705 118.627 12.8974 119.125 13.3511C119.623 13.8048 119.872 14.3741 119.872 15.0591C119.872 15.6552 119.712 16.1311 119.392 16.487C119.072 16.8339 118.685 17.0697 118.231 17.1942C118.587 17.2654 118.903 17.4077 119.178 17.6212C119.463 17.8347 119.686 18.1016 119.846 18.4219C120.006 18.7421 120.086 19.0891 120.086 19.4627C120.086 19.9431 119.966 20.379 119.726 20.7705C119.494 21.153 119.152 21.4555 118.698 21.6779C118.244 21.9003 117.688 22.0115 117.03 22.0115H113.4ZM114.815 16.6738H116.75C117.292 16.6738 117.706 16.5492 117.991 16.3001C118.276 16.0422 118.418 15.6908 118.418 15.2459C118.418 14.81 118.276 14.4631 117.991 14.2051C117.715 13.9471 117.292 13.8181 116.723 13.8181H114.815V16.6738ZM114.815 20.8505H116.843C117.413 20.8505 117.853 20.7171 118.164 20.4502C118.485 20.1833 118.645 19.8097 118.645 19.3293C118.645 18.8489 118.48 18.4708 118.151 18.195C117.822 17.9103 117.377 17.768 116.817 17.768H114.815V20.8505Z" fill="white"/>
<path d="M121.636 22.0115V12.6705H123.051V20.8906H127.294V22.0115H121.636Z" fill="white"/>
<path d="M128.817 22.0115V12.6705H134.755V13.8181H130.231V16.7272H134.355V17.8481H130.231V20.8639H134.755V22.0115H128.817Z" fill="white"/>
<path d="M139.802 22.0115V12.6705H145.74V13.8181H141.217V16.7272H145.34V17.8481H141.217V20.8639H145.74V22.0115H139.802Z" fill="white"/>
<path d="M147.426 22.0115V12.6705H148.84L153.524 19.7029V12.6705H154.938V22.0115H153.524L148.84 14.9791V22.0115H147.426Z" fill="white"/>
<path d="M78.3125 49.0977H74.9904L73.1558 43.3529H66.8089L65.0735 49.0977H61.8257L68.1229 29.5604H72.0153L78.3125 49.0977ZM72.6103 40.951L70.9492 35.85C70.7757 35.33 70.4534 34.0919 69.9576 32.1852H69.908C69.7096 33.0271 69.4121 34.2405 68.9659 35.85L67.3296 40.951H72.6103Z" fill="white"/>
<path d="M94.5013 41.8672C94.5013 44.2691 93.8567 46.151 92.5675 47.5377C91.4023 48.7758 89.9643 49.3948 88.2537 49.3948C86.3942 49.3948 85.0555 48.7262 84.2373 47.3891H84.1877V54.7929H81.0639V39.6138C81.0639 38.1033 81.0143 36.5681 80.9399 34.9833H83.6919L83.8654 37.2119H83.915C84.9563 35.5281 86.543 34.6862 88.6751 34.6862C90.3362 34.6862 91.7246 35.3547 92.8402 36.6671C93.9559 38.0043 94.5013 39.7376 94.5013 41.8672ZM91.3279 41.991C91.3279 40.629 91.0056 39.49 90.4106 38.5986C89.7412 37.6824 88.8239 37.2119 87.6834 37.2119C86.9149 37.2119 86.1959 37.4595 85.5761 37.9795C84.9563 38.4995 84.5348 39.1681 84.3365 39.9852C84.2373 40.3814 84.1877 40.6786 84.1877 40.9262V43.2786C84.1877 44.2938 84.51 45.1605 85.1298 45.8786C85.7496 46.5967 86.5678 46.9434 87.5843 46.9434C88.7743 46.9434 89.6916 46.4977 90.3362 45.5815C90.9808 44.6653 91.3279 43.4767 91.3279 41.991Z" fill="white"/>
<path d="M110.715 41.8672C110.715 44.2691 110.071 46.151 108.782 47.5377C107.616 48.7758 106.178 49.3948 104.468 49.3948C102.608 49.3948 101.27 48.7262 100.476 47.3891H100.402V54.7929H97.278V39.6138C97.278 38.1033 97.2284 36.5681 97.1541 34.9833H99.906L100.08 37.2119H100.129C101.17 35.5281 102.757 34.6862 104.889 34.6862C106.55 34.6862 107.939 35.3547 109.054 36.6671C110.17 38.0043 110.715 39.7376 110.715 41.8672ZM107.542 41.991C107.542 40.629 107.22 39.49 106.6 38.5986C105.931 37.6824 105.013 37.2119 103.873 37.2119C103.104 37.2119 102.385 37.4595 101.765 37.9795C101.146 38.4995 100.724 39.1681 100.526 39.9852C100.427 40.3814 100.377 40.6786 100.377 40.9262V43.2786C100.377 44.2938 100.699 45.1605 101.319 45.8786C101.939 46.5967 102.757 46.9434 103.774 46.9434C104.964 46.9434 105.881 46.4977 106.526 45.5815C107.195 44.6653 107.542 43.4767 107.542 41.991Z" fill="white"/>
<path d="M128.839 43.6012C128.839 45.2602 128.269 46.6221 127.103 47.6621C125.839 48.8012 124.054 49.3707 121.773 49.3707C119.666 49.3707 117.98 48.9745 116.715 48.1574L117.434 45.5574C118.823 46.3993 120.31 46.7955 121.971 46.7955C123.161 46.7955 124.079 46.5231 124.723 46.0031C125.368 45.4583 125.715 44.765 125.715 43.8735C125.715 43.0812 125.442 42.4126 124.897 41.8678C124.351 41.323 123.459 40.8278 122.194 40.3573C118.773 39.0697 117.062 37.2125 117.062 34.7611C117.062 33.1516 117.657 31.8392 118.872 30.8239C120.062 29.8087 121.674 29.2887 123.657 29.2887C125.442 29.2887 126.905 29.6106 128.095 30.2049L127.302 32.7554C126.211 32.1611 124.946 31.8639 123.558 31.8639C122.467 31.8639 121.599 32.1363 120.98 32.6811C120.459 33.1516 120.186 33.7459 120.186 34.4392C120.186 35.2068 120.484 35.8506 121.079 36.3459C121.599 36.8164 122.542 37.3116 123.93 37.8564C125.616 38.5249 126.855 39.3173 127.649 40.2335C128.442 41.125 128.839 42.264 128.839 43.6012Z" fill="white"/>
<path d="M139.202 37.3609H135.756V44.1952C135.756 45.9286 136.376 46.7952 137.591 46.7952C138.136 46.7952 138.607 46.7457 138.979 46.6467L139.053 49.0238C138.434 49.2467 137.615 49.3705 136.624 49.3705C135.384 49.3705 134.417 48.9991 133.723 48.2314C133.029 47.4886 132.682 46.2009 132.682 44.4428V37.3361H130.624V34.9837H132.682V32.4085L135.756 31.4675V34.9837H139.202V37.3609Z" fill="white"/>
<path d="M154.772 41.9411C154.772 44.0954 154.152 45.8783 152.912 47.265C151.623 48.7012 149.887 49.4193 147.755 49.4193C145.673 49.4193 144.037 48.7259 142.822 47.364C141.582 46.0021 140.987 44.2688 140.987 42.1887C140.987 40.0097 141.607 38.2268 142.896 36.8401C144.16 35.4535 145.871 34.7601 148.003 34.7601C150.061 34.7601 151.747 35.4535 152.987 36.8154C154.177 38.103 154.772 39.8116 154.772 41.9411ZM151.524 42.0402C151.524 40.7525 151.251 39.6383 150.681 38.6973C150.036 37.583 149.094 37.0135 147.879 37.0135C146.615 37.0135 145.673 37.583 145.003 38.6973C144.433 39.6383 144.16 40.7525 144.16 42.0897C144.16 43.3773 144.433 44.4916 145.003 45.4326C145.673 46.5469 146.615 47.1164 147.855 47.1164C149.045 47.1164 149.987 46.5469 150.656 45.4078C151.251 44.4421 151.524 43.3278 151.524 42.0402Z" fill="white"/>
<path d="M164.961 37.7569C164.664 37.7074 164.316 37.6826 163.969 37.6826C162.879 37.6826 162.011 38.1036 161.416 38.9207C160.895 39.6636 160.622 40.5798 160.622 41.6941V49.0732H157.499L157.523 39.416C157.523 37.7817 157.474 36.3207 157.399 34.9836H160.127L160.251 37.6826H160.325C160.647 36.7664 161.168 35.9988 161.887 35.454C162.581 34.9588 163.35 34.7112 164.143 34.7112C164.44 34.7112 164.688 34.7359 164.936 34.7607V37.7569H164.961Z" fill="white"/>
<path d="M178.968 41.3719C178.968 41.9414 178.919 42.4119 178.845 42.7833H169.448C169.473 44.17 169.944 45.2348 170.812 45.9776C171.605 46.6462 172.622 46.9681 173.886 46.9681C175.274 46.9681 176.539 46.7453 177.679 46.2996L178.175 48.4786C176.836 49.0481 175.274 49.3453 173.44 49.3453C171.258 49.3453 169.547 48.7015 168.283 47.4138C167.043 46.1262 166.424 44.3929 166.424 42.2386C166.424 40.109 166.994 38.3509 168.159 36.9395C169.374 35.429 171.01 34.6862 173.093 34.6862C175.126 34.6862 176.663 35.429 177.704 36.9395C178.547 38.1528 178.968 39.6138 178.968 41.3719ZM175.969 40.5548C175.993 39.6386 175.795 38.8214 175.374 38.1528C174.828 37.2862 173.985 36.8405 172.87 36.8405C171.853 36.8405 171.01 37.2614 170.366 38.1281C169.845 38.7967 169.523 39.6138 169.448 40.5548H175.969Z" fill="white"/>
</svg>
