<svg width="17" height="18" viewBox="0 0 17 18" fill="none" xmlns="http://www.w3.org/2000/svg">
<path d="M1.39997 17.9999C1.22997 18.0029 1.05997 17.9739 0.899969 17.9139L8.95397 9.85692L11.62 12.5259L2.36497 17.7259C2.07184 17.8978 1.7397 17.9921 1.39997 17.9999ZM0.235969 17.3349C0.0722473 17.0384 -0.00923201 16.7035 -3.11407e-05 16.3649V1.65992C-0.00138269 1.4367 0.0323624 1.21465 0.0999688 1.00192L8.33297 9.23692L0.232969 17.3369L0.235969 17.3349ZM12.415 12.0769L9.57397 9.23792L12.707 6.10592L15.49 7.66892C16.024 7.90892 16.382 8.42392 16.418 9.00792C16.4002 9.29481 16.3043 9.57136 16.1405 9.80759C15.9767 10.0438 15.7514 10.2307 15.489 10.3479L12.415 12.0769ZM8.95397 8.61392L0.613969 0.274916C0.842969 0.104916 1.11997 0.014916 1.40497 0.013916C1.74097 0.025916 2.06897 0.120916 2.35997 0.290916L11.911 5.65892L8.95497 8.61392H8.95397Z" fill="white"/>
</svg>
