<svg width="18" height="18" viewBox="0 0 18 18" fill="none" xmlns="http://www.w3.org/2000/svg">
<path d="M16.2001 10.2001H10.2001V16.2001C10.2001 16.8601 9.6601 17.4001 9.0001 17.4001C8.3401 17.4001 7.8001 16.8601 7.8001 16.2001V10.2001H1.8001C1.1401 10.2001 0.600098 9.6601 0.600098 9.0001C0.600098 8.3401 1.1401 7.8001 1.8001 7.8001H7.8001V1.8001C7.8001 1.1401 8.3401 0.600098 9.0001 0.600098C9.6601 0.600098 10.2001 1.1401 10.2001 1.8001V7.8001H16.2001C16.8601 7.8001 17.4001 8.3401 17.4001 9.0001C17.4001 9.6601 16.8601 10.2001 16.2001 10.2001Z" fill="white"/>
</svg>
