<svg width="18" height="18" viewBox="0 0 18 18" fill="none" xmlns="http://www.w3.org/2000/svg">
<path d="M16.2 0.199951H1.79995C0.915951 0.199951 0.199951 0.915951 0.199951 1.79995V16.2C0.199951 17.084 0.915951 17.7999 1.79995 17.7999H16.2C17.084 17.7999 17.7999 17.084 17.7999 16.2V1.79995C17.7999 0.915951 17.084 0.199951 16.2 0.199951ZM5.76315 14.6H3.40315V7.00635H5.76315V14.6ZM4.55915 5.92075C3.79835 5.92075 3.18315 5.30395 3.18315 4.54475C3.18315 3.78555 3.79915 3.16955 4.55915 3.16955C5.31755 3.16955 5.93435 3.78635 5.93435 4.54475C5.93435 5.30395 5.31755 5.92075 4.55915 5.92075ZM14.6032 14.6H12.2448V10.9072C12.2448 10.0264 12.2288 8.89355 11.0184 8.89355C9.79035 8.89355 9.60155 9.85275 9.60155 10.8432V14.6H7.24315V7.00635H9.50715V8.04395H9.53915C9.85435 7.44715 10.624 6.81755 11.772 6.81755C14.1616 6.81755 14.6032 8.39035 14.6032 10.4352V14.6Z" fill="white"/>
</svg>
