<svg width="18" height="18" viewBox="0 0 18 18" fill="none" xmlns="http://www.w3.org/2000/svg">
<path d="M16.2 0.199951H1.79995C0.915951 0.199951 0.199951 0.915951 0.199951 1.79995V16.2C0.199951 17.084 0.915951 17.7999 1.79995 17.7999H16.2C17.084 17.7999 17.7999 17.084 17.7999 16.2V1.79995C17.7999 0.915951 17.0832 0.199951 16.2 0.199951ZM15.1511 7.77915C15.0471 7.78875 14.9424 7.79515 14.8368 7.79515C13.6407 7.79515 12.5896 7.18075 11.9776 6.25035C11.9776 8.68955 11.9776 11.4656 11.9776 11.5119C11.9776 13.66 10.236 15.4008 8.08875 15.4008C5.94155 15.4 4.19995 13.6583 4.19995 11.5112C4.19995 9.36315 5.94155 7.62235 8.08875 7.62235C8.17035 7.62235 8.24955 7.62955 8.32875 7.63435V9.55115C8.24875 9.54155 8.17115 9.52715 8.08875 9.52715C6.99275 9.52715 6.10395 10.4159 6.10395 11.5119C6.10395 12.608 6.99195 13.4968 8.08875 13.4968C9.18555 13.4968 10.1536 12.6328 10.1536 11.5367C10.1536 11.4928 10.1728 2.60075 10.1728 2.60075H12.004C12.176 4.23835 13.4984 5.53115 15.1511 5.64955V7.77915Z" fill="white"/>
</svg>
