<svg width="22" height="18" viewBox="0 0 22 18" fill="none" xmlns="http://www.w3.org/2000/svg">
<path d="M11.0001 0.199951C7.6513 0.199951 3.30478 1.03901 3.30478 1.03901L3.29385 1.05151C1.76863 1.29544 0.600098 2.60605 0.600098 4.19995V8.99995V9.00151V13.7999V13.8015C0.601586 14.5627 0.874394 15.2985 1.36954 15.8767C1.86468 16.4549 2.54972 16.8376 3.30166 16.9562L3.30478 16.9609C3.30478 16.9609 7.6513 17.8015 11.0001 17.8015C14.3489 17.8015 18.6954 16.9609 18.6954 16.9609L18.697 16.9593C19.4497 16.841 20.1356 16.458 20.6311 15.8791C21.1266 15.3002 21.3993 14.5635 21.4001 13.8015V13.7999V9.00151V8.99995V4.19995C21.399 3.43845 21.1263 2.70231 20.6312 2.1238C20.136 1.54528 19.4507 1.16231 18.6985 1.0437L18.6954 1.03901C18.6954 1.03901 14.3489 0.199951 11.0001 0.199951ZM8.6001 5.3187L15.0001 8.99995L8.6001 12.6812V5.3187Z" fill="white"/>
</svg>
