<svg width="20" height="20" viewBox="0 0 20 20" fill="none" xmlns="http://www.w3.org/2000/svg">
<path d="M5.99834 0.399902C2.91114 0.399902 0.399902 2.91347 0.399902 6.00146V14.0015C0.399902 17.0887 2.91347 19.5999 6.00146 19.5999H14.0015C17.0887 19.5999 19.5999 17.0863 19.5999 13.9983V5.99834C19.5999 2.91114 17.0863 0.399902 13.9983 0.399902H5.99834ZM15.5999 3.5999C16.0415 3.5999 16.3999 3.9583 16.3999 4.3999C16.3999 4.8415 16.0415 5.1999 15.5999 5.1999C15.1583 5.1999 14.7999 4.8415 14.7999 4.3999C14.7999 3.9583 15.1583 3.5999 15.5999 3.5999ZM9.9999 5.1999C12.6471 5.1999 14.7999 7.3527 14.7999 9.9999C14.7999 12.6471 12.6471 14.7999 9.9999 14.7999C7.3527 14.7999 5.1999 12.6471 5.1999 9.9999C5.1999 7.3527 7.3527 5.1999 9.9999 5.1999ZM9.9999 6.7999C9.15121 6.7999 8.33728 7.13704 7.73716 7.73716C7.13704 8.33728 6.7999 9.15121 6.7999 9.9999C6.7999 10.8486 7.13704 11.6625 7.73716 12.2626C8.33728 12.8628 9.15121 13.1999 9.9999 13.1999C10.8486 13.1999 11.6625 12.8628 12.2626 12.2626C12.8628 11.6625 13.1999 10.8486 13.1999 9.9999C13.1999 9.15121 12.8628 8.33728 12.2626 7.73716C11.6625 7.13704 10.8486 6.7999 9.9999 6.7999Z" fill="white"/>
</svg>
