<svg width="31" height="54" viewBox="0 0 31 54" fill="none" xmlns="http://www.w3.org/2000/svg">
<path d="M10.7848 52.2312L10.785 52.2298L13.485 33.2098L13.7279 31.499H11.9999H1.81266C1.81436 31.4965 1.81615 31.4938 1.81799 31.4911L1.84866 31.4451L1.87587 31.3969C3.92991 27.7616 6.54061 23.1809 9.70082 17.6361C12.3555 12.9782 15.398 7.63989 18.8241 1.61004L18.8277 1.60378L18.8312 1.59749C18.8378 1.58549 18.8579 1.55886 18.9016 1.53389C18.9466 1.50818 18.9913 1.49902 19.0199 1.49902C19.1548 1.49902 19.2662 1.61827 19.245 1.76689L19.2448 1.7682L16.5448 20.7882L16.3019 22.499H18.0299H28.3061C21.2326 34.8404 16.2974 43.4783 13.4912 48.3901C12.4206 50.2639 11.6598 51.5954 11.2084 52.3834L11.2035 52.3919L11.1987 52.4006C11.1705 52.4513 11.1103 52.499 11.0099 52.499C10.875 52.499 10.7636 52.3798 10.7848 52.2312ZM1.50429 32.0952C1.50432 32.0951 1.50434 32.0949 1.50437 32.0948L1.50429 32.0952Z" stroke="url(#paint0_linear_849_4160)" stroke-width="3"/>
<defs>
<linearGradient id="paint0_linear_849_4160" x1="0.00585937" y1="26.999" x2="30.0212" y2="26.999" gradientUnits="userSpaceOnUse">
<stop stop-color="#F29B00"/>
<stop offset="1" stop-color="#F4C228"/>
</linearGradient>
</defs>
</svg>
