<svg width="12" height="18" viewBox="0 0 12 18" fill="none" xmlns="http://www.w3.org/2000/svg">
<path d="M11.0265 10.4557C9.96553 10.4522 8.94086 10.0688 8.138 9.37493C7.33519 8.68106 6.80727 7.72253 6.6499 6.67296C7.54594 7.55114 8.75232 8.03996 10.0067 8.03308H10.7291V6.58794H10.0067C9.19936 6.5929 8.41684 6.3084 7.80105 5.78604C7.1852 5.26362 6.77689 4.53789 6.6499 3.74022C7.31428 4.25024 8.1283 4.52661 8.96572 4.52656H9.6881V3.08147H8.96572C8.34024 3.08147 7.7404 2.83294 7.29816 2.39053C6.85592 1.94817 6.60746 1.34817 6.60746 0.722515V0H5.16271V0.722515C5.15713 1.35008 4.90394 1.95008 4.45831 2.39183C4.01269 2.83362 3.4106 3.08147 2.7832 3.08147H2.06082V4.52656H2.7832C3.62062 4.52661 4.43464 4.25024 5.09896 3.74022C4.97203 4.53789 4.56366 5.26362 3.94787 5.78604C3.33208 6.3084 2.54956 6.5929 1.74215 6.58794H1.04104V8.03308H1.74215C2.9966 8.03996 4.20298 7.55114 5.09896 6.67296C4.94576 7.72434 4.41908 8.6854 3.61532 9.38006C2.81161 10.0748 1.78458 10.4566 0.722359 10.4557H0V11.9008H0.722359C1.56354 11.9 2.39484 11.7195 3.16062 11.3713C3.9264 11.0231 4.60898 10.5153 5.16271 9.8819V18H6.60746V9.8819C7.15612 10.5158 7.83475 11.0242 8.59726 11.3726C9.35977 11.721 10.1883 11.9011 11.0265 11.9008H11.7489V10.4557H11.0265Z" fill="white"/>
</svg>
