<svg width="97" height="28" viewBox="0 0 97 28" fill="none" xmlns="http://www.w3.org/2000/svg">
<path d="M35.1171 13.2457C35.9988 14.2829 36.1929 14.495 36.7012 14.9903H32.8165C32.6076 14.6128 32.1745 13.9882 31.786 13.4932L29.4703 10.5699L27.9617 11.7604V13.2457C27.9617 13.9764 27.9912 14.3653 28.0809 14.9903H24.9143C25.0033 14.389 25.0335 13.9527 25.0335 13.2457V6.92735C25.0335 6.20849 25.0033 5.74863 24.9143 5.18274H28.0809C27.9912 5.79557 27.9617 6.18486 27.9617 6.92735V9.01367L30.9345 6.50293C31.5168 6.01976 31.9052 5.61865 32.2343 5.18274H36.2678C35.9991 5.39511 35.8944 5.48932 35.6855 5.65442C34.9086 6.26725 34.9086 6.26725 34.6393 6.47962L31.5171 9.06093L35.1171 13.2457Z" fill="white"/>
<path d="M45.9324 14.9902C45.8126 14.4243 45.7236 14.1178 45.5742 13.717L45.1706 12.7152H40.9131L40.5095 13.717C40.3151 14.1887 40.2107 14.554 40.1362 14.9902H36.6399C36.8639 14.6367 36.9988 14.3534 37.3571 13.5522L40.5841 6.45623C40.8527 5.87853 40.9877 5.52501 41.0622 5.18298H44.9614C45.0655 5.52501 45.1703 5.83126 45.4691 6.45623L48.7112 13.5522C48.9949 14.1768 49.234 14.66 49.4277 14.9902H45.9324ZM43.0193 7.1984L41.63 10.7346H44.4383L43.0193 7.1984Z" fill="white"/>
<path d="M52.3709 14.9903C51.3398 14.9903 50.7274 15.0021 50.1599 15.0254C50.2489 14.6128 50.2791 14.0942 50.2791 13.3045V7.08064C50.2791 6.25544 50.2489 5.74863 50.1599 5.18274H53.4165C53.3117 5.79557 53.2973 6.12578 53.2973 7.04519V12.8919H56.9121C58.1823 12.8919 58.69 12.88 59.3924 12.8095V15.0724C58.8394 15.0136 58.1077 14.99 56.9121 14.99H52.3709V14.9903Z" fill="white"/>
<path d="M62.3199 14.9903C61.2888 14.9903 60.6763 15.0021 60.1089 15.0254C60.1979 14.6128 60.2281 14.0942 60.2281 13.3045V7.08064C60.2281 6.25544 60.1979 5.74863 60.1089 5.18274H63.3654C63.2607 5.79557 63.2462 6.12578 63.2462 7.04519V12.8919H66.8611C68.1312 12.8919 68.6389 12.88 69.3413 12.8095V15.0724C68.7883 15.0136 68.0567 14.99 66.8611 14.99H62.3199V14.9903Z" fill="white"/>
<path d="M70.0579 14.9903C70.1469 14.4717 70.1771 13.9412 70.1771 13.2457V6.86856C70.1771 6.2321 70.1469 5.70166 70.0579 5.14758C70.7596 5.17121 71.2972 5.18271 72.2538 5.18271H75.5254C78.4832 5.18271 80.1116 6.30267 80.1116 8.35354C80.1116 10.4517 78.4083 11.7013 75.5103 11.7013H73.1499V13.2102C73.1499 13.9058 73.1952 14.4832 73.2698 14.9903H70.0579ZM75.376 9.69769C76.4216 9.69769 77.034 9.23782 77.034 8.42476C77.034 7.61137 76.4518 7.18695 75.376 7.18695H73.1499V9.69769H75.376Z" fill="white"/>
<path d="M88.7313 14.9902C88.6114 14.4243 88.5224 14.1178 88.373 13.717L87.9694 12.7152H83.7119L83.3084 13.717C83.114 14.1887 83.0095 14.554 82.935 14.9902H79.4387C79.6627 14.6367 79.7976 14.3534 80.1559 13.5522L83.3829 6.45623C83.6515 5.87853 83.7865 5.52501 83.861 5.18298H87.7602C87.8643 5.52501 87.9691 5.83126 88.2679 6.45623L91.51 13.5522C91.7937 14.1768 92.0328 14.66 92.2266 14.9902H88.7313ZM85.8182 7.1984L84.4288 10.7346H87.2371L85.8182 7.1984Z" fill="white"/>
<path d="M25.2122 18.1698L25.2649 18.1963C25.2649 18.2282 25.2723 18.2563 25.2861 18.2809C25.3112 18.3234 25.3597 18.3649 25.4323 18.4054C25.5053 18.446 25.5885 18.4818 25.6826 18.5137C25.7761 18.5456 25.8748 18.5712 25.9776 18.5903C26.0804 18.6098 26.1726 18.6194 26.2543 18.6194C26.3147 18.6194 26.3924 18.6149 26.4879 18.6063C26.5839 18.5977 26.6781 18.5788 26.7703 18.5507C26.8619 18.5223 26.9422 18.4837 27.0094 18.4345C27.0765 18.3853 27.1102 18.3202 27.1102 18.2391C27.1102 18.1579 27.0788 18.0982 27.0174 18.0589C26.9554 18.0203 26.8738 17.9922 26.7725 17.9743C26.6716 17.9568 26.556 17.9453 26.4268 17.9401C26.2976 17.9347 26.1652 17.9271 26.0309 17.9165C25.896 17.906 25.7636 17.8884 25.6344 17.8635C25.5053 17.8389 25.3896 17.7974 25.2887 17.7393C25.1875 17.6812 25.1062 17.6016 25.0445 17.5014C24.9825 17.4011 24.951 17.2695 24.951 17.1079C24.951 16.9984 24.9767 16.8911 25.0281 16.7854C25.0795 16.6797 25.1586 16.5861 25.2646 16.505C25.3713 16.4242 25.5056 16.3581 25.6688 16.307C25.832 16.2559 26.0235 16.2303 26.2437 16.2303C26.4313 16.2303 26.5945 16.2444 26.7324 16.2728C26.8712 16.3009 26.9904 16.3309 27.0913 16.3626C27.1922 16.3942 27.2777 16.4242 27.3467 16.4523C27.4158 16.4804 27.4737 16.4944 27.5199 16.4944C27.5694 16.4944 27.6048 16.4842 27.626 16.4628L27.6899 16.505L27.3226 17.1657L27.2693 17.1446C27.2622 17.0955 27.2481 17.0549 27.2266 17.023C27.1983 16.9808 27.1514 16.9393 27.0861 16.8987C27.0203 16.8582 26.9432 16.8221 26.8545 16.7905C26.7661 16.7586 26.67 16.733 26.5675 16.7138C26.4647 16.6944 26.3616 16.6848 26.2588 16.6848C26.181 16.6848 26.1 16.6908 26.0165 16.7033C25.9336 16.7158 25.8584 16.7343 25.7906 16.7589C25.7234 16.7835 25.6675 16.8164 25.6232 16.8566C25.5792 16.8975 25.5567 16.9476 25.5567 17.0076C25.5567 17.0923 25.5882 17.1555 25.6502 17.198C25.7122 17.2401 25.7938 17.2717 25.895 17.2931C25.9959 17.3142 26.1109 17.3283 26.2401 17.3353C26.3699 17.3426 26.5017 17.3513 26.6366 17.3618C26.7709 17.3723 26.9033 17.3909 27.0328 17.4174C27.162 17.4439 27.2777 17.486 27.3785 17.5442C27.4794 17.6023 27.5611 17.6808 27.6234 17.7792C27.6854 17.8779 27.7163 18.0066 27.7163 18.165C27.7163 18.3483 27.6674 18.4981 27.5701 18.6143C27.4727 18.7305 27.3509 18.8222 27.206 18.8889C27.0604 18.956 26.9036 19.0007 26.7353 19.024C26.5666 19.0467 26.4094 19.0582 26.2645 19.0582C26.0624 19.0582 25.8931 19.0467 25.7562 19.024C25.62 19.001 25.5065 18.9729 25.4159 18.9391C25.3256 18.9059 25.2533 18.8758 25.2007 18.8493C25.1473 18.8231 25.1007 18.8097 25.0618 18.8097C25.0374 18.8097 25.0143 18.8241 24.9928 18.8522L24.9182 18.8097L25.2122 18.1698Z" fill="white"/>
<path d="M35.0029 17.2078C35.0029 17.1408 34.9482 17.1076 34.8383 17.1076H33.5405V17.6358H34.3596C34.42 17.6358 34.4643 17.6313 34.4926 17.6227C34.5209 17.6141 34.5353 17.5901 34.5353 17.5511H34.6308V18.1116H34.5247C34.5353 18.073 34.5209 18.049 34.482 18.0401C34.4431 18.0314 34.3879 18.027 34.3168 18.027H33.5405V18.6507H34.9016C34.9444 18.6507 34.98 18.6411 35.0083 18.6216C35.0366 18.6021 35.0511 18.5763 35.0511 18.545H35.1465V19.0997H35.0511C35.0511 19.0681 35.0366 19.0505 35.0083 19.047C34.98 19.0435 34.9444 19.0416 34.9016 19.0416H32.95V18.9464C32.9676 18.9464 32.9856 18.94 33.0033 18.9279C33.021 18.9154 33.0296 18.895 33.0296 18.8669V16.8901C33.0296 16.8617 33.021 16.8415 33.0033 16.8294C32.9856 16.817 32.9676 16.8106 32.95 16.8106V16.7154H34.8383C34.9482 16.7154 35.0029 16.6838 35.0029 16.6202H35.0989V17.2072H35.0029V17.2078Z" fill="white"/>
<path d="M42.1726 17.3822C42.1726 17.3752 42.1713 17.3682 42.17 17.3612C42.1681 17.3541 42.1668 17.3452 42.1668 17.3346C42.1668 17.3171 42.1491 17.2934 42.1141 17.2634C42.0784 17.2334 42.0283 17.204 41.9621 17.1762C41.8969 17.1481 41.8198 17.1242 41.7304 17.1047C41.6421 17.0856 41.5447 17.0757 41.438 17.0757C41.3105 17.0757 41.1945 17.0926 41.0897 17.1258C40.9856 17.159 40.894 17.2095 40.816 17.2765C40.7376 17.3436 40.6772 17.4263 40.6354 17.525C40.5926 17.6237 40.5714 17.7364 40.5714 17.8632C40.5714 17.99 40.5952 18.104 40.6431 18.2042C40.6913 18.3045 40.7543 18.3911 40.832 18.4632C40.9098 18.5357 40.9991 18.59 41.0981 18.6271C41.1974 18.6641 41.2983 18.6826 41.4011 18.6826C41.4972 18.6826 41.5945 18.6705 41.6935 18.6459C41.7925 18.6213 41.8831 18.5922 41.9647 18.5587C42.0463 18.5252 42.1128 18.4891 42.1642 18.4505C42.2156 18.4115 42.2413 18.3764 42.2413 18.3447V18.302C42.2413 18.2809 42.2394 18.2633 42.2362 18.2493L42.2947 18.1963L42.6883 18.7567L42.6349 18.7829C42.5922 18.7653 42.562 18.7567 42.5447 18.7567C42.5164 18.7567 42.4701 18.7727 42.4065 18.804C42.3425 18.8359 42.2616 18.872 42.1642 18.9126C42.0669 18.9531 41.9534 18.9873 41.8239 19.0154C41.6941 19.0438 41.5495 19.0579 41.3902 19.0579C41.2269 19.0579 41.0656 19.0349 40.9063 18.9892C40.7469 18.9432 40.6049 18.8701 40.4808 18.7695C40.3565 18.6692 40.2556 18.544 40.1778 18.3942C40.1001 18.2445 40.0605 18.0707 40.0605 17.8734C40.0605 17.6763 40.1001 17.5036 40.1778 17.3554C40.2556 17.2075 40.3584 17.083 40.486 16.9827C40.6139 16.8824 40.7604 16.8074 40.9252 16.7582C41.0897 16.709 41.2591 16.6844 41.4329 16.6844C41.5678 16.6844 41.6909 16.6966 41.8024 16.7212C41.9142 16.7458 42.0126 16.7742 42.0974 16.8058C42.1829 16.8377 42.2535 16.8658 42.3101 16.8907C42.3673 16.9153 42.4081 16.9275 42.4325 16.9275C42.4502 16.9275 42.4653 16.922 42.4778 16.9115C42.4904 16.9013 42.5035 16.892 42.518 16.8853L42.5813 16.922L42.2304 17.4244L42.1726 17.3822Z" fill="white"/>
<path d="M48.4219 16.8116C48.3435 16.8116 48.3046 16.8381 48.3046 16.8911V18.1049C48.3046 18.2745 48.3666 18.4105 48.4909 18.513C48.6153 18.6152 48.8049 18.6667 49.06 18.6667C49.3148 18.6667 49.505 18.6152 49.6287 18.513C49.7531 18.4105 49.8151 18.2745 49.8151 18.1049V16.8911C49.8151 16.8381 49.7704 16.8116 49.6821 16.8116V16.7161H50.4214V16.8112C50.3437 16.8112 50.3048 16.8377 50.3048 16.8907V18.2282C50.3048 18.3374 50.2797 18.4422 50.2302 18.5424C50.1808 18.6427 50.1052 18.7321 50.0044 18.8094C49.9035 18.887 49.774 18.948 49.6159 18.9918C49.4584 19.0358 49.2734 19.0579 49.0603 19.0579C48.8476 19.0579 48.6619 19.0358 48.5044 18.9918C48.347 18.9477 48.2169 18.887 48.116 18.8094C48.0151 18.7321 47.9396 18.643 47.8901 18.5424C47.8406 18.4422 47.8162 18.3371 47.8162 18.2282V16.8907C47.8162 16.8623 47.8056 16.8422 47.784 16.8301C47.7628 16.8176 47.722 16.8112 47.6616 16.8112V16.7161H48.4222V16.8116H48.4219Z" fill="white"/>
<path d="M57.8566 16.8719C58.0337 16.976 58.122 17.1533 58.122 17.4033C58.122 17.4985 58.1044 17.5828 58.0693 17.6569C58.0337 17.731 57.9864 17.7955 57.9283 17.8498C57.8698 17.9044 57.8052 17.9484 57.7342 17.982C57.6632 18.0152 57.5906 18.041 57.5157 18.0583L58.0372 18.8142C58.0655 18.8532 58.0963 18.8822 58.1301 18.9014C58.1638 18.9209 58.2004 18.9359 58.2393 18.9464V19.0416H57.4254V18.9464C57.472 18.9464 57.4945 18.9304 57.4945 18.8988C57.4945 18.864 57.4682 18.8091 57.4148 18.735L56.9949 18.1113H56.2555V18.8672C56.2555 18.8953 56.2667 18.9154 56.2899 18.9282C56.313 18.9403 56.3352 18.9467 56.3564 18.9467V19.0419H55.6492V18.9467C55.7125 18.9467 55.7446 18.9202 55.7446 18.8675V16.8907C55.7446 16.8377 55.7125 16.8112 55.6492 16.8112V16.7161H57.117C57.4331 16.7161 57.6793 16.7681 57.8566 16.8719ZM57.1067 17.7207C57.4537 17.7207 57.6275 17.6115 57.6275 17.3931C57.6275 17.3053 57.5861 17.2353 57.5025 17.1842C57.419 17.1335 57.2873 17.1079 57.1067 17.1079H56.2664V17.7211H57.1067V17.7207Z" fill="white"/>
<path d="M63.3826 18.9468C63.4391 18.9468 63.4786 18.9404 63.4992 18.9283C63.5204 18.9158 63.5313 18.8954 63.5313 18.8673V16.8905C63.5313 16.8621 63.5207 16.842 63.4992 16.8298C63.4786 16.8174 63.4388 16.811 63.3826 16.811V16.7158H64.191V16.811C64.0917 16.811 64.0422 16.8375 64.0422 16.8905V18.8673C64.0422 18.92 64.0917 18.9465 64.191 18.9465V19.0416H63.3826V18.9468Z" fill="white"/>
<path d="M70.1422 18.9285C70.1599 18.9161 70.1686 18.8956 70.1686 18.8675V17.1076H69.4771C69.4488 17.1076 69.4225 17.1143 69.3974 17.1283C69.373 17.1427 69.3605 17.1654 69.3605 17.1973H69.2644V16.5896H69.3605C69.3605 16.6388 69.373 16.6723 69.3974 16.6902C69.4225 16.7078 69.4488 16.7164 69.4771 16.7164H71.3706C71.3996 16.7164 71.4259 16.7078 71.451 16.6902C71.4754 16.6723 71.4879 16.6391 71.4879 16.5896H71.5834V17.1973H71.4879C71.4879 17.1654 71.4754 17.1427 71.451 17.1283C71.4259 17.1143 71.3996 17.1076 71.3706 17.1076H70.6798V18.8678C70.6798 18.9205 70.7119 18.947 70.7752 18.947V19.0422H70.0892V18.947C70.1063 18.9467 70.1239 18.9407 70.1422 18.9285Z" fill="white"/>
<path d="M76.6519 18.9468C76.7084 18.9468 76.7479 18.9404 76.7685 18.9283C76.7897 18.9158 76.8006 18.8954 76.8006 18.8673V16.8905C76.8006 16.8621 76.79 16.842 76.7685 16.8298C76.7479 16.8174 76.7081 16.811 76.6519 16.811V16.7158H77.4603V16.811C77.361 16.811 77.3115 16.8375 77.3115 16.8905V18.8673C77.3115 18.92 77.361 18.9465 77.4603 18.9465V19.0416H76.6519V18.9468Z" fill="white"/>
<path d="M84.853 17.2078C84.853 17.1408 84.7977 17.1076 84.6878 17.1076H83.39V17.6358H84.209C84.2694 17.6358 84.3138 17.6313 84.3421 17.6227C84.3703 17.6141 84.3848 17.5901 84.3848 17.5511H84.4809V18.1116H84.3742C84.3848 18.073 84.3703 18.049 84.3315 18.0401C84.2926 18.0314 84.238 18.027 84.1669 18.027H83.39V18.6507H84.7517C84.7945 18.6507 84.8295 18.6411 84.8578 18.6216C84.8867 18.6021 84.9005 18.5763 84.9005 18.545H84.9966V19.0997H84.9005C84.9005 19.0681 84.8867 19.0505 84.8578 19.047C84.8295 19.0435 84.7945 19.0416 84.7517 19.0416H82.8V18.9464C82.8177 18.9464 82.8351 18.94 82.8527 18.9279C82.8711 18.9154 82.8797 18.895 82.8797 18.8669V16.8901C82.8797 16.8617 82.8711 16.8415 82.8527 16.8294C82.8351 16.817 82.8177 16.8106 82.8 16.8106V16.7154H84.6878C84.7977 16.7154 84.853 16.6838 84.853 16.6202H84.9484V17.2072H84.853V17.2078Z" fill="white"/>
<path d="M90.3307 18.2334C90.3307 18.2474 90.3301 18.2624 90.3281 18.2784C90.3262 18.2944 90.3256 18.311 90.3256 18.3285C90.3256 18.3812 90.3596 18.4298 90.4268 18.4738C90.4939 18.5179 90.5749 18.555 90.669 18.585C90.7625 18.615 90.8567 18.6386 90.9508 18.6565C91.0444 18.6741 91.1182 18.6827 91.1713 18.6827C91.2207 18.6827 91.2824 18.6792 91.3551 18.6725C91.428 18.6655 91.4993 18.6504 91.5703 18.6271C91.6414 18.6045 91.7014 18.5725 91.7509 18.532C91.8004 18.4917 91.8255 18.4378 91.8255 18.3707C91.8255 18.2934 91.7821 18.2369 91.695 18.2018C91.6083 18.1666 91.4993 18.1395 91.3679 18.1197C91.2368 18.1002 91.0948 18.081 90.9425 18.0616C90.7899 18.0421 90.6482 18.0105 90.5171 17.9664C90.386 17.9223 90.2767 17.8588 90.19 17.7761C90.1029 17.693 90.0595 17.5758 90.0595 17.4245C90.0595 17.199 90.1537 17.0189 90.3413 16.8851C90.5296 16.7509 90.7937 16.6842 91.134 16.6842C91.3011 16.6842 91.4434 16.6973 91.562 16.7238C91.6812 16.75 91.7811 16.7794 91.8624 16.8107C91.944 16.8426 92.0105 16.8713 92.062 16.8978C92.1134 16.9244 92.1516 16.9374 92.176 16.9374C92.2043 16.9374 92.2255 16.933 92.24 16.9244C92.2538 16.9157 92.2721 16.9055 92.2933 16.8953L92.3518 16.9534L92.0857 17.4503L91.9903 17.4187C91.9865 17.3976 91.9829 17.3762 91.9797 17.3552C91.9759 17.3338 91.9595 17.313 91.9315 17.2919C91.8605 17.2319 91.7509 17.1808 91.6022 17.1383C91.4534 17.0962 91.2866 17.0751 91.1019 17.0751C91.0308 17.0751 90.9637 17.0796 90.8997 17.0882C90.8364 17.0971 90.7793 17.1121 90.7298 17.1332C90.6803 17.1543 90.6414 17.1818 90.6131 17.2153C90.5842 17.2488 90.5704 17.29 90.5704 17.3395C90.5704 17.4171 90.6138 17.4727 90.7002 17.5062C90.7876 17.5397 90.8965 17.5663 91.028 17.5854C91.1591 17.6052 91.3011 17.6244 91.4534 17.6439C91.6054 17.6633 91.7471 17.6959 91.8788 17.7416C92.0099 17.7872 92.1185 17.8546 92.2059 17.9428C92.2927 18.0306 92.3357 18.1523 92.3357 18.3075C92.3357 18.4623 92.2981 18.5894 92.2217 18.6878C92.1458 18.7868 92.051 18.8644 91.9373 18.9206C91.8235 18.9771 91.6989 19.0142 91.562 19.0317C91.4257 19.0496 91.2972 19.0583 91.1767 19.0583C91.0562 19.0583 90.9364 19.0468 90.8178 19.0241C90.6993 19.0011 90.5906 18.9749 90.4933 18.9446C90.3953 18.9149 90.313 18.8864 90.2459 18.8599C90.1781 18.8338 90.1373 18.8203 90.1234 18.8203C90.0984 18.8203 90.0769 18.8309 90.0595 18.8523L89.9856 18.7993L90.2298 18.2075L90.3307 18.2334Z" fill="white"/>
<path d="M25.3514 22.7662L25.389 22.785C25.389 22.8074 25.3941 22.8275 25.4041 22.8451C25.4217 22.8751 25.4561 22.9045 25.5075 22.9329C25.5589 22.9616 25.6181 22.9872 25.6846 23.0095C25.7511 23.0319 25.8208 23.0501 25.8934 23.0638C25.9664 23.0776 26.0316 23.0843 26.0891 23.0843C26.1319 23.0843 26.1871 23.0811 26.2549 23.075C26.3227 23.0689 26.3892 23.0559 26.4545 23.0357C26.5197 23.0159 26.5762 22.9885 26.6238 22.9533C26.6717 22.9185 26.6954 22.8722 26.6954 22.8147C26.6954 22.7573 26.6736 22.7151 26.6296 22.6876C26.5856 22.6605 26.528 22.6407 26.4564 22.6279C26.3847 22.6155 26.3031 22.6075 26.2115 22.6036C26.12 22.5998 26.0265 22.5944 25.931 22.5867C25.8356 22.5794 25.7421 22.5669 25.6505 22.5494C25.5589 22.5318 25.4773 22.5024 25.4057 22.4615C25.334 22.4203 25.2765 22.3641 25.2325 22.2932C25.1885 22.222 25.1666 22.1291 25.1666 22.0144C25.1666 21.9372 25.1849 21.8612 25.2212 21.7861C25.2575 21.7114 25.3135 21.6453 25.3886 21.5878C25.4638 21.5303 25.5593 21.4837 25.6749 21.4476C25.7903 21.4115 25.9259 21.3933 26.0817 21.3933C26.2148 21.3933 26.3301 21.4032 26.4281 21.4233C26.5261 21.4431 26.6106 21.4645 26.6823 21.4869C26.7539 21.5092 26.814 21.5306 26.8629 21.5504C26.9117 21.5702 26.9525 21.5804 26.9853 21.5804C27.0203 21.5804 27.0457 21.5731 27.0605 21.5581L27.1058 21.5881L26.8458 22.056L26.8082 22.041C26.8031 22.0061 26.7931 21.9774 26.778 21.9547C26.7578 21.9247 26.7247 21.8956 26.6781 21.8669C26.6315 21.8382 26.5772 21.8126 26.5142 21.7903C26.4516 21.7679 26.3838 21.7497 26.3108 21.736C26.2379 21.7222 26.1653 21.7152 26.0923 21.7152C26.0371 21.7152 25.9799 21.7197 25.9211 21.7283C25.8619 21.7369 25.8086 21.75 25.7611 21.7676C25.7135 21.7852 25.674 21.8081 25.6425 21.8369C25.611 21.8656 25.5956 21.9011 25.5956 21.9436C25.5956 22.0036 25.6174 22.0483 25.6614 22.0783C25.7055 22.1083 25.763 22.1307 25.8346 22.1457C25.9063 22.1607 25.9879 22.1706 26.0795 22.1757C26.1711 22.1808 26.2646 22.1869 26.36 22.1946C26.4554 22.2022 26.5489 22.2153 26.6405 22.2338C26.7321 22.2527 26.8137 22.2824 26.8853 22.3236C26.957 22.3648 27.0145 22.4203 27.0585 22.49C27.1019 22.5599 27.1244 22.6506 27.1244 22.763C27.1244 22.8927 27.0894 22.9987 27.0209 23.0811C26.9519 23.1635 26.8661 23.2283 26.7629 23.2756C26.6601 23.3228 26.5489 23.3548 26.4297 23.371C26.3105 23.3873 26.1993 23.3953 26.0965 23.3953C25.9535 23.3953 25.8337 23.3873 25.737 23.371C25.6402 23.3548 25.5599 23.335 25.496 23.311C25.432 23.2874 25.3809 23.266 25.3433 23.2475C25.3057 23.2286 25.273 23.2194 25.2453 23.2194C25.2277 23.2194 25.2116 23.2293 25.1965 23.2494L25.1438 23.2194L25.3514 22.7662Z" fill="white"/>
<path d="M29.6831 21.7672C29.8048 21.802 29.9109 21.8544 30.0012 21.9243C30.0915 21.9943 30.1631 22.0821 30.2158 22.1881C30.2685 22.2941 30.2949 22.4184 30.2949 22.5605C30.2949 22.7023 30.2685 22.8265 30.2158 22.9325C30.1631 23.0385 30.0915 23.1264 30.0012 23.1963C29.9109 23.2662 29.8048 23.3167 29.6831 23.348C29.5613 23.3793 29.4315 23.3946 29.2933 23.3946C29.1551 23.3946 29.0253 23.379 28.9035 23.348C28.7818 23.3167 28.6757 23.2662 28.5854 23.1963C28.4951 23.1264 28.4235 23.0385 28.3708 22.9325C28.3181 22.8265 28.2917 22.7023 28.2917 22.5605C28.2917 22.4184 28.3181 22.2941 28.3708 22.1881C28.4235 22.0821 28.4951 21.994 28.5854 21.9243C28.6757 21.8544 28.7818 21.802 28.9035 21.7672C29.0253 21.7324 29.1551 21.7148 29.2933 21.7148C29.4311 21.7148 29.5613 21.7324 29.6831 21.7672ZM29.0578 22.0313C28.9813 22.0575 28.9129 22.0949 28.8524 22.1434C28.792 22.192 28.7438 22.2514 28.7075 22.3213C28.6712 22.3912 28.6529 22.4711 28.6529 22.5608C28.6529 22.6502 28.6712 22.7304 28.7075 22.8C28.7438 22.8699 28.7924 22.929 28.8524 22.9779C28.9129 23.0264 28.981 23.0641 29.0578 23.0903C29.1342 23.1165 29.2126 23.1296 29.293 23.1296C29.3733 23.1296 29.4517 23.1165 29.5282 23.0903C29.6047 23.0641 29.6731 23.0267 29.7335 22.9779C29.7939 22.9293 29.8421 22.8699 29.8784 22.8C29.9147 22.7304 29.933 22.6502 29.933 22.5608C29.933 22.4711 29.9147 22.3912 29.8784 22.3213C29.8421 22.2514 29.7936 22.1923 29.7335 22.1434C29.6731 22.0949 29.605 22.0575 29.5282 22.0313C29.4517 22.0051 29.3733 21.992 29.293 21.992C29.2126 21.992 29.1346 22.0051 29.0578 22.0313Z" fill="white"/>
<path d="M32.8134 22.2089C32.8134 22.2038 32.8127 22.199 32.8114 22.1939C32.8101 22.1888 32.8095 22.1828 32.8095 22.1751C32.8095 22.1626 32.797 22.1457 32.7719 22.1246C32.7468 22.1036 32.7112 22.0828 32.6646 22.063C32.618 22.0432 32.5637 22.0263 32.5007 22.0125C32.4377 21.9988 32.369 21.9921 32.2935 21.9921C32.2032 21.9921 32.1209 22.0039 32.0467 22.0276C31.9728 22.0512 31.9079 22.0866 31.8529 22.1342C31.7977 22.1818 31.7549 22.2402 31.7247 22.3102C31.6945 22.3801 31.6794 22.46 31.6794 22.5497C31.6794 22.6391 31.6965 22.7196 31.7302 22.7908C31.7639 22.862 31.8086 22.923 31.8639 22.9741C31.9191 23.0252 31.9818 23.0638 32.0522 23.09C32.1225 23.1162 32.1939 23.1293 32.2668 23.1293C32.3346 23.1293 32.4037 23.1207 32.4737 23.1031C32.5441 23.0856 32.608 23.0651 32.6659 23.0415C32.7237 23.0179 32.7706 22.9923 32.8069 22.9648C32.8432 22.9374 32.8616 22.9125 32.8616 22.8901V22.8601C32.8616 22.8451 32.8603 22.8326 32.8577 22.8227L32.8992 22.7854L33.1777 23.182L33.1401 23.2008C33.1099 23.1884 33.0887 23.182 33.0762 23.182C33.0563 23.182 33.0235 23.1932 32.9782 23.2159C32.9329 23.2382 32.876 23.2638 32.8069 23.2925C32.7379 23.3212 32.6575 23.3455 32.5659 23.3656C32.4744 23.3854 32.3719 23.3957 32.2591 23.3957C32.1437 23.3957 32.0293 23.3794 31.9166 23.3471C31.8035 23.3145 31.7032 23.2628 31.6152 23.1919C31.5274 23.1207 31.4558 23.0322 31.4005 22.9262C31.3453 22.8202 31.3176 22.6976 31.3176 22.558C31.3176 22.4184 31.3453 22.2961 31.4005 22.1914C31.4558 22.0866 31.5284 21.9985 31.619 21.9276C31.7093 21.8564 31.8131 21.8034 31.9297 21.7686C32.0464 21.7338 32.1662 21.7162 32.2893 21.7162C32.3847 21.7162 32.4718 21.7248 32.5508 21.7424C32.6299 21.7599 32.6996 21.7797 32.7597 21.8024C32.8201 21.8248 32.8702 21.8449 32.9104 21.8624C32.9506 21.88 32.9795 21.8886 32.9972 21.8886C33.0097 21.8886 33.0203 21.8848 33.0293 21.8775C33.038 21.8701 33.0476 21.8637 33.0576 21.8586L33.1029 21.8848L32.8545 22.2402L32.8134 22.2089Z" fill="white"/>
<path d="M34.3831 23.3164C34.4232 23.3164 34.4509 23.3119 34.466 23.3033C34.4811 23.2947 34.4884 23.2803 34.4884 23.2602V21.8608C34.4884 21.841 34.4811 21.8266 34.466 21.8177C34.4509 21.809 34.4232 21.8046 34.3831 21.8046V21.7372H34.9553V21.8046C34.885 21.8046 34.8499 21.8234 34.8499 21.8608V23.2602C34.8499 23.2975 34.885 23.3164 34.9553 23.3164V23.3838H34.3831V23.3164Z" fill="white"/>
<path d="M37.8124 22.0856C37.8124 22.0384 37.7735 22.0144 37.6957 22.0144H36.7771V22.3887H37.3571C37.3998 22.3887 37.431 22.3855 37.4512 22.3794C37.4711 22.3731 37.4814 22.3564 37.4814 22.329H37.5492V22.7253H37.474C37.4814 22.6982 37.4715 22.6812 37.4438 22.6748C37.4162 22.6688 37.3773 22.6656 37.3272 22.6656H36.7774V23.1072H37.7414C37.7716 23.1072 37.7966 23.1005 37.8166 23.0868C37.8368 23.0731 37.8468 23.0549 37.8468 23.0325H37.9146V23.4253H37.8468C37.8468 23.403 37.8368 23.3905 37.8166 23.388C37.7966 23.3854 37.7712 23.3841 37.7414 23.3841H36.3594V23.3167C36.3719 23.3167 36.3844 23.3123 36.397 23.3036C36.4095 23.295 36.4159 23.2806 36.4159 23.2605V21.8611C36.4159 21.8413 36.4095 21.827 36.397 21.818C36.3844 21.8094 36.3719 21.8049 36.3594 21.8049V21.7375H37.6961C37.7738 21.7375 37.8127 21.7152 37.8127 21.6702H37.8805V22.0856H37.8124Z" fill="white"/>
<path d="M39.1487 23.3164C39.2065 23.3164 39.2354 23.2975 39.2354 23.2602V21.8608C39.2354 21.8234 39.2065 21.8046 39.1487 21.8046V21.7372H40.1955C40.3437 21.7372 40.4703 21.7608 40.576 21.8084C40.6814 21.8557 40.7675 21.9176 40.834 21.9936C40.9005 22.0696 40.9493 22.1571 40.9808 22.2555C41.0123 22.3542 41.0278 22.4557 41.0278 22.5605C41.0278 22.6649 41.0126 22.7668 40.9824 22.8651C40.9522 22.9638 40.9047 23.051 40.8395 23.127C40.7742 23.203 40.69 23.265 40.5872 23.3122C40.4844 23.3595 40.3588 23.3834 40.2106 23.3834H39.1487V23.3164ZM40.0863 23.1069C40.164 23.1069 40.2383 23.1011 40.3083 23.09C40.3787 23.0788 40.4401 23.0539 40.4928 23.0152C40.5455 22.9766 40.5875 22.9204 40.619 22.8469C40.6505 22.7738 40.6659 22.6745 40.6659 22.5496C40.6659 22.4247 40.6502 22.327 40.619 22.2558C40.5875 22.1846 40.5455 22.1309 40.4928 22.0949C40.4401 22.0588 40.3787 22.0361 40.3083 22.0275C40.2379 22.0188 40.164 22.0144 40.0863 22.0144H39.5969V23.1069H40.0863Z" fill="white"/>
<path d="M42.0059 23.3164C42.0361 23.3113 42.0605 23.2969 42.0794 23.2733C42.0984 23.2496 42.1129 23.2276 42.1228 23.2078L42.6838 21.9917C42.6989 21.9569 42.7108 21.9288 42.7195 21.9074C42.7282 21.8863 42.7327 21.8656 42.7327 21.8458C42.7327 21.8308 42.7295 21.8215 42.7234 21.8177C42.7169 21.8138 42.7102 21.8097 42.7028 21.8046V21.7372H43.2715V21.8046C43.2641 21.8097 43.2558 21.8132 43.2471 21.8157C43.2384 21.8183 43.2339 21.8282 43.2339 21.8458C43.2339 21.8608 43.2397 21.879 43.251 21.9001C43.2622 21.9211 43.2741 21.9457 43.2866 21.9732L43.8965 23.2452C43.909 23.2675 43.9228 23.2838 43.9379 23.2937C43.953 23.3036 43.9694 23.3113 43.9868 23.3161V23.3834H43.4521V23.3272C43.4646 23.3272 43.4778 23.3234 43.4916 23.3161C43.5054 23.3087 43.5122 23.295 43.5122 23.2749C43.5122 23.2598 43.5096 23.2461 43.5048 23.2337C43.4997 23.2212 43.4936 23.2049 43.4858 23.1851L43.3843 22.9718H42.5784L42.4731 23.1739C42.4631 23.1937 42.4547 23.2119 42.4486 23.2282C42.4422 23.2445 42.4393 23.2589 42.4393 23.2713C42.4393 23.2911 42.4457 23.3036 42.4583 23.3087C42.4708 23.3138 42.4885 23.3161 42.511 23.3161V23.3834H42.0065V23.3164H42.0059ZM43.2635 22.6952L42.9586 22.0668L42.6912 22.6952H43.2635Z" fill="white"/>
<path d="M45.0479 23.3164C45.1057 23.3164 45.1343 23.2975 45.1343 23.2602V21.8608C45.1343 21.8234 45.1054 21.8046 45.0479 21.8046V21.7372H46.0947C46.2428 21.7372 46.3694 21.7608 46.4752 21.8084C46.5809 21.856 46.6667 21.9176 46.7332 21.9936C46.7997 22.0696 46.8485 22.1571 46.88 22.2555C46.9115 22.3542 46.9269 22.4557 46.9269 22.5605C46.9269 22.6649 46.9118 22.7668 46.8816 22.8651C46.8514 22.9638 46.8039 23.051 46.7386 23.127C46.6734 23.203 46.5892 23.265 46.4864 23.3122C46.3836 23.3595 46.2579 23.3834 46.1098 23.3834H45.0479V23.3164ZM45.9855 23.1069C46.0632 23.1069 46.1374 23.1011 46.2075 23.09C46.2779 23.0788 46.3392 23.0539 46.3919 23.0152C46.4446 22.9766 46.4867 22.9204 46.5182 22.8469C46.5497 22.7738 46.5651 22.6745 46.5651 22.5496C46.5651 22.4247 46.5494 22.327 46.5182 22.2558C46.4867 22.1846 46.4446 22.1309 46.3919 22.0949C46.3392 22.0588 46.2775 22.0361 46.2075 22.0275C46.1371 22.0188 46.0632 22.0144 45.9855 22.0144H45.4958V23.1069H45.9855Z" fill="white"/>
<path d="M49.8293 23.3164C49.8621 23.3113 49.8878 23.2953 49.9065 23.2679C49.9254 23.2404 49.9434 23.2091 49.9611 23.1743L50.6571 21.7187C50.6747 21.6861 50.6905 21.6564 50.704 21.629C50.7178 21.6015 50.7249 21.5779 50.7249 21.5578C50.7249 21.5329 50.7162 21.5153 50.6985 21.5054C50.6808 21.4955 50.6622 21.4878 50.642 21.483V21.4156H51.2782V21.483C51.2605 21.4881 51.2432 21.4948 51.2255 21.5035C51.2078 21.5121 51.1991 21.5303 51.1991 21.5578C51.1991 21.5776 51.2036 21.5977 51.2123 21.6178C51.221 21.6376 51.2342 21.6641 51.2518 21.6964L52.0349 23.2193C52.0474 23.2468 52.0644 23.2666 52.0857 23.2794C52.1069 23.2918 52.1316 23.3043 52.1592 23.3167V23.3841H51.4967V23.3167C51.5066 23.3167 51.5192 23.3129 51.5343 23.3056C51.5494 23.2982 51.5568 23.2867 51.5568 23.272C51.5568 23.2471 51.5468 23.2145 51.5266 23.1746L51.3836 22.8978H50.4656L50.33 23.1635C50.3049 23.2158 50.2924 23.2532 50.2924 23.2759C50.2924 23.3033 50.3161 23.3171 50.364 23.3171V23.3844H49.8293V23.3164ZM51.2483 22.6206L50.9321 21.9244L50.578 22.6206H51.2483Z" fill="white"/>
<path d="M54.7873 22.2802L54.742 22.254C54.7472 22.2291 54.7494 22.2153 54.7494 22.2128C54.7494 22.1904 54.733 22.1662 54.7006 22.1397C54.6681 22.1135 54.6254 22.0892 54.5727 22.0665C54.52 22.0442 54.4602 22.026 54.3937 22.0122C54.3272 21.9985 54.26 21.9918 54.1922 21.9918C54.0994 21.9918 54.0117 22.0023 53.9288 22.0237C53.8459 22.0448 53.7732 22.0787 53.7109 22.1246C53.6482 22.1709 53.5978 22.23 53.5602 22.3025C53.5226 22.375 53.5037 22.4635 53.5037 22.5682C53.5037 22.6726 53.5236 22.7608 53.5641 22.8317C53.6036 22.9029 53.6563 22.9601 53.7202 23.0038C53.7835 23.0476 53.8545 23.0792 53.9323 23.0993C54.0101 23.1191 54.0856 23.1293 54.1582 23.1293C54.2661 23.1293 54.3683 23.122 54.465 23.107C54.5618 23.092 54.6501 23.0632 54.7304 23.0207V22.7851H54.3426C54.315 22.7851 54.2912 22.7908 54.271 22.802C54.251 22.8132 54.2382 22.8339 54.2334 22.8636H54.1656V22.4785H54.2334C54.2385 22.5034 54.251 22.5197 54.271 22.527C54.2912 22.5344 54.315 22.5382 54.3426 22.5382H55.0807V22.6056C55.0582 22.6155 55.0431 22.6267 55.0354 22.6388C55.028 22.6516 55.0241 22.6704 55.0241 22.695V23.0504C55.0241 23.0728 55.0273 23.0884 55.0334 23.0971C55.0399 23.1057 55.0553 23.1153 55.0807 23.1252V23.1702C55.0582 23.1852 55.0222 23.2056 54.9734 23.2318C54.9245 23.258 54.8628 23.2836 54.7889 23.3085C54.715 23.3334 54.6289 23.3538 54.5309 23.3701C54.4329 23.3864 54.3237 23.3944 54.2032 23.3944C54.0399 23.3944 53.8924 23.3762 53.7613 23.3401C53.6296 23.304 53.5178 23.2497 53.4262 23.1772C53.3346 23.1047 53.2643 23.0169 53.2154 22.9134C53.1666 22.8103 53.1418 22.6924 53.1418 22.5602C53.1418 22.428 53.1663 22.3102 53.2154 22.2067C53.2643 22.1032 53.3346 22.0145 53.4262 21.941C53.5178 21.8676 53.6296 21.8114 53.7613 21.7727C53.8924 21.7341 54.0399 21.7146 54.2032 21.7146C54.3012 21.7146 54.3876 21.7232 54.4631 21.7408C54.5383 21.7584 54.6038 21.7769 54.6588 21.797C54.7166 21.8168 54.7629 21.8356 54.7982 21.8532C54.8333 21.8708 54.8596 21.8794 54.8773 21.8794C54.8972 21.8794 54.9123 21.8775 54.9226 21.8736C54.9326 21.8698 54.9451 21.8618 54.9602 21.8494L55.0055 21.8717L54.7873 22.2802Z" fill="white"/>
<path d="M57.8291 22.0856C57.8291 22.0384 57.7902 22.0144 57.7124 22.0144H56.7944V22.3887H57.3738C57.4165 22.3887 57.4477 22.3855 57.4679 22.3794C57.4878 22.3731 57.4981 22.3564 57.4981 22.329H57.5659V22.7253H57.4907C57.4981 22.6982 57.4881 22.6812 57.4605 22.6748C57.4329 22.6688 57.394 22.6656 57.3439 22.6656H56.7947V23.1072H57.7581C57.7883 23.1072 57.8133 23.1005 57.8332 23.0868C57.8535 23.0731 57.8634 23.0549 57.8634 23.0325H57.9312V23.4253H57.8634C57.8634 23.403 57.8535 23.3905 57.8332 23.388C57.8133 23.3854 57.7879 23.3841 57.7581 23.3841H56.3767V23.3167C56.3892 23.3167 56.4018 23.3123 56.4143 23.3036C56.4268 23.295 56.4333 23.2806 56.4333 23.2605V21.8611C56.4333 21.8413 56.4268 21.827 56.4143 21.818C56.4018 21.8094 56.3892 21.8049 56.3767 21.8049V21.7375H57.7128C57.7905 21.7375 57.8294 21.7152 57.8294 21.6702H57.8972V22.0856H57.8291Z" fill="white"/>
<path d="M59.2188 23.3164C59.2641 23.3164 59.2865 23.2975 59.2865 23.2602V21.8608C59.2865 21.8234 59.2641 21.8046 59.2188 21.8046V21.7372H59.7717V21.8046C59.7541 21.8071 59.7454 21.8132 59.7454 21.8234C59.7454 21.8359 59.773 21.8697 59.8283 21.9243L60.7322 22.8747V21.8608C60.7322 21.8234 60.7071 21.8046 60.657 21.8046V21.7372H61.1165V21.8046C61.0711 21.8046 61.0487 21.8234 61.0487 21.8608V23.2602C61.0487 23.2975 61.0711 23.3164 61.1165 23.3164V23.3838H60.6271V23.3164C60.6448 23.3164 60.6534 23.31 60.6534 23.2975C60.6534 23.2876 60.6416 23.2701 60.6178 23.2452C60.594 23.2202 60.567 23.1915 60.5368 23.1589L59.6037 22.1712V23.2598C59.6037 23.2972 59.63 23.3161 59.6821 23.3161V23.3834H59.2197V23.3164H59.2188Z" fill="white"/>
<path d="M62.9185 23.3033C62.931 23.2947 62.9374 23.2803 62.9374 23.2602V22.0144H62.4481C62.4281 22.0144 62.4092 22.0195 62.3915 22.0294C62.3738 22.0393 62.3652 22.0556 62.3652 22.0779H62.2974V21.6475H62.3652C62.3652 21.6823 62.3738 21.7062 62.3915 21.7187C62.4092 21.7311 62.4278 21.7375 62.4481 21.7375H63.7886C63.8085 21.7375 63.8275 21.7311 63.8451 21.7187C63.8628 21.7062 63.8715 21.6826 63.8715 21.6475H63.9393V22.0779H63.8715C63.8715 22.0556 63.8628 22.0393 63.8451 22.0294C63.8275 22.0195 63.8088 22.0144 63.7886 22.0144H63.2992V23.2602C63.2992 23.2975 63.3217 23.3164 63.367 23.3164V23.3838H62.8812V23.3164C62.8934 23.3164 62.9059 23.3119 62.9185 23.3033Z" fill="white"/>
<path d="M66.5742 22.0856C66.5742 22.0384 66.5353 22.0144 66.4575 22.0144H65.5395V22.3887H66.1189C66.1616 22.3887 66.1928 22.3855 66.213 22.3794C66.2333 22.3731 66.2432 22.3564 66.2432 22.329H66.311V22.7253H66.2358C66.2432 22.6982 66.2333 22.6812 66.2056 22.6748C66.178 22.6688 66.1391 22.6656 66.089 22.6656H65.5399V23.1072H66.5032C66.5334 23.1072 66.5584 23.1005 66.5784 23.0868C66.5983 23.0731 66.6086 23.0549 66.6086 23.0325H66.6764V23.4253H66.6086C66.6086 23.403 66.5986 23.3905 66.5784 23.388C66.5584 23.3854 66.5331 23.3841 66.5032 23.3841H65.1218V23.3167C65.1344 23.3167 65.1469 23.3123 65.1594 23.3036C65.172 23.295 65.1784 23.2806 65.1784 23.2605V21.8611C65.1784 21.8413 65.172 21.827 65.1594 21.818C65.1469 21.8094 65.1344 21.8049 65.1218 21.8049V21.7375H66.4579C66.5356 21.7375 66.5745 21.7152 66.5745 21.6702H66.6423V22.0856H66.5742Z" fill="white"/>
<path d="M71.0877 21.4156C71.2259 21.4156 71.3544 21.4355 71.4736 21.4757C71.5928 21.5156 71.6963 21.5763 71.7843 21.6571C71.8721 21.7382 71.9412 21.8404 71.9916 21.964C72.0417 22.0876 72.0668 22.2329 72.0668 22.3999C72.0668 22.5669 72.0417 22.7122 71.9916 22.8355C71.9415 22.9591 71.8724 23.0613 71.7843 23.1424C71.6966 23.2235 71.5928 23.2838 71.4736 23.3238C71.3544 23.3637 71.2259 23.3838 71.0877 23.3838H69.8381V23.3164C69.896 23.3164 69.9249 23.2941 69.9249 23.249V21.5504C69.9249 21.5054 69.896 21.483 69.8381 21.483V21.4156H71.0877ZM70.937 23.0619C71.055 23.0619 71.1581 23.052 71.2458 23.0319C71.3335 23.0121 71.4065 22.9763 71.4643 22.9252C71.5222 22.8741 71.5652 22.8061 71.5941 22.7212C71.623 22.6365 71.6375 22.5292 71.6375 22.3996C71.6375 22.2699 71.623 22.1626 71.5941 22.0777C71.5652 21.9927 71.5218 21.9247 71.4643 21.8736C71.4065 21.8225 71.3339 21.7871 71.2458 21.7669C71.1581 21.7471 71.055 21.7369 70.937 21.7369H70.3535V23.0613H70.937V23.0619Z" fill="white"/>
<path d="M74.7925 22.0856C74.7925 22.0384 74.7536 22.0144 74.6758 22.0144H73.7578V22.3887H74.3371C74.3799 22.3887 74.411 22.3855 74.4313 22.3794C74.4512 22.3731 74.4615 22.3564 74.4615 22.329H74.5293V22.7253H74.4541C74.4615 22.6982 74.4515 22.6812 74.4239 22.6748C74.3963 22.6688 74.3574 22.6656 74.3073 22.6656H73.7581V23.1072H74.7214C74.7516 23.1072 74.7767 23.1005 74.7966 23.0868C74.8166 23.0731 74.8268 23.0549 74.8268 23.0325H74.8946V23.4253H74.8268C74.8268 23.403 74.8169 23.3905 74.7966 23.388C74.7767 23.3854 74.7513 23.3841 74.7214 23.3841H73.3401V23.3167C73.3526 23.3167 73.3652 23.3123 73.3777 23.3036C73.3902 23.295 73.3966 23.2806 73.3966 23.2605V21.8611C73.3966 21.8413 73.3902 21.827 73.3777 21.818C73.3652 21.8094 73.3526 21.8049 73.3401 21.8049V21.7375H74.6761C74.7539 21.7375 74.7928 21.7152 74.7928 21.6702H74.8606V22.0856H74.7925Z" fill="white"/>
<path d="M79.6041 21.4438C79.712 21.4626 79.8074 21.4923 79.8903 21.5335C79.9732 21.5747 80.0391 21.6283 80.0892 21.6944C80.1394 21.7605 80.1644 21.8423 80.1644 21.9397C80.1644 22.0569 80.1281 22.1473 80.0552 22.2112C79.9822 22.2747 79.8958 22.3242 79.7959 22.359V22.3664C79.9138 22.4012 80.0131 22.4567 80.0947 22.5327C80.1763 22.6087 80.2171 22.7176 80.2171 22.8598C80.2171 22.9345 80.2007 23.0038 80.1683 23.0673C80.1355 23.1309 80.0873 23.1864 80.024 23.2337C79.9601 23.281 79.881 23.318 79.7885 23.3442C79.6956 23.3704 79.5902 23.3835 79.4723 23.3835H78.0903V23.3161C78.1607 23.3161 78.1957 23.2937 78.1957 23.2487V21.5501C78.1957 21.5051 78.1607 21.4827 78.0903 21.4827V21.4156H79.2689C79.3843 21.4156 79.4961 21.4249 79.6041 21.4438ZM79.3441 22.1866C79.4572 22.1866 79.5507 22.1722 79.6246 22.1434C79.6985 22.1147 79.7358 22.0544 79.7358 21.9621C79.7358 21.8698 79.6988 21.8091 79.6246 21.7807C79.5507 21.7519 79.4572 21.7376 79.3441 21.7376H78.625V22.1866H79.3441ZM79.3441 23.0395C79.5022 23.0395 79.6159 23.0153 79.685 22.9664C79.7541 22.9179 79.7885 22.8534 79.7885 22.7735C79.7885 22.694 79.7541 22.6298 79.685 22.581C79.6159 22.5324 79.5025 22.5078 79.3441 22.5078H78.625V23.0389H79.3441V23.0395Z" fill="white"/>
<path d="M82.7864 21.7672C82.9082 21.802 83.0142 21.8544 83.1045 21.9243C83.1948 21.9943 83.2665 22.0821 83.3192 22.1881C83.3719 22.2941 83.3982 22.4184 83.3982 22.5605C83.3982 22.7023 83.3719 22.8265 83.3192 22.9325C83.2665 23.0385 83.1948 23.1264 83.1045 23.1963C83.0142 23.2662 82.9082 23.3167 82.7864 23.348C82.6646 23.3793 82.5348 23.3946 82.3967 23.3946C82.2585 23.3946 82.1287 23.379 82.0069 23.348C81.8851 23.3167 81.7797 23.2662 81.6894 23.1963C81.5991 23.1264 81.5275 23.0385 81.4748 22.9325C81.4221 22.8265 81.3958 22.7023 81.3958 22.5605C81.3958 22.4184 81.4221 22.2941 81.4748 22.1881C81.5275 22.0821 81.5991 21.994 81.6894 21.9243C81.7797 21.8544 81.8851 21.802 82.0069 21.7672C82.1287 21.7324 82.2585 21.7148 82.3967 21.7148C82.5348 21.7148 82.6646 21.7324 82.7864 21.7672ZM82.1615 22.0313C82.085 22.0575 82.0165 22.0949 81.9568 22.1434C81.8964 22.192 81.8475 22.2514 81.8119 22.3213C81.7756 22.3912 81.7572 22.4711 81.7572 22.5608C81.7572 22.6502 81.7756 22.7304 81.8119 22.8C81.8475 22.8699 81.8967 22.929 81.9568 22.9779C82.0165 23.0264 82.0847 23.0641 82.1615 23.0903C82.2379 23.1165 82.3163 23.1296 82.3967 23.1296C82.477 23.1296 82.5554 23.1165 82.6322 23.0903C82.7087 23.0641 82.7771 23.0267 82.8375 22.9779C82.8979 22.9293 82.9461 22.8699 82.9824 22.8C83.0187 22.7304 83.037 22.6502 83.037 22.5608C83.037 22.4711 83.0187 22.3912 82.9824 22.3213C82.9461 22.2514 82.8976 22.1923 82.8375 22.1434C82.7771 22.0949 82.709 22.0575 82.6322 22.0313C82.5557 22.0051 82.477 21.992 82.3967 21.992C82.3163 21.992 82.2379 22.0051 82.1615 22.0313Z" fill="white"/>
<path d="M85.1337 21.7375V21.8049C85.0759 21.8049 85.0476 21.8237 85.0476 21.8611V23.1069H86.0636C86.0938 23.1069 86.1189 23.1002 86.1388 23.0864C86.1587 23.0727 86.169 23.0532 86.169 23.0283H86.2368V23.4211H86.169C86.169 23.4013 86.159 23.3898 86.1388 23.3876C86.1189 23.385 86.0935 23.3838 86.0636 23.3838H84.5881V23.3164C84.6534 23.3164 84.6861 23.2975 84.6861 23.2602V21.8608C84.6861 21.8234 84.6534 21.8046 84.5881 21.8046V21.7372H85.1337V21.7375Z" fill="white"/>
<path d="M87.5661 22.8112C87.5661 22.8211 87.5655 22.8317 87.5642 22.8432C87.5629 22.8543 87.5623 22.8661 87.5623 22.8786C87.5623 22.916 87.586 22.9505 87.6339 22.9814C87.6815 23.0127 87.7387 23.0389 87.8052 23.06C87.8711 23.0811 87.9376 23.098 88.0041 23.1105C88.0706 23.1229 88.1226 23.1293 88.1602 23.1293C88.1953 23.1293 88.2386 23.1267 88.29 23.122C88.3415 23.1168 88.3922 23.1063 88.4427 23.09C88.4928 23.0737 88.5355 23.0514 88.5706 23.0226C88.6056 22.9939 88.6232 22.9559 88.6232 22.9086C88.6232 22.8537 88.5924 22.8138 88.531 22.7889C88.4697 22.7643 88.3922 22.7445 88.2994 22.7307C88.2065 22.7173 88.1059 22.7036 87.998 22.6896C87.89 22.6761 87.7898 22.6538 87.6972 22.6225C87.6044 22.5912 87.5272 22.5465 87.4655 22.4877C87.4042 22.429 87.3733 22.3462 87.3733 22.2389C87.3733 22.0793 87.4398 21.9522 87.5729 21.8573C87.7059 21.7625 87.8929 21.7152 88.1332 21.7152C88.2512 21.7152 88.3524 21.7245 88.4362 21.7433C88.5204 21.7622 88.5911 21.7826 88.649 21.8049C88.7068 21.8273 88.7537 21.8481 88.79 21.8666C88.8263 21.8854 88.8533 21.8947 88.871 21.8947C88.8909 21.8947 88.906 21.8915 88.9163 21.8854C88.9263 21.879 88.9388 21.8723 88.9539 21.865L88.9953 21.9062L88.807 22.2581L88.7392 22.2358C88.7367 22.2207 88.7341 22.2057 88.7319 22.1907C88.7293 22.1757 88.718 22.1607 88.6981 22.1457C88.648 22.1032 88.5702 22.0671 88.4645 22.0371C88.3591 22.0071 88.2412 21.9921 88.1104 21.9921C88.0603 21.9921 88.0124 21.9953 87.9674 22.0013C87.9221 22.0077 87.882 22.0183 87.8476 22.0333C87.8119 22.0483 87.7849 22.0678 87.7647 22.0914C87.7441 22.115 87.7345 22.1444 87.7345 22.1792C87.7345 22.2342 87.7647 22.2734 87.8267 22.2971C87.8874 22.3207 87.9649 22.3395 88.0577 22.3533C88.1506 22.367 88.2512 22.3807 88.3591 22.3945C88.4671 22.4082 88.5673 22.4312 88.6605 22.4638C88.7534 22.4963 88.8305 22.5436 88.8922 22.6059C88.9539 22.6682 88.9844 22.7541 88.9844 22.8639C88.9844 22.9738 88.9574 23.0635 88.9034 23.1334C88.8495 23.2034 88.7823 23.2583 88.702 23.2982C88.6216 23.3382 88.5333 23.3643 88.4366 23.3768C88.3399 23.3892 88.2489 23.3956 88.1634 23.3956C88.078 23.3956 87.9935 23.3876 87.9093 23.3714C87.8251 23.3551 87.7493 23.3366 87.6802 23.3152C87.6111 23.2941 87.5529 23.274 87.5051 23.2554C87.4575 23.2366 87.4286 23.2273 87.4183 23.2273C87.4006 23.2273 87.3855 23.2347 87.373 23.2497L87.3203 23.2123L87.4935 22.7933L87.5661 22.8112Z" fill="white"/>
<path d="M90.0508 23.3164C90.081 23.3113 90.1054 23.2969 90.1244 23.2733C90.1433 23.2496 90.1578 23.2276 90.1677 23.2078L90.7288 21.9917C90.7439 21.9569 90.7551 21.9288 90.7638 21.9074C90.7725 21.8863 90.777 21.8656 90.777 21.8458C90.777 21.8308 90.7738 21.8215 90.7676 21.8177C90.7615 21.8138 90.7545 21.8097 90.7477 21.8046V21.7372H91.3158V21.8046C91.3084 21.8097 91.3001 21.8132 91.2914 21.8157C91.2827 21.8183 91.2782 21.8282 91.2782 21.8458C91.2782 21.8608 91.284 21.879 91.2952 21.9001C91.3065 21.9211 91.3184 21.9457 91.3309 21.9732L91.9408 23.2452C91.9533 23.2675 91.9671 23.2838 91.9822 23.2937C91.9973 23.3036 92.0137 23.3113 92.0311 23.3161V23.3834H91.4964V23.3272C91.5089 23.3272 91.5221 23.3234 91.5359 23.3161C91.5497 23.3087 91.5565 23.295 91.5565 23.2749C91.5565 23.2598 91.5539 23.2461 91.5491 23.2337C91.544 23.2212 91.5378 23.2049 91.5301 23.1851L91.4286 22.9718H90.6234L90.518 23.1739C90.508 23.1937 90.4997 23.2119 90.4936 23.2282C90.4875 23.2445 90.4842 23.2589 90.4842 23.2713C90.4842 23.2911 90.4907 23.3036 90.5032 23.3087C90.5157 23.3138 90.5334 23.3161 90.5559 23.3161V23.3834H90.0514V23.3164H90.0508ZM91.3078 22.6952L91.0028 22.0668L90.7362 22.6952H91.3078Z" fill="white"/>
<path d="M24.9778 20.5549H92.5925" stroke="white" stroke-width="0.283552"/>
<path d="M20.8016 23.4264H6.68446L4.93359 5.20459H22.4985L20.8016 23.4264Z" fill="white"/>
<path fill-rule="evenodd" clip-rule="evenodd" d="M14.9944 16.3515C14.1647 17.2319 14.9484 19.1502 13.9189 19.5518C13.9838 19.2299 14.3578 19.2465 14.2258 18.71C13.5931 18.746 13.8903 19.8028 13.1497 19.7199C12.5491 19.2932 12.1179 19.5245 11.9197 18.8774C11.9377 18.3533 13.2146 18.7537 13.6098 18.2042C13.2657 16.0864 13.7669 14.8985 14.2258 13.4888C15.0194 13.2356 15.9654 13.1476 16.3773 12.4777C17.2732 13.4461 17.073 15.9977 16.3773 17.025C15.895 16.8254 15.5644 16.4562 14.9944 16.3515Z" fill="white"/>
<path fill-rule="evenodd" clip-rule="evenodd" d="M10.8422 14.4994C10.49 15.7057 11.5185 16.7656 11.6118 18.0355C11.301 17.701 11.1085 17.2387 10.6889 17.025C10.0569 17.4555 9.68605 18.1711 8.8442 18.3726C8.31405 16.8871 8.76326 13.646 10.8422 14.4994Z" fill="white"/>
<path fill-rule="evenodd" clip-rule="evenodd" d="M16.2241 17.1938C16.9571 17.0417 16.8986 16.0257 17.299 15.51C17.7447 15.9219 17.5763 17.0038 17.6081 17.8672C17.8912 17.8428 17.7019 17.2969 17.915 17.1938C18.5149 18.2776 18.5591 19.9693 18.9923 21.2359C17.8639 20.7298 17.6232 19.2541 16.5317 18.7103C15.6021 18.8003 15.6512 20.5252 14.686 20.0567C14.4155 19.1541 14.9498 17.7962 15.148 16.858C15.6242 16.8396 16.0015 16.9332 16.2241 17.1938Z" fill="white"/>
<path fill-rule="evenodd" clip-rule="evenodd" d="M14.2254 10.5242C11.9103 10.4763 9.10554 16.2372 8.81892 12.0668C8.34076 12.8749 8.45129 13.9803 9.11966 14.5448C8.76489 14.4935 8.82885 15.0503 8.53905 15.0693C6.56067 14.9886 8.84686 11.6337 6.85082 11.5749C5.55269 12.331 5.928 14.2734 7.06257 14.5134C5.928 13.4402 6.39712 12.9762 5.94824 12.4023C5.92446 11.984 6.48838 11.7924 6.82994 11.8073C8.6226 12.0894 6.62462 15.2164 8.29933 15.6284C7.70904 18.1253 8.21641 21.7671 7.1169 23.7082C7.52755 23.7082 7.74569 23.6922 8.15506 23.6922C8.43557 21.8642 9.14213 18.9929 10.5004 18.8117C12.0825 18.6006 13.1548 21.6772 12.4543 23.6922C12.7824 23.5655 12.9643 23.4894 13.7058 23.723C13.4982 22.7073 13.0288 21.7588 13.9311 21.1846C14.4523 21.7945 15.0094 22.4625 14.9561 23.6999C15.3731 23.5964 15.7735 23.6227 16.0434 23.6028C14.6955 22.769 14.8295 19.5529 16.7269 19.3129C17.6587 20.6194 19.0555 22.0984 19.2142 23.723C19.2142 23.723 19.6634 23.66 20.6498 23.6401C18.4054 20.8202 18.3354 15.5663 16.795 11.9766C17.0485 11.3869 17.2866 10.3446 16.7192 10.0153C16.7667 10.7398 16.6896 11.3741 16.064 11.3628C15.0139 11.1132 14.9124 10.5374 14.2254 10.5242Z" fill="white"/>
<path fill-rule="evenodd" clip-rule="evenodd" d="M15.9204 11.0827C16.5457 11.0937 16.8907 9.70209 16.6038 8.90906C17.2969 9.19377 17.4495 11.2994 16.9052 12.0942C18.4447 15.6834 18.5716 20.9392 20.8147 23.7591L19.1451 23.761C18.9861 22.1364 17.6176 20.6889 16.6851 19.3824C14.7881 19.6231 14.9751 22.9372 16.3236 23.7687L14.8407 23.761C14.8947 22.5233 14.4391 21.8444 13.9192 21.2358C13.016 21.8103 13.5574 22.7456 13.7647 23.761H12.3801C13.0806 21.7454 12.1185 18.6669 10.5351 18.8773C9.17813 19.0589 8.50886 21.9334 8.22931 23.761C7.81962 23.761 7.40929 23.761 6.99897 23.761C8.09822 21.8213 7.63997 18.1743 8.22931 15.6773C6.55458 15.2654 8.37548 11.6023 6.59861 11.925C6.2021 12.012 6.10635 12.5589 6.29078 12.7681C6.73902 13.342 7.42762 13.1745 7.11783 14.5822C5.96014 14.4557 5.12215 11.9709 6.59861 11.5885C8.92205 11.0966 6.85823 14.9643 8.53712 15.0041C8.8266 14.9861 8.72383 14.6786 8.99823 14.4996C8.32922 13.9354 7.8151 12.2585 8.88158 11.0008C8.74724 12.7517 9.03615 13.3751 9.56535 13.2697C10.5971 13.064 12.5626 10.4375 14.2264 10.4575C14.9124 10.4659 15.0782 10.5973 15.9204 11.0827ZM13.9186 10.7942C12.5308 11.1281 11.2191 12.4397 10.842 13.3194C10.8885 13.0701 11.4897 12.5958 11.6115 12.9827C9.96378 14.3364 11.9373 16.6563 11.9193 18.3729C12.329 18.3729 12.7393 18.3729 13.1494 18.3729C13.3521 16.7212 13.0783 14.348 13.9186 12.646C13.9157 12.4239 13.648 12.4927 13.6094 12.3099C14.6344 12.3645 15.2398 11.9905 15.798 11.5335C15.368 11.219 15.0846 10.9745 14.5326 10.7942C13.8672 11.0747 13.6059 11.799 13.1497 12.3099C13.3084 11.6987 13.6586 11.2968 13.9186 10.7942ZM16.377 17.0249C17.0726 15.9976 17.1919 13.6115 16.4528 12.6276C15.5923 13.2015 15.0187 13.2356 14.2251 13.4888C13.7662 14.8984 13.265 16.0863 13.6091 18.2042C13.3158 19.2391 11.937 18.3533 11.919 18.8773C12.1172 19.5244 12.5484 19.2931 13.149 19.7198C13.8896 19.803 13.5925 18.7462 14.2251 18.7099C14.3572 19.2465 13.9831 19.2298 13.9182 19.5517C14.9477 19.1501 14.164 17.2319 14.9937 16.3514C15.564 16.4562 15.8947 16.8254 16.377 17.0249ZM15.1476 16.8578C14.9497 17.7961 14.4153 19.1539 14.6855 20.0566C15.6508 20.525 15.6016 18.8002 16.5312 18.7102C17.6227 19.2539 17.8634 20.7297 18.9919 21.2358C18.5584 19.9691 18.3669 18.4229 17.9145 17.1936C17.82 17.4533 17.8907 17.8423 17.6076 17.8671C17.5758 17.0037 17.7442 15.9218 17.2985 15.5099C17.1227 16.0179 16.9316 17.0837 16.3391 17.3748C16.1158 17.1139 15.61 16.9552 15.1476 16.8578ZM8.84397 18.3725C9.68582 18.1711 9.76905 16.8311 10.6887 17.0249C11.1083 17.2386 11.3008 17.701 11.6115 18.0355C11.5183 16.7656 10.5826 15.5594 10.6578 14.4386C8.57823 13.5858 8.31382 16.8871 8.84397 18.3725Z" fill="#231F20"/>
<path fill-rule="evenodd" clip-rule="evenodd" d="M13.1497 12.3096C13.606 11.799 13.8669 11.0745 14.5327 10.7939C15.0851 10.9745 15.3684 11.219 15.798 11.5333C15.2402 11.9899 14.6345 12.3642 13.6095 12.3096C13.6481 12.4925 13.9157 12.4237 13.9187 12.6457C13.0787 14.3477 13.3522 16.7213 13.1494 18.3726C12.7394 18.3726 12.3291 18.3726 11.9194 18.3726C11.9374 16.6561 9.96386 14.3361 11.6116 12.9825C11.4895 12.5952 11.047 13.0101 10.842 13.3192C11.2193 12.4394 12.5309 11.1281 13.9187 10.7939C13.6587 11.2968 13.3085 11.6988 13.1497 12.3096Z" fill="white"/>
<path fill-rule="evenodd" clip-rule="evenodd" d="M13.8361 14.0605C13.8361 14.0605 14.31 14.4889 14.1667 14.8748C14.0253 15.2597 13.6118 15.225 13.6118 15.225L13.8361 14.0605Z" fill="#231F20"/>
</svg>
