<svg width="205" height="65" viewBox="0 0 205 65" fill="none" xmlns="http://www.w3.org/2000/svg">
<rect width="205" height="65" rx="10" fill="black"/>
<path d="M102.78 36.8332C99.2028 36.8332 96.3193 39.5054 96.3193 43.1731C96.3193 46.7884 99.2028 49.5129 102.78 49.5129C106.358 49.5129 109.242 46.8408 109.242 43.1731C109.295 39.5054 106.358 36.8332 102.78 36.8332ZM102.78 46.998C100.805 46.998 99.1494 45.4261 99.1494 43.1731C99.1494 40.8677 100.805 39.3482 102.78 39.3482C104.756 39.3482 106.412 40.9201 106.412 43.1731C106.465 45.4261 104.756 46.998 102.78 46.998ZM88.6834 36.8332C85.1057 36.8332 82.2222 39.5054 82.2222 43.1731C82.2222 46.7884 85.1057 49.5129 88.6834 49.5129C92.2611 49.5129 95.1446 46.8408 95.1446 43.1731C95.1446 39.5054 92.2611 36.8332 88.6834 36.8332ZM88.6834 46.998C86.7076 46.998 85.0523 45.4261 85.0523 43.1731C85.0523 40.8677 86.761 39.3482 88.6834 39.3482C90.6591 39.3482 92.3145 40.9201 92.3145 43.1731C92.3145 45.4261 90.6591 46.998 88.6834 46.998ZM71.9163 38.7719V41.444H78.4309C78.2173 42.9635 77.7367 44.0638 76.9358 44.7973C75.9746 45.7405 74.4795 46.736 71.8629 46.736C67.8581 46.736 64.7076 43.5399 64.7076 39.6102C64.7076 35.6805 67.8581 32.4844 71.8629 32.4844C74.0523 32.4844 75.6008 33.3227 76.7756 34.423L78.6979 32.5368C77.0426 31.0173 74.9066 29.8122 71.8629 29.8122C66.3629 29.8122 61.7173 34.2135 61.7173 39.6102C61.7173 45.0069 66.3629 49.4082 71.8629 49.4082C74.8532 49.4082 77.096 48.465 78.8581 46.6312C80.6736 44.8497 81.2076 42.3872 81.2076 40.3437C81.2076 39.715 81.1542 39.1386 81.0474 38.6671H71.9163V38.7719ZM140.533 40.8677C139.999 39.453 138.344 36.8332 135.033 36.8332C131.722 36.8332 128.946 39.4006 128.946 43.1731C128.946 46.736 131.669 49.5129 135.353 49.5129C138.29 49.5129 139.999 47.7315 140.747 46.736L138.557 45.3213C137.81 46.3692 136.849 47.0504 135.407 47.0504C133.965 47.0504 132.95 46.4216 132.31 45.1117L140.907 41.6012L140.533 40.8677ZM131.776 42.9635C131.722 40.5009 133.698 39.2958 135.14 39.2958C136.261 39.2958 137.222 39.8722 137.543 40.6581L131.776 42.9635ZM124.727 49.0938H127.557V30.4934H124.727V49.0938ZM120.135 38.2479H120.028C119.387 37.5144 118.159 36.8332 116.664 36.8332C113.46 36.8332 110.47 39.6102 110.47 43.1731C110.47 46.736 113.407 49.4605 116.664 49.4605C118.213 49.4605 119.441 48.7794 120.028 48.0459H120.135V48.9366C120.135 51.3468 118.8 52.6567 116.717 52.6567C115.009 52.6567 113.887 51.4516 113.46 50.4037L111.004 51.3992C111.698 53.0758 113.567 55.1193 116.717 55.1193C120.028 55.1193 122.858 53.1806 122.858 48.5174V37.1476H120.188V38.2479H120.135ZM116.878 46.998C114.902 46.998 113.3 45.3737 113.3 43.1731C113.3 40.9201 114.955 39.2958 116.878 39.2958C118.8 39.2958 120.295 40.9201 120.295 43.1731C120.295 45.3737 118.8 46.998 116.878 46.998ZM153.776 30.4934H146.994V49.0938H149.824V42.0728H153.776C156.926 42.0728 159.97 39.8198 159.97 36.3093C160.023 32.7464 156.926 30.4934 153.776 30.4934ZM153.883 39.453H149.878V33.0608H153.883C155.965 33.0608 157.193 34.7898 157.193 36.2569C157.193 37.724 155.965 39.453 153.883 39.453ZM171.344 36.7808C169.315 36.7808 167.179 37.6716 166.324 39.6102L168.834 40.6581C169.368 39.6102 170.383 39.2958 171.397 39.2958C172.839 39.2958 174.334 40.1341 174.387 41.706V41.9156C173.853 41.6012 172.786 41.1821 171.451 41.1821C168.727 41.1821 166.004 42.6491 166.004 45.3737C166.004 47.8887 168.193 49.4605 170.703 49.4605C172.625 49.4605 173.64 48.6222 174.334 47.6267H174.441V49.0414H177.164V41.9156C177.111 38.6671 174.601 36.7808 171.344 36.7808ZM170.97 46.998C170.062 46.998 168.781 46.5264 168.781 45.4261C168.781 44.0114 170.383 43.4351 171.771 43.4351C172.999 43.4351 173.586 43.697 174.334 44.0638C174.12 45.7405 172.625 46.998 170.97 46.998ZM187.043 37.2L183.786 45.2689H183.679L180.315 37.2H177.271L182.29 48.465L179.46 54.7525H182.397L190.193 37.2524H187.043V37.2ZM161.572 49.0938H164.402V30.4934H161.572V49.0938Z" fill="white"/>
<path d="M61.7173 22.0115V12.6705H64.7464C65.8407 12.6705 66.7392 12.8618 67.442 13.2443C68.1537 13.6268 68.6785 14.1695 69.0166 14.8723C69.3635 15.5662 69.537 16.3936 69.537 17.3543C69.537 18.3062 69.3635 19.1336 69.0166 19.8364C68.6785 20.5303 68.1537 21.0685 67.442 21.451C66.7392 21.8247 65.8407 22.0115 64.7464 22.0115H61.7173ZM63.1318 20.8105H64.6931C65.5382 20.8105 66.2054 20.6726 66.6947 20.3968C67.1929 20.121 67.5487 19.7252 67.7622 19.2092C67.9846 18.6932 68.0958 18.0749 68.0958 17.3543C68.0958 16.6337 67.9846 16.011 67.7622 15.4861C67.5487 14.9613 67.1929 14.5609 66.6947 14.2852C66.2054 14.0005 65.5382 13.8581 64.6931 13.8581H63.1318V20.8105Z" fill="white"/>
<path d="M71.1 22.0115V12.6705H72.5144V22.0115H71.1Z" fill="white"/>
<path d="M77.4925 22.1716C76.8075 22.1716 76.207 22.0515 75.691 21.8113C75.175 21.5711 74.7702 21.2286 74.4767 20.7838C74.192 20.339 74.0452 19.8097 74.0363 19.1958H75.5309C75.5398 19.694 75.7132 20.1166 76.0513 20.4635C76.3894 20.8105 76.8653 20.984 77.4791 20.984C78.0218 20.984 78.4444 20.855 78.7468 20.597C79.0582 20.3301 79.2139 19.992 79.2139 19.5828C79.2139 19.2537 79.1383 18.9868 78.987 18.7822C78.8447 18.5776 78.6445 18.4085 78.3865 18.2751C78.1374 18.1416 77.8483 18.0215 77.5192 17.9148C77.19 17.808 76.8431 17.6924 76.4783 17.5678C75.7577 17.3276 75.2151 17.0163 74.8503 16.6337C74.4945 16.2512 74.3165 15.7486 74.3165 15.1258C74.3076 14.601 74.4277 14.1428 74.6768 13.7514C74.9348 13.36 75.2907 13.0575 75.7444 12.844C76.207 12.6216 76.7452 12.5104 77.359 12.5104C77.964 12.5104 78.4933 12.6216 78.947 12.844C79.4096 13.0664 79.7699 13.3778 80.0279 13.7781C80.2859 14.1695 80.4193 14.6277 80.4282 15.1525H78.9337C78.9337 14.9123 78.8714 14.6855 78.7468 14.472C78.6223 14.2496 78.4399 14.0672 78.1997 13.9249C77.9595 13.7825 77.666 13.7114 77.319 13.7114C76.8742 13.7025 76.505 13.8137 76.2114 14.045C75.9268 14.2763 75.7844 14.5965 75.7844 15.0057C75.7844 15.3705 75.8912 15.6507 76.1047 15.8464C76.3182 16.0422 76.6118 16.2067 76.9854 16.3402C77.359 16.4647 77.786 16.6115 78.2664 16.7805C78.729 16.9318 79.1427 17.1141 79.5075 17.3276C79.8722 17.5412 80.1613 17.8214 80.3748 18.1683C80.5972 18.5153 80.7084 18.9556 80.7084 19.4894C80.7084 19.9609 80.5883 20.4013 80.3481 20.8105C80.1079 21.2108 79.7477 21.54 79.2673 21.798C78.7869 22.0471 78.1953 22.1716 77.4925 22.1716Z" fill="white"/>
<path d="M82.2549 22.0115V12.6705H85.5243C86.2537 12.6705 86.8587 12.7951 87.3391 13.0441C87.8195 13.2843 88.1753 13.6179 88.4066 14.045C88.6468 14.4631 88.7669 14.939 88.7669 15.4728C88.7669 15.9799 88.6513 16.4469 88.42 16.8739C88.1975 17.2921 87.8461 17.6257 87.3658 17.8748C86.8854 18.1239 86.2715 18.2484 85.5243 18.2484H83.6694V22.0115H82.2549ZM83.6694 17.0875H85.4575C86.1247 17.0875 86.6007 16.9451 86.8854 16.6604C87.1789 16.3669 87.3257 15.971 87.3257 15.4728C87.3257 14.9568 87.1789 14.5565 86.8854 14.2718C86.6007 13.9782 86.1247 13.8315 85.4575 13.8315H83.6694V17.0875Z" fill="white"/>
<path d="M94.4752 22.1716C93.55 22.1716 92.7405 21.967 92.0466 21.5578C91.3527 21.1486 90.81 20.5836 90.4186 19.8631C90.0271 19.1336 89.8314 18.2929 89.8314 17.341C89.8314 16.3891 90.0271 15.5529 90.4186 14.8323C90.81 14.1028 91.3527 13.5334 92.0466 13.1242C92.7405 12.715 93.55 12.5104 94.4752 12.5104C95.4004 12.5104 96.21 12.715 96.9039 13.1242C97.5978 13.5334 98.136 14.1028 98.5185 14.8323C98.91 15.5529 99.1057 16.3891 99.1057 17.341C99.1057 18.2929 98.91 19.1336 98.5185 19.8631C98.136 20.5836 97.5978 21.1486 96.9039 21.5578C96.21 21.967 95.4004 22.1716 94.4752 22.1716ZM94.4752 20.9039C95.1157 20.9039 95.6717 20.7616 96.1432 20.4769C96.6236 20.1922 96.9973 19.783 97.2642 19.2492C97.531 18.7154 97.6645 18.0794 97.6645 17.341C97.6645 16.6026 97.531 15.9665 97.2642 15.4328C96.9973 14.899 96.6236 14.4898 96.1432 14.2051C95.6717 13.9204 95.1157 13.7781 94.4752 13.7781C93.8347 13.7781 93.2742 13.9204 92.7938 14.2051C92.3134 14.4898 91.9398 14.899 91.6729 15.4328C91.4149 15.9665 91.2859 16.6026 91.2859 17.341C91.2859 18.0794 91.4149 18.7154 91.6729 19.2492C91.9398 19.783 92.3134 20.1922 92.7938 20.4769C93.2742 20.7616 93.8347 20.9039 94.4752 20.9039Z" fill="white"/>
<path d="M100.681 22.0115V12.6705H102.096L106.78 19.7029V12.6705H108.194V22.0115H106.78L102.096 14.9791V22.0115H100.681Z" fill="white"/>
<path d="M110.09 22.0115V12.6705H111.505V22.0115H110.09Z" fill="white"/>
<path d="M113.4 22.0115V12.6705H116.923C117.893 12.6705 118.627 12.8974 119.125 13.3511C119.623 13.8048 119.872 14.3741 119.872 15.0591C119.872 15.6552 119.712 16.1311 119.392 16.487C119.071 16.8339 118.684 17.0697 118.231 17.1942C118.587 17.2654 118.902 17.4077 119.178 17.6212C119.463 17.8347 119.685 18.1016 119.845 18.4219C120.006 18.7421 120.086 19.0891 120.086 19.4627C120.086 19.9431 119.966 20.379 119.725 20.7705C119.494 21.153 119.152 21.4555 118.698 21.6779C118.244 21.9003 117.688 22.0115 117.03 22.0115H113.4ZM114.815 16.6738H116.75C117.292 16.6738 117.706 16.5492 117.991 16.3001C118.275 16.0422 118.418 15.6908 118.418 15.2459C118.418 14.81 118.275 14.4631 117.991 14.2051C117.715 13.9471 117.292 13.8181 116.723 13.8181H114.815V16.6738ZM114.815 20.8505H116.843C117.412 20.8505 117.853 20.7171 118.164 20.4502C118.484 20.1833 118.644 19.8097 118.644 19.3293C118.644 18.8489 118.48 18.4708 118.151 18.195C117.822 17.9103 117.377 17.768 116.816 17.768H114.815V20.8505Z" fill="white"/>
<path d="M121.636 22.0115V12.6705H123.051V20.8906H127.294V22.0115H121.636Z" fill="white"/>
<path d="M128.816 22.0115V12.6705H134.755V13.8181H130.231V16.7272H134.354V17.8481H130.231V20.8639H134.755V22.0115H128.816Z" fill="white"/>
<path d="M139.802 22.0115V12.6705H145.74V13.8181H141.216V16.7272H145.34V17.8481H141.216V20.8639H145.74V22.0115H139.802Z" fill="white"/>
<path d="M147.425 22.0115V12.6705H148.84L153.524 19.7029V12.6705H154.938V22.0115H153.524L148.84 14.9791V22.0115H147.425Z" fill="white"/>
<path d="M15.7066 15.6183C15.2794 16.0899 15.0125 16.771 15.0125 17.7141V50.5661C15.0125 51.5092 15.2794 52.1904 15.7066 52.6619L15.8134 52.7667L34.5562 34.3759V33.9567L15.8134 15.5135L15.7066 15.6183Z" fill="url(#paint0_linear_248_715)"/>
<path d="M40.8042 40.5072L34.5566 34.3769V33.9578L40.8042 27.8275L40.9644 27.9323L48.3868 32.0715C50.5227 33.2242 50.5227 35.1629 48.3868 36.368L40.9644 40.5072H40.8042Z" fill="url(#paint1_linear_248_715)"/>
<path d="M40.9644 40.402L34.5566 34.1145L15.707 52.6625C16.4012 53.3961 17.576 53.4485 18.8575 52.7673L40.9644 40.402Z" fill="url(#paint2_linear_248_715)"/>
<path d="M40.9644 27.878L18.8575 15.5126C17.576 14.7791 16.4012 14.8839 15.707 15.6174L34.61 34.113L40.9644 27.878Z" fill="url(#paint3_linear_248_715)"/>
<defs>
<linearGradient id="paint0_linear_248_715" x1="32.908" y1="50.9165" x2="2.03485" y2="19.0809" gradientUnits="userSpaceOnUse">
<stop stop-color="#00A0FF"/>
<stop offset="0.0066" stop-color="#00A1FF"/>
<stop offset="0.2601" stop-color="#00BEFF"/>
<stop offset="0.5122" stop-color="#00D2FF"/>
<stop offset="0.7604" stop-color="#00DFFF"/>
<stop offset="1" stop-color="#00E3FF"/>
</linearGradient>
<linearGradient id="paint1_linear_248_715" x1="51.1387" y1="34.1361" x2="5.21873" y2="34.1361" gradientUnits="userSpaceOnUse">
<stop stop-color="#FFE000"/>
<stop offset="0.4087" stop-color="#FFBD00"/>
<stop offset="0.7754" stop-color="#FFA500"/>
<stop offset="1" stop-color="#FF9C00"/>
</linearGradient>
<linearGradient id="paint2_linear_248_715" x1="24.8569" y1="43.1266" x2="-16.9977" y2="-0.032722" gradientUnits="userSpaceOnUse">
<stop stop-color="#FF3A44"/>
<stop offset="1" stop-color="#C31162"/>
</linearGradient>
<linearGradient id="paint3_linear_248_715" x1="-1.68895" y1="51.1946" x2="17.0029" y2="31.9203" gradientUnits="userSpaceOnUse">
<stop stop-color="#32A071"/>
<stop offset="0.0685" stop-color="#2DA771"/>
<stop offset="0.4762" stop-color="#15CF74"/>
<stop offset="0.8009" stop-color="#06E775"/>
<stop offset="1" stop-color="#00F076"/>
</linearGradient>
</defs>
</svg>
