<svg width="59" height="28" viewBox="0 0 59 28" fill="none" xmlns="http://www.w3.org/2000/svg">
<path d="M29.5997 13.1742H24.1542V19.3833C24.1542 21.311 25.1626 22.0507 26.4176 22.0507C27.6725 22.0507 28.4344 21.6248 29.2859 21.0868L30.5184 23.5749C29.2366 24.4737 27.7139 24.9658 26.1486 24.9871C22.9217 24.9871 21.0169 23.2387 21.0169 19.4505V13.1742H18.1709V10.3499H21.0169V6.02368H24.1542V10.3499H29.5997V13.1742Z" fill="white"/>
<path d="M42.2613 10.3722L41.5218 13.4655C40.7846 13.1237 39.9814 12.9477 39.1689 12.95C37.1744 12.95 35.7626 14.3397 35.7626 16.7606V24.6059H32.6702V10.3498H35.7402V11.9637C36.6814 10.5963 38.138 9.9687 39.8859 9.9687C40.6962 9.95015 41.5026 10.0871 42.2613 10.3722Z" fill="white"/>
<path d="M48.4462 5.41882C48.3913 5.96027 48.1374 6.46207 47.7338 6.82696C47.3301 7.19186 46.8054 7.39387 46.2613 7.39387C45.7172 7.39387 45.1925 7.19186 44.7888 6.82696C44.3852 6.46207 44.1313 5.96027 44.0764 5.41882C44.0454 5.11321 44.0789 4.80451 44.1745 4.51264C44.2702 4.22077 44.4261 3.95222 44.6319 3.72433C44.8379 3.49645 45.0892 3.31424 45.3699 3.1896C45.6505 3.06489 45.9542 3.00049 46.2613 3.00049C46.5684 3.00049 46.872 3.06489 47.1527 3.1896C47.4333 3.31424 47.6847 3.49645 47.8906 3.72433C48.0965 3.95222 48.2523 4.22077 48.348 4.51264C48.4438 4.80451 48.4772 5.11321 48.4462 5.41882ZM47.8187 24.6064H44.7039V10.3502H47.8187V24.6064Z" fill="white"/>
<path d="M55.7067 5.41882C55.6518 5.96027 55.3979 6.46207 54.9943 6.82696C54.5906 7.19186 54.0659 7.39387 53.5218 7.39387C52.9777 7.39387 52.453 7.19186 52.0494 6.82696C51.6457 6.46207 51.3918 5.96027 51.3369 5.41882C51.3059 5.11321 51.3393 4.80451 51.435 4.51264C51.5308 4.22077 51.6866 3.95222 51.8925 3.72433C52.0984 3.49645 52.3498 3.31424 52.6304 3.1896C52.9111 3.06489 53.2147 3.00049 53.5218 3.00049C53.8289 3.00049 54.1326 3.06489 54.4132 3.1896C54.6938 3.31424 54.9453 3.49645 55.1512 3.72433C55.357 3.95222 55.5129 4.22077 55.6086 4.51264C55.7042 4.80451 55.7377 5.11321 55.7067 5.41882ZM55.0793 24.6064H51.9643V10.3502H55.0793V24.6064Z" fill="white"/>
<path d="M14.6302 16.9848C13.5111 16.9811 12.4303 16.5767 11.5834 15.8448C10.7367 15.1129 10.1798 14.1019 10.0138 12.9948C10.959 13.9211 12.2314 14.4367 13.5545 14.4294H14.3165V12.9052H13.5545C12.7029 12.9104 11.8775 12.6103 11.228 12.0593C10.5785 11.5083 10.1478 10.7428 10.0138 9.90148C10.7146 10.4394 11.5732 10.7309 12.4565 10.7309H13.2184V9.20665H12.4565C11.7968 9.20665 11.1641 8.94451 10.6976 8.47787C10.2311 8.01128 9.96908 7.37842 9.96908 6.7185V5.95642H8.44521V6.7185C8.43932 7.38044 8.17226 8.0133 7.70223 8.47924C7.23221 8.94523 6.59714 9.20665 5.93538 9.20665H5.17344V10.7309H5.93538C6.81866 10.7309 7.67726 10.4394 8.37796 9.90148C8.24408 10.7428 7.81335 11.5083 7.16384 12.0593C6.51432 12.6103 5.68895 12.9104 4.83732 12.9052H4.09781V14.4294H4.83732C6.16046 14.4367 7.43292 13.9211 8.37796 12.9948C8.21637 14.1038 7.66086 15.1175 6.81307 15.8502C5.96534 16.583 4.88207 16.9857 3.76168 16.9848H2.99976V18.509H3.76168C4.64892 18.5081 5.52575 18.3177 6.33347 17.9505C7.14118 17.5832 7.86115 17.0476 8.44521 16.3795V24.9422H9.96908V16.3795C10.5478 17.0482 11.2636 17.5844 12.0679 17.9519C12.8721 18.3193 13.746 18.5093 14.6302 18.509H15.3921V16.9848H14.6302Z" fill="#02FB7E"/>
</svg>
