<svg width="64" height="64" viewBox="0 0 64 64" fill="none" xmlns="http://www.w3.org/2000/svg">
<rect width="64" height="64" rx="32" fill="#92FDC8"/>
<path d="M35.2716 39.2927C35.329 39.2497 35.4007 39.221 35.4294 39.1636C36.7489 37.0123 38.0397 34.8322 39.3305 32.6522C41.4101 29.1526 41.7256 25.3233 41.7687 21.4221C41.783 20.5903 41.7543 19.7154 41.3097 18.9409C40.9368 17.1051 40.3201 15.4557 39.0723 13.9641C37.8676 12.5156 36.3329 12.0853 34.6836 12.0136C32.8477 11.9419 30.9832 12.1713 29.1474 12.3004C28.2008 12.3721 27.2829 12.5729 26.5228 13.247C24.2854 15.2119 23.2671 17.8079 23.0089 20.6477C22.8225 22.6556 22.8368 24.7065 22.9946 26.7431C23.095 28.12 23.4822 28.4642 24.8734 28.4355C26.3793 28.4069 27.8853 28.4355 29.4486 28.4355C28.1578 31.2036 26.365 33.5701 25.3037 36.3095C24.271 38.9771 23.095 41.5874 22.8798 44.4846C22.7364 46.5212 22.7364 48.5578 22.8511 50.5944C22.9085 51.5841 23.224 51.8996 24.2137 51.9426C25.2463 52 26.2933 52 27.3259 52C29.6494 51.9857 31.9872 51.957 34.3107 51.9426C36.3616 51.9283 38.3982 51.9283 40.4492 51.8996C41.2523 51.8853 41.6683 51.5697 41.6396 50.8096C41.5535 49.2032 41.74 47.6113 41.6109 46.0193C41.5392 45.1587 41.238 44.9005 40.3918 44.8862C38.513 44.8575 36.6341 44.8575 34.7553 44.8288C33.8517 44.8145 33.823 44.6998 33.9234 43.8249C34.1099 42.2329 34.6118 40.7413 35.2716 39.2927ZM27.3259 20.8198C26.1068 20.8198 24.8877 20.9202 23.6687 20.619C23.9268 20.3178 24.2423 20.3895 24.5435 20.3752C25.4471 20.3608 26.3363 20.3465 27.2399 20.3608C27.369 20.3608 27.5554 20.3608 27.5841 20.5473C27.5985 20.7194 27.4694 20.8198 27.3259 20.8198ZM27.0821 45.632C26.5084 45.632 25.9491 45.632 25.3754 45.632C25.3754 45.6607 25.3754 45.675 25.3754 45.7037C24.9021 45.7037 24.4288 45.718 23.9555 45.7037C23.769 45.7037 23.5396 45.7037 23.5252 45.4456C23.5252 45.2448 23.7117 45.173 23.8838 45.173C24.9595 45.1874 26.0208 45.1874 27.0965 45.2161C27.2542 45.2161 27.4694 45.2448 27.4407 45.4742C27.412 45.6463 27.2256 45.632 27.0821 45.632ZM34.2676 45.4456C36.1895 45.4599 38.1257 45.4599 40.0476 45.4742C40.8938 45.4742 41.0802 45.6607 41.0659 46.4638C41.0516 47.8551 41.0372 49.2606 41.0085 50.6518C41.0085 51.0104 41.0229 51.3259 40.4492 51.3116C36.6771 51.2829 32.9051 51.2972 29.1187 51.3116C28.5164 51.3116 28.2582 51.1251 28.2152 50.451C27.957 45.8185 28.6311 41.3293 30.4239 37.0553C31.0693 35.535 31.9872 34.1438 32.8191 32.7096C34.2246 30.3001 35.5298 27.8188 35.8453 24.9504C36.0317 23.2436 36.0031 21.5369 35.8596 19.8301C35.7736 18.7832 35.3433 18.1521 34.6692 18.1234C34.0095 18.0947 33.4931 18.5537 33.3354 19.6294C33.0485 21.666 32.8191 23.7169 33.0772 25.7822C33.1346 26.2699 33.1202 26.7575 33.1346 27.2451C33.1489 27.6037 32.9051 27.6754 32.6183 27.6754C31.6286 27.6897 30.6247 27.6754 29.6351 27.7184C28.9466 27.7328 28.6168 27.3742 28.5164 26.7575C27.8853 22.9568 28.1865 19.2708 30.0797 15.843C31.2127 13.8064 32.9768 12.702 35.3146 12.745C36.462 12.7737 37.4947 13.1753 38.3982 14.1219C39.8181 15.5992 40.2914 17.4206 40.8508 19.2565C41.4531 22.3974 41.0372 25.481 40.3775 28.5503C39.9759 30.4005 38.9002 31.9781 38.0397 33.6275C37.1935 35.2625 36.1465 36.7971 35.1569 38.3604C35.0421 38.5325 34.9561 38.7334 34.87 38.9198C34.8557 38.9198 34.8413 38.9198 34.827 38.9198C34.827 38.9341 34.827 38.9628 34.8413 38.9772C33.737 40.6265 33.4788 42.5341 33.2924 44.4416C33.2493 45.13 33.6079 45.4456 34.2676 45.4456Z" fill="#191919"/>
</svg>
