<svg width="64" height="64" viewBox="0 0 64 64" fill="none" xmlns="http://www.w3.org/2000/svg">
<rect width="64" height="64" rx="32" fill="#92FDC8"/>
<path d="M41.823 38.8275C41.823 37.9942 41.516 37.6872 40.6826 37.7018C40.2294 37.7018 40.1271 37.5556 40.1271 37.117C40.1271 34.2222 40.0979 31.3129 40.0686 28.4182C40.0394 25.9766 39.9955 23.5351 39.9517 21.0789C39.9078 18.5936 40.2441 16.1082 40.1271 13.6082C40.0832 12.7018 39.7616 12.1608 38.9721 12.1754C36.2967 12.2193 33.6212 11.8831 30.9312 12.0439C29.6593 12.117 28.3727 12.0146 27.1008 12.0146C26.0043 12.0146 25.4487 12.3509 25.2294 13.155C25.0101 13.9737 24.7762 14.7778 24.7031 15.6258C24.4984 17.8772 24.1037 20.0994 23.6505 22.2924C22.6417 27.1608 22.1008 32.1023 21.4721 37.0292C21.2236 39.0029 21.3698 41.0643 21.4429 43.0819C21.4867 44.4561 21.9838 44.9094 23.0949 44.8948C24.7762 44.8801 26.4721 44.8948 28.1534 44.8655C28.5774 44.8655 28.7236 44.9532 28.7382 45.4211C28.7967 47.0731 28.7821 48.7106 28.7236 50.348C28.6943 51.4006 29.0452 51.81 30.0832 51.9415C30.3902 51.9854 30.7119 52 31.0189 52C32.2031 51.9708 33.3873 51.8977 34.0452 51.9562C35.8581 51.9562 37.1446 51.9415 38.4166 51.9562C39.6885 51.9708 40.1417 51.5176 40.0686 50.2749C39.9809 48.6521 39.9809 47.0293 40.0686 45.4065C40.0832 45.0263 40.1417 44.8509 40.5949 44.8948C41.3698 44.9532 41.7791 44.5439 41.7938 43.7983C41.823 42.1462 41.823 40.4942 41.823 38.8275ZM26.1797 37.8772C24.8785 37.9065 23.5774 37.9649 22.2762 37.8041C22.2177 37.7895 22.1593 37.731 21.9984 37.6579C22.8902 37.3363 23.6943 37.4532 24.4692 37.424C25.0247 37.4094 25.5803 37.424 26.1359 37.424C26.2967 37.424 26.4429 37.5117 26.4721 37.6433C26.5014 37.8041 26.3259 37.8772 26.1797 37.8772ZM41.1505 38.9591C41.1212 40.4795 41.1066 42.0146 41.1359 43.5351C41.1505 44.1199 40.975 44.4123 40.361 44.2953C39.5569 44.1345 39.4546 44.5439 39.44 45.231C39.3961 47.0146 39.323 48.8129 39.4692 50.5965C39.5131 51.0643 39.323 51.3421 38.7528 51.3275C37.6271 51.2983 36.4867 51.3568 35.361 51.3714C34.5862 51.386 34.3669 51.1813 34.3669 50.3918C34.3815 48.6667 34.4107 46.9415 34.4253 45.231C34.44 44.3392 34.3669 44.2807 33.4897 44.2807C31.8376 44.2807 30.2002 44.2661 28.5481 44.2661C27.4078 44.2661 27.0715 43.9445 27.0569 42.8041C26.9838 39.31 27.247 35.845 27.9195 32.3948C28.4019 29.9094 28.5335 27.3509 28.9867 24.8509C29.3961 22.5848 29.8055 20.3187 30.0832 18.038C30.2587 16.6199 30.4341 15.2018 30.7557 13.7983C30.9897 12.7456 31.092 12.6433 32.2324 12.6433C33.2996 12.6433 34.3522 12.6433 35.4195 12.6433C35.4195 12.6871 35.4195 12.7456 35.4195 12.7895C36.516 12.7895 37.5979 12.8187 38.6943 12.7749C39.2938 12.7603 39.4984 12.9796 39.4984 13.579C39.5715 17.0877 39.206 20.5965 39.3376 24.1053C39.4984 28.4766 39.4838 32.8333 39.4838 37.2047C39.4838 38.1257 39.6008 38.2719 40.5218 38.2573C41.0628 38.2573 41.1651 38.4766 41.1505 38.9591Z" fill="#191919"/>
<path d="M35.478 19.1637C35.4488 18.6813 35.2879 18.3597 34.8786 18.3597C34.44 18.3597 34.2792 18.7251 34.2207 19.1783C33.9429 21.4152 33.6798 23.6667 33.2704 25.8889C32.8026 28.4035 32.554 30.9766 32.2178 33.5205C32.0716 34.6316 31.9107 35.7281 31.7938 36.8392C31.6914 37.8187 32.0423 38.1842 33.0219 38.1842C33.402 38.1842 33.7967 38.1403 34.1768 38.1257C35.2148 38.0819 35.5657 37.7456 35.5365 36.693C35.5219 35.9766 35.4341 35.2456 35.4634 34.5439C35.595 31.9854 35.4341 29.4269 35.5511 26.9415C35.4488 24.2953 35.6388 21.7368 35.478 19.1637Z" fill="#191919"/>
</svg>
