<svg width="64" height="64" viewBox="0 0 64 64" fill="none" xmlns="http://www.w3.org/2000/svg">
<rect width="64" height="64" rx="32" fill="#92FDC8"/>
<path d="M39.6784 29.7232C39.0614 28.5895 38.3726 27.6424 37.2533 27.0397C36.8945 26.8531 36.9806 26.6379 37.0954 26.4226C38.2578 24.1122 39.1762 21.7014 40.5538 19.4915C40.8552 19.0179 41.1565 18.5013 41.1709 17.9129C41.2139 16.3488 41.2283 14.7702 41.1852 13.2061C41.1709 12.3451 40.7978 12.0437 39.9655 12.0724C37.3681 12.1872 34.785 12.1155 32.202 12.015C29.662 11.9146 27.1364 12.3594 24.582 12.1442C23.5201 12.0581 23.104 12.4599 23.0753 13.5361C23.0322 14.9712 22.9892 16.4205 22.9892 17.8556C22.9748 18.8027 23.5488 19.2906 24.582 19.1758C26.0314 19.0179 27.4808 19.3623 28.9301 19.1614C29.2459 19.1184 29.3607 19.2475 29.1741 19.5776C27.9543 21.8162 26.7489 24.0692 25.5435 26.3078C25.2996 26.767 25.0699 27.2262 25.0986 27.7859C25.1417 28.8334 25.1417 29.881 25.156 30.9142C25.1704 31.5026 25.113 32.1053 25.2565 32.6936C25.4287 33.4399 25.8018 33.7269 26.5624 33.7412C27.3947 33.7412 28.227 33.7699 29.0593 33.7412C29.4755 33.7269 29.6907 33.9134 29.906 34.2435C30.2791 34.8318 30.2073 35.535 30.3939 36.1664C30.523 36.6112 30.4082 36.7835 29.9347 36.7261C28.9014 36.5969 27.8395 36.6256 26.8063 36.6113C25.974 36.6113 25.1417 36.6113 24.3094 36.6113C23.678 36.6113 23.2762 36.8839 23.104 37.501C22.7739 38.649 22.7452 39.8257 22.817 41.0024C22.9605 43.6859 23.1757 46.3407 24.6251 48.7372C25.6583 50.4448 27.0216 51.6072 29.0162 51.8942C30.7383 52.1382 32.4746 51.8798 34.211 51.9085C37.3394 51.9803 39.3484 49.8852 40.3673 47.417C41.5296 44.6187 41.8023 41.6051 41.8166 38.6203C41.8166 35.5206 41.2139 32.5214 39.6784 29.7232ZM29.6333 27.6567C28.4853 27.7141 27.3516 27.7572 26.2036 27.6137C26.0458 27.5993 25.8592 27.6137 25.7301 27.3841C25.9884 27.1401 26.2897 27.1832 26.5624 27.1688C27.5669 27.1545 28.557 27.1545 29.5616 27.1545C29.7625 27.1545 30.0638 27.054 30.0925 27.3554C30.1356 27.6711 29.8342 27.6567 29.6333 27.6567ZM27.7678 44.9631C27.1794 44.9774 26.5911 45.0348 26.0458 44.9344C25.4144 44.9344 24.826 44.9344 24.2376 44.9344C24.0798 44.9344 23.8645 44.963 23.8645 44.7334C23.8645 44.5756 24.0654 44.5469 24.1946 44.5469C25.4 44.5326 26.6054 44.5182 27.8108 44.5182C27.9543 44.5182 28.1122 44.5612 28.1265 44.7334C28.1409 44.963 27.9256 44.9487 27.7678 44.9631ZM39.6928 47.3308C38.7744 49.469 37.282 51.105 34.7276 51.2915C33.6801 51.3633 32.733 51.0906 31.8576 50.4448C30.2217 49.2107 29.2745 47.5891 28.8297 45.6088C28.27 43.1693 28.2557 40.7298 28.4709 38.2615C28.5283 37.5871 28.8153 37.2857 29.5042 37.3288C30.4082 37.3718 31.3123 37.3288 32.2163 37.3575C33.2065 37.3862 33.2209 37.4005 33.1204 38.3763C32.9052 40.2132 33.1635 42.05 33.1491 43.8868C33.1491 44.3316 33.2926 44.7765 33.4505 45.1927C33.6227 45.6662 33.9958 45.9389 34.5554 45.9389C35.1007 45.9389 35.3877 45.6375 35.5599 45.1927C35.6604 44.9344 35.7752 44.6473 35.7895 44.3747C35.9043 41.7199 36.1483 39.0651 35.7321 36.4103C35.5886 35.4632 35.5886 34.4731 35.072 33.5833C34.2397 32.1483 32.6325 31.6748 31.2405 32.9376C31.1544 33.0093 31.097 33.1385 30.8818 33.0668C30.6809 31.8613 30.8244 30.5985 30.7096 29.3644C30.48 27.0971 31.7715 25.3894 32.7186 23.5813C33.4361 22.2037 33.9958 20.7256 34.8568 19.4197C35.1725 18.9318 34.9572 18.6161 34.3258 18.6018C32.776 18.5587 31.2405 18.5443 29.6907 18.5443C28.9014 18.5443 28.5427 18.243 28.5427 17.4537C28.5427 16.1479 28.5857 14.842 28.5857 13.5218C28.5857 12.9334 28.8584 12.6608 29.4611 12.6608C32.9626 12.6751 36.4496 12.6895 39.9511 12.6751C40.4247 12.6751 40.5969 12.8617 40.5825 13.3065C40.5682 14.7559 40.5682 16.2053 40.5395 17.6546C40.5395 18.1712 40.3242 18.6305 40.0659 19.061C38.6739 21.2996 37.6981 23.7535 36.5645 26.1356C36.1339 27.054 36.1483 27.0397 37.0237 27.6137C37.8129 28.1159 38.43 28.7473 38.9035 29.594C40.3816 32.2057 41.0991 35.0184 41.1422 37.9602C41.2139 41.1602 40.97 44.3603 39.6928 47.3308Z" fill="#191919"/>
</svg>
