<svg width="64" height="64" viewBox="0 0 64 64" fill="none" xmlns="http://www.w3.org/2000/svg">
<rect width="64" height="64" rx="32" fill="#92FDC8"/>
<path d="M39.107 37.9489C39.1801 32.6267 38.9901 27.3046 39.0924 21.9824C39.1217 20.3302 39.1948 18.6634 38.9462 17.0112C38.9608 16.938 38.9754 16.865 38.9901 16.8065C39.107 16.1924 39.0778 15.549 39.0632 14.9203C39.1801 14.3062 39.1655 13.6775 39.0632 13.0634C38.9608 12.4347 38.6538 12.1276 38.0104 12.113C35.905 12.0691 33.8141 11.9229 31.7087 12.0545C31.0068 12.0984 30.3196 12.1276 29.6032 12.0253C28.799 11.9083 28.0972 12.2007 27.5269 12.8295C26.7813 13.6921 26.021 14.5402 25.2168 15.359C24.2225 16.3532 23.5353 17.3913 23.5792 18.9119C23.6231 20.5641 23.4622 22.231 23.5646 23.8978C23.6231 24.9505 23.8278 25.2283 24.8659 25.1845C25.67 25.1552 26.4596 25.1699 27.2638 25.1406C27.6001 25.126 27.7609 25.1406 27.7463 25.5939C27.7024 27.8163 27.717 30.0241 27.717 32.2466C27.7024 37.2471 27.7024 42.2476 27.6878 47.2481C27.6878 48.3154 27.6293 49.3828 27.6878 50.4355C27.7463 51.5029 28.258 51.9415 29.3254 51.9708C29.8517 51.9854 30.3927 51.9708 30.9191 51.9708C33.2 51.9854 35.481 52 37.7473 52C38.6245 52 39.0778 51.6491 39.0778 50.918C39.107 49.1196 39.0778 47.3358 39.1363 45.5374C39.2386 43.0079 39.0778 40.4784 39.107 37.9489ZM28.2434 17.713C27.6878 17.713 27.1322 17.713 26.5766 17.713C26.5766 17.6984 26.5766 17.6837 26.5766 17.6837C25.9917 17.6837 25.4215 17.6837 24.8366 17.6837C24.6904 17.6837 24.5003 17.6691 24.4857 17.4937C24.4711 17.2597 24.6904 17.2743 24.8512 17.2743C25.9771 17.2597 27.1176 17.2451 28.2434 17.2305C28.3896 17.2305 28.5504 17.2743 28.5651 17.4498C28.6089 17.6691 28.4189 17.713 28.2434 17.713ZM38.5076 42.9786C38.4929 45.552 38.4198 48.1253 38.5076 50.6987C38.5222 51.0789 38.376 51.3274 37.9812 51.3274C36.7822 51.342 35.5687 51.342 34.3697 51.3274C33.7556 51.3128 33.4778 50.9911 33.4925 50.3478C33.5217 49.1927 33.5071 48.0376 33.5071 46.8825C33.4632 41.2241 33.3609 35.5802 33.3901 29.9218C33.4047 27.1876 33.4193 24.468 33.4047 21.7338C33.4047 21.4853 33.5363 21.1344 33.2146 21.0174C32.8637 20.8858 32.659 21.1782 32.4397 21.4268C31.6209 22.2895 30.8021 23.1521 29.9687 24.0002C29.8225 24.1464 29.6909 24.3803 29.4277 24.2633C29.1938 24.1464 29.3108 23.9124 29.3108 23.737C29.2961 22.772 29.3108 21.7923 29.3108 20.8273C29.3254 20.8273 29.34 20.8273 29.3546 20.8273C29.3546 20.067 29.4131 19.2921 29.34 18.5318C29.2669 17.6399 29.5739 16.9381 30.1734 16.3093C31.153 15.3005 32.1034 14.2623 33.0831 13.2535C33.5071 12.8148 34.0042 12.6394 34.6475 12.6832C35.5833 12.7563 36.5337 12.7125 37.4841 12.6979C38.4198 12.6832 38.5368 12.7564 38.4929 13.6629C38.3906 15.8853 38.4198 18.1078 38.4491 20.3302C38.5368 24.9798 38.3906 29.6147 38.5076 34.2643C38.5953 37.174 38.5368 40.0836 38.5076 42.9786Z" fill="#191919"/>
</svg>
