<svg width="64" height="64" viewBox="0 0 64 64" fill="none" xmlns="http://www.w3.org/2000/svg">
<rect width="64" height="64" rx="32" fill="#92FDC8"/>
<path d="M41.0649 33.2019C40.5321 31.2144 39.6248 29.4862 38.3862 27.9021C37.4645 26.7355 36.1107 26.5051 34.7714 26.2603C34.5554 26.2171 34.3681 26.2603 34.3393 25.9434C34.1809 23.8264 34.2241 21.6949 34.2817 19.5779C34.2817 19.3763 34.3105 19.2467 34.5986 19.2323C36.0963 19.1314 37.5797 19.1314 39.0775 19.2035C40.4744 19.2755 40.8201 18.9442 40.8345 17.5328C40.8345 16.1503 40.8345 14.7821 40.8345 13.3996C40.8345 12.5787 40.46 12.2186 39.6103 12.161C37.5653 12.0458 35.5347 12.1178 33.4896 12.1322C31.7038 12.1466 29.9324 12.1322 28.1466 12.1322C28.1466 12.089 28.1466 12.0602 28.1466 12.017C27.0233 12.017 25.8999 12.0458 24.791 12.0026C23.5957 11.9594 23.0052 12.4491 23.034 13.6156C23.0916 15.8479 23.0916 18.0945 23.0484 20.3268C22.9764 23.7256 23.0484 27.1388 23.0628 30.5376C23.0628 31.056 23.1636 31.5457 23.6389 31.8481C24.6182 32.4818 25.5543 33.1875 26.548 33.7923C27.1097 34.138 27.6426 34.282 28.2906 34.2388C30.1052 34.138 30.1196 34.1812 30.3213 36.039C30.3645 36.4567 30.3213 36.6151 29.8172 36.6007C28.0314 36.5863 26.2456 36.6295 24.4598 36.6727C23.2068 36.7015 22.962 36.9031 22.8612 38.156C22.6164 41.5548 22.6596 44.9681 23.9557 48.1508C24.9638 50.6279 26.5336 51.9673 29.0251 51.9961C30.6957 52.0105 32.3663 51.9817 34.0369 51.9673C35.6787 51.9673 37.1621 51.5496 38.3286 50.3111C39.0487 49.5622 39.6247 48.6981 40.0856 47.8052C41.1801 45.7169 41.6266 43.4271 41.6698 41.1084C41.7418 38.4873 41.7706 35.823 41.0649 33.2019ZM27.7722 31.5169C27.1817 31.5313 26.5768 31.5313 25.9864 31.5313C25.4391 31.5313 24.8918 31.5313 24.3446 31.5313C24.1717 31.5313 23.9845 31.4881 23.9701 31.3009C23.9557 31.128 24.1717 31.0704 24.287 31.0704C25.4535 31.056 26.62 31.0704 27.7866 31.0848C27.8874 31.0848 28.1034 31.0992 28.1034 31.3009C28.089 31.4737 27.8874 31.5169 27.7722 31.5169ZM27.3113 45.0689C26.2168 45.0689 25.1079 45.0689 24.0133 45.0689C23.8549 45.0689 23.7109 45.0113 23.7253 44.8384C23.7253 44.7088 23.8549 44.6512 23.9845 44.6512C25.1511 44.6368 26.3176 44.5504 27.4985 44.6656C27.5849 44.68 27.657 44.7664 27.729 44.8096C27.6426 44.9968 27.4697 45.0689 27.3113 45.0689ZM40.6905 44.3632C40.2728 46.6098 39.2791 48.6837 37.5365 50.2535C36.298 51.3768 34.757 51.5496 33.1296 51.2184C30.8973 50.7719 29.8748 49.1301 29.0971 47.2579C28.1178 44.9248 28.2186 42.4622 28.3914 39.9995C28.4346 39.4522 28.4635 38.905 28.4779 38.3577C28.5067 37.5224 28.8235 37.1911 29.6444 37.2344C30.4941 37.2776 31.3438 37.2487 32.2079 37.2199C32.9712 37.1911 33.0288 37.4072 33.0432 38.1705C33.1008 40.3307 32.928 42.5054 33.2592 44.6512C33.288 44.8672 33.3312 45.0833 33.4176 45.2705C33.6192 45.7169 33.8785 46.1058 34.4401 46.149C35.0306 46.1778 35.2898 45.7601 35.5059 45.3281C35.7219 44.8816 35.7795 44.3632 35.7939 43.8591C35.8659 41.3676 35.8803 38.8617 35.8083 36.3703C35.7795 35.3189 35.7075 34.282 35.2322 33.3171C34.6706 32.1794 33.5472 32.0209 32.8128 33.0579C32.5103 33.4899 32.3087 33.4467 31.9343 33.1875C30.9837 32.5106 30.0188 31.8625 29.0251 31.2432C28.7371 31.056 28.6651 30.8544 28.6651 30.5376C28.6795 29.227 28.6651 27.9165 28.6651 26.6059C28.6507 26.6059 28.6507 26.6059 28.6363 26.6059C28.6363 23.4375 28.6363 20.2692 28.6363 17.1008C28.6363 16.1071 28.5931 15.099 28.5787 14.1052C28.5643 13.1547 28.9819 12.7083 29.8892 12.7227C32.9856 12.7371 36.0819 12.7515 39.1783 12.7803C40.172 12.7947 40.1576 12.8523 40.1864 13.8604C40.2296 15.1422 40.2008 16.4239 40.1576 17.6913C40.1288 18.6418 40.0568 18.685 39.0919 18.613C38.1558 18.541 37.2341 18.541 36.298 18.5266C35.5779 18.5121 34.8866 18.7426 34.1665 18.6562C33.8497 18.613 33.6913 18.7858 33.6625 19.117C33.5328 21.5941 33.6049 24.0568 33.6913 26.5339C33.7057 26.9371 34.0225 26.8507 34.2673 26.8795C35.4771 27.0091 36.7444 27.11 37.6085 28.0749C38.9623 29.6014 40.1144 31.272 40.3736 33.3747C40.4168 33.7923 40.6185 34.138 40.6905 34.5412C41.2953 37.796 41.2953 41.094 40.6905 44.3632Z" fill="#191919"/>
</svg>
