<svg width="105" height="120" viewBox="0 0 105 120" fill="none" xmlns="http://www.w3.org/2000/svg">
    <g clip-path="url(#clip0_12682_216361)">
        <rect width="105" height="120"/>
        <path d="M76.2932 36.7001C75.8733 36.017 75.1995 35.5284 74.4196 35.3418C73.6398 35.1551 72.8177 35.2857 72.134 35.7047C58.3089 44.1898 44.865 44.1925 31.0424 35.7047C30.3585 35.2834 29.5353 35.151 28.7538 35.3367C27.9723 35.5224 27.2966 36.0109 26.8753 36.6948C26.454 37.3787 26.3217 38.202 26.5073 38.9835C26.693 39.7649 27.1816 40.4407 27.8655 40.862C34.0922 44.8548 41.1853 47.297 48.5503 47.9837V56.6039C48.5503 57.4061 48.8689 58.1755 49.4362 58.7427C50.0034 59.31 50.7728 59.6286 51.575 59.6286C52.3772 59.6286 53.1466 59.31 53.7138 58.7427C54.2811 58.1755 54.5998 57.4061 54.5998 56.6039V47.9837C61.9648 47.2972 69.058 44.855 75.2846 40.862C75.6231 40.6543 75.9174 40.3819 76.1506 40.0605C76.3839 39.7391 76.5515 39.3748 76.6439 38.9886C76.7364 38.6023 76.7518 38.2017 76.6894 37.8095C76.6269 37.4173 76.4878 37.0412 76.28 36.7028"
              fill="#00F897"/>
        <path d="M33.936 26.4629C39.092 30.1597 45.2441 32.2137 51.5868 32.3562C57.9296 32.2137 64.0816 30.1597 69.2376 26.4629C69.5679 26.2417 69.8514 25.9577 70.0719 25.627C70.2924 25.2964 70.4457 24.9255 70.5229 24.5356C70.6001 24.1457 70.5997 23.7444 70.5218 23.3546C70.4439 22.9648 70.29 22.5942 70.0689 22.2639C69.8478 21.9337 69.5638 21.6502 69.2331 21.4296C68.9024 21.2091 68.5315 21.0559 68.1416 20.9787C67.7517 20.9015 67.3504 20.9018 66.9607 20.9797C66.5709 21.0576 66.2003 21.2115 65.87 21.4326C61.7688 24.5685 56.7495 26.2675 51.5868 26.2675C46.4241 26.2675 41.4049 24.5685 37.3036 21.4326C36.6366 20.9857 35.8193 20.8221 35.0316 20.9777C34.2439 21.1334 33.5503 21.5956 33.1034 22.2626C32.6565 22.9297 32.4929 23.7469 32.6485 24.5346C32.8042 25.3223 33.2663 26.0159 33.9334 26.4629"
              fill="#00F897"/>
        <path d="M43.3637 13.8558C45.8196 15.433 48.6683 16.2905 51.5868 16.3312C54.5053 16.2905 57.354 15.433 59.8099 13.8558C60.4934 13.4362 60.9823 12.7624 61.169 11.9824C61.3557 11.2024 61.2249 10.3801 60.8053 9.69659C60.3858 9.01304 59.7119 8.52415 58.9319 8.33747C58.1519 8.15078 57.3297 8.2816 56.6461 8.70114C55.1618 9.7357 53.3961 10.2904 51.5868 10.2904C49.7775 10.2904 48.0117 9.7357 46.5274 8.70114C45.8439 8.2816 45.0217 8.15078 44.2417 8.33747C43.4617 8.52415 42.7878 9.01304 42.3682 9.69659C41.9487 10.3801 41.8179 11.2024 42.0046 11.9824C42.1913 12.7624 42.6802 13.4362 43.3637 13.8558Z"
              fill="#00F897"/>
        <path d="M16.7129 74.7564V80.6922H24.4571C26.0195 80.6922 26.5638 81.1488 26.5638 82.6711V85.7068C26.5638 87.2236 26.0195 87.7521 24.4571 87.7521H16.7129V101.017C16.7129 107.485 18.687 108.606 24.3903 108.606C26.0204 108.606 26.5638 109.069 26.5638 110.653V113.687C26.5638 115.273 26.0194 115.735 24.3903 115.8C13.1811 116.13 8.83333 112.696 8.83333 101.281V87.7552H4.14531C2.58293 87.7552 2.10718 87.2263 2.10718 85.7094V82.6742C2.10718 81.1556 2.58199 80.6953 4.14531 80.6953H8.83333V74.7596C8.83333 73.2409 9.37667 72.7784 10.9391 72.7784H14.6053C16.1696 72.7784 16.7129 73.2351 16.7129 74.7564Z"
              fill="#00F897"/>
        <path d="M55.9786 79.7059C57.541 79.7059 58.0844 80.1668 58.0844 81.7503V84.6544C58.0844 86.1731 57.541 86.6997 55.9786 86.6997H53.5345C51.3545 86.6465 49.1788 86.9139 47.081 87.4926C46.469 87.625 46.4013 87.9539 46.4013 88.2845V112.835C46.4013 114.351 45.9267 114.881 44.3624 114.881H40.6266C39.0642 114.881 38.5209 114.351 38.5209 112.835V85.4459C38.5209 83.3328 38.9965 82.5423 41.1709 81.6839C45.2407 80.3474 49.5112 79.6787 53.8072 79.705L55.9786 79.7059Z"
              fill="#00F897"/>
        <path d="M77.6549 71.8528V72.4472C77.6549 75.4827 76.6349 76.4714 73.5101 76.4714H73.0354C69.9107 76.4714 68.8907 75.4827 68.8907 72.4472V71.8528C68.8907 68.8174 69.9107 67.8928 73.0354 67.8928H73.5101C76.6349 67.8919 77.6549 68.8174 77.6549 71.8528ZM77.247 82.6765V112.836C77.247 114.356 76.7036 114.882 75.1412 114.882H71.4044C69.842 114.882 69.3673 114.356 69.3673 112.836V82.6765C69.3673 81.157 69.842 80.6967 71.4044 80.6967H75.1412C76.7036 80.6958 77.247 81.1561 77.247 82.6756V82.6765Z"
              fill="#00F897"/>
        <path d="M100.143 71.8528V72.4472C100.143 75.4827 99.1238 76.4714 95.999 76.4714H95.5243C92.3986 76.4714 91.3796 75.4827 91.3796 72.4472V71.8528C91.3796 68.8174 92.3986 67.8928 95.5243 67.8928H95.999C99.1266 67.8919 100.143 68.8174 100.143 71.8528ZM99.7357 82.6765V112.836C99.7357 114.356 99.1915 114.882 97.6291 114.882H93.8924C92.3291 114.882 91.8533 114.356 91.8533 112.836V82.6765C91.8533 81.157 92.3291 80.6967 93.8924 80.6967H97.6291C99.1924 80.6958 99.7368 81.1561 99.7368 82.6756L99.7357 82.6765Z"
              fill="#00F897"/>
    </g>
    <defs>
        <clipPath id="clip0_12682_216361">
            <rect width="105" height="120" fill="white"/>
        </clipPath>
    </defs>
</svg>
