<svg width="247" height="80" viewBox="0 0 247 80" fill="none" xmlns="http://www.w3.org/2000/svg">
<path d="M71.8829 31.4316H59.2857V45.7487C59.2857 50.1711 61.6086 51.891 64.4898 51.891C66.7234 51.891 69.158 50.9082 71.1235 49.6574L73.9824 55.3976C71.3245 57.1845 67.9965 58.6586 63.8868 58.6586C56.4267 58.6586 52.0713 54.6382 52.0713 45.8827V31.4316H45.5046V24.9096H52.0713V14.948H59.2857V24.9096H71.8829V31.4316Z" fill="#002612"/>
<path d="M101.098 24.9774L99.3783 32.0801C97.8818 31.2984 95.6706 30.874 93.9284 30.874C89.372 30.874 86.0887 34.1126 86.0887 39.6965V57.8106H78.9189V24.9104H86.0216V28.6181C88.1882 25.4911 91.5609 24.0393 95.5813 24.0393C97.7701 24.0393 99.4676 24.3073 101.098 24.9774Z" fill="#002612"/>
<path d="M115.371 13.5424C115.371 16.379 113.137 18.5456 110.279 18.5456C109.616 18.5607 108.958 18.4419 108.343 18.1961C107.728 17.9503 107.169 17.5827 106.699 17.1154C106.23 16.648 105.86 16.0906 105.611 15.4766C105.363 14.8626 105.241 14.2047 105.253 13.5424C105.253 10.6835 107.42 8.44992 110.279 8.44992C110.95 8.4409 111.616 8.56647 112.238 8.8192C112.86 9.07193 113.425 9.44671 113.9 9.9214C114.374 10.3961 114.749 10.9611 115.002 11.583C115.254 12.2049 115.38 12.8712 115.371 13.5424ZM113.919 57.8114H106.705V24.9112H113.919V57.8114Z" fill="#002612"/>
<path d="M132.123 13.5424C132.123 16.379 129.89 18.5456 127.031 18.5456C126.37 18.5577 125.714 18.4366 125.102 18.1894C124.489 17.9423 123.933 17.5742 123.466 17.1072C122.999 16.6402 122.631 16.0838 122.384 15.4713C122.136 14.8588 122.015 14.2028 122.027 13.5424C122.027 10.6835 124.194 8.44992 127.031 8.44992C127.702 8.4409 128.368 8.56647 128.99 8.8192C129.612 9.07193 130.177 9.44671 130.652 9.9214C131.126 10.3961 131.501 10.9611 131.754 11.583C132.007 12.2049 132.132 12.8712 132.123 13.5424ZM130.671 57.8114H123.457V24.9112H130.671V57.8114Z" fill="#002612"/>
<path d="M175.229 41.7973C175.229 51.2006 168.149 58.1916 158.947 58.1916C152.827 58.1916 147.958 55.02 145.3 50.3519V71.5483H142.91V25.7604H145.3V33.2428C147.958 28.5524 152.827 25.3807 158.947 25.3807C168.149 25.3807 175.229 32.3941 175.229 41.7973ZM145.143 41.7973C145.143 49.8381 151.018 55.9134 158.947 55.9134C166.876 55.9134 172.75 49.7711 172.75 41.7973C172.75 33.8236 166.921 27.659 158.947 27.659C150.973 27.659 145.143 33.7342 145.143 41.7973Z" fill="#002612"/>
<path d="M202.636 26.7655L201.988 28.9544C200.402 28.061 198.303 27.6143 196.248 27.6143C190.061 27.6143 186.242 32.8631 186.242 39.3851V57.8119H183.874V25.7604H186.242V31.389C188.252 27.8153 191.669 25.3807 196.449 25.3807C198.682 25.3807 200.916 25.8274 202.636 26.7655Z" fill="#002612"/>
<path d="M238.105 41.7973C238.105 51.1336 231.047 58.1916 221.689 58.1916C212.33 58.1916 205.384 51.1336 205.384 41.7973C205.384 32.4611 212.419 25.3807 221.689 25.3807C230.958 25.3807 238.105 32.4164 238.105 41.7973ZM207.818 41.7973C207.818 49.9051 213.804 55.9134 221.689 55.9134C229.573 55.9134 235.671 49.9051 235.671 41.7973C235.671 33.6896 229.618 27.659 221.689 27.659C213.76 27.659 207.818 33.6672 207.818 41.7973Z" fill="#002612"/>
<path d="M35.9452 39.6751C33.5689 39.6721 31.2623 38.8713 29.3953 37.4012C27.5283 35.931 26.2089 33.8767 25.6486 31.5673C27.8274 33.3707 30.5707 34.351 33.399 34.3369H35.4985V30.1378H33.399C31.6294 30.144 29.9074 29.5646 28.5015 28.49C27.0956 27.4153 26.0846 25.9058 25.6262 24.1966C27.1841 25.2018 28.9987 25.7368 30.8527 25.7377H32.9523V21.5163H30.8527C29.3934 21.5163 27.9936 20.9382 26.9596 19.9084C25.9256 18.8786 25.3418 17.4811 25.3359 16.0218V13.8999H21.1368V16.0218C21.1368 16.7452 20.9939 17.4615 20.7164 18.1296C20.4389 18.7977 20.0322 19.4044 19.5196 19.9149C19.007 20.4254 18.3986 20.8297 17.7294 21.1045C17.0602 21.3793 16.3433 21.5193 15.6199 21.5163H13.5204V25.7377H15.6199C17.4808 25.7361 19.3023 25.2013 20.8687 24.1966C20.4103 25.9058 19.3994 27.4153 17.9935 28.49C16.5875 29.5646 14.8656 30.144 13.096 30.1378H10.9964V34.3369H13.096C15.9236 34.3472 18.6657 33.3673 20.8464 31.5673C20.279 33.8729 18.9577 35.9228 17.0922 37.3917C15.2267 38.8606 12.9241 39.6643 10.5497 39.6751H8.4502V43.8742H10.5497C12.5238 43.8776 14.4784 43.4839 16.2972 42.7164C18.116 41.949 19.7618 40.8236 21.1368 39.4071V58.8837H25.3359V39.4071C26.7165 40.8222 28.3666 41.9465 30.1887 42.7137C32.0108 43.4809 33.9682 43.8755 35.9452 43.8742H38.0448V39.6751H35.9452Z" fill="#002612"/>
</svg>
