<svg width="24" height="24" viewBox="0 0 24 24" fill="none" xmlns="http://www.w3.org/2000/svg">
<path d="M23 12.3152V17.4221C23 18.1731 22.3751 18.7838 21.6064 18.7838C20.8377 18.7838 20.2163 18.1731 20.2163 17.4221V12.3152C20.2163 10.9955 19.1173 9.92149 17.7667 9.92149C16.4234 9.92149 15.3279 10.985 15.317 12.2941C15.317 12.3012 15.317 12.3082 15.317 12.3152V13.4383C15.317 14.1895 14.6921 14.8002 13.9235 14.8002C13.1548 14.8002 12.5298 14.1895 12.5298 13.4383V12.3152C12.5298 10.9955 11.4307 9.92149 10.0802 9.92149C8.72959 9.92149 7.63049 10.9955 7.63049 12.3152V13.4383C7.63049 14.1895 7.0055 14.8002 6.23685 14.8002C5.46819 14.8002 4.8432 14.1895 4.8432 13.4383V12.3152C4.8432 9.49329 7.19228 7.19786 10.0802 7.19786C11.5959 7.19786 12.9644 7.83313 13.9235 8.84397C14.8824 7.83313 16.251 7.19786 17.7667 7.19786C20.6546 7.19786 23 9.49329 23 12.3152Z" fill="#0700FF"/>
<path d="M6.23692 18.7832C3.34907 18.7832 1 16.4877 1 13.6658V6.36182C1 5.61072 1.62498 5 2.39364 5C3.1623 5 3.78728 5.61072 3.78728 6.36182V13.6658C3.78728 14.9855 4.88639 16.0595 6.23692 16.0595C7.58747 16.0595 8.68657 14.9855 8.68657 13.6658V12.3742C8.68657 11.6231 9.31156 11.0124 10.0802 11.0124C10.8489 11.0124 11.4738 11.6231 11.4738 12.3742V13.6658C11.4738 16.4877 9.12478 18.7832 6.23692 18.7832Z" fill="#0700FF"/>
</svg>
