<svg width="526" height="722" viewBox="0 0 526 722" fill="none" xmlns="http://www.w3.org/2000/svg">
<path d="M353.905 272.567C325.321 272.567 299.545 284.792 281.518 304.28C263.486 284.792 237.709 272.567 209.13 272.567C154.745 272.567 110.499 316.813 110.499 371.198V392.859C110.499 407.353 122.248 419.102 136.742 419.102C151.236 419.102 162.985 407.353 162.985 392.859V371.198C162.985 345.753 183.685 325.053 209.13 325.053C234.575 325.053 255.275 345.753 255.275 371.198V392.859C255.275 407.353 267.024 419.102 281.518 419.102C296.012 419.102 307.761 407.353 307.761 392.859V371.198C307.761 345.753 328.461 325.053 353.905 325.053C379.35 325.053 400.05 345.753 400.05 371.198V469.641C400.05 484.135 411.799 495.884 426.293 495.884C440.787 495.884 452.536 484.135 452.536 469.641V371.202C452.541 316.813 408.29 272.567 353.905 272.567Z" fill="#00FA7C"/>
<path d="M209.13 346.142C194.636 346.142 182.887 357.891 182.887 372.385V397.258C182.887 422.703 162.187 443.403 136.742 443.403C111.297 443.403 90.5969 422.703 90.5969 397.258V256.472C90.5969 241.978 78.8479 230.229 64.354 230.229C49.8601 230.229 38.1111 241.978 38.1111 256.472V397.258C38.1111 451.642 82.3572 495.888 136.742 495.888C191.126 495.888 235.373 451.642 235.373 397.258V372.385C235.368 357.891 223.619 346.142 209.13 346.142Z" fill="#00FA7C"/>
<path d="M214.057 645.491L212.918 628.3L232.411 628.117L231.714 637.434L247.064 646.38C248.66 647.375 248.083 648.914 246.208 648.774L214.057 645.491Z" fill="#12211A"/>
<path d="M103.269 589.587L96.3991 593.327L93.8657 613.31C93.6157 615.301 90.8467 615.58 90.1978 613.681L78.3911 578.991L91.8899 570.055L103.269 589.587Z" fill="#12211A"/>
<path d="M201.25 257.832C208.98 260.423 211.764 264.221 213.802 272.115C222.369 305.275 228.339 310.606 237.502 327.466C241.184 334.244 223.402 313.919 221.311 321.341C218.758 330.398 213.057 338.532 205.409 344.017C197.765 349.502 197.506 364.53 188.107 364.039C185.92 363.924 145.707 394.551 129.925 374.115C115.979 356.059 147.75 342.277 148.351 338.638C148.774 336.056 135.415 345.921 121.334 344.661C118.686 344.426 106.379 335.811 112.148 325.086C118.33 313.587 135.838 318.764 150.654 311.323C158.216 307.525 166.172 288.363 168.2 269.346C168.955 262.269 171.719 269.999 176.676 264.889C181.632 259.784 188.775 256.265 195.799 257.414" fill="#C78F32"/>
<path d="M151.082 393.465C144.881 405.247 126.075 414.093 135.492 445.081C140.78 462.488 150.457 506.421 150.457 506.421C150.457 506.421 78.4587 526.814 89.1164 567.916C86.8185 575.305 91.4143 588.174 102.846 591.414C114.403 613.393 177.589 545.476 177.589 545.476C185.776 540.957 192.487 534.188 192.473 524.838L184.69 449.994L211.279 518.329C212.779 546.644 170.653 606.1 211 626.738C217.812 637.809 232.609 633.429 236.829 628.045C275.533 618.31 247.602 550.052 254.049 518.055C253.953 516.367 253.756 514.69 253.414 513.036C242.627 460.603 212.307 391.407 215.331 397.623L151.082 393.465Z" fill="#3C504D"/>
<path d="M233.291 345.772C224.912 325.831 222.994 321.745 222.994 321.745L154.182 327.144C154.182 327.144 154.274 328.682 154.408 331.316L150.322 331.888C150.322 331.888 145.414 347.527 155.048 379.903C167.128 411.333 211.552 397.344 220.571 388.023L224.921 376.586C224.917 376.577 243.069 369.034 233.291 345.772Z" fill="#258A9D"/>
<path d="M197.16 314.221C209.303 312.38 225.051 312.169 236.969 319.865C247.184 325.884 328.22 338.013 328.22 338.013L326.73 353.425C326.73 353.425 250.583 356.304 230.277 350.723C211.12 333.133 152.279 352.011 152.279 352.011C152.279 352.011 143.458 359.237 72.9783 362.015L61.5706 366.472L56.7729 351.877C56.7729 351.877 138.309 325.591 149.38 321.61C160.447 317.635 163.629 310.654 197.16 314.221Z" fill="#258A9D"/>
<path d="M183.901 310.227C170.508 308.208 166.575 291.421 169.71 278.965C170.484 267.105 175.579 254.323 190.4 254.246C209.908 253.876 212.095 272.86 210.951 287.065C209.365 304.304 194.549 311.832 183.901 310.227Z" fill="#F8B784"/>
<path d="M56.768 351.882L37.6832 353.112L31.3953 360.03C29.4195 362.208 30.4146 365.702 33.2413 366.51L38.9331 368.135L38.76 368.76C38.3658 370.178 39.4667 371.563 40.9329 371.505C43.6923 371.389 47.5717 371.207 48.9082 371.015C51.0618 370.702 61.5657 366.481 61.5657 366.481L56.768 351.882Z" fill="#F8B784"/>
<path d="M326.725 353.43C326.725 353.43 335.474 357.025 337.714 357.713C339.955 358.4 347.848 358.559 348.012 357.785C348.175 357.011 339.791 354.228 339.791 354.228C339.791 354.228 361.352 351.261 362.025 350.093C362.698 348.92 347.656 349.67 347.656 349.67C347.656 349.67 361.659 346.901 361.419 345.435C361.179 343.969 346.81 345.959 346.81 345.959C346.81 345.959 360.246 342.017 360.145 340.7C360.044 339.383 345.185 342.022 345.185 342.022C345.185 342.022 353.761 339.003 353.626 337.772C353.487 336.542 336.508 338.83 336.508 338.83L328.225 338.017L326.725 353.43Z" fill="#F8B784"/>
<path d="M155.044 379.894L151.083 393.465C151.083 393.465 170.836 403.512 190.161 405.377C209.486 407.242 216.236 401.132 216.236 401.132L220.572 388.008C220.567 388.013 190.373 396.022 155.044 379.894Z" fill="#F8B784"/>
<path d="M218.932 318.567C218.994 323.87 209.606 332.59 196.242 332.749C182.877 332.907 170.999 324.076 170.936 318.769C170.874 313.467 180.267 313.5 193.631 313.342C206.991 313.188 218.869 313.265 218.932 318.567Z" fill="#F8B784"/>
<path d="M210.322 291.031C210.697 291.368 211.168 314.039 210.697 318.414C210.226 322.788 190.92 328.004 182.973 320.716C183.94 312.597 183.872 298.281 183.872 298.281C183.872 298.281 197.198 279.153 210.322 291.031Z" fill="#F8B784"/>
<path d="M205.442 286.7C206.245 289.791 209.355 291.676 212.389 290.911C215.422 290.142 217.234 287.013 216.427 283.922C215.624 280.831 212.514 278.941 209.48 279.71C206.447 280.475 204.639 283.604 205.442 286.7Z" fill="#F8B784"/>
<path d="M214.716 285.719C215.158 283.537 213.418 281.556 211.231 281.546C208.942 281.537 207.284 283.436 207.068 285.609C207.043 285.83 207.231 286.06 207.423 286.137C207.659 286.234 207.861 286.171 208.053 286.017C208.764 285.455 209.899 285.849 209.971 286.782C210.038 287.628 209.101 288.084 208.442 287.594C208.192 287.406 207.798 287.556 207.654 287.801C207.481 288.094 207.611 288.402 207.861 288.589C208.49 289.06 209.37 289.051 210.053 288.7C210.788 288.32 211.197 287.503 211.12 286.69C211.038 285.825 210.519 285.085 209.707 284.762C208.861 284.431 207.933 284.647 207.236 285.195C207.563 285.33 207.894 285.469 208.221 285.604C208.375 284.094 209.558 282.734 211.13 282.695C212.567 282.657 213.908 283.907 213.605 285.407C213.456 286.142 214.567 286.45 214.716 285.719Z" fill="#D47D4E"/>
<path d="M181.877 408.829C179.036 410.405 178.156 413.809 177.724 416.799C177.152 420.765 177.171 424.779 177.762 428.74C178.046 430.639 178.377 432.677 179.079 434.471C179.353 435.163 179.8 435.797 180.565 435.966C181.257 436.119 181.896 435.793 182.319 435.259C182.742 434.725 182.973 434.052 183.074 433.384C183.233 432.351 183.339 431.307 183.435 430.269C183.632 428.159 183.747 426.043 183.795 423.928C183.911 419.174 183.728 414.419 183.54 409.67C183.069 409.732 182.598 409.8 182.122 409.862C182.906 413.492 184.108 417.02 185.694 420.38C186.478 422.049 187.362 423.669 188.333 425.231C189.208 426.64 190.126 428.163 191.53 429.101C192.684 429.875 194.698 430.231 195.357 428.639C195.66 427.899 195.477 427.053 195.362 426.293C195.241 425.481 195.078 424.673 194.876 423.88C194.092 420.789 192.732 417.828 190.91 415.208C188.853 412.251 186.237 409.723 183.185 407.809C182.396 407.314 181.67 408.564 182.459 409.055C187.257 412.064 190.953 416.741 192.828 422.082C193.314 423.457 193.679 424.88 193.915 426.317C193.991 426.779 194.314 427.837 193.958 428.207C193.54 428.639 192.612 428.096 192.256 427.856C191.049 427.039 190.271 425.625 189.521 424.414C188.665 423.029 187.877 421.597 187.165 420.131C185.521 416.741 184.31 413.16 183.512 409.478C183.339 408.684 182.065 408.857 182.094 409.67C182.387 417.116 182.675 424.606 181.8 432.024C181.723 432.682 181.69 433.389 181.406 433.999C181.132 434.596 180.757 434.745 180.454 434.062C180.156 433.384 180.012 432.601 179.839 431.889C179.627 431.014 179.44 430.13 179.286 429.245C178.671 425.688 178.57 422.034 178.95 418.443C179.257 415.535 179.752 411.65 182.593 410.074C183.416 409.622 182.69 408.377 181.877 408.829Z" fill="#20382E"/>
<path d="M181.339 409.997C181.262 416.41 183.564 422.481 185.987 428.317C188.194 433.634 190.415 439.379 195.222 442.907C197.669 444.705 200.717 445.796 203.774 445.46C204.687 445.359 204.697 443.917 203.774 444.018C198.231 444.628 193.756 440.499 191.145 436.042C189.732 433.629 188.665 431.033 187.593 428.452C186.444 425.692 185.314 422.919 184.425 420.058C183.41 416.794 182.742 413.429 182.781 409.997C182.795 409.069 181.353 409.069 181.339 409.997Z" fill="#20382E"/>
<path d="M145.434 516.54C147.645 525.189 152.217 533.202 158.51 539.529C160.293 541.322 162.221 542.971 164.254 544.475C165 545.028 165.721 543.778 164.98 543.23C158.034 538.086 152.529 531.029 149.15 523.078C148.198 520.833 147.424 518.516 146.823 516.156C146.593 515.257 145.203 515.641 145.434 516.54Z" fill="#20382E"/>
<path d="M141.357 517.242C139.713 518.002 138.069 518.761 136.425 519.526C135.098 520.141 133.579 520.602 133.829 522.372C134.074 524.121 134.55 525.866 134.93 527.592C135.3 529.275 135.68 530.957 136.069 532.635C136.867 536.067 137.694 539.5 138.598 542.908C138.766 543.543 138.968 544.197 139.434 544.682C139.948 545.221 140.665 545.461 141.371 545.62C143.025 545.99 144.703 546.283 146.376 546.567C150.284 547.22 154.221 547.691 158.168 547.98C159.096 548.047 159.091 546.605 158.168 546.538C154.966 546.302 151.774 545.956 148.601 545.47C146.981 545.225 145.371 544.947 143.765 544.639C143.035 544.499 142.299 544.37 141.573 544.192C140.91 544.028 140.41 543.812 140.165 543.134C139.641 541.702 139.372 540.13 139.001 538.654C138.612 537.096 138.232 535.534 137.862 533.972C137.122 530.847 136.415 527.712 135.747 524.568C135.655 524.145 135.569 523.727 135.478 523.304C135.396 522.92 135.189 522.381 135.228 521.982C135.261 521.598 135.545 521.521 135.867 521.367C136.256 521.179 136.655 521.002 137.045 520.819C138.723 520.04 140.405 519.266 142.083 518.487C142.924 518.098 142.193 516.853 141.357 517.242Z" fill="#20382E"/>
<path d="M115.762 537.831C121.19 534.072 126.819 530.62 132.631 527.491C133.448 527.049 132.722 525.804 131.905 526.246C126.098 529.375 120.464 532.832 115.036 536.586C114.277 537.115 114.998 538.365 115.762 537.831Z" fill="#20382E"/>
<path d="M135.429 566.887C140.044 563.257 144.654 559.623 149.269 555.994C150 555.422 148.971 554.407 148.25 554.975C143.635 558.604 139.025 562.238 134.41 565.868C133.679 566.44 134.708 567.454 135.429 566.887Z" fill="#20382E"/>
<path d="M112.801 546.086C112.821 550.009 112.912 554.148 115.003 557.609C116.945 560.83 120.156 563.056 123.536 564.57C125.694 565.541 127.949 566.277 130.199 566.998C131.083 567.281 131.463 565.887 130.583 565.608C126.973 564.45 123.296 563.258 120.185 561.027C117.286 558.945 115.344 556.09 114.671 552.571C114.263 550.441 114.258 548.249 114.248 546.091C114.239 545.158 112.796 545.153 112.801 546.086Z" fill="#20382E"/>
<path d="M248.775 561.719C246.717 561.147 244.679 560.513 242.665 559.811C241.655 559.46 240.655 559.09 239.66 558.71C239.199 558.532 238.737 558.349 238.276 558.167C237.838 557.989 237.319 557.849 236.934 557.575C236.574 557.32 236.651 556.869 236.651 556.474C236.651 555.917 236.651 555.354 236.651 554.797C236.651 553.677 236.656 552.561 236.656 551.441C236.66 549.206 236.66 546.966 236.665 544.73C236.305 544.937 235.944 545.144 235.579 545.355C240.333 547.701 245.482 549.095 250.77 549.475C251.698 549.542 251.693 548.1 250.77 548.033C245.751 547.677 240.819 546.341 236.305 544.11C235.824 543.875 235.218 544.158 235.218 544.735C235.213 547.134 235.213 549.528 235.209 551.927C235.209 553.124 235.204 554.326 235.204 555.523C235.204 556.503 235.012 557.734 235.771 558.493C236.463 559.186 237.636 559.465 238.521 559.815C239.583 560.234 240.655 560.637 241.732 561.017C243.924 561.796 246.14 562.493 248.381 563.118C249.284 563.358 249.669 561.969 248.775 561.719Z" fill="#20382E"/>
<path d="M238.747 563.916C238.964 568.632 239.175 573.348 239.391 578.059C239.444 579.218 239.497 580.376 239.55 581.535C239.593 582.525 239.565 583.583 239.954 584.515C240.699 586.294 243.059 587.02 244.752 587.534C247.045 588.236 249.477 588.481 251.866 588.27C252.785 588.188 252.794 586.746 251.866 586.827C249.919 587 247.968 586.875 246.069 586.404C245.122 586.169 244.184 585.861 243.29 585.462C242.54 585.13 241.612 584.755 241.271 583.948C240.906 583.083 241.012 581.967 240.968 581.054C240.92 579.977 240.872 578.895 240.819 577.819C240.723 575.66 240.622 573.502 240.526 571.343C240.415 568.867 240.3 566.387 240.19 563.911C240.151 562.993 238.709 562.988 238.747 563.916Z" fill="#20382E"/>
<path d="M142.607 540.879C144.707 542.216 147.726 541.072 148.539 538.769C148.669 538.404 148.39 537.981 148.034 537.88C147.635 537.769 147.279 538.014 147.145 538.384C147.135 538.409 147.063 538.586 147.13 538.433C147.106 538.485 147.082 538.538 147.053 538.591C147.005 538.687 146.947 538.779 146.89 538.87C146.88 538.889 146.77 539.038 146.827 538.961C146.89 538.884 146.784 539.009 146.77 539.024C146.693 539.11 146.611 539.197 146.524 539.274C146.481 539.312 146.433 539.351 146.39 539.389C146.274 539.49 146.486 539.332 146.347 539.418C146.255 539.476 146.169 539.538 146.073 539.596C145.976 539.649 145.88 539.697 145.784 539.75C145.611 539.836 145.919 539.706 145.736 539.769C145.678 539.788 145.625 539.812 145.568 539.831C145.361 539.899 145.145 539.952 144.928 539.985C145.102 539.961 144.924 539.985 144.885 539.985C144.827 539.99 144.765 539.995 144.707 539.995C144.587 540 144.472 539.995 144.352 539.985C144.332 539.985 144.164 539.966 144.27 539.981C144.376 539.995 144.183 539.966 144.164 539.961C144.058 539.942 143.953 539.913 143.852 539.88C143.794 539.86 143.741 539.841 143.683 539.822C143.505 539.759 143.804 539.889 143.64 539.803C143.534 539.745 143.429 539.692 143.328 539.63C143.001 539.418 142.534 539.562 142.342 539.889C142.145 540.24 142.28 540.668 142.607 540.879Z" fill="#20382E"/>
<path d="M166.474 529.27C170.166 530.928 174.411 531.203 178.272 529.943C181.834 528.784 184.867 526.352 186.862 523.189C187.949 521.463 188.713 519.53 189.078 517.526C189.247 516.617 187.852 516.228 187.689 517.141C187.093 520.405 185.425 523.386 182.963 525.607C180.31 528.001 176.82 529.284 173.258 529.289C171.181 529.294 169.104 528.871 167.205 528.02C166.364 527.645 165.628 528.89 166.474 529.27Z" fill="#20382E"/>
<path d="M237.209 532.5C241.362 529.621 245.174 526.265 248.539 522.492C249.155 521.799 248.14 520.775 247.52 521.472C244.237 525.155 240.54 528.443 236.483 531.255C235.723 531.779 236.444 533.029 237.209 532.5Z" fill="#20382E"/>
<path d="M204.51 585.52C204.299 591.49 205.193 597.581 207.798 602.999C210.183 607.965 214.134 612.205 219.129 614.599C221.874 615.916 224.869 616.647 227.921 616.613C228.849 616.604 228.849 615.161 227.921 615.171C222.758 615.234 217.845 612.926 214.149 609.393C210.163 605.59 207.779 600.466 206.683 595.115C206.034 591.962 205.837 588.731 205.952 585.515C205.986 584.592 204.544 584.592 204.51 585.52Z" fill="#20382E"/>
<path d="M93.0009 569.546C94.2027 576.41 95.8275 584.193 102.245 588.126C103.038 588.611 103.764 587.366 102.971 586.881C96.9188 583.174 95.5151 575.603 94.3902 569.161C94.2315 568.248 92.8422 568.632 93.0009 569.546Z" fill="#20382E"/>
<path d="M215.841 627.329C221.249 628.434 226.782 628.574 232.238 627.761C233.152 627.627 232.762 626.238 231.854 626.372C226.667 627.141 221.355 626.987 216.22 625.939C215.317 625.752 214.932 627.141 215.841 627.329Z" fill="#20382E"/>
<path d="M223.917 514.54C233.248 512.185 240.901 505.224 244.141 496.162C245.064 493.576 245.602 490.864 245.77 488.124C245.828 487.196 244.386 487.201 244.328 488.124C243.761 497.34 238.492 505.796 230.474 510.363C228.296 511.603 225.965 512.531 223.532 513.146C222.633 513.377 223.013 514.766 223.917 514.54Z" fill="#20382E"/>
<path d="M210.188 499.109C215.091 503.479 220.788 508.209 227.825 507.209C228.739 507.079 228.349 505.69 227.441 505.82C221.018 506.733 215.639 502.046 211.207 498.095C210.514 497.47 209.49 498.489 210.188 499.109Z" fill="#20382E"/>
<path d="M155.432 497.369C158.019 506.301 161.033 515.997 169.176 521.434C171.195 522.785 173.469 523.761 175.863 524.208C176.772 524.376 177.161 522.987 176.248 522.819C167.311 521.146 162.1 512.752 159.269 504.82C158.35 502.243 157.586 499.614 156.827 496.989C156.567 496.095 155.173 496.475 155.432 497.369Z" fill="#20382E"/>
<path d="M143.669 430.413C152.197 427.414 159.057 420.53 162.331 412.136C163.264 409.737 163.865 407.238 164.158 404.68C164.264 403.762 162.821 403.767 162.716 404.68C161.749 413.151 156.759 421.02 149.722 425.77C147.722 427.12 145.563 428.221 143.285 429.024C142.415 429.332 142.79 430.721 143.669 430.413Z" fill="#20382E"/>
<path d="M178.017 449.551C182.921 450.056 187.853 449.873 192.713 449.051C193.626 448.897 193.237 447.508 192.328 447.662C187.603 448.46 182.781 448.599 178.017 448.109C177.094 448.018 177.099 449.46 178.017 449.551Z" fill="#20382E"/>
<path d="M209.063 410.872C212.337 416.621 215.856 422.616 221.624 426.192C222.417 426.683 223.139 425.438 222.35 424.947C216.803 421.51 213.447 415.669 210.303 410.141C209.846 409.338 208.601 410.064 209.063 410.872Z" fill="#20382E"/>
<path d="M156.177 367.529C157.249 370.832 159.889 373.25 162.869 374.875C166.335 376.764 170.248 377.745 174.142 378.24C178.031 378.73 182.026 378.702 185.886 377.995C187.54 377.692 189.165 377.24 190.713 376.572C193.04 375.558 195.4 374.51 197.962 374.274C199.712 374.115 201.433 374.37 202.971 375.245C204.178 375.933 205.159 376.88 206.226 377.764C206.937 378.351 207.961 377.336 207.245 376.745C206.26 375.933 205.322 375.048 204.25 374.341C203.005 373.519 201.606 373.019 200.125 372.851C198.005 372.611 195.833 373.077 193.833 373.75C191.804 374.433 189.924 375.481 187.862 376.067C184.281 377.082 180.468 377.279 176.772 377.053C172.907 376.812 168.965 376.067 165.398 374.519C162.071 373.077 158.735 370.76 157.567 367.159C157.283 366.265 155.894 366.64 156.177 367.529Z" fill="#166270"/>
<path d="M208.943 378.711C213.759 381.322 219.533 380.288 224.004 377.447C224.782 376.952 224.061 375.702 223.278 376.202C219.254 378.759 214.038 379.831 209.673 377.466C208.856 377.024 208.125 378.269 208.943 378.711Z" fill="#166270"/>
<path d="M231.031 339.003C232.065 342.681 233.358 346.272 234.887 349.772C235.122 350.315 236.117 350.195 236.204 349.599C236.675 346.421 236.367 343.186 235.228 340.176C234.901 339.316 233.507 339.691 233.839 340.561C234.882 343.316 235.247 346.296 234.815 349.214C235.252 349.156 235.694 349.099 236.132 349.041C234.656 345.657 233.425 342.171 232.425 338.619C232.175 337.725 230.781 338.104 231.031 339.003Z" fill="#166270"/>
<path d="M146.163 351.089C147.533 350.151 149.399 349.901 150.913 350.656C152.355 351.372 153.312 352.747 153.552 354.334C153.61 354.718 154.095 354.93 154.441 354.838C154.855 354.723 155.004 354.338 154.946 353.949C154.653 351.997 153.326 350.195 151.533 349.358C149.586 348.45 147.216 348.623 145.437 349.844C144.673 350.363 145.394 351.613 146.163 351.089Z" fill="#166270"/>
<path d="M68.2138 349.968C68.06 352.829 68.8196 355.708 70.3579 358.121C70.853 358.9 72.1029 358.179 71.603 357.396C70.1896 355.179 69.5166 352.593 69.656 349.968C69.7041 349.041 68.2619 349.041 68.2138 349.968Z" fill="#166270"/>
<path d="M167.436 318.505C167.143 322.341 169.056 326.153 172.239 328.287C173.013 328.807 173.734 327.557 172.965 327.042C170.186 325.177 168.624 321.826 168.878 318.505C168.951 317.582 167.508 317.586 167.436 318.505Z" fill="#166270"/>
<path d="M175.172 330.11C178.34 331.687 181.662 332.936 185.089 333.821C185.988 334.052 186.373 332.662 185.474 332.432C182.166 331.576 178.96 330.389 175.902 328.865C175.071 328.451 174.34 329.696 175.172 330.11Z" fill="#166270"/>
<path d="M189.67 334.989C194.112 336.051 198.669 336.594 203.236 336.599C204.164 336.599 204.164 335.157 203.236 335.157C198.794 335.152 194.376 334.633 190.054 333.599C189.155 333.383 188.766 334.772 189.67 334.989Z" fill="#166270"/>
<path d="M317.015 339.513C315.76 343.056 315.231 346.834 315.462 350.584C315.52 351.507 316.962 351.512 316.904 350.584C316.678 346.945 317.188 343.33 318.404 339.897C318.717 339.022 317.323 338.647 317.015 339.513Z" fill="#166270"/>
<path d="M39.6592 368.471C43.0291 368.188 46.375 367.625 49.6488 366.775C50.3698 366.587 50.0622 365.472 49.3411 365.659C46.1635 366.486 42.9282 367.039 39.6592 367.313C38.9237 367.38 38.9141 368.534 39.6592 368.471Z" fill="#D47D4E"/>
<path d="M191.487 279.744C191.097 278.763 190.328 278.004 189.285 277.749C188.371 277.528 187.362 277.686 186.612 278.268C186.165 278.614 185.852 279.076 185.684 279.619C185.468 280.33 186.583 280.638 186.799 279.926C186.819 279.864 186.838 279.801 186.862 279.744C186.814 279.874 186.891 279.691 186.905 279.667C186.929 279.628 186.949 279.585 186.977 279.547C186.992 279.523 187.112 279.364 187.021 279.479C187.088 279.398 187.16 279.321 187.237 279.249C187.256 279.229 187.415 279.114 187.295 279.196C187.333 279.172 187.367 279.143 187.405 279.119C187.506 279.052 187.612 278.999 187.722 278.946C187.593 279.003 187.732 278.946 187.751 278.936C187.809 278.917 187.867 278.898 187.924 278.883C188.03 278.854 188.131 278.835 188.242 278.816C188.088 278.84 188.29 278.816 188.319 278.811C188.371 278.806 188.429 278.806 188.482 278.806C188.535 278.806 188.593 278.806 188.645 278.811C188.674 278.811 188.881 278.835 188.727 278.816C188.838 278.83 188.944 278.854 189.049 278.883C189.112 278.898 189.169 278.917 189.232 278.941C189.261 278.951 189.391 279.003 189.27 278.951C189.381 278.999 189.487 279.056 189.593 279.119C189.641 279.148 189.689 279.181 189.737 279.215C189.79 279.253 189.79 279.253 189.737 279.215C189.761 279.234 189.79 279.258 189.814 279.277C189.9 279.354 189.987 279.436 190.064 279.527C190.088 279.551 190.107 279.58 190.131 279.604C190.092 279.556 190.092 279.561 190.136 279.614C190.165 279.657 190.193 279.7 190.222 279.749C190.261 279.811 190.294 279.874 190.328 279.936C190.342 279.97 190.362 280.003 190.376 280.037C190.357 279.984 190.357 279.994 190.386 280.056C190.501 280.345 190.77 280.547 191.097 280.46C191.362 280.378 191.602 280.037 191.487 279.744Z" fill="black"/>
<path d="M177.757 280.061C177.368 279.08 176.599 278.321 175.556 278.066C174.642 277.845 173.633 278.003 172.883 278.585C172.436 278.931 172.123 279.393 171.955 279.936C171.739 280.647 172.854 280.955 173.07 280.244C173.089 280.181 173.109 280.119 173.133 280.061C173.085 280.191 173.162 280.008 173.176 279.984C173.2 279.946 173.219 279.902 173.248 279.864C173.263 279.84 173.383 279.681 173.291 279.797C173.359 279.715 173.431 279.638 173.508 279.566C173.527 279.547 173.686 279.431 173.565 279.513C173.604 279.489 173.637 279.46 173.676 279.436C173.777 279.369 173.883 279.316 173.993 279.263C173.863 279.321 174.003 279.263 174.022 279.253C174.08 279.234 174.137 279.215 174.195 279.201C174.301 279.172 174.402 279.152 174.512 279.133C174.359 279.157 174.56 279.133 174.589 279.128C174.642 279.124 174.7 279.124 174.753 279.124C174.806 279.124 174.863 279.124 174.916 279.128C174.945 279.128 175.152 279.152 174.998 279.133C175.109 279.148 175.214 279.172 175.32 279.201C175.383 279.215 175.44 279.234 175.503 279.258C175.532 279.268 175.661 279.321 175.541 279.268C175.652 279.316 175.757 279.374 175.863 279.436C175.911 279.465 175.959 279.499 176.007 279.532C176.06 279.571 176.06 279.571 176.007 279.532C176.032 279.551 176.06 279.575 176.084 279.595C176.171 279.672 176.257 279.753 176.334 279.845C176.358 279.869 176.378 279.898 176.402 279.922C176.363 279.874 176.363 279.878 176.406 279.931C176.435 279.974 176.464 280.018 176.493 280.066C176.531 280.128 176.565 280.191 176.599 280.253C176.613 280.287 176.632 280.321 176.647 280.354C176.628 280.301 176.628 280.311 176.656 280.373C176.772 280.662 177.041 280.864 177.368 280.777C177.632 280.696 177.873 280.354 177.757 280.061Z" fill="black"/>
<path d="M191.162 289.698C193.729 289.678 195.799 288.171 195.785 286.331C195.771 284.491 193.678 283.016 191.111 283.035C188.544 283.055 186.474 284.562 186.488 286.402C186.502 288.242 188.594 289.717 191.162 289.698Z" fill="#ED9B68"/>
<path d="M169.094 282.72C169.585 282.566 170.186 282.474 170.787 282.47C173.354 282.45 175.445 283.926 175.459 285.763C175.474 287.604 173.407 289.108 170.84 289.128C170.239 289.132 169.455 288.926 168.926 288.781C168.931 288.786 168.59 285.594 169.094 282.72Z" fill="#ED9B68"/>
<path d="M186.988 291.733C184.536 293.435 181.354 294.16 178.407 293.603C177.681 293.463 177.368 294.579 178.099 294.718C181.339 295.329 184.853 294.617 187.569 292.728C188.18 292.31 187.603 291.305 186.988 291.733Z" fill="#D47D4E"/>
<path d="M177.762 278.393C177.098 280.383 176.454 282.388 175.94 284.421C175.651 285.56 175.392 286.729 175.324 287.902C175.271 288.796 175.377 289.724 175.863 290.493C176.627 291.709 178.06 292.218 179.435 292.286C180.694 292.348 182.357 292.084 183.242 291.084C183.732 290.531 182.92 289.709 182.425 290.267C181.8 290.973 180.622 291.137 179.733 291.137C178.617 291.137 177.334 290.805 176.767 289.752C176.411 289.094 176.43 288.531 176.483 287.786C176.555 286.753 176.795 285.724 177.05 284.724C177.56 282.686 178.209 280.686 178.872 278.696C179.112 277.994 177.997 277.691 177.762 278.393Z" fill="#D47D4E"/>
<path d="M191.785 274.879C189.982 273.196 187.3 272.571 184.944 273.345C184.574 273.465 184.334 273.845 184.439 274.234C184.54 274.595 184.954 274.859 185.329 274.739C187.18 274.134 189.309 274.547 190.766 275.903C191.444 276.532 192.463 275.513 191.785 274.879Z" fill="#C78F32"/>
<path d="M178.752 270.341C176.286 270.076 173.82 271.288 172.411 273.302C172.19 273.619 172.354 274.105 172.671 274.287C173.031 274.499 173.435 274.35 173.656 274.028C174.781 272.413 176.8 271.571 178.752 271.778C179.141 271.821 179.473 271.417 179.473 271.057C179.473 270.634 179.141 270.379 178.752 270.341Z" fill="#C78F32"/>
<path d="M181.223 298.242C182.401 297.882 183.632 297.848 184.819 298.151C185.122 298.228 185.444 298.05 185.531 297.747C185.612 297.449 185.43 297.112 185.127 297.036C183.747 296.685 182.281 296.709 180.921 297.127C180.623 297.218 180.435 297.531 180.517 297.838C180.594 298.132 180.925 298.333 181.223 298.242Z" fill="#D47D4E"/>
<path d="M184.29 310.462C188.939 311.121 194.016 309.429 197.578 306.419C198.145 305.939 197.328 305.126 196.761 305.602C193.549 308.313 188.795 309.943 184.598 309.347C183.872 309.241 183.56 310.356 184.29 310.462Z" fill="#D47D4E"/>
<path d="M218.624 288.474C230.431 319.976 218.542 341.921 209.005 342.426C200.111 342.902 214.999 310.294 211.197 293.296C220.561 289.96 217.244 277.816 210.894 279.533C206.49 285.027 215.504 299.358 201.149 325.062C194.713 336.59 185.415 330.586 192.482 321.101C204.164 305.425 205.24 285.205 200.13 266.337C200.13 266.337 193.669 270.678 188.627 269.87C183.584 269.067 186.175 264.241 186.175 264.241C186.175 264.241 172.69 265.942 169.71 278.96C166.196 272.884 168.08 262.871 175.315 257.059C186.358 248.184 205.668 246.391 212.504 266.279C221.859 284.292 218.624 288.474 218.624 288.474Z" fill="#C78F32"/>
<path d="M216.691 294.786C218.965 300.636 220.431 306.785 221.008 313.039C221.094 313.957 222.537 313.962 222.45 313.039C221.859 306.655 220.402 300.382 218.08 294.401C217.753 293.55 216.355 293.921 216.691 294.786Z" fill="#EBBC45"/>
<path d="M208.563 276.663C208.909 276.509 209.443 276.384 209.827 276.365C210.366 276.336 210.741 276.374 211.226 276.509C212.111 276.749 212.947 277.273 213.462 277.994C213.688 278.312 214.091 278.461 214.447 278.254C214.76 278.071 214.933 277.586 214.707 277.268C213.168 275.115 210.25 274.336 207.837 275.422C207.481 275.581 207.395 276.1 207.578 276.408C207.789 276.773 208.207 276.826 208.563 276.663Z" fill="#EBBC45"/>
<path d="M172.96 267.827C178.45 262.952 185.295 259.751 192.54 258.597C193.453 258.453 193.064 257.063 192.155 257.208C184.665 258.4 177.608 261.775 171.941 266.808C171.244 267.423 172.263 268.442 172.96 267.827Z" fill="#EBBC45"/>
<path d="M188.372 262.053C190.439 261.467 192.636 261.111 194.79 261.212C196.583 261.298 198.765 261.832 198.794 263.986C198.808 264.914 200.251 264.914 200.236 263.986C200.174 259.299 194.218 259.529 190.949 260.025C189.953 260.178 188.963 260.385 187.992 260.659C187.093 260.919 187.473 262.308 188.372 262.053Z" fill="#EBBC45"/>
<path d="M120.488 326.25C126.055 320.414 134.958 320.813 142.068 318.231C142.934 317.919 142.559 316.525 141.684 316.842C134.29 319.524 125.262 319.154 119.465 325.231C118.83 325.899 119.849 326.923 120.488 326.25Z" fill="#EBBC45"/>
<path d="M135.347 323.668C138.491 322.125 141.717 320.759 145.01 319.577C145.875 319.264 145.505 317.87 144.625 318.188C141.212 319.413 137.871 320.832 134.616 322.428C133.785 322.831 134.515 324.076 135.347 323.668Z" fill="#EBBC45"/>
<path d="M130.973 366.722C132.049 370.111 134.213 373.077 137.126 375.12C140.231 377.298 144.144 378.264 147.909 377.87C148.822 377.774 148.832 376.332 147.909 376.428C144.428 376.793 140.904 375.957 138.006 373.981C135.333 372.159 133.338 369.414 132.362 366.337C132.083 365.458 130.694 365.837 130.973 366.722Z" fill="#EBBC45"/>
<path d="M311.357 316.87L290.623 358.165L262.645 331.408L252.723 340.815L258.967 347.719C258.967 347.719 254.857 355.131 258.414 358.271C261.972 361.415 272.678 365.751 274.624 374.207C276.571 382.668 295.945 393.277 305.415 375.745C314.89 358.213 319.818 349.805 319.818 349.805L325.005 380.408L311.982 396.849C311.982 396.849 305.151 395.474 303.372 397.892C301.598 400.305 305.011 406.973 305.011 406.973L373.395 427.582C373.395 427.582 385.865 422.193 385.461 417.044C385.057 411.896 380.144 414.593 380.144 414.593C380.144 414.593 388.148 384.581 388.739 380.23C389.331 375.884 386.754 362.713 386.754 362.713C386.754 362.713 397.123 373.731 400.868 375.683C408.795 379.807 415.396 376.332 419.919 370.75C424.443 365.164 429.693 370.529 431.053 360.53L439.749 351.973L433.553 340.176L408.853 354.439L381.798 319.673C378.245 315.111 373.024 312.154 367.285 311.462L332.115 307.213C323.918 306.222 315.876 309.967 311.357 316.87Z" fill="#D19EFF"/>
<path d="M345.575 323.644C332.706 321.327 322.106 304.948 324.197 301.136C326.288 297.324 354.353 291.238 366.876 300.112C379.399 308.986 363.208 326.821 345.575 323.644Z" fill="#D19EFF"/>
<path d="M348.214 320.957C345.782 319.236 344.479 317.798 343.07 315.048C341.022 311.049 341.695 306.347 339.152 302.679C337.96 300.958 329.764 296.637 330.461 282.489C326.509 268.639 332.268 243.012 353.118 245.083C373.962 247.155 373.943 264.106 372.347 274.735C371.727 278.855 369.981 292.56 368.049 296.367C365.919 300.564 363.424 302.91 355.589 306.001C355.29 309.236 355.276 308.64 354.584 312.63C354.31 316.082 351.382 318.87 348.214 320.957Z" fill="#80422F"/>
<path d="M346.43 352.367C346.228 352.338 346.036 352.218 345.93 352.021C341.229 343.383 339.695 332.908 341.724 323.283C341.801 322.918 342.162 322.687 342.522 322.764C342.887 322.841 343.118 323.197 343.041 323.562C341.08 332.879 342.565 343.017 347.113 351.382C347.291 351.709 347.171 352.117 346.844 352.295C346.714 352.367 346.57 352.387 346.43 352.367Z" fill="white"/>
<path d="M360.045 345.06C359.876 345.036 359.713 344.95 359.602 344.806C355.463 339.426 353.723 332.557 352.185 326.495C352.093 326.134 352.31 325.769 352.67 325.677C353.026 325.591 353.396 325.807 353.487 326.163C354.992 332.1 356.699 338.825 360.669 343.984C360.895 344.277 360.838 344.7 360.544 344.926C360.395 345.041 360.213 345.084 360.045 345.06Z" fill="white"/>
<path d="M348.142 324.543C348.051 324.529 347.959 324.5 347.878 324.447L326.005 310.914C325.687 310.717 325.591 310.304 325.788 309.991C325.985 309.674 326.399 309.583 326.711 309.775L348.185 323.058C350.637 321.212 353.651 320.409 356.569 319.63L358.031 319.236C361.078 318.385 364.814 317.02 366.631 313.991C366.823 313.674 367.237 313.568 367.554 313.76C367.871 313.953 367.977 314.366 367.785 314.683C365.722 318.12 361.679 319.616 358.391 320.529L356.915 320.928C353.983 321.712 350.95 322.519 348.656 324.394C348.507 324.519 348.32 324.567 348.142 324.543Z" fill="#8B43CB"/>
<path d="M383.648 357.391C383.489 357.367 383.336 357.29 383.225 357.156C378.437 351.449 374.356 345.161 371.096 338.46C370.933 338.128 371.072 337.725 371.404 337.561C371.736 337.398 372.139 337.537 372.303 337.869C375.514 344.469 379.538 350.666 384.254 356.285C384.494 356.569 384.456 356.992 384.172 357.233C384.023 357.367 383.831 357.415 383.648 357.391Z" fill="#8B43CB"/>
<path d="M319.731 345.176C319.467 345.137 319.236 344.945 319.169 344.671C317.313 337.099 316.313 329.307 316.193 321.505C316.188 321.134 316.482 320.827 316.857 320.822C317.222 320.817 317.534 321.11 317.539 321.485C317.659 329.182 318.645 336.878 320.476 344.354C320.563 344.714 320.342 345.079 319.981 345.166C319.9 345.185 319.813 345.19 319.731 345.176Z" fill="#8B43CB"/>
<path d="M409.324 362.116C409.054 362.078 408.824 361.881 408.761 361.607L408.006 358.396L406.415 361.011C406.223 361.328 405.805 361.424 405.492 361.237C405.175 361.044 405.074 360.631 405.266 360.314L407.713 356.304C407.857 356.074 408.131 355.968 408.391 355.992C408.66 356.035 408.876 356.237 408.939 356.501L410.069 361.304C410.155 361.664 409.929 362.03 409.569 362.112C409.487 362.121 409.405 362.126 409.324 362.116Z" fill="#8B43CB"/>
<path d="M289.488 363.343C289.454 363.338 289.416 363.328 289.382 363.319C289.027 363.208 288.825 362.833 288.935 362.477L289.748 359.804C289.805 359.607 289.95 359.453 290.142 359.377C290.329 359.3 290.541 359.319 290.724 359.415L294.978 361.823C295.3 362.006 295.416 362.415 295.233 362.742C295.05 363.064 294.642 363.174 294.315 362.996L290.791 361.001L290.224 362.871C290.123 363.189 289.81 363.386 289.488 363.343Z" fill="#8B43CB"/>
<path d="M343.114 529.299L350.296 532.991C350.296 532.991 344.517 575.449 333.59 575.771C328.293 575.93 330.288 544.327 330.288 544.327L343.114 529.299Z" fill="#F8F1FF"/>
<path d="M305.016 406.973L251.093 450.32C241.209 458.267 241.238 473.328 251.155 481.231L330.293 544.331L343.114 529.304L278.658 468.208L324.995 432.793C326.005 432.019 327.331 431.798 328.538 432.197C330.61 432.879 331.701 435.144 330.942 437.192L304.699 508.027C303.516 511.223 302.752 514.555 302.425 517.949L292.854 617.623L312.876 622.983L332.033 520.213L368.405 445.008L373.399 427.587L305.016 406.973Z" fill="#073972"/>
<path d="M312.872 622.978L311.79 630.929C311.79 630.929 271.048 649.899 269.068 639.121C268.457 635.794 292.854 617.618 292.854 617.618L312.872 622.978Z" fill="#F8F1FF"/>
<path d="M377.217 414.838C377.207 414.838 377.197 414.833 377.188 414.833C360.824 411.877 345.84 407.959 329.971 403.815C325.077 402.536 320.154 401.248 315.145 399.979C314.785 399.887 314.568 399.522 314.66 399.161C314.751 398.801 315.111 398.594 315.477 398.676C320.486 399.945 325.418 401.233 330.312 402.512C346.152 406.651 361.117 410.564 377.428 413.511C377.793 413.578 378.034 413.929 377.971 414.29C377.909 414.646 377.572 414.886 377.217 414.838Z" fill="#8B43CB"/>
<path d="M437.052 337.849C437.052 337.849 438.095 325.028 440.509 323.615C442.922 322.201 447.393 321.62 447.393 321.62C447.393 321.62 453.426 317.423 454.286 317.961C455.147 318.505 459.69 328.605 458.699 332.691C457.704 336.782 439.749 351.963 439.749 351.963L433.552 340.166L437.052 337.849Z" fill="#80422F"/>
<path d="M259.102 327.937C259.102 327.937 261.525 315.303 259.578 313.294C257.631 311.289 253.477 309.53 253.477 309.53C253.477 309.53 248.785 303.872 247.814 304.16C246.843 304.453 239.762 312.967 239.623 317.173C239.488 321.38 252.727 340.815 252.727 340.815L262.65 331.408L259.102 327.937Z" fill="#80422F"/>
<path d="M330.802 272.379C330.802 272.379 334.543 274.119 335.441 278.638C335.677 279.826 337.403 279.802 337.566 278.605C337.797 276.874 339.643 271.937 337.86 267.505C337.86 267.505 342.474 265.409 343.301 258.26C343.301 258.26 363.473 254.727 372.953 262.88C377.515 258.76 378.851 252.842 365.319 246.723C351.781 240.603 332.677 242.127 333.196 250.367C333.196 250.367 327.654 249.338 327.639 255.41C327.625 261.481 328.351 271.653 328.351 271.653C328.351 271.653 329.649 271.745 330.802 272.379Z" fill="#120000"/>
<path d="M372.13 263.293C372.13 263.293 371.149 276.61 372.164 276.437C374.399 270.254 375.187 266.293 375.534 259.284C375.88 252.27 372.13 263.293 372.13 263.293Z" fill="#120000"/>
<path d="M372.736 254.718C372.736 254.718 371.755 268.034 372.77 267.861C373.779 267.688 376.414 262.279 376.76 255.266C377.106 248.257 372.736 254.718 372.736 254.718Z" fill="#120000"/>
<path d="M302.333 518.612C301.977 518.564 301.723 518.247 301.756 517.886C301.776 517.704 302.155 513.449 302.631 511.474C303.602 507.469 308.934 494.595 309.159 494.047C309.299 493.706 309.683 493.538 310.039 493.687C310.381 493.826 310.544 494.22 310.4 494.566C310.347 494.701 304.881 507.887 303.934 511.791C303.477 513.666 303.093 517.963 303.093 518.002C303.059 518.372 302.732 518.646 302.362 518.612C302.352 518.617 302.343 518.612 302.333 518.612Z" fill="#001654"/>
<path d="M330.552 542.408C330.206 542.36 329.951 542.052 329.975 541.701L331.359 520.17C331.364 520.083 331.388 519.997 331.427 519.92L334.902 512.733C335.061 512.401 335.465 512.257 335.801 512.42C336.138 512.584 336.277 512.983 336.114 513.319L332.696 520.386L331.321 541.788C331.297 542.158 330.98 542.442 330.609 542.418C330.585 542.413 330.566 542.408 330.552 542.408Z" fill="#001654"/>
<path d="M328.557 251.52C331.111 251.52 333.182 249.45 333.182 246.896C333.182 244.342 331.111 242.271 328.557 242.271C326.003 242.271 323.932 244.342 323.932 246.896C323.932 249.45 326.003 251.52 328.557 251.52Z" fill="#120000"/>
<path d="M329.038 257.539C331.592 257.539 333.663 255.469 333.663 252.915C333.663 250.361 331.592 248.29 329.038 248.29C326.484 248.29 324.414 250.361 324.414 252.915C324.414 255.469 326.484 257.539 329.038 257.539Z" fill="#120000"/>
<path d="M333.292 252.9C335.846 252.9 337.917 250.83 337.917 248.276C337.917 245.721 335.846 243.651 333.292 243.651C330.738 243.651 328.668 245.721 328.668 248.276C328.668 250.83 330.738 252.9 333.292 252.9Z" fill="#120000"/>
<path d="M334.527 245.502C337.082 245.502 339.152 243.431 339.152 240.877C339.152 238.323 337.082 236.253 334.527 236.253C331.973 236.253 329.903 238.323 329.903 240.877C329.903 243.431 331.973 245.502 334.527 245.502Z" fill="#120000"/>
<path d="M345.845 240.565C346.532 243.026 345.095 245.574 342.634 246.261C340.172 246.949 335.918 248.54 335.23 246.079C334.543 243.617 337.687 238.041 340.143 237.354C342.605 236.671 345.157 238.108 345.845 240.565Z" fill="#120000"/>
<path d="M341.224 240.478C343.778 240.478 345.849 238.408 345.849 235.854C345.849 233.3 343.778 231.229 341.224 231.229C338.67 231.229 336.6 233.3 336.6 235.854C336.6 238.408 338.67 240.478 341.224 240.478Z" fill="#120000"/>
<path d="M349.094 246.084C351.648 246.084 353.719 244.013 353.719 241.459C353.719 238.905 351.648 236.835 349.094 236.835C346.54 236.835 344.469 238.905 344.469 241.459C344.469 244.013 346.54 246.084 349.094 246.084Z" fill="#120000"/>
<path d="M353.877 242.796C356.431 242.796 358.502 240.725 358.502 238.171C358.502 235.617 356.431 233.547 353.877 233.547C351.323 233.547 349.252 235.617 349.252 238.171C349.252 240.725 351.323 242.796 353.877 242.796Z" fill="#120000"/>
<path d="M360.141 241.046C362.695 241.046 364.766 238.975 364.766 236.421C364.766 233.867 362.695 231.797 360.141 231.797C357.587 231.797 355.516 233.867 355.516 236.421C355.516 238.975 357.587 241.046 360.141 241.046Z" fill="#120000"/>
<path d="M369.875 253.328C372.429 253.328 374.5 251.258 374.5 248.703C374.5 246.149 372.429 244.079 369.875 244.079C367.321 244.079 365.251 246.149 365.251 248.703C365.251 251.258 367.321 253.328 369.875 253.328Z" fill="#120000"/>
<path d="M367.443 245.156C369.997 245.156 372.068 243.085 372.068 240.531C372.068 237.977 369.997 235.907 367.443 235.907C364.889 235.907 362.818 237.977 362.818 240.531C362.818 243.085 364.889 245.156 367.443 245.156Z" fill="#120000"/>
<path d="M373.899 247.853C376.453 247.853 378.524 245.782 378.524 243.228C378.524 240.674 376.453 238.604 373.899 238.604C371.345 238.604 369.275 240.674 369.275 243.228C369.275 245.782 371.345 247.853 373.899 247.853Z" fill="#120000"/>
<path d="M379.99 251.405C382.545 251.405 384.615 249.335 384.615 246.781C384.615 244.227 382.545 242.156 379.99 242.156C377.436 242.156 375.366 244.227 375.366 246.781C375.366 249.335 377.436 251.405 379.99 251.405Z" fill="#120000"/>
<path d="M376.091 256.246C378.645 256.246 380.715 254.176 380.715 251.622C380.715 249.068 378.645 246.997 376.091 246.997C373.537 246.997 371.466 249.068 371.466 251.622C371.466 254.176 373.537 256.246 376.091 256.246Z" fill="#120000"/>
<path d="M376.399 264.861C378.953 264.861 381.024 262.79 381.024 260.236C381.024 257.682 378.953 255.611 376.399 255.611C373.845 255.611 371.774 257.682 371.774 260.236C371.774 262.79 373.845 264.861 376.399 264.861Z" fill="#120000"/>
<path d="M351.026 238.493C353.58 238.493 355.65 236.422 355.65 233.868C355.65 231.314 353.58 229.244 351.026 229.244C348.472 229.244 346.401 231.314 346.401 233.868C346.401 236.422 348.472 238.493 351.026 238.493Z" fill="#120000"/>
<path d="M355.695 247.689C358.249 247.689 360.319 245.619 360.319 243.065C360.319 240.51 358.249 238.44 355.695 238.44C353.141 238.44 351.07 240.51 351.07 243.065C351.07 245.619 353.141 247.689 355.695 247.689Z" fill="#120000"/>
<path d="M362.241 248.559C364.795 248.559 366.866 246.489 366.866 243.935C366.866 241.381 364.795 239.31 362.241 239.31C359.687 239.31 357.617 241.381 357.617 243.935C357.617 246.489 359.687 248.559 362.241 248.559Z" fill="#120000"/>
<path d="M345.974 243.502C348.528 243.502 350.599 241.432 350.599 238.878C350.599 236.323 348.528 234.253 345.974 234.253C343.42 234.253 341.35 236.323 341.35 238.878C341.35 241.432 343.42 243.502 345.974 243.502Z" fill="#120000"/>
<path d="M250.088 312.087C248.867 313.111 247.838 314.361 247.079 315.765C246.329 317.149 245.68 318.813 245.805 320.413C245.92 321.875 246.78 323.341 248.266 323.75C249.804 324.173 251.15 323.105 252.136 322.053C253.347 320.755 254.275 319.154 254.299 317.342C253.881 317.342 253.467 317.342 253.049 317.342C253.256 319.346 254.246 321.091 255.847 322.307C256.486 322.793 257.111 321.711 256.477 321.231C255.26 320.308 254.453 318.861 254.294 317.342C254.212 316.558 253.059 316.52 253.044 317.342C253.02 319 252.03 320.423 250.881 321.543C250.381 322.029 249.756 322.567 249.025 322.596C248.304 322.625 247.684 322.096 247.357 321.49C246.569 320.048 247.285 318.13 247.949 316.779C248.675 315.303 249.703 314.025 250.963 312.967C251.588 312.453 250.698 311.573 250.088 312.087Z" fill="#4F200A"/>
<path d="M446.83 323.418C448.143 323.154 449.532 323.365 450.72 323.976C451.912 324.591 453.118 325.668 453.431 327.024C453.849 328.855 451.57 329.062 450.277 329.24C448.465 329.49 446.619 329.432 444.821 329.1C444.763 329.509 444.71 329.918 444.653 330.326C446.571 330.576 447.686 332.706 447.686 334.48C447.686 336.869 446.042 338.946 444.47 340.59C443.912 341.171 444.797 342.056 445.355 341.474C447.244 339.498 449.176 336.898 448.912 334.004C448.696 331.624 447.124 329.403 444.653 329.076C443.961 328.985 443.797 330.177 444.484 330.302C446.71 330.716 448.97 330.74 451.2 330.345C452.099 330.187 453.09 330.009 453.82 329.422C454.551 328.836 454.82 327.947 454.69 327.038C454.445 325.307 453.041 323.846 451.57 323.014C450.022 322.144 448.229 321.856 446.489 322.207C445.715 322.375 446.047 323.577 446.83 323.418Z" fill="#4F200A"/>
<path d="M348.175 288.767C349.983 289.455 354.506 291.065 357.785 290.382C358.218 290.291 358.592 290.69 358.492 291.118C357.165 296.666 355.03 301.237 350.79 300.651C347.382 300.18 347.295 291.993 347.358 289.315C347.368 288.897 347.786 288.618 348.175 288.767Z" fill="black"/>
<path d="M358.146 292.459C358.267 292.022 358.382 291.575 358.492 291.123C358.593 290.69 358.223 290.296 357.786 290.387C354.502 291.07 349.984 289.46 348.176 288.772C347.787 288.623 347.368 288.902 347.359 289.32C347.349 289.791 347.344 290.431 347.359 291.166C350.897 292.277 354.512 292.796 358.146 292.459Z" fill="white"/>
<path d="M348.334 297.969C348.848 299.416 349.622 300.492 350.795 300.656C352.829 300.94 354.377 300.026 355.583 298.396C353.17 298.743 350.67 298.646 348.334 297.969Z" fill="white"/>
<path d="M346.383 274.869C346.657 274.302 346.998 273.913 347.517 273.634C347.955 273.393 348.45 273.297 348.988 273.336C349.945 273.398 350.81 274.014 351.031 275.004C351.2 275.754 352.348 275.437 352.185 274.687C351.656 272.317 348.666 271.48 346.734 272.711C346.137 273.091 345.662 273.634 345.354 274.268C345.214 274.557 345.272 274.913 345.57 275.086C345.83 275.235 346.243 275.163 346.383 274.869Z" fill="black"/>
<path d="M362.222 277.288C362.496 276.72 362.838 276.331 363.357 276.052C363.794 275.812 364.289 275.716 364.828 275.754C365.785 275.817 366.65 276.432 366.871 277.422C367.039 278.172 368.188 277.855 368.025 277.105C367.496 274.735 364.506 273.899 362.573 275.129C361.977 275.509 361.501 276.052 361.194 276.687C361.054 276.975 361.112 277.331 361.41 277.504C361.67 277.653 362.083 277.576 362.222 277.288Z" fill="black"/>
<path d="M350.64 280.775C350.788 278.981 348.366 277.317 345.231 277.058C342.095 276.798 339.433 278.043 339.285 279.836C339.137 281.63 341.558 283.295 344.694 283.554C347.829 283.813 350.491 282.569 350.64 280.775Z" fill="#802F2F"/>
<path d="M371.438 280.398C370.818 280.157 370.136 279.975 369.405 279.883C366.28 279.499 363.55 280.821 363.3 282.83C363.054 284.84 365.381 286.782 368.506 287.166C369.237 287.258 369.592 287.368 370.256 287.287L371.438 280.398Z" fill="#802F2F"/>
<path d="M344.94 270.053C345.022 269.908 345.113 269.764 345.205 269.62C345.243 269.562 345.282 269.509 345.32 269.452C345.344 269.413 345.551 269.139 345.363 269.389C345.171 269.639 345.383 269.37 345.412 269.336C345.455 269.283 345.498 269.235 345.546 269.183C345.657 269.058 345.777 268.937 345.897 268.817C346.008 268.711 346.118 268.61 346.234 268.509C346.296 268.457 346.363 268.404 346.426 268.346C346.661 268.144 346.166 268.534 346.344 268.409C346.609 268.226 346.868 268.043 347.152 267.889C347.286 267.817 347.421 267.745 347.556 267.678C347.632 267.639 347.709 267.606 347.786 267.572C348.007 267.471 347.695 267.62 347.637 267.635C347.945 267.548 348.238 267.413 348.546 267.332C348.709 267.288 348.873 267.25 349.036 267.221C349.089 267.212 349.238 267.163 349.286 267.178C349.253 267.168 348.849 267.226 349.108 267.202C349.445 267.173 349.777 267.154 350.118 267.163C351.055 267.187 351.949 266.322 351.911 265.37C351.868 264.38 351.123 263.606 350.118 263.577C346.782 263.491 343.517 265.351 341.854 268.235C341.388 269.048 341.638 270.23 342.498 270.687C343.344 271.144 344.44 270.918 344.94 270.053Z" fill="#160000"/>
<path d="M361.757 268.048C361.785 268.053 361.814 268.058 361.843 268.058C361.684 268.039 361.526 268.014 361.367 267.995C361.684 268.039 362.002 268.101 362.314 268.188C362.468 268.231 362.622 268.279 362.776 268.332C362.939 268.389 363.42 268.644 362.877 268.361C363.151 268.505 363.43 268.625 363.699 268.784C363.838 268.865 363.973 268.952 364.107 269.043C364.17 269.086 364.228 269.125 364.285 269.168C364.593 269.389 364.059 268.981 364.203 269.101C364.444 269.298 364.675 269.495 364.891 269.716C365.006 269.832 365.112 269.947 365.223 270.072C365.333 270.197 365.626 270.654 365.304 270.154C365.477 270.423 365.675 270.678 365.833 270.961C365.905 271.091 365.973 271.221 366.035 271.351C366.064 271.408 366.102 271.543 366.146 271.591C366.107 271.505 366.069 271.413 366.035 271.327C366.059 271.38 366.078 271.437 366.098 271.49C366.271 271.937 366.492 272.312 366.92 272.562C367.304 272.788 367.871 272.884 368.299 272.745C369.145 272.471 369.91 271.476 369.549 270.543C368.943 268.976 367.996 267.567 366.67 266.524C365.953 265.962 365.232 265.51 364.391 265.154C363.526 264.789 362.689 264.597 361.757 264.476C361.334 264.423 360.776 264.717 360.492 265C360.18 265.313 359.949 265.822 359.968 266.265C359.988 266.726 360.141 267.207 360.492 267.529C360.862 267.87 361.257 267.986 361.757 268.048Z" fill="#160000"/>
<path d="M347.998 283.532C347.128 284.378 346.936 285.623 347.806 286.556C348.623 287.431 349.882 287.613 350.959 287.152C350.719 287.123 350.479 287.089 350.233 287.061C351.743 288.296 353.594 289.344 355.608 289.234C357.007 289.157 358.338 288.522 359.233 287.436C360.208 286.243 360.545 284.671 360.132 283.181C359.93 282.455 359.569 281.768 359.122 281.162C358.944 280.917 358.752 280.681 358.555 280.451C358.449 280.33 358.29 280.076 358.146 279.999C358.064 279.955 358.17 279.989 358.17 280.037C358.165 280.004 358.165 280.321 358.237 280.157C358.286 280.047 358.242 279.821 358.242 279.701C358.242 279.278 358.233 278.859 358.223 278.436C358.209 277.682 358.161 276.922 358.204 276.167C358.252 275.398 357.055 275.403 357.012 276.167C356.935 277.408 357.06 278.658 357.05 279.903C357.045 280.345 357.074 280.585 357.372 280.922C357.665 281.258 357.973 281.585 358.228 281.955C359.002 283.075 359.415 284.479 358.867 285.792C358.43 286.839 357.473 287.628 356.382 287.916C354.459 288.431 352.531 287.402 351.084 286.219C350.853 286.032 350.628 286.013 350.358 286.128C349.82 286.359 349.152 286.2 348.738 285.806C348.248 285.335 348.397 284.82 348.849 284.383C349.392 283.84 348.551 282.994 347.998 283.532Z" fill="#4F200A"/>
<path d="M336.417 275.466C336.816 279.585 333.11 282.83 329.077 281.888C326.635 281.321 324.779 279.196 324.539 276.701C324.14 272.581 327.846 269.341 331.879 270.279C334.321 270.846 336.177 272.971 336.417 275.466Z" fill="#80422F"/>
<path d="M328.375 275.316C328.865 274.11 330.283 273.297 331.571 273.494C332.869 273.692 333.98 274.85 334.105 276.162C334.302 275.965 334.504 275.763 334.701 275.566C333.975 275.499 333.225 275.48 332.542 275.783C331.893 276.076 331.442 276.667 331.345 277.374C331.139 278.859 332.605 280.085 334.038 279.585C334.759 279.33 334.446 278.177 333.72 278.432C333.038 278.672 332.312 278.124 332.562 277.379C332.841 276.542 334.023 276.691 334.701 276.759C335.004 276.787 335.326 276.461 335.297 276.162C335.114 274.264 333.648 272.591 331.725 272.321C329.798 272.052 327.937 273.225 327.221 274.999C327.101 275.297 327.351 275.653 327.639 275.735C327.98 275.826 328.254 275.614 328.375 275.316Z" fill="#4F200A"/>
<path d="M333.59 257.785C335.35 258.919 337.777 258.938 339.493 257.693C341.133 256.506 341.902 254.496 341.604 252.516C341.238 252.67 340.878 252.824 340.513 252.977C341.743 254.977 344.036 256.131 346.339 255.232C348.449 254.405 349.55 252.088 349.026 249.91C348.848 249.165 347.695 249.478 347.873 250.228C348.257 251.819 347.425 253.578 345.849 254.141C344.094 254.766 342.469 253.881 341.541 252.372C341.166 251.761 340.354 252.189 340.45 252.833C340.671 254.314 339.984 255.919 338.744 256.765C337.378 257.698 335.561 257.64 334.191 256.756C333.542 256.333 332.946 257.366 333.59 257.785Z" fill="#5C312D"/>
<path d="M359.122 250.828C359.199 252.328 360.478 253.64 362.006 253.655C363.54 253.669 364.828 252.371 364.939 250.876C364.963 250.554 364.646 250.28 364.343 250.28C364.001 250.28 363.771 250.554 363.747 250.876C363.737 251.001 363.655 251.309 363.588 251.444C363.458 251.689 363.372 251.809 363.175 251.992C363.127 252.035 363.078 252.078 363.026 252.121C363.078 252.078 362.929 252.184 362.934 252.179C362.881 252.213 362.824 252.246 362.766 252.28C362.771 252.28 362.603 252.362 362.675 252.328C362.415 252.439 362.256 252.467 362.011 252.467C361.165 252.458 360.362 251.66 360.319 250.833C360.305 250.511 360.055 250.237 359.723 250.237C359.406 250.232 359.103 250.506 359.122 250.828Z" fill="#5C312D"/>
<path d="M342.503 242.17C342.561 240.517 343.657 238.877 345.306 238.44C346.839 238.036 348.522 238.805 349.224 240.219C349.507 240.786 350.301 240.464 350.334 239.916C350.387 239.166 350.868 238.57 351.43 238.113C351.969 237.676 352.824 237.089 353.55 237.224C354.281 237.358 354.92 238.128 355.315 238.709C355.762 239.358 356.04 240.074 356.199 240.844C356.353 241.594 357.502 241.276 357.353 240.526C356.983 238.709 355.497 236.027 353.353 236.008C352.353 235.998 351.334 236.657 350.589 237.267C349.767 237.945 349.214 238.839 349.142 239.916C349.512 239.815 349.882 239.714 350.252 239.613C349.315 237.733 347.008 236.753 344.989 237.286C342.82 237.863 341.388 239.983 341.311 242.166C341.282 242.94 342.474 242.94 342.503 242.17Z" fill="#5C312D"/>
<path d="M369.857 243.483C370.669 242.868 371.837 242.771 372.679 243.401C373.501 244.017 373.736 245.156 373.385 246.089C373.217 246.536 373.712 246.925 374.121 246.824C374.904 246.627 375.784 246.978 376.183 247.689C376.587 248.406 376.39 249.338 375.818 249.896C375.27 250.434 376.111 251.28 376.664 250.742C377.62 249.805 377.875 248.266 377.217 247.088C376.553 245.906 375.097 245.348 373.804 245.67C374.049 245.915 374.294 246.161 374.539 246.406C375.049 245.041 374.587 243.392 373.443 242.493C372.256 241.56 370.462 241.536 369.256 242.449C369.001 242.642 368.866 242.964 369.04 243.267C369.189 243.521 369.597 243.675 369.857 243.483Z" fill="#5C312D"/>
<path d="M279.72 630.16C282.484 632.727 286.513 632.453 289.733 630.982C291.531 630.16 293.156 628.997 294.747 627.843C296.512 626.56 298.242 625.228 299.935 623.848C300.766 623.17 299.584 621.997 298.757 622.67C297.262 623.887 295.738 625.069 294.18 626.204C292.719 627.271 291.248 628.343 289.637 629.179C286.969 630.564 283.311 631.232 280.893 628.982C280.109 628.252 278.932 629.429 279.72 630.16Z" fill="#606060"/>
<path d="M271.346 639.222C276.317 641.087 281.773 639.78 286.724 638.52C291.94 637.193 297.07 635.54 302.084 633.578C304.92 632.468 307.718 631.261 310.467 629.963C311.439 629.507 310.592 628.069 309.626 628.526C304.891 630.761 300.026 632.708 295.055 634.348C292.589 635.165 290.099 635.905 287.59 636.573C285.1 637.237 282.581 637.886 280.028 638.246C277.259 638.64 274.427 638.607 271.783 637.617C270.783 637.242 270.351 638.852 271.346 639.222Z" fill="#606060"/>
<path d="M333.73 560.08C334.85 559.541 336.206 559.729 337.172 558.83C338.355 557.734 338.052 555.724 338.09 554.273C338.182 550.494 338.273 546.716 338.369 542.937C338.393 541.865 336.73 541.865 336.701 542.937C336.614 546.398 336.533 549.86 336.446 553.321C336.427 554.157 336.408 554.994 336.384 555.825C336.369 556.393 336.485 557.243 335.994 557.652C335.619 557.965 335.033 558.022 334.576 558.114C333.99 558.234 333.432 558.378 332.889 558.638C331.922 559.109 332.769 560.541 333.73 560.08Z" fill="#606060"/>
<path d="M334.629 573.42C336.316 572.319 337.542 570.637 338.528 568.911C339.835 566.623 340.792 564.137 341.619 561.642C343.652 555.518 344.902 549.139 345.95 542.783C346.527 539.274 347.022 535.75 347.464 532.222C347.522 531.77 347.041 531.395 346.633 531.39C346.137 531.385 345.854 531.78 345.801 532.222C345.027 538.418 344.085 544.605 342.782 550.711C341.604 556.234 340.244 561.95 337.662 567.012C336.72 568.858 335.485 570.877 333.792 571.983C332.893 572.564 333.725 574.007 334.629 573.42Z" fill="#606060"/>
<path d="M341.892 304.275C345.267 307.179 350.016 308.222 354.285 306.924C355.021 306.703 354.708 305.549 353.968 305.771C350.122 306.939 345.791 306.059 342.738 303.429C342.157 302.934 341.306 303.776 341.892 304.275Z" fill="#4F200A"/>
<path d="M209.13 346.142C194.636 346.142 182.887 357.891 182.887 372.385V397.258C182.887 422.703 162.187 443.403 136.742 443.403C118.325 443.403 102.413 432.553 95.0151 416.919C92.7941 419.472 89.8905 421.424 86.636 422.323C75.3389 425.443 63.9024 428 52.3409 429.942C49.2498 430.461 46.4376 430.538 43.6782 429.933C57.1915 468.309 93.8036 495.888 136.742 495.888C191.127 495.888 235.373 451.642 235.373 397.258V372.385C235.368 357.891 223.619 346.142 209.13 346.142Z" fill="#00FA7C"/>
<path d="M483.566 610.838L470.746 623.999L473.744 642.449C474.07 644.38 473.254 646.324 471.648 647.445C470.789 648.045 469.768 648.368 468.723 648.371C467.87 648.359 467.036 648.142 466.286 647.737L450.883 639.207L435.504 647.737C433.795 648.679 431.699 648.56 430.109 647.436C428.516 646.308 427.705 644.374 428.022 642.449L431.02 623.999L418.2 610.838C416.878 609.464 416.43 607.472 417.033 605.665C417.636 603.859 419.193 602.537 421.076 602.235L438.55 599.627L446.276 583.152C447.102 581.351 448.902 580.2 450.882 580.2C452.862 580.2 454.663 581.351 455.489 583.152L463.214 599.627L480.665 602.308C482.551 602.604 484.116 603.923 484.726 605.729C485.335 607.539 484.887 609.534 483.565 610.911L483.566 610.838Z" fill="#F7C737"/>
<path d="M165.697 131.081L152.877 144.241L155.875 162.691C156.201 164.622 155.385 166.566 153.779 167.687C152.92 168.287 151.899 168.61 150.855 168.613C150.001 168.601 149.167 168.385 148.417 167.979L133.014 159.449L117.635 167.979C115.926 168.921 113.83 168.802 112.24 167.678C110.647 166.551 109.836 164.616 110.153 162.691L113.151 144.241L100.331 131.08C99.0087 129.707 98.5609 127.714 99.1641 125.908C99.7673 124.101 101.324 122.779 103.207 122.477L120.681 119.869L128.407 103.394C129.233 101.593 131.033 100.442 133.013 100.442C134.994 100.442 136.794 101.593 137.62 103.394L145.346 119.869L162.796 122.55C164.682 122.846 166.248 124.165 166.857 125.972C167.466 127.781 167.018 129.777 165.696 131.154L165.697 131.081Z" fill="#F7C737"/>
<path d="M459.675 198.321L452.348 205.849L454.061 216.403C454.247 217.508 453.781 218.619 452.863 219.261C452.372 219.604 451.789 219.789 451.191 219.791C450.704 219.784 450.227 219.66 449.798 219.428L440.994 214.548L432.204 219.428C431.227 219.966 430.029 219.899 429.121 219.256C428.21 218.611 427.747 217.504 427.928 216.403L429.641 205.849L422.314 198.321C421.558 197.535 421.302 196.396 421.647 195.362C421.991 194.329 422.881 193.573 423.957 193.4L433.945 191.908L438.361 182.484C438.833 181.454 439.862 180.795 440.994 180.795C442.126 180.795 443.155 181.454 443.627 182.484L448.043 191.908L458.017 193.442C459.095 193.611 459.99 194.365 460.338 195.399C460.686 196.434 460.43 197.575 459.674 198.363L459.675 198.321Z" fill="#F7C737"/>
<path d="M66.1793 522.099L58.8517 529.627L60.5652 540.18C60.7515 541.285 60.2848 542.397 59.3672 543.038C58.8761 543.382 58.2928 543.566 57.6955 543.568C57.208 543.561 56.7309 543.437 56.3025 543.205L47.4986 538.326L38.7085 543.205C37.7316 543.744 36.5336 543.676 35.6247 543.033C34.714 542.388 34.2508 541.282 34.4319 540.18L36.1453 529.627L28.8178 522.099C28.0621 521.313 27.8061 520.173 28.1509 519.14C28.4956 518.106 29.3854 517.35 30.4616 517.177L40.4494 515.686L44.8653 506.262C45.3372 505.232 46.3663 504.573 47.4981 504.573C48.6299 504.573 49.6591 505.232 50.1309 506.262L54.5468 515.686L64.5208 517.219C65.5987 517.388 66.4937 518.143 66.8419 519.176C67.1902 520.211 66.9342 521.353 66.1785 522.14L66.1793 522.099Z" fill="#F7C737"/>
<path d="M342.324 36.0983V55.4487V55.482C342.341 62.2871 347.665 67.5947 354.47 67.5947C359.428 67.5947 363.721 64.866 365.684 60.6399L368.596 64.8993C368.596 64.8993 369.894 67.212 371.707 67.212C373.82 67.212 374.636 65.7479 375.118 65.0158C375.251 64.7995 376.549 63.1024 378.329 60.5068C380.259 64.916 384.635 67.5781 389.777 67.5781C392.838 67.5781 395.583 66.6297 397.713 64.7828C398.495 64.0674 399.044 63.2188 399.044 62.4202C399.044 60.7065 398.013 59.6749 396.299 59.6749C395.583 59.6749 394.602 60.357 393.886 60.9228C392.738 61.7713 391.341 62.2871 389.76 62.2871C386.332 62.2871 382.955 58.9095 382.955 55.482C382.955 52.0545 386.332 48.6769 389.76 48.6769C391.324 48.6769 392.688 49.1761 393.836 50.1744C394.552 50.7401 395.201 51.3557 395.899 51.3557C397.613 51.3557 399.044 50.3241 399.044 48.6104C399.044 47.7452 398.362 46.8966 397.513 46.1812C395.367 44.3177 392.838 43.569 389.777 43.569C385.218 43.569 380.958 46.2144 378.779 49.8582L371.84 60.0409C371.84 60.0409 366.35 51.2559 364.802 49.0762C362.307 45.5323 359.445 43.8019 356.084 43.5856C353.172 43.4026 352.191 44.6005 352.307 46.5306C352.423 48.5272 355.635 48.9099 356.184 49.0596C358.896 49.8083 361.092 52.5037 361.092 55.4487C361.092 58.9927 358.014 62.0708 354.47 62.0708C350.926 62.0708 347.848 58.9927 347.848 55.4487C347.848 55.4487 347.881 37.4793 347.881 36.0817C347.881 34.7174 347.415 33.0868 345.136 33.0868C342.873 33.0868 342.324 34.9669 342.324 36.0983Z" fill="white"/>
<path d="M467.108 53.3806H460.673V60.7176C460.673 62.9956 461.865 63.8697 463.348 63.8697C464.831 63.8697 465.731 63.3664 466.737 62.7307L468.194 65.6708C466.679 66.7329 464.88 67.3143 463.03 67.3395C459.217 67.3395 456.966 65.2735 456.966 60.7971V53.3806H453.603V50.0432H456.966V44.931H460.673V50.0432H467.108V53.3806Z" fill="white"/>
<path d="M482.07 50.0701L481.196 53.7253C480.325 53.3214 479.376 53.1135 478.416 53.1161C476.059 53.1161 474.39 54.7584 474.39 57.619V66.8897H470.736V50.0436H474.364V51.9507C475.476 50.3349 477.197 49.5933 479.263 49.5933C480.22 49.5713 481.173 49.7332 482.07 50.0701Z" fill="white"/>
<path d="M489.378 44.2162C489.313 44.856 489.013 45.449 488.536 45.8801C488.059 46.3113 487.439 46.55 486.796 46.55C486.153 46.55 485.533 46.3113 485.056 45.8801C484.579 45.449 484.279 44.856 484.215 44.2162C484.178 43.8551 484.217 43.4903 484.33 43.1454C484.444 42.8005 484.628 42.4831 484.871 42.2139C485.114 41.9446 485.411 41.7293 485.743 41.582C486.075 41.4346 486.433 41.3585 486.796 41.3585C487.159 41.3585 487.518 41.4346 487.85 41.582C488.181 41.7293 488.478 41.9446 488.722 42.2139C488.965 42.4831 489.149 42.8005 489.262 43.1454C489.375 43.4903 489.415 43.8551 489.378 44.2162ZM488.637 66.8895H484.956V50.0435H488.637V66.8895Z" fill="white"/>
<path d="M497.958 44.2162C497.893 44.856 497.593 45.449 497.116 45.8801C496.639 46.3113 496.019 46.55 495.376 46.55C494.733 46.55 494.113 46.3113 493.636 45.8801C493.159 45.449 492.859 44.856 492.794 44.2162C492.757 43.8551 492.797 43.4903 492.91 43.1454C493.023 42.8005 493.207 42.4831 493.451 42.2139C493.694 41.9446 493.991 41.7293 494.322 41.582C494.654 41.4346 495.013 41.3585 495.376 41.3585C495.739 41.3585 496.098 41.4346 496.429 41.582C496.761 41.7293 497.058 41.9446 497.301 42.2139C497.544 42.4831 497.729 42.8005 497.842 43.1454C497.955 43.4903 497.994 43.8551 497.958 44.2162ZM497.216 66.8895H493.535V50.0435H497.216V66.8895Z" fill="white"/>
<path d="M449.419 57.8837C448.097 57.8793 446.82 57.4014 445.819 56.5366C444.818 55.6717 444.16 54.4771 443.964 53.1689C445.081 54.2634 446.585 54.8727 448.148 54.8641H449.048V53.0629H448.148C447.142 53.0691 446.166 52.7145 445.399 52.0634C444.631 51.4123 444.122 50.5078 443.964 49.5136C444.792 50.1492 445.807 50.4937 446.851 50.4936H447.751V48.6925H446.851C446.071 48.6925 445.323 48.3827 444.772 47.8313C444.221 47.28 443.911 46.5321 443.911 45.7523V44.8518H442.111V45.7523C442.104 46.5345 441.788 47.2824 441.233 47.8329C440.677 48.3836 439.927 48.6925 439.145 48.6925H438.244V50.4936H439.145C440.188 50.4937 441.203 50.1492 442.031 49.5136C441.873 50.5078 441.364 51.4123 440.596 52.0634C439.829 52.7145 438.854 53.0691 437.847 53.0629H436.973V54.8641H437.847C439.411 54.8727 440.914 54.2634 442.031 53.1689C441.84 54.4793 441.184 55.6772 440.182 56.543C439.18 57.4089 437.9 57.8847 436.576 57.8837H435.676V59.6848H436.576C437.625 59.6838 438.661 59.4588 439.615 59.0248C440.57 58.5908 441.42 57.958 442.111 57.1685V67.2867H443.911V57.1685C444.595 57.9586 445.441 58.5922 446.391 59.0264C447.342 59.4607 448.374 59.6852 449.419 59.6848H450.319V57.8837H449.419Z" fill="white"/>
<circle cx="419.132" cy="54.3568" r="3.54501" fill="white"/>
</svg>
