<svg width="201" height="150" viewBox="0 0 201 150" fill="none" xmlns="http://www.w3.org/2000/svg">
<path d="M97.2267 7.87608C97.0043 7.96506 96.7373 8.24683 96.6039 8.5286C96.4704 8.81037 96.3073 9.06248 96.2479 9.10698C96.0996 9.19596 96.1293 10.2786 96.2776 10.5158C96.3369 10.6048 96.3518 10.7383 96.3073 10.8124C96.2628 10.8866 96.3221 10.9756 96.4407 11.0349C96.7077 11.1387 96.7373 11.5094 96.4704 11.6133C96.2628 11.6874 96.2331 14.8017 96.4407 16.1661C96.5149 16.611 96.5445 17.0411 96.5297 17.13C96.4111 17.5453 96.4407 19.6808 96.5594 19.8439C96.7373 20.0812 96.7225 20.971 96.5297 21.327C96.4407 21.5049 96.4556 21.668 96.6039 21.8608C96.7077 22.0091 96.7818 22.1871 96.7373 22.2464C96.5445 22.543 96.7077 25.5387 96.9746 26.5768C97.2119 27.4814 97.464 27.6891 98.2352 27.6001C98.5169 27.5704 98.9025 26.8586 98.9767 26.2802C99.0212 25.9688 99.0805 25.5239 99.1101 25.2866C99.1546 24.8417 99.1991 23.9964 99.1843 23.5811C99.1695 23.4625 99.1843 22.721 99.1843 21.9498C99.1991 21.1787 99.1843 20.0219 99.1695 19.3842C99.1546 18.7465 99.1843 18.183 99.2436 18.1385C99.4068 17.9754 99.3326 17.5453 99.125 17.3673C98.9767 17.2487 98.947 17.0707 99.0212 16.789C99.0805 16.5665 99.1102 16.2996 99.0805 16.1957C99.036 16.0919 99.0508 15.8991 99.1101 15.7508C99.2733 15.3949 99.2584 14.7721 99.1101 14.52C99.036 14.4161 98.9619 13.2742 98.947 12.0137C98.9174 9.55188 98.7542 8.58792 98.25 8.05404C97.8941 7.68329 97.8051 7.66846 97.2267 7.87608Z" fill="#E3E3E3"/>
<path d="M150.2 27.7336C149.992 27.8967 149.74 28.0302 149.651 28.0302C149.547 28.0302 149.458 28.0895 149.458 28.1636C149.458 28.3564 147.352 30.403 147.16 30.403C147.13 30.403 146.596 30.9072 145.988 31.5152C145.365 32.1233 144.772 32.6275 144.638 32.6275C144.52 32.6275 144.416 32.7016 144.416 32.7906C144.416 32.8796 144.194 33.1762 143.941 33.4431C143.675 33.7249 143.155 34.244 142.8 34.6147C142.444 34.9855 142.073 35.2969 141.984 35.2969C141.791 35.2969 141.524 35.5935 141.124 36.2164C140.975 36.4388 140.664 36.7354 140.412 36.8689C140.175 37.0172 139.967 37.2248 139.967 37.3286C139.967 37.4176 139.567 37.9218 139.077 38.4409C138.588 38.9599 138.187 39.4197 138.187 39.479C138.187 39.5383 138.084 39.5531 137.965 39.5086C137.817 39.4493 137.742 39.5086 137.742 39.6718C137.742 39.8201 137.624 40.0425 137.476 40.176C137.09 40.5319 136.556 41.4514 136.556 41.7628C136.571 42.5636 137.728 42.9492 138.158 42.2967C138.276 42.1187 138.425 41.9704 138.499 41.9704C138.558 41.9704 138.781 41.8221 138.973 41.6293C139.166 41.4514 139.73 40.9175 140.234 40.4429C140.738 39.9684 141.153 39.5235 141.153 39.4345C141.153 39.3455 141.242 39.301 141.361 39.3455C141.494 39.39 141.672 39.2862 141.806 39.0637C141.939 38.8709 142.147 38.7078 142.266 38.7078C142.384 38.7078 142.488 38.5743 142.488 38.4112C142.488 38.2481 142.577 38.0701 142.681 38.0256C142.785 37.996 143.497 37.3583 144.253 36.6316C145.009 35.8901 145.706 35.2969 145.795 35.2969C145.899 35.2969 146.136 35.0893 146.344 34.8223C146.552 34.5702 146.804 34.2885 146.922 34.1995C147.026 34.1105 147.323 33.8139 147.575 33.547C147.827 33.2948 148.124 33.0724 148.227 33.0724C148.331 33.0724 148.494 32.9093 148.568 32.7016C148.643 32.5088 148.895 32.2419 149.117 32.1233C149.34 31.9898 149.74 31.6339 149.977 31.3076C150.229 30.9813 150.585 30.6403 150.793 30.5216C151.579 30.1212 152.291 29.0831 152.024 28.742C151.742 28.3861 151.698 27.8819 151.935 27.6594C152.291 27.2887 150.674 27.3628 150.2 27.7336Z" fill="#E3E3E3"/>
<path d="M152.054 28.3119C152.009 28.3861 152.039 28.4899 152.128 28.5492C152.202 28.5937 152.276 28.5344 152.276 28.4157C152.276 28.1488 152.187 28.1043 152.054 28.3119Z" fill="#E3E3E3"/>
<path d="M41.9699 30.2102C41.7771 30.3436 41.525 30.6847 41.4063 30.9665C41.2135 31.4262 41.2135 31.5152 41.4212 31.7377C41.5398 31.8711 41.6436 32.0343 41.6436 32.0936C41.6436 32.2715 42.4444 32.9092 42.6817 32.9241C42.8597 32.9241 42.8745 32.9537 42.6965 33.0575C42.4741 33.2058 42.6076 33.5469 42.8745 33.4876C43.097 33.4283 44.1647 34.0956 44.1647 34.2736C44.1647 34.3478 44.3427 34.4812 44.5503 34.5554C44.7579 34.6444 44.8766 34.763 44.8321 34.852C44.7876 34.9261 44.8172 35.0003 44.9211 35.0003C45.0249 35.0003 45.4549 35.371 45.885 35.8159C46.3151 36.2608 46.7303 36.6316 46.8045 36.6316C47.0862 36.6316 47.7239 37.2545 47.7239 37.5362C47.7239 37.6845 47.8129 37.818 47.9316 37.818C48.0502 37.818 48.4358 38.0998 48.8065 38.4409C49.7408 39.3455 50.69 40.1018 50.8976 40.1611C51.0014 40.1908 51.1942 40.4429 51.3425 40.7247C51.4908 41.0509 51.6687 41.2289 51.7874 41.1844C51.8912 41.1399 52.0691 41.2586 52.1581 41.4365C52.2619 41.6145 52.5734 41.8814 52.8403 42.0297C53.1221 42.178 53.3445 42.3412 53.3297 42.4005C53.3 42.6823 53.389 42.8602 53.5522 42.8602C53.7449 42.8602 54.9314 43.7055 55.4652 44.2246C55.8656 44.625 56.9779 44.6398 57.3487 44.2691C57.9122 43.7055 57.6008 43.0678 55.9991 41.5107C55.0648 40.5912 54.8127 40.3984 54.5013 40.3688C54.4271 40.3539 54.1305 40.0277 53.8339 39.6421C53.5373 39.2565 53.1369 38.8116 52.959 38.6633C52.7662 38.515 52.6179 38.2926 52.6179 38.1739C52.6179 38.0553 52.4992 37.9663 52.3361 37.9663C52.1878 37.9663 51.7429 37.5955 51.3425 37.1506C50.9421 36.7057 50.4972 36.2905 50.3637 36.246C50.2154 36.2015 50.0968 36.068 50.0968 35.9494C50.0968 35.7714 49.904 35.6676 49.7408 35.7714C49.6222 35.8456 49.0586 35.2524 49.0586 35.0596C49.0586 34.8075 48.2727 33.9473 48.0057 33.9029C47.5905 33.8435 46.6858 33.1465 46.6858 32.8796C46.6858 32.7461 46.5969 32.6275 46.4782 32.6275C46.3596 32.6275 45.8257 32.1974 45.2918 31.6635C44.7579 31.1296 44.2092 30.6996 44.0906 30.6996C43.9719 30.6996 43.8681 30.6402 43.8681 30.5661C43.8681 30.4623 42.5482 29.9284 42.3555 29.9729C42.3258 29.9729 42.1627 30.0767 41.9699 30.2102Z" fill="#E3E3E3"/>
<path d="M100.83 37.0172C100.549 37.1507 100.282 37.1803 100.237 37.1062C100.163 37.0024 97.6271 36.9727 97.6271 37.0765C97.6271 37.1062 97.1377 37.1803 96.1441 37.299C95.1653 37.4028 94.8836 37.4621 94.4387 37.64C94.231 37.7142 93.5637 37.8328 92.9557 37.8922C92.3476 37.9515 91.6061 38.0405 91.3243 38.0701C91.0426 38.1146 90.4939 38.1443 90.1083 38.1443C89.7079 38.1294 89.3964 38.2036 89.3964 38.2926C89.3964 38.3815 89.2333 38.4112 89.0109 38.3667C88.8032 38.3371 88.5511 38.3964 88.4177 38.515C88.299 38.6337 88.121 38.7078 88.0172 38.6633C87.9283 38.6337 87.6613 38.693 87.4389 38.8116C87.2016 38.9154 87.0236 38.9747 87.0236 38.9303C87.0236 38.8858 86.8902 38.9154 86.7122 39.0044C86.5491 39.0934 86.0597 39.2713 85.6444 39.3752C85.2144 39.479 84.6805 39.6866 84.4284 39.8052C84.1911 39.9387 83.8796 40.0425 83.7462 40.0425C83.6127 40.0425 83.4199 40.1463 83.3161 40.265C83.2123 40.3836 83.0492 40.4874 82.9602 40.4874C82.7081 40.4874 79.6234 42.0742 79.3713 42.3412C79.2378 42.4598 78.9709 42.6081 78.7484 42.6674C78.526 42.7119 78.1997 42.9195 78.0218 43.1123C77.8438 43.2903 77.562 43.4534 77.4137 43.4534C77.2506 43.4534 77.0875 43.5572 77.0282 43.6759C76.9837 43.7945 76.776 43.9577 76.5833 44.0466C76.3756 44.1208 76.1977 44.3284 76.168 44.5212C76.1384 44.7288 76.0197 44.8623 75.8566 44.8623C75.7083 44.8623 75.2485 45.1737 74.8185 45.5593C74.4032 45.9597 73.9732 46.2711 73.8694 46.2711C73.7507 46.2711 73.6321 46.375 73.5728 46.5084C73.5283 46.6419 73.0982 47.1609 72.6236 47.6503C72.1491 48.1546 71.7486 48.6143 71.7486 48.6736C71.7486 48.7478 71.6448 48.7923 71.5262 48.7923C71.4076 48.7923 71.3037 48.8961 71.3037 49.0147C71.3037 49.1334 71.2444 49.2372 71.1554 49.2372C71.0813 49.2372 71.0071 49.2965 71.0071 49.3706C71.0071 49.5486 70.147 50.4236 69.969 50.4236C69.9097 50.4236 69.7911 50.6015 69.7021 50.824C69.6279 51.0613 69.4055 51.4172 69.2127 51.6248C68.6195 52.2773 68.3377 52.6481 68.3377 52.7667C68.3377 53.0485 67.8039 54.1311 67.6556 54.1311C67.5666 54.1311 67.3589 54.4277 67.181 54.7836C66.9882 55.1395 66.7509 55.4806 66.6323 55.5251C66.5136 55.5696 66.4098 55.7031 66.4098 55.8069C66.4098 56.1331 65.9798 56.9043 65.7573 56.9933C65.6535 57.0378 65.5052 57.3789 65.4607 57.7496C65.4014 58.1204 65.2976 58.4318 65.2086 58.4318C65.1344 58.4318 65.0751 58.5504 65.0751 58.6987C65.0751 58.847 65.001 59.0398 64.912 59.1288C64.6895 59.3513 64.2001 60.775 64.1853 61.205C64.1853 61.3978 64.1408 61.5461 64.0667 61.5461C63.8146 61.5461 63.2214 64.3193 63.3697 64.8236C63.429 65.0015 63.3845 65.135 63.2362 65.1943C63.1027 65.2388 62.9989 65.4464 62.9989 65.6392C62.9989 65.832 62.9396 65.9951 62.8803 65.9951C62.8209 65.9951 62.7468 66.4845 62.732 67.0629C62.7023 67.7303 62.6133 68.2196 62.4799 68.368C62.3612 68.5014 62.3167 68.6794 62.3909 68.798C62.465 68.9018 62.4502 69.2281 62.376 69.5395C62.2871 69.8361 62.1981 70.5035 62.1684 71.0374C62.0794 72.4314 62.0794 72.4314 61.9608 72.5945C61.7828 72.817 61.6939 78.5414 61.857 78.7045C61.9015 78.7342 61.8718 78.9715 61.7977 79.2236C61.7235 79.5202 61.7235 79.7574 61.8273 79.8761C62.0201 80.0985 62.1239 80.5879 62.1684 81.4332C62.1833 81.804 62.2574 82.1896 62.3167 82.2786C62.376 82.3824 62.376 82.5307 62.3316 82.6048C62.2722 82.6938 62.3464 82.9311 62.4799 83.1387C62.6578 83.4205 62.6726 83.5688 62.5688 83.7022C62.4502 83.8505 62.465 83.9544 62.643 84.1027C62.8209 84.251 62.8654 84.4586 62.8061 84.9331C62.7616 85.4225 62.7913 85.6005 63.0137 85.7488C63.2214 85.8823 63.3103 86.1789 63.3548 86.8166C63.3993 87.306 63.4883 87.736 63.5625 87.7805C63.7108 87.8695 63.9184 88.4479 63.948 88.8335C63.9629 88.9521 64.126 89.3377 64.304 89.6788C64.4819 90.0199 64.6302 90.4054 64.6302 90.5389C64.6302 90.6576 64.6895 90.7614 64.7637 90.7614C64.8378 90.7614 64.9416 90.9986 64.9861 91.2804C65.0455 91.5622 65.1493 91.7995 65.2086 91.7995C65.3421 91.7995 65.7128 92.6003 65.7276 92.9117C65.7425 92.9859 65.8611 93.2083 66.0242 93.3863C66.306 93.7274 66.5878 94.1871 66.8251 94.6913C66.914 94.8545 67.1068 95.1066 67.2848 95.2697C67.4479 95.418 67.5517 95.596 67.5072 95.6701C67.4776 95.7294 67.5666 95.8629 67.7297 95.9371C67.878 96.026 68.056 96.2633 68.1005 96.4858C68.1598 96.7082 68.3674 97.0938 68.575 97.3607C68.7678 97.6129 68.9309 97.9391 68.9309 98.0578C68.9309 98.1912 69.1386 98.5175 69.3907 98.7844C69.6279 99.0514 69.9245 99.4814 70.0432 99.7632C70.1618 100.03 70.325 100.253 70.3991 100.253C70.6364 100.253 71.3779 101.053 71.3334 101.261C71.3037 101.365 71.5114 101.543 71.7931 101.661C72.1342 101.795 72.3419 102.003 72.4012 102.255C72.4605 102.462 72.6088 102.685 72.7571 102.729C73.1872 102.892 73.899 103.545 73.9732 103.856C74.0177 104.019 74.2104 104.183 74.3884 104.212C74.8185 104.272 75.4413 104.716 75.4562 104.954C75.4562 105.058 75.5748 105.147 75.7231 105.147C75.8862 105.147 76.2422 105.413 76.5536 105.74C76.8502 106.066 77.4434 106.496 77.8735 106.704C78.9857 107.252 79.6086 107.653 80.1721 108.216C80.4539 108.483 80.7357 108.661 80.8247 108.617C81.2399 108.365 81.7441 109.477 81.3882 109.833C81.2844 109.937 81.2844 110.144 81.403 110.456C81.5217 110.797 81.5217 111.064 81.3882 111.434C81.2696 111.805 81.2696 112.043 81.3734 112.25C81.6106 112.68 81.581 112.814 81.1954 112.917C80.6615 113.051 79.5196 114.237 79.1637 115.023C78.704 116.047 78.5705 117.708 78.8967 118.464C79.1044 118.924 79.1192 119.027 79.1489 119.517C79.1637 119.754 79.2378 119.828 79.3713 119.784C79.5196 119.724 79.5641 119.769 79.5196 119.888C79.4751 120.006 79.6086 120.229 79.8162 120.392C80.2018 120.688 80.2166 121.252 79.831 121.119C79.6679 121.044 79.5493 121.178 78.9857 122.186C78.7336 122.616 78.6743 122.972 78.6743 124.055C78.6891 126.101 78.7188 126.205 79.4899 126.962L80.1721 127.659L79.7865 128.415C79.4455 129.127 79.3416 129.75 79.312 131.322C79.2972 132.3 79.4158 132.79 79.7569 133.057C79.9349 133.205 80.0387 133.324 79.9793 133.324C79.6827 133.324 81.0026 134.362 81.492 134.51C81.8034 134.614 82.1445 134.777 82.2632 134.866C82.3818 134.955 82.7377 135.029 83.0788 135.029C83.4051 135.029 83.7165 135.088 83.7313 135.177C83.761 135.252 83.85 135.4 83.9241 135.489C83.9983 135.578 84.028 135.771 83.9686 135.904C83.9241 136.038 83.9538 136.141 84.0428 136.141C84.1318 136.141 84.2059 136.245 84.2059 136.364C84.2059 136.631 84.7101 137.535 85.0661 137.921C85.511 138.41 86.9198 139.271 87.1274 139.196C87.2312 139.152 87.3202 139.182 87.3202 139.256C87.3202 139.345 87.2461 139.404 87.1571 139.404C87.0829 139.404 87.0533 139.478 87.0978 139.552C87.1423 139.641 87.3499 139.701 87.5427 139.701C87.7355 139.701 88.21 139.804 88.5956 139.938C88.9664 140.057 89.5744 140.19 89.9303 140.205C90.3604 140.234 90.657 140.338 90.7756 140.516C90.9388 140.724 91.0426 140.739 91.265 140.62C91.5765 140.457 92.318 140.546 92.6146 140.768C92.7332 140.872 92.8815 140.843 93.0446 140.665C93.2226 140.487 93.3264 140.472 93.4006 140.59C93.4599 140.694 93.6675 140.739 93.8603 140.724C94.0531 140.694 94.3052 140.724 94.409 140.783C94.498 140.857 94.587 140.857 94.587 140.783C94.587 140.605 97.0191 140.739 97.1229 140.917C97.1971 141.02 97.3602 141.035 97.6568 140.917C97.9089 140.843 98.1907 140.828 98.2945 140.887C98.3983 140.946 98.6949 140.917 98.9618 140.798C99.2288 140.694 99.4809 140.635 99.5254 140.679C99.644 140.798 102.64 140.783 103.782 140.665C105.354 140.487 105.887 140.457 106.718 140.457C107.163 140.457 107.608 140.383 107.726 140.279C107.845 140.19 108.305 140.101 108.75 140.101C109.269 140.101 109.625 140.027 109.743 139.893C109.847 139.76 110.055 139.715 110.337 139.775C110.589 139.834 110.752 139.804 110.752 139.715C110.752 139.567 111.731 138.989 111.983 138.989C112.057 138.989 112.309 138.811 112.546 138.603C112.783 138.396 113.05 138.203 113.154 138.188C113.421 138.129 113.703 137.862 113.614 137.743C113.584 137.684 113.733 137.446 113.97 137.224C114.192 136.987 114.385 136.764 114.4 136.69C114.415 136.631 114.444 136.542 114.459 136.468C114.474 136.408 114.504 136.127 114.519 135.845C114.533 135.37 114.578 135.326 114.978 135.311C115.23 135.311 115.527 135.266 115.646 135.222C115.764 135.177 116.15 135.059 116.506 134.955C116.847 134.851 117.129 134.673 117.129 134.569C117.129 134.466 117.292 134.199 117.499 133.976C117.707 133.754 117.87 133.531 117.87 133.472C117.87 133.413 118.004 133.324 118.182 133.279C118.36 133.235 118.449 133.131 118.389 133.027C118.33 132.938 118.36 132.775 118.449 132.671C118.656 132.434 118.701 131.514 118.538 131.247C118.463 131.129 118.478 131.084 118.582 131.158C118.76 131.262 118.968 130.728 118.834 130.491C118.775 130.402 118.701 130.061 118.671 129.72C118.612 129.038 118.345 128.267 118.107 128.103C117.915 127.97 118.36 127.11 118.908 126.606C119.249 126.279 119.353 126.057 119.353 125.612C119.353 125.301 119.413 125.004 119.501 124.945C119.576 124.9 119.59 124.722 119.516 124.529C119.442 124.337 119.398 123.907 119.427 123.565C119.457 123.224 119.427 122.943 119.353 122.943C119.22 122.943 118.834 122.082 118.834 121.786C118.834 121.682 118.671 121.519 118.463 121.415C118.033 121.207 117.9 120.659 118.196 120.303C118.508 119.902 118.76 119.398 118.76 119.176C118.76 119.057 118.879 118.894 119.012 118.805C119.235 118.686 119.235 118.612 119.086 118.271C118.982 118.049 118.953 117.782 119.027 117.663C119.175 117.396 119.071 116.417 118.893 116.417C118.819 116.417 118.76 116.284 118.76 116.136C118.76 115.972 118.701 115.809 118.627 115.75C118.552 115.706 118.449 115.483 118.389 115.246C118.3 114.845 117.766 114.223 116.995 113.629C116.639 113.348 116.624 113.273 116.595 111.36C116.55 109.24 116.595 108.854 116.891 108.854C116.98 108.854 117.144 108.78 117.247 108.676C117.336 108.587 117.588 108.498 117.811 108.468C118.018 108.439 118.315 108.32 118.449 108.202C118.597 108.068 118.745 107.994 118.79 108.038C118.834 108.083 118.982 107.979 119.131 107.816C119.279 107.653 119.531 107.519 119.679 107.519C119.828 107.519 120.184 107.312 120.465 107.045C120.955 106.615 121.355 106.333 121.874 106.096C121.993 106.036 122.349 105.769 122.66 105.488C122.957 105.221 123.313 104.998 123.431 104.998C123.55 104.998 123.654 104.924 123.654 104.85C123.654 104.613 124.855 103.515 125.285 103.352C125.493 103.263 125.864 102.937 126.101 102.625C126.353 102.299 126.65 102.047 126.783 102.032C126.931 102.032 127.094 101.795 127.198 101.439C127.302 101.113 127.436 100.875 127.525 100.92C127.599 100.979 127.703 100.905 127.747 100.786C127.791 100.668 127.969 100.52 128.147 100.46C128.548 100.342 128.785 100.104 128.904 99.7039C128.963 99.5259 129.275 99.1255 129.586 98.7993C129.912 98.473 130.179 98.1467 130.179 98.0726C130.179 97.9984 130.327 97.8501 130.52 97.7463C130.95 97.5239 131.366 96.7675 131.41 96.1447C131.425 95.8332 131.514 95.6553 131.662 95.6553C131.974 95.6405 132.493 95.1807 132.611 94.7951C132.671 94.6172 132.789 94.4689 132.863 94.4689C132.938 94.4689 132.997 94.3502 132.997 94.1871C132.997 94.0388 133.101 93.8312 133.219 93.7274C133.338 93.6236 133.442 93.4604 133.442 93.3715C133.442 93.2825 133.575 93.0897 133.738 92.9414C133.916 92.7931 134.005 92.6151 133.961 92.541C133.916 92.4668 133.99 92.185 134.139 91.9181C134.272 91.6512 134.376 91.3546 134.361 91.2507C134.332 91.1469 134.45 90.8058 134.613 90.4944C134.776 90.1682 134.88 89.8716 134.836 89.8271C134.791 89.7826 134.836 89.5898 134.94 89.397C135.058 89.219 135.162 88.9224 135.177 88.7593C135.192 88.5962 135.251 88.1958 135.281 87.8695C135.384 87.0983 135.666 85.8526 135.829 85.556C135.889 85.4225 135.889 85.2594 135.815 85.1852C135.726 85.0963 135.726 84.681 135.829 84.0878C136.067 82.6493 136.126 82.1896 136.2 80.9735C136.245 80.3655 136.334 79.6536 136.408 79.4015C136.467 79.1494 136.467 78.8528 136.408 78.7342C136.334 78.6304 136.348 78.4079 136.452 78.2448C136.69 77.785 136.69 74.7894 136.437 74.1665C136.319 73.8699 136.289 73.6178 136.378 73.5288C136.452 73.4547 136.452 73.1136 136.363 72.6983C136.289 72.3128 136.215 71.4674 136.2 70.8149C136.17 69.7027 136.037 68.9463 135.829 68.5904C135.74 68.4273 135.696 68.2345 135.592 67.0332C135.548 66.5883 135.444 66.1879 135.37 66.1731C135.281 66.1434 135.221 65.9803 135.221 65.8023C135.221 65.6244 135.103 65.135 134.954 64.7346C134.821 64.3193 134.702 63.741 134.717 63.4444C134.732 63.1329 134.643 62.8067 134.539 62.7177C134.421 62.6287 134.332 62.4211 134.332 62.2876C134.332 62.1393 134.243 61.9762 134.154 61.9465C134.005 61.8872 134.005 61.8279 134.168 61.7241C134.346 61.6054 134.332 61.5165 134.065 61.1902C133.901 60.9677 133.709 60.5822 133.664 60.3301C133.546 59.7962 132.982 58.5356 132.7 58.2094C132.596 58.0907 132.552 57.9869 132.611 57.9869C132.656 57.9869 132.463 57.5568 132.181 57.0229C131.885 56.4891 131.692 56.059 131.766 56.059C131.825 56.059 131.692 55.8959 131.469 55.6882C131.247 55.4806 130.935 55.0357 130.772 54.7243C130.609 54.398 130.402 54.1311 130.327 54.1311C130.253 54.1311 130.164 53.9976 130.105 53.8493C130.06 53.6862 129.823 53.3154 129.586 53.0188C129.349 52.7222 129.111 52.2477 129.052 51.9807C129.008 51.6989 128.83 51.3579 128.666 51.2096C128.296 50.8833 127.88 50.1121 127.925 49.86C127.955 49.771 127.806 49.6227 127.628 49.5486C127.436 49.4744 127.183 49.2223 127.065 48.9999C126.946 48.7626 126.753 48.4808 126.664 48.377C126.561 48.2732 126.472 48.1101 126.472 48.0359C126.472 47.8283 125.567 46.8643 125.374 46.8643C125.285 46.8643 125.137 46.716 125.063 46.5381C124.974 46.3601 124.766 46.1673 124.588 46.1228C124.292 46.0487 123.728 45.6631 123.09 45.0699C122.957 44.9513 122.601 44.6843 122.319 44.4915C122.037 44.2987 121.741 44.0466 121.682 43.9428C121.622 43.839 121.444 43.75 121.311 43.75C121.177 43.75 120.91 43.5869 120.718 43.3941C120.54 43.2013 120.213 42.9937 119.991 42.9344C119.783 42.8899 119.442 42.7119 119.249 42.5636C119.057 42.4153 118.701 42.2374 118.463 42.1929C118.211 42.1336 117.989 42.0297 117.944 41.9556C117.885 41.8814 117.766 41.8221 117.677 41.8221C117.574 41.8221 117.618 41.9259 117.766 42.0297C117.915 42.1484 117.974 42.2819 117.885 42.3263C117.722 42.4302 117.277 42.0297 117.277 41.7776C117.277 41.6738 116.921 41.4365 116.506 41.2289C116.076 41.0361 115.483 40.7247 115.201 40.5467C114.919 40.3688 114.148 40.0425 113.495 39.8201C112.843 39.6124 112.205 39.301 112.072 39.1527C111.938 39.0044 111.671 38.8858 111.478 38.8858C111.048 38.8858 109.284 38.3667 108.646 38.0553C108.394 37.9218 107.993 37.818 107.771 37.818C107.548 37.818 106.97 37.7142 106.496 37.5956C105.769 37.4028 104.256 37.2396 102.373 37.1655C102.135 37.1655 101.839 37.0617 101.735 36.9727C101.498 36.7354 101.468 36.7502 100.83 37.0172ZM102.15 39.8052C103.01 39.909 103.515 39.9239 104.004 39.8349C104.167 39.8052 104.434 39.8646 104.597 39.9535C104.909 40.1167 105.324 40.1908 106.125 40.2205C106.377 40.2205 106.599 40.2946 106.599 40.3539C106.599 40.4281 106.792 40.4874 107.029 40.4874C107.267 40.4874 107.489 40.5616 107.519 40.6505C107.548 40.7395 107.904 40.8433 108.305 40.873C108.705 40.9175 109.106 41.0065 109.18 41.0806C109.269 41.1696 109.476 41.2289 109.654 41.2289C109.847 41.2289 110.04 41.2882 110.084 41.3772C110.129 41.4514 110.336 41.5255 110.544 41.5255C110.752 41.5255 110.945 41.6293 110.989 41.748C111.048 41.8814 111.152 41.9556 111.256 41.9408C111.493 41.8963 112.086 42.1187 112.086 42.267C112.086 42.3263 112.22 42.4153 112.383 42.4598C112.754 42.5636 112.694 42.534 113.925 42.9492C114.489 43.142 115.052 43.3941 115.186 43.5128C115.319 43.6166 115.853 43.8687 116.358 44.0615C116.877 44.2543 117.47 44.5805 117.663 44.7733C117.855 44.9661 118.018 45.0847 118.018 45.0254C118.018 44.9661 118.241 45.0699 118.508 45.2627C118.76 45.4555 119.012 45.6038 119.057 45.6186C119.561 45.7076 120.747 46.4936 120.94 46.8792C121.044 47.072 121.192 47.2499 121.281 47.2499C121.355 47.2648 121.474 47.2796 121.548 47.2944C121.652 47.3092 123.135 48.6143 123.402 48.9257C123.476 48.9999 123.906 49.4448 124.351 49.9045C124.796 50.3791 125.256 50.9871 125.374 51.254C125.493 51.5358 125.641 51.7583 125.715 51.7583C125.775 51.7583 126.012 52.0845 126.234 52.4998C126.457 52.9002 126.709 53.2413 126.783 53.2413C126.857 53.2413 126.991 53.4044 127.065 53.612C127.139 53.8197 127.302 53.9828 127.436 53.9828C127.554 53.9828 127.658 54.0866 127.658 54.2201C127.658 54.3535 127.866 54.7984 128.103 55.1988C128.355 55.5844 128.548 55.9848 128.548 56.059C128.548 56.2963 128.889 56.845 129.438 57.5272C129.601 57.72 129.912 58.2538 130.12 58.7136C130.327 59.1733 130.713 59.9741 130.95 60.4932C131.202 61.0122 131.425 61.7389 131.469 62.1097C131.514 62.4804 131.632 62.866 131.751 62.9846C131.87 63.1033 131.959 63.4444 131.959 63.7558C131.959 64.0524 132.033 64.3787 132.122 64.4676C132.226 64.5715 132.315 64.7939 132.344 64.9867C132.374 65.1795 132.433 65.6985 132.493 66.1434C132.552 66.5883 132.656 67.0036 132.745 67.0481C132.819 67.1074 132.893 67.2705 132.908 67.4188C132.923 67.582 132.997 67.9675 133.071 68.2938C133.13 68.6201 133.204 69.1095 133.219 69.4061C133.219 69.6878 133.323 70.1179 133.412 70.3404C133.516 70.5776 133.546 70.9187 133.501 71.1263C133.457 71.3191 133.471 71.4823 133.531 71.4823C133.605 71.4823 133.679 72.1645 133.694 72.9949C133.709 73.8402 133.724 74.6262 133.738 74.7449C133.753 74.8635 133.738 75.3974 133.694 75.9313C133.664 76.4503 133.679 77.0732 133.738 77.2808C133.813 77.5033 133.813 77.7257 133.768 77.785C133.679 77.8592 133.605 78.9715 133.59 80.3506C133.59 80.5434 133.516 80.8252 133.427 80.9883C133.308 81.2108 133.323 81.3443 133.457 81.5222C133.62 81.7002 133.605 81.7743 133.412 81.8781C133.234 81.9671 133.204 82.1747 133.264 82.7383C133.293 83.1535 133.279 83.5984 133.219 83.7467C133.145 83.895 133.086 84.251 133.056 84.5327C132.982 85.2446 132.878 86.0899 132.849 86.0899C132.834 86.0899 132.789 86.4903 132.76 86.9649C132.715 87.4691 132.596 87.9585 132.463 88.1068C132.344 88.2402 132.211 88.6852 132.166 89.0707C132.137 89.4711 132.033 89.8271 131.959 89.8716C131.885 89.916 131.781 90.2423 131.721 90.5834C131.662 90.9393 131.529 91.3101 131.425 91.4139C131.321 91.5177 131.024 92.0516 130.758 92.6151C130.491 93.1638 130.179 93.6384 130.075 93.6829C129.972 93.7274 129.883 93.8905 129.883 94.0388C129.883 94.3502 128.548 96.026 127.109 97.5535C126.59 98.1022 126.175 98.5916 126.175 98.651C126.175 98.7251 126.071 98.7696 125.953 98.7696C125.834 98.7696 125.73 98.8734 125.73 98.9921C125.73 99.1107 125.671 99.2145 125.582 99.2145C125.508 99.2145 125.434 99.3183 125.434 99.437C125.434 99.5556 125.374 99.6594 125.3 99.6594C125.211 99.6594 124.84 99.956 124.47 100.327C124.099 100.698 123.728 100.964 123.654 100.92C123.58 100.875 123.446 100.994 123.342 101.172C123.12 101.587 121.919 102.774 121.711 102.774C121.637 102.774 121.533 102.878 121.489 102.996C121.429 103.115 121.311 103.219 121.192 103.219C121.073 103.219 120.984 103.278 120.984 103.367C120.984 103.441 120.688 103.678 120.332 103.886C119.976 104.094 119.59 104.361 119.501 104.479C119.398 104.598 119.264 104.672 119.205 104.627C119.146 104.583 119.012 104.657 118.908 104.776C118.804 104.894 118.597 104.998 118.434 104.998C118.271 104.998 118.004 105.161 117.855 105.354C117.707 105.547 117.425 105.71 117.232 105.695C117.04 105.695 116.743 105.829 116.565 105.977C116.387 106.125 116.15 106.259 116.046 106.274C115.601 106.333 114.711 106.837 114.281 107.267C113.866 107.697 113.836 107.786 113.911 108.528C113.955 108.973 113.925 109.447 113.851 109.581C113.747 109.744 113.747 109.951 113.881 110.263C113.985 110.5 114.044 110.767 114.029 110.856C114 110.93 113.955 111.301 113.911 111.672C113.866 112.043 113.822 112.369 113.792 112.398C113.762 112.428 113.184 112.502 112.517 112.576C111.864 112.636 111.271 112.725 111.241 112.769C111.197 112.814 111.019 112.769 110.841 112.665C110.44 112.443 109.847 112.413 109.61 112.606C109.476 112.695 109.343 112.68 109.195 112.562C109.061 112.443 108.779 112.413 108.453 112.473C107.949 112.576 107.741 112.398 108.082 112.191C108.201 112.117 108.186 112.028 108.068 111.879C107.934 111.716 107.949 111.612 108.142 111.405C108.275 111.257 108.379 110.945 108.379 110.737C108.379 110.515 108.423 110.337 108.498 110.337C108.557 110.337 108.69 109.892 108.794 109.329C108.898 108.78 109.046 108.276 109.135 108.187C109.209 108.113 109.269 107.905 109.269 107.712C109.269 107.519 109.328 107.252 109.402 107.104C109.773 106.422 109.951 105.918 109.921 105.666C109.892 105.517 109.995 105.191 110.129 104.939C110.248 104.687 110.351 104.301 110.322 104.079C110.292 103.812 110.381 103.634 110.589 103.515C110.841 103.397 110.87 103.293 110.752 103.085C110.648 102.878 110.663 102.759 110.811 102.64C110.915 102.551 111.048 102.166 111.108 101.78C111.152 101.409 111.271 101.009 111.375 100.89C111.464 100.772 111.567 100.475 111.597 100.208C111.627 99.956 111.701 99.7187 111.76 99.6742C111.82 99.6149 111.879 99.3925 111.894 99.1404C111.908 98.9031 112.042 98.6213 112.175 98.5175C112.309 98.4137 112.383 98.2357 112.339 98.1171C112.279 97.9836 112.309 97.8501 112.398 97.8056C112.472 97.7463 112.502 97.6573 112.457 97.5832C112.368 97.4349 112.724 96.293 113.139 95.4477C113.48 94.7358 113.48 94.7506 113.184 94.8693C113.006 94.9286 112.961 94.8989 113.006 94.7506C113.05 94.632 113.169 94.5579 113.258 94.5727C113.347 94.6023 113.421 94.4985 113.421 94.3502C113.421 94.2168 113.525 93.9053 113.644 93.6681C113.836 93.2973 114.103 92.4668 114.444 91.1173C114.711 90.1088 114.281 89.1152 113.584 89.1301C113.169 89.1449 112.739 89.6046 112.68 90.1385C112.665 90.1978 112.546 90.3609 112.413 90.5092C112.279 90.6575 112.161 90.9097 112.131 91.0728C112.101 91.2359 111.983 91.577 111.849 91.8291C111.523 92.452 111.197 93.5791 111.286 93.7867C111.33 93.8905 111.197 94.0536 110.989 94.1426C110.767 94.2464 110.633 94.4244 110.648 94.6023C110.648 94.7506 110.529 95.1807 110.351 95.5366C110.173 95.8777 109.995 96.3523 109.951 96.5747C109.906 96.7972 109.758 97.0641 109.639 97.1976C109.328 97.509 109.358 97.598 109.758 97.509C110.025 97.4349 110.099 97.4794 110.099 97.7167C110.099 98.0726 109.995 98.1022 109.743 97.8501C109.61 97.7167 109.476 97.8798 109.165 98.562C108.942 99.0365 108.779 99.5259 108.794 99.6149C108.824 99.7187 108.765 99.8077 108.661 99.8077C108.572 99.8077 108.527 99.9115 108.587 100.03C108.631 100.149 108.601 100.253 108.512 100.253C108.409 100.253 108.379 100.431 108.409 100.698C108.453 100.964 108.409 101.157 108.275 101.202C108.171 101.246 108.082 101.454 108.082 101.661C108.082 101.884 108.008 102.195 107.919 102.358C107.83 102.522 107.726 102.878 107.682 103.13C107.652 103.382 107.534 103.753 107.43 103.96C107.341 104.168 107.237 104.598 107.222 104.924C107.193 105.25 107.074 105.621 106.955 105.769C106.822 105.903 106.762 106.096 106.822 106.185C106.881 106.288 106.881 106.407 106.807 106.466C106.644 106.57 106.258 107.935 106.273 108.32C106.288 108.483 106.154 108.706 106.006 108.81C105.813 108.958 105.71 109.195 105.71 109.536C105.71 109.818 105.65 110.04 105.576 110.04C105.517 110.04 105.487 110.218 105.532 110.441C105.576 110.693 105.517 110.886 105.368 111.004C105.19 111.138 105.131 111.345 105.176 111.805C105.235 112.339 105.19 112.428 104.924 112.473C103.915 112.68 103.648 112.68 103.589 112.517C103.544 112.384 103.441 112.384 103.174 112.502C102.803 112.665 101.883 112.651 101.305 112.473C101.068 112.413 100.934 112.443 100.875 112.621C100.801 112.799 100.727 112.814 100.489 112.695C100.341 112.606 99.9258 112.562 99.5699 112.576C99.2288 112.606 98.8877 112.576 98.7987 112.532C98.6356 112.428 97.6271 112.502 97.4195 112.621C97.3454 112.68 97.2415 112.651 97.1971 112.591C97.1526 112.517 96.5445 112.473 95.8475 112.502C95.1505 112.517 94.5425 112.473 94.498 112.398C94.4535 112.309 94.3349 112.324 94.2014 112.428C94.0383 112.562 93.9938 112.547 93.9938 112.324C93.9938 112.161 93.8306 111.642 93.623 111.153C93.4302 110.663 93.2523 110.1 93.2523 109.892C93.2523 109.685 93.1188 109.151 92.9557 108.706C92.7925 108.261 92.6591 107.786 92.6591 107.653C92.6591 107.519 92.5552 107.327 92.4218 107.208C92.2735 107.074 92.2142 106.882 92.2735 106.6C92.318 106.333 92.2883 106.155 92.1548 106.081C91.962 105.977 91.3243 104.301 91.3243 103.901C91.3243 103.812 91.1909 103.575 91.0277 103.367C90.8646 103.159 90.7311 102.863 90.7311 102.7C90.7311 102.403 90.6273 102.181 90.0193 101.098C89.8413 100.786 89.693 100.371 89.693 100.164C89.693 99.9708 89.5892 99.6446 89.4706 99.4666C89.3519 99.2738 89.2333 98.9179 89.2036 98.6658C89.174 98.3988 89.085 98.1022 88.996 97.9984C88.7291 97.6573 88.21 96.382 87.9728 95.4477C87.8393 94.9434 87.6465 94.4244 87.513 94.2909C87.3944 94.1574 87.3351 93.9647 87.3944 93.8757C87.4537 93.7867 87.3202 93.5791 87.0978 93.4159C86.8902 93.238 86.7419 93.0304 86.7715 92.9266C86.8012 92.8376 86.7122 92.5261 86.5491 92.2444C86.4008 91.9626 86.2821 91.5474 86.2821 91.3397C86.2821 91.1173 86.1783 90.8948 86.0448 90.8503C85.8965 90.791 85.852 90.6576 85.9114 90.4648C85.9707 90.272 85.941 90.1682 85.8224 90.1682C85.7186 90.1682 85.6889 90.1237 85.7334 90.0792C85.7927 90.0199 85.7037 89.7974 85.5406 89.575C85.3775 89.3377 85.244 89.1152 85.244 89.0559C85.244 88.8334 84.1763 88.0475 83.8352 88.003C83.6275 87.9881 83.3013 88.1364 83.0195 88.3885C82.6043 88.7593 82.5598 88.8631 82.6636 89.308C82.7229 89.575 82.7674 89.916 82.7377 90.0643C82.7229 90.1978 82.8267 90.4944 82.9898 90.7317C83.153 90.9541 83.3161 91.2952 83.3754 91.5029C83.4941 91.8884 83.7017 92.4372 83.9241 92.8672C83.9983 93.0155 84.0576 93.2231 84.0576 93.3418C84.0576 93.4604 84.1318 93.5791 84.2059 93.6087C84.2949 93.6384 84.3839 93.8312 84.4135 94.0536C84.4284 94.2761 84.5322 94.5579 84.6508 94.6913C84.7546 94.81 84.8584 95.1362 84.8881 95.4032C84.9178 95.6553 85.0216 95.8926 85.0957 95.9222C85.1847 95.9519 85.244 96.1002 85.244 96.2485C85.244 96.4116 85.4071 96.7824 85.6148 97.079C85.8224 97.3756 85.9855 97.7315 85.9855 97.865C85.9855 98.0133 86.0893 98.2505 86.208 98.4137C86.3266 98.562 86.4304 98.8734 86.4304 99.0959C86.4304 99.3183 86.4897 99.5259 86.5639 99.5704C86.6232 99.6149 86.8012 99.9708 86.9495 100.356C87.0978 100.742 87.3054 101.187 87.424 101.32C87.5427 101.454 87.602 101.632 87.5575 101.721C87.4982 101.795 87.5278 101.899 87.602 101.958C87.691 102.003 87.7206 102.136 87.6761 102.24C87.6317 102.344 87.7058 102.507 87.8244 102.611C87.9431 102.714 88.0914 103.085 88.1507 103.441C88.1952 103.812 88.3287 104.183 88.4473 104.272C88.566 104.361 88.6549 104.583 88.6549 104.746C88.6549 104.909 88.7884 105.31 88.9367 105.651C89.5151 106.882 89.693 107.341 89.693 107.564C89.693 107.697 89.7524 107.831 89.8265 107.875C89.9007 107.92 90.049 108.32 90.1528 108.735C90.3456 109.581 90.5087 109.937 90.9091 110.411C91.0574 110.589 91.1909 110.856 91.2205 111.004C91.2354 111.168 91.3095 111.39 91.3688 111.479C91.443 111.583 91.4578 111.731 91.3985 111.805C91.354 111.879 91.3837 111.983 91.4726 112.043C91.7544 112.22 91.6358 112.562 91.2947 112.502C91.1167 112.487 90.7311 112.517 90.4494 112.576C90.1231 112.651 89.8562 112.636 89.7375 112.532C89.6041 112.428 89.4854 112.428 89.3075 112.576C89.1295 112.725 89.0553 112.725 88.9664 112.576C88.8774 112.428 88.7143 112.428 88.299 112.532C88.0024 112.621 87.7651 112.636 87.7651 112.562C87.7651 112.487 87.513 112.458 87.2164 112.487C86.905 112.502 86.5639 112.532 86.4749 112.547C86.3711 112.562 86.2821 112.71 86.2821 112.888C86.2821 113.17 86.2525 113.184 86.1338 113.006C86.0597 112.873 85.5851 112.725 84.9919 112.636L83.9835 112.487L83.9686 111.523C83.9538 109.403 83.9241 109.151 83.6869 109.151C83.5237 109.151 83.4792 109.002 83.5386 108.513C83.6424 107.445 83.4792 106.778 83.0343 106.585C82.8267 106.496 82.6043 106.348 82.5449 106.259C82.4856 106.185 82.367 106.11 82.278 106.11C82.189 106.11 82.0704 106.036 82.0111 105.962C81.9517 105.873 81.6255 105.68 81.2844 105.532C80.9433 105.384 80.5429 105.132 80.4094 104.983C80.2611 104.82 80.0683 104.702 79.9497 104.702C79.8459 104.702 79.7569 104.627 79.7569 104.553C79.7569 104.464 79.6531 104.405 79.5344 104.405C79.4158 104.405 79.312 104.331 79.312 104.257C79.312 104.079 78.7633 103.515 78.615 103.53C78.2739 103.589 77.9773 103.5 78.0514 103.367C78.0959 103.293 78.0366 103.219 77.918 103.219C77.7993 103.219 77.5324 103.07 77.3396 102.878C77.1468 102.7 76.4943 102.121 75.9011 101.587C74.4032 100.253 73.6766 99.5408 73.6766 99.3925C73.6766 99.3183 73.5283 99.1848 73.3355 99.081C73.1575 98.9772 72.9202 98.7103 72.8016 98.4582C72.6978 98.2209 72.5198 98.0281 72.4012 98.0281C72.2825 98.0281 72.1342 97.8798 72.0601 97.687C71.9859 97.4942 71.8228 97.2569 71.6893 97.1531C71.5559 97.0493 71.452 96.901 71.452 96.8269C71.452 96.7675 71.2889 96.5303 71.0813 96.3078C70.8737 96.0854 70.7105 95.7888 70.7105 95.6553C70.7105 95.507 70.6067 95.3142 70.4881 95.2104C70.3695 95.1214 70.2805 94.9879 70.2953 94.9434C70.3398 94.721 70.0729 94.3206 69.8801 94.3206C69.6873 94.3206 69.6428 94.2464 69.6131 93.8312C69.6131 93.7422 69.4352 93.4753 69.2275 93.2676C69.0051 93.06 68.8716 92.8079 68.9013 92.7041C68.9309 92.6151 68.753 92.3185 68.5009 92.0664C68.2488 91.7995 68.0411 91.5029 68.0411 91.3842C68.0411 91.2211 67.9966 91.2063 67.8335 91.3397C67.6704 91.4732 67.6555 91.4287 67.7 91.1469C67.7594 90.8948 67.6704 90.702 67.4628 90.5241C67.27 90.3609 67.1513 90.0643 67.1513 89.7974C67.1513 89.5601 67.0179 89.0707 66.8696 88.7445C66.7213 88.4034 66.5433 87.8992 66.484 87.6322C66.4247 87.3504 66.306 87.0835 66.217 87.0242C66.1281 86.9649 66.0391 86.7721 66.0391 86.5793C66.0242 86.3865 65.9501 86.1047 65.8611 85.9416C65.6831 85.6153 65.4459 84.1471 65.5052 83.8209C65.52 83.7022 65.4459 83.5095 65.3272 83.376C65.0603 83.0646 64.912 82.4565 65.0899 82.4565C65.1641 82.4565 65.1493 82.3082 65.0603 82.1303C64.9565 81.9375 64.8527 81.5222 64.8378 81.196C64.8082 80.8697 64.7489 80.3062 64.7192 79.9354C64.5116 77.8147 64.4374 77.0139 64.4671 76.8211C64.4967 76.7025 64.4967 76.1537 64.4967 75.605C64.4819 75.0563 64.5412 74.4631 64.6302 74.3C64.7192 74.1368 64.734 74.0034 64.6599 74.0034C64.5264 74.0034 64.5412 72.8615 64.6747 72.7132C64.7192 72.6687 64.7192 72.3128 64.6747 71.9123C64.6154 71.3785 64.6599 71.0967 64.8527 70.8001C65.0603 70.4887 65.0751 70.3403 64.9416 70.0882C64.8082 69.851 64.8082 69.6433 64.9713 69.1836C65.0899 68.8573 65.1493 68.5014 65.1196 68.4124C65.0751 68.3086 65.1344 67.9824 65.2234 67.6858C65.3272 67.3892 65.431 66.9294 65.4607 66.6773C65.698 64.8532 65.787 64.3787 65.9946 63.9189C66.1281 63.6372 66.2912 63.1181 66.3357 62.777C66.395 62.4211 66.4988 62.1097 66.573 62.0503C66.6471 62.0058 66.7064 61.8427 66.7064 61.6796C66.7064 61.3533 67.3589 59.989 67.5962 59.8407C67.6704 59.7962 67.7445 59.5589 67.7445 59.3216C67.7445 59.0695 67.8632 58.8174 68.0115 58.6987C68.2932 58.506 69.0792 56.9785 69.0792 56.6225C69.0941 56.3556 69.45 55.9107 69.6576 55.9107C69.7466 55.9107 69.8207 55.792 69.8207 55.6437C69.8207 55.4806 70.058 55.1247 70.3398 54.8281C70.6216 54.5315 70.8588 54.1904 70.8588 54.0569C70.8588 53.9383 70.933 53.8345 71.0071 53.8345C71.0961 53.8345 71.1554 53.7307 71.1554 53.612C71.1554 53.4786 71.2593 53.3451 71.3779 53.3006C71.4965 53.2413 71.6003 53.1226 71.6003 53.004C71.6003 52.9002 71.7338 52.7371 71.8969 52.6481C72.0601 52.5591 72.1936 52.396 72.1936 52.2773C72.1936 52.1587 72.2677 52.0549 72.3419 52.0549C72.4308 52.0549 72.5791 51.8769 72.6829 51.6396C72.9351 51.0761 73.3948 50.5719 73.7952 50.4087C73.988 50.3346 74.1215 50.1863 74.0918 50.0676C74.0473 49.8749 75.5007 48.644 75.7676 48.644C75.8269 48.644 75.9159 48.4808 75.9604 48.2732C76.0197 48.0656 76.1235 47.9025 76.2125 47.9025C76.3015 47.9025 76.5091 47.7393 76.6722 47.5169C76.8354 47.3092 77.0133 47.1758 77.043 47.2203C77.0875 47.2648 77.2506 47.1313 77.4137 46.9385C77.5769 46.7309 77.7548 46.5974 77.8142 46.6419C77.8883 46.6716 78.0514 46.5826 78.1997 46.4194C78.348 46.2563 78.5557 46.1228 78.6743 46.1228C78.7929 46.1228 79.1044 45.9004 79.3565 45.6334C79.831 45.1292 81.0916 44.3432 81.4179 44.3432C81.5068 44.3432 81.7886 44.1949 82.0407 44.0021C82.2928 43.8094 82.7229 43.5721 82.9898 43.4534C83.2716 43.3496 83.583 43.1717 83.6869 43.053C83.8055 42.9492 84.0724 42.8454 84.2949 42.8306C84.5025 42.8009 84.7101 42.7119 84.7546 42.6081C84.7991 42.5191 85.0364 42.3857 85.2885 42.3263C85.5554 42.2819 85.8669 42.1484 85.9855 42.0594C86.1042 41.9556 86.6084 41.7925 87.0978 41.6887C87.5872 41.5848 88.1211 41.4217 88.2842 41.3327C88.4473 41.2586 89.085 41.1548 89.693 41.1103C90.3011 41.0806 90.8794 40.9916 90.9536 40.9175C91.0426 40.8582 91.3985 40.7544 91.7544 40.695C92.0955 40.6357 92.4218 40.5022 92.4663 40.3984C92.5108 40.2798 92.6146 40.2353 92.7035 40.2946C92.9112 40.4133 93.8899 40.4429 94.0679 40.3243C94.3497 40.1463 95.1208 39.998 96.1441 39.9535C98.25 39.8349 99.5254 39.7459 99.5699 39.7163C99.6292 39.6421 101.29 39.7014 102.15 39.8052ZM126.101 51.4617C126.145 51.5358 126.116 51.61 126.042 51.61C125.953 51.61 125.878 51.5358 125.878 51.4617C125.878 51.3727 125.908 51.3134 125.938 51.3134C125.982 51.3134 126.056 51.3727 126.101 51.4617ZM134.272 79.0308C134.213 79.1049 134.272 79.1939 134.361 79.2384C134.465 79.2681 134.51 79.357 134.435 79.4164C134.287 79.5943 133.976 79.2532 134.094 79.0604C134.154 78.9715 134.228 78.8973 134.272 78.8973C134.317 78.8973 134.317 78.9566 134.272 79.0308ZM98.7394 115.439C99.1101 115.409 99.6144 115.335 99.8516 115.305C100.549 115.172 101.172 115.231 101.275 115.409C101.349 115.528 101.453 115.542 101.587 115.439C101.691 115.35 101.943 115.305 102.15 115.32C102.61 115.35 103.322 115.364 105.116 115.379C105.887 115.394 106.688 115.394 106.896 115.409C107.104 115.409 107.534 115.394 107.86 115.394C108.186 115.379 109.12 115.379 109.936 115.379C110.752 115.379 111.76 115.379 112.161 115.364C112.576 115.35 113.08 115.394 113.317 115.453C113.54 115.513 113.718 115.498 113.718 115.424C113.718 115.246 114.726 115.29 115.26 115.513C115.942 115.795 116.521 116.729 116.61 117.752C116.654 118.197 116.58 118.405 116.313 118.701C116.12 118.909 115.853 119.087 115.735 119.087C115.616 119.087 115.497 119.176 115.468 119.265C115.423 119.398 115.023 119.443 114.192 119.443C113.406 119.428 112.976 119.487 112.976 119.591C112.976 119.68 112.902 119.65 112.828 119.532C112.724 119.354 112.606 119.339 112.279 119.472C112.057 119.561 111.226 119.606 110.455 119.576C106.733 119.458 104.983 119.487 104.775 119.665C104.612 119.799 104.523 119.799 104.449 119.68C104.39 119.591 104.256 119.547 104.152 119.591C104.049 119.621 103.707 119.606 103.396 119.532C103.085 119.458 102.773 119.443 102.684 119.487C102.477 119.621 99.6144 119.591 99.2733 119.443C99.1101 119.383 98.9618 119.398 98.9322 119.472C98.9025 119.547 98.2352 119.576 97.375 119.547C96.5297 119.517 95.4471 119.502 94.9577 119.517C91.9324 119.561 91.0426 119.561 90.8943 119.472C90.8053 119.413 90.657 119.413 90.5532 119.472C90.3307 119.621 89.5002 119.606 89.263 119.472C89.174 119.413 88.996 119.428 88.8774 119.532C88.7587 119.636 88.0914 119.695 87.1423 119.695C86.297 119.68 85.511 119.695 85.3923 119.695C83.0788 119.843 81.7886 119.176 81.5365 117.693C81.3585 116.566 81.4179 116.195 81.8628 115.78C82.2187 115.453 82.4115 115.394 83.2716 115.394C83.8352 115.379 84.7546 115.364 85.3182 115.35C85.8965 115.35 86.6232 115.35 86.9495 115.35C87.2757 115.364 87.7058 115.364 87.9134 115.379C88.1211 115.379 88.5511 115.379 88.8774 115.394C89.2036 115.394 90.1083 115.394 90.8794 115.394C91.6506 115.379 92.8222 115.379 93.4747 115.379C95.2691 115.394 95.3581 115.394 95.981 115.394C96.3073 115.379 96.6335 115.32 96.7077 115.246C96.7818 115.172 97.0932 115.201 97.4492 115.305C97.8051 115.409 98.3835 115.468 98.7394 115.439ZM105.19 120.57C105.235 120.644 105.205 120.718 105.131 120.718C105.042 120.718 104.968 120.644 104.968 120.57C104.968 120.481 104.998 120.422 105.027 120.422C105.072 120.422 105.146 120.481 105.19 120.57ZM85.6889 122.068C85.6889 122.186 85.7631 122.186 85.9114 122.053C86.03 121.964 86.2525 121.919 86.4304 121.979C86.6084 122.038 87.6317 122.112 88.6994 122.142C91.2947 122.231 91.1316 122.231 92.1103 122.157C92.5849 122.127 93.0001 122.157 93.0446 122.231C93.0891 122.29 93.2078 122.305 93.2967 122.246C93.4006 122.171 95.284 122.112 97.4788 122.097C99.6885 122.082 101.78 122.053 102.15 122.023C102.521 121.993 102.892 121.993 102.966 122.038C103.055 122.082 104.315 122.127 105.784 122.127C107.252 122.127 108.542 122.186 108.631 122.246C108.735 122.305 108.942 122.305 109.076 122.231C109.491 122.023 111.034 121.905 111.137 122.082C111.182 122.157 111.375 122.186 111.538 122.142C111.716 122.097 111.938 122.142 112.042 122.216C112.161 122.335 112.368 122.335 112.635 122.246C113.584 121.919 116.417 122.379 116.15 122.824C116.105 122.883 116.239 123.091 116.417 123.269C116.61 123.462 116.758 123.714 116.773 123.832C116.788 123.951 116.832 124.203 116.891 124.381C116.951 124.559 116.921 124.737 116.832 124.796C116.758 124.841 116.684 125.048 116.684 125.241C116.684 125.493 116.521 125.716 116.12 125.983C115.601 126.324 115.453 126.354 114.444 126.265C113.836 126.22 112.413 126.19 111.271 126.19C110.129 126.205 109.061 126.19 108.898 126.19C108.735 126.176 108.438 126.176 108.231 126.176C107.726 126.19 106.911 126.19 104.301 126.146C103.085 126.131 101.972 126.161 101.839 126.22C101.705 126.294 101.557 126.294 101.498 126.25C101.379 126.116 95.1802 126.087 95.106 126.22C95.0319 126.324 93.9641 126.265 93.534 126.131C93.4006 126.087 93.2374 126.116 93.1929 126.19C93.1336 126.265 92.9112 126.279 92.6887 126.235C92.4663 126.176 92.051 126.146 91.7692 126.146C90.3752 126.19 89.96 126.19 88.7291 126.146C88.0024 126.116 87.3202 126.161 87.2312 126.235C87.0533 126.368 86.2525 126.309 85.8076 126.131C85.6741 126.072 85.422 126.101 85.2588 126.19C85.0661 126.294 84.9326 126.309 84.8733 126.205C84.8139 126.116 84.6805 126.101 84.5322 126.19C84.1466 126.383 82.1445 126.116 81.8183 125.82C81.67 125.686 81.581 125.508 81.6403 125.434C81.6848 125.345 81.6551 125.241 81.5662 125.182C81.4772 125.123 81.3437 124.796 81.2547 124.455C81.1509 123.936 81.1657 123.803 81.3289 123.729C81.4475 123.684 81.5365 123.536 81.5217 123.402C81.4772 123.032 81.7886 122.394 82.0555 122.29C82.189 122.246 82.5005 122.201 82.7229 122.201C82.9602 122.201 83.1826 122.142 83.2271 122.082C83.3458 121.89 85.6889 121.89 85.6889 122.068ZM84.5767 128.815C84.7101 128.771 84.9474 128.8 85.0957 128.875C85.2885 128.978 85.4071 128.978 85.4665 128.875C85.5554 128.726 87.2757 128.771 88.3138 128.964C88.566 129.008 88.8626 129.008 88.9664 128.934C89.2036 128.8 93.5192 128.8 93.9789 128.949C94.2014 129.008 94.3645 128.993 94.4387 128.875C94.498 128.771 94.6315 128.741 94.7353 128.8C94.9725 128.949 100.549 128.993 100.741 128.86C100.83 128.786 101.142 128.8 101.438 128.86C101.75 128.934 102.032 128.934 102.121 128.845C102.195 128.771 102.417 128.771 102.669 128.875C102.936 128.978 103.144 128.978 103.248 128.889C103.352 128.8 103.515 128.8 103.618 128.875C103.737 128.934 104.227 128.964 104.731 128.919C106.006 128.83 107.178 128.83 107.756 128.934C108.053 128.978 108.231 128.964 108.231 128.86C108.231 128.741 108.305 128.741 108.453 128.875C108.572 128.964 108.75 128.993 108.839 128.934C109.076 128.786 109.862 128.771 109.862 128.904C109.862 128.978 109.966 129.023 110.084 129.023C110.203 129.023 110.307 128.949 110.307 128.875C110.307 128.667 110.603 128.697 111.078 128.934C111.286 129.053 111.523 129.082 111.597 129.023C111.745 128.86 112.828 128.8 113.139 128.934C113.273 128.993 113.658 128.964 114.014 128.889C114.489 128.786 114.726 128.786 114.889 128.919C115.008 129.023 115.127 129.067 115.156 129.038C115.29 128.934 116.105 129.631 116.016 129.764C115.972 129.853 115.987 130.15 116.076 130.447C116.254 131.099 115.927 131.826 115.201 132.36C114.786 132.656 114.578 132.701 113.777 132.656C113.273 132.641 112.798 132.582 112.724 132.538C112.665 132.508 111.612 132.508 110.381 132.538C107.548 132.627 105.279 132.612 105.116 132.508C105.042 132.464 104.849 132.508 104.671 132.612C104.464 132.745 104.301 132.76 104.123 132.656C103.915 132.538 101.705 132.508 99.7775 132.597C99.6588 132.612 97.8199 132.612 95.6992 132.597C93.5785 132.597 91.0871 132.612 90.1676 132.627C89.2333 132.641 88.4473 132.612 88.4177 132.553C88.3732 132.493 88.1952 132.493 88.0172 132.567C87.7206 132.671 84.2801 132.656 83.761 132.538C83.6424 132.523 83.2271 132.375 82.8415 132.226C82.2632 132.004 82.1297 131.87 82.0407 131.485C81.9962 131.233 81.8776 130.936 81.8034 130.847C81.6996 130.714 81.7293 130.491 81.8924 130.15C82.0259 129.868 82.1297 129.542 82.1297 129.409C82.1297 129.171 82.2928 129.112 82.6932 129.156C82.8119 129.171 83.0047 129.097 83.1381 128.978C83.4347 128.712 84.0873 128.593 84.2207 128.786C84.2801 128.86 84.4432 128.875 84.5767 128.815ZM93.2078 135.281C93.3116 135.355 93.4599 135.385 93.5489 135.326C93.6972 135.237 96.3369 135.192 98.4428 135.237C99.4957 135.252 99.6737 135.252 100.074 135.237C100.386 135.207 101.824 135.207 103.337 135.237C103.544 135.237 104.879 135.222 106.303 135.177C109.417 135.103 109.135 135.103 110.233 135.207C110.722 135.237 111.271 135.296 111.464 135.296C111.864 135.326 111.864 135.326 111.478 135.86C111.315 136.097 111.226 136.29 111.3 136.29C111.36 136.305 111.241 136.408 111.019 136.527C110.781 136.646 110.603 136.809 110.603 136.883C110.603 136.957 110.233 137.061 109.788 137.105C109.343 137.165 108.942 137.268 108.898 137.328C108.853 137.402 108.69 137.417 108.512 137.372C108.334 137.328 108.142 137.372 108.082 137.476C108.008 137.595 107.608 137.684 107.104 137.699C106.065 137.743 102.892 138.054 102.64 138.143C102.536 138.173 102.417 138.143 102.358 138.054C102.313 137.98 102.135 137.951 101.958 138.01C101.542 138.143 98.6356 138.188 98.428 138.069C98.3538 138.01 97.8644 138.054 97.3454 138.143C96.8263 138.247 96.2776 138.262 96.0996 138.203C95.7882 138.084 94.5721 138.025 93.3412 138.054C93.015 138.069 92.7035 137.995 92.6442 137.891C92.5552 137.758 92.4811 137.758 92.3031 137.906C92.1252 138.054 92.0214 138.069 91.8582 137.936C91.6358 137.758 90.9536 137.847 90.6273 138.099C90.5087 138.188 90.4345 138.129 90.3604 137.936C90.3159 137.773 90.2269 137.639 90.1676 137.639C89.7375 137.713 89.2333 137.58 88.9515 137.328C88.7587 137.165 88.4621 137.031 88.2694 137.031C87.9431 137.031 86.816 136.038 86.4897 135.459C86.3266 135.177 86.3859 135.177 89.2778 135.177C90.9091 135.177 92.2735 135.133 92.3031 135.074C92.3773 134.955 92.9705 135.088 93.2078 135.281Z" fill="#E3E3E3"/>
<path d="M93.5489 63.1774C93.5489 63.2516 93.3561 63.3257 93.1336 63.3257C92.8963 63.3257 92.5849 63.4592 92.4366 63.6223C92.2883 63.7854 92.0955 63.9189 92.0065 63.9189C91.8137 63.9189 91.4282 65.0608 91.5468 65.2685C91.6061 65.3426 91.532 65.4464 91.3985 65.4909C91.2502 65.5502 91.1761 65.7578 91.1761 66.0544C91.1909 66.3066 91.1316 66.8256 91.0426 67.1964C90.9536 67.6116 90.9536 68.101 91.0278 68.4569C91.1167 68.8128 91.1019 69.0946 91.0278 69.1688C90.835 69.3616 90.835 70.1031 91.0278 70.1772C91.1019 70.192 91.2057 70.5183 91.2502 70.8891C91.3837 72.12 91.4282 72.3276 91.5468 72.5204C91.6061 72.6242 91.6803 72.9504 91.6951 73.247C91.7693 74.3148 91.9324 75.2788 92.1252 75.783C92.5256 76.8507 92.837 77.785 92.8667 78.0075C92.8815 78.141 92.9557 78.3338 93.0298 78.4524C93.104 78.571 93.1781 78.8528 93.1781 79.0753C93.1781 79.2977 93.3264 79.624 93.5044 79.8168C93.89 80.2468 94.2162 80.8549 94.1717 81.0773C94.1569 81.1663 94.2607 81.3294 94.409 81.4481C94.5721 81.5519 94.7353 81.8485 94.7946 82.1154C94.8539 82.3675 95.0022 82.6196 95.1209 82.6641C95.5064 82.8124 95.3136 83.5391 94.8539 83.7616C94.6166 83.8654 94.4387 84.0137 94.4387 84.073C94.4387 84.1471 94.231 84.2806 93.9938 84.3844C93.6527 84.5327 93.5044 84.5327 93.3264 84.3844C93.2078 84.2954 92.9705 84.1916 92.7777 84.162C91.6803 84.0285 91.354 83.895 91.265 83.5836C91.2205 83.3908 91.0129 83.1684 90.8053 83.0794C90.4642 82.9162 90.4345 82.8421 90.5235 82.3527C90.5828 82.0413 90.6867 81.715 90.7608 81.6112C90.8795 81.4629 91.0129 80.4248 91.0574 79.268C91.0722 79.0159 91.0278 78.571 90.9684 78.2596C90.8943 77.8888 90.9239 77.7109 91.0278 77.7109C91.1316 77.7109 91.1464 77.6367 91.0722 77.5181C91.0129 77.4291 90.9536 76.7914 90.9388 76.1241C90.9239 75.4419 90.835 74.8042 90.746 74.7004C90.657 74.5817 90.6273 74.4483 90.6867 74.4038C90.7312 74.3445 90.7163 74.2258 90.6273 74.122C90.5532 74.0182 90.479 73.6919 90.4494 73.4102C90.4197 72.9208 90.0045 71.4971 89.6041 70.5183C89.5151 70.2662 89.3964 69.8361 89.3371 69.5395C89.2778 69.2429 89.1147 68.887 88.9515 68.7387C88.8032 68.6052 88.7143 68.3976 88.7439 68.2938C88.7884 68.19 88.7587 68.0565 88.6698 67.9972C88.5808 67.9527 88.5066 67.7451 88.5066 67.5375C88.5066 67.3298 88.4028 67.137 88.2842 67.0926C88.1655 67.0332 88.0617 66.9294 88.0617 66.8256C88.0617 66.7366 87.8541 66.529 87.6168 66.3659C87.3796 66.2027 87.1719 65.9506 87.1719 65.8023C87.1719 65.6689 87.1126 65.5502 87.0236 65.5502C86.9495 65.5502 86.7715 65.4168 86.6232 65.2685C86.4453 65.0757 86.1042 64.9719 85.6444 64.9422C84.9919 64.8977 84.8584 64.957 84.2652 65.4612C83.8945 65.7875 83.6424 66.0693 83.672 66.1138C83.7165 66.1434 83.6869 66.2917 83.6127 66.44C83.5386 66.5735 83.4496 66.8553 83.4051 67.0481C83.3754 67.2409 83.3013 67.6709 83.242 67.9972C83.1826 68.3235 83.064 68.6645 82.9899 68.7535C82.9157 68.8573 82.9305 69.0946 83.0195 69.3319C83.1085 69.5543 83.1975 70.3255 83.2271 71.0225C83.2568 71.7344 83.3458 72.4462 83.4348 72.6093C83.5534 72.8318 83.5534 72.9653 83.4348 73.0839C83.3161 73.2025 83.3458 73.3953 83.5237 73.7661C83.6572 74.0627 83.8055 74.6262 83.85 75.0415C83.8797 75.4567 83.9686 75.9313 84.0428 76.1241C84.1169 76.302 84.1763 76.5097 84.1911 76.5986C84.2356 76.9546 84.4135 77.3401 84.5915 77.5329C84.7101 77.6367 84.7991 77.963 84.7991 78.2299C84.7991 78.5265 84.9623 78.9714 85.1699 79.2829C85.3775 79.5795 85.6889 80.2172 85.8521 80.6917C86.03 81.1811 86.2228 81.5667 86.297 81.5667C86.3563 81.5667 86.5936 81.9375 86.816 82.3824C87.1423 83.0349 87.2016 83.2277 87.0533 83.376C86.7863 83.6429 85.6741 83.5836 85.4665 83.3018C85.3775 83.1684 85.1995 83.0497 85.0809 83.0201C84.8139 82.9607 83.0492 81.1218 82.9305 80.7807C82.886 80.6472 82.8119 80.5286 82.7526 80.5286C82.6488 80.5286 82.0259 79.3719 81.7145 78.6007C81.6255 78.3931 81.4772 78.0223 81.3734 77.7554C81.2696 77.5033 81.1213 77.3253 81.0323 77.3698C80.9581 77.4143 80.9433 77.3995 80.9878 77.3253C81.0323 77.2363 80.9433 76.8952 80.7802 76.5393C80.617 76.1834 80.5281 75.8571 80.5726 75.8126C80.617 75.7681 80.5429 75.6198 80.4094 75.4715C80.2759 75.3232 80.1128 74.9525 80.0387 74.6411C79.9793 74.3296 79.7717 73.6771 79.5938 73.1877C79.4158 72.6983 79.2675 72.1644 79.2527 72.0013C79.2378 71.8382 79.1044 71.3191 78.9561 70.8594C78.7188 70.1031 78.615 69.9844 78.1552 69.8361C77.6659 69.673 77.6065 69.6878 77.3989 69.9992C76.9095 70.7259 76.8205 71.2895 76.9688 72.4907C77.043 73.1136 77.1171 73.7661 77.1023 73.9144C77.1023 74.0627 77.1913 74.3296 77.3099 74.4928C77.4137 74.6411 77.4731 74.8783 77.4286 74.9822C77.3841 75.1008 77.4137 75.2788 77.5027 75.3826C77.5769 75.4715 77.6955 75.7978 77.7548 76.0796C77.8142 76.3614 77.9625 76.7173 78.0811 76.8507C78.1997 76.9842 78.2591 77.1622 78.2146 77.2512C78.1552 77.3401 78.2442 77.5329 78.4222 77.7109C78.5853 77.874 78.7188 78.141 78.7188 78.2893C78.7188 78.4524 78.7929 78.6304 78.8671 78.6748C78.9561 78.7193 79.0154 78.927 79.0154 79.1197C79.0154 79.3125 79.0895 79.5202 79.1637 79.5646C79.2527 79.6091 79.312 79.7723 79.312 79.9057C79.312 80.054 79.4455 80.2765 79.6086 80.4248C79.7717 80.5583 79.9497 80.8845 80.009 81.1366C80.0683 81.4184 80.2166 81.6409 80.4391 81.715C80.6319 81.7892 80.8247 82.0116 80.884 82.2192C80.9285 82.412 81.0916 82.6938 81.2547 82.8421C81.403 82.9756 81.5365 83.1832 81.5365 83.3018C81.5365 83.4056 81.581 83.4946 81.6551 83.4946C81.7145 83.4946 82.189 83.895 82.7081 84.3844C83.242 84.8738 83.8203 85.3187 84.0131 85.3632C84.1911 85.4225 84.3542 85.5115 84.3542 85.5708C84.3542 85.7191 85.941 86.2085 86.4156 86.2085C86.9347 86.2085 88.3583 85.8229 88.3583 85.6895C88.3583 85.6153 88.4622 85.5708 88.5808 85.5708C88.6994 85.5708 88.8032 85.4967 88.8032 85.4225C88.8032 85.1259 89.2185 85.2891 89.7375 85.7933C90.0193 86.075 90.4345 86.342 90.6422 86.4013C90.8498 86.4458 91.0722 86.5496 91.1167 86.6238C91.1612 86.6979 91.3244 86.7572 91.4727 86.7572C91.621 86.7572 91.8137 86.861 91.8879 86.9797C92.0659 87.3208 94.3497 87.4098 95.0022 87.0983C95.2543 86.9797 95.4768 86.8166 95.4768 86.7424C95.4768 86.6683 95.5806 86.6089 95.6992 86.6089C95.8179 86.6089 95.9958 86.4606 96.0848 86.2827C96.2034 86.075 96.2924 86.0157 96.3369 86.1344C96.4111 86.3717 96.6632 86.3716 96.6632 86.1195C96.6632 86.0306 96.8411 85.7488 97.0488 85.5115C97.3899 85.1259 97.4492 85.0963 97.5826 85.3187C97.6568 85.4522 97.8496 85.5708 97.9979 85.5708C98.161 85.5708 98.2945 85.6301 98.2945 85.7043C98.2945 85.7785 98.6949 85.8823 99.1991 85.9416C99.6885 86.0009 100.133 86.1344 100.163 86.2382C100.237 86.4161 101.498 86.4606 101.794 86.2827C101.869 86.2382 102.328 86.1047 102.818 86.0009C103.307 85.8971 103.826 85.6895 103.974 85.5412C104.123 85.3929 104.301 85.2742 104.375 85.2742C104.612 85.2742 105.116 84.7848 105.116 84.5624C105.116 84.2658 105.457 84.4289 105.65 84.8145C105.739 84.9925 106.095 85.2891 106.451 85.4522C106.792 85.6301 107.148 85.8823 107.237 86.0306C107.341 86.1937 107.578 86.3123 107.815 86.3123C108.053 86.3123 108.231 86.3568 108.231 86.4161C108.231 86.5941 108.972 86.8907 109.195 86.8166C109.298 86.7721 109.595 86.8462 109.862 86.9797C110.159 87.128 110.44 87.1725 110.648 87.0983C110.826 87.039 111.048 86.9797 111.123 86.9649C111.597 86.9204 112.472 86.6979 112.531 86.6238C112.576 86.5644 112.858 86.3272 113.169 86.1047C113.466 85.8674 113.718 85.5857 113.718 85.4522C113.718 85.2297 114.296 84.6069 114.608 84.5031C114.697 84.4734 114.8 84.2213 114.845 83.9395C115.008 82.7383 114.993 82.7531 115.705 82.8273C116.684 82.9311 118.315 82.3082 119.042 81.5667C119.353 81.2404 119.665 80.9735 119.709 80.9735C119.976 80.9735 120.465 80.321 120.51 79.8909C120.54 79.6388 120.629 79.3422 120.718 79.2384C120.792 79.1494 120.881 78.749 120.896 78.3486C120.925 77.963 121.014 77.4736 121.103 77.266C121.177 77.0584 121.207 76.6876 121.177 76.4503C121.133 76.1982 121.088 75.7385 121.073 75.4122C121.059 75.086 120.97 74.5669 120.851 74.2555C120.747 73.944 120.688 73.603 120.732 73.4991C120.777 73.3805 120.747 73.2322 120.658 73.1432C120.584 73.0691 120.51 72.7576 120.51 72.461C120.51 72.1644 120.465 71.9272 120.391 71.9272C120.258 71.9272 120.035 71.0818 120.065 70.6963C120.08 70.548 119.991 70.3255 119.872 70.2069C119.754 70.0734 119.65 69.8806 119.65 69.762C119.65 69.6433 119.546 69.5543 119.427 69.5543C119.309 69.5543 119.205 69.5099 119.19 69.4357C119.146 69.0205 119.042 68.7684 118.73 68.3828C118.33 67.8637 118.004 67.7896 118.093 68.2196C118.167 68.5756 118.107 68.5904 117.618 68.2641C117.336 68.0713 117.203 68.0565 117.158 68.19C117.129 68.279 117.04 68.3679 116.966 68.3679C116.877 68.3679 116.862 68.2938 116.921 68.19C116.995 68.0862 116.966 68.0713 116.847 68.1307C116.743 68.2048 116.699 68.3383 116.743 68.4569C116.788 68.5756 116.758 68.6645 116.684 68.6645C116.446 68.6645 116.521 69.1094 116.758 69.1984C116.877 69.2577 116.936 69.3616 116.877 69.4654C116.669 69.7916 116.684 70.2069 116.906 70.3255C117.025 70.3997 117.129 70.6073 117.129 70.8001C117.129 70.9929 117.232 71.334 117.351 71.5861C117.47 71.8233 117.618 72.3572 117.677 72.7576C117.722 73.1581 117.826 73.514 117.885 73.5585C118.078 73.6919 118.196 74.4483 118.241 75.7088C118.256 76.3613 118.345 77.0584 118.419 77.266C118.538 77.5626 118.508 77.7257 118.196 78.1113C118.004 78.3782 117.781 78.6007 117.707 78.6007C117.633 78.6007 117.574 78.749 117.574 78.9418C117.574 79.4015 116.654 79.9057 115.957 79.8612C115.453 79.8168 115.141 79.5498 115.305 79.2977C115.483 79.0011 115.453 78.0668 115.245 77.5774C115.112 77.2808 115.067 76.8656 115.112 76.5986C115.186 76.2427 115.127 76.0647 114.904 75.8571C114.711 75.6792 114.622 75.4271 114.637 75.0563C114.652 74.5224 114.608 74.3 114.4 73.8254C114.341 73.6919 114.326 73.4991 114.385 73.425C114.43 73.336 114.355 73.0987 114.222 72.8911C114.089 72.6835 114.014 72.4759 114.059 72.4165C114.103 72.3721 114.014 72.0755 113.866 71.764C113.703 71.4526 113.569 71.0967 113.569 70.9929C113.569 70.8742 113.421 70.548 113.228 70.2662C112.947 69.8658 112.917 69.7026 113.036 69.495C113.154 69.2874 113.154 69.1984 113.021 69.1539C112.739 69.0501 112.279 68.2048 112.175 67.5968C112.116 67.2557 111.938 66.9739 111.716 66.8256C111.508 66.6921 111.345 66.4697 111.345 66.3511C111.345 66.2176 111.093 65.8617 110.781 65.5651C110.47 65.2685 110.144 64.9125 110.07 64.7791C109.966 64.5863 109.684 64.4973 108.972 64.4528C108.438 64.4083 107.89 64.3342 107.741 64.2897C107.474 64.1859 106.748 64.7049 106.748 64.9867C106.748 65.1498 106.184 65.6985 106.021 65.6985C105.947 65.6985 105.858 66.0248 105.799 66.44C105.739 66.8404 105.635 67.2112 105.561 67.2557C105.472 67.3002 105.413 67.5819 105.413 67.8637C105.413 68.1455 105.354 68.3679 105.265 68.3679C105.19 68.3679 105.116 68.2345 105.116 68.0862C105.116 67.5226 103.618 65.1053 103.07 64.7494C102.951 64.6901 102.758 64.4973 102.625 64.349C102.491 64.2007 102.239 64.0672 102.047 64.0672C101.869 64.0672 101.542 63.9931 101.32 63.9189C101.053 63.8151 100.875 63.8151 100.741 63.9189C100.638 64.0079 100.489 64.0524 100.43 64.0376C100.356 64.0079 100.148 64.1414 99.9703 64.3193C99.7775 64.5121 99.6589 64.6604 99.6885 64.6604C99.733 64.6604 99.555 64.8532 99.3178 65.1053C99.0063 65.4168 98.8877 65.6392 98.9618 65.832C99.0063 65.9951 98.9767 66.1583 98.8877 66.2176C98.8135 66.2621 98.7394 66.6773 98.7394 67.1222C98.7394 67.5671 98.6801 67.923 98.5911 67.923C98.3983 67.923 98.3983 68.5607 98.5763 68.7387C98.6504 68.8277 98.7542 69.5395 98.7987 70.3403C98.8432 71.1263 98.9174 71.853 98.9618 71.9272C99.0063 72.0161 98.9767 72.0755 98.9025 72.0755C98.8135 72.0755 98.7394 71.9272 98.7394 71.7344C98.7394 71.5564 98.6356 71.245 98.5021 71.0522C98.1907 70.6221 97.7013 68.9908 97.7903 68.7387C97.8348 68.6349 97.7606 68.4569 97.642 68.3234C97.5233 68.2048 97.375 67.923 97.3157 67.6858C97.2564 67.4485 97.0488 67.0926 96.856 66.8849C96.678 66.6921 96.5149 66.3362 96.5149 66.1138C96.5149 65.8765 96.4556 65.6985 96.3666 65.6985C96.2924 65.6985 96.2183 65.5947 96.2183 65.4761C96.2183 65.3426 96.0551 65.0757 95.8475 64.868C95.6547 64.6753 95.4175 64.3786 95.3285 64.2155C95.2395 64.0524 95.0764 63.9189 94.9577 63.9189C94.8391 63.9189 94.7353 63.8448 94.7353 63.7706C94.7353 63.6816 94.6463 63.6223 94.5425 63.6223C94.4238 63.6223 94.2162 63.4888 94.0679 63.3257C93.7713 62.9995 93.5489 62.9401 93.5489 63.1774ZM108.379 65.3426C108.379 65.3723 108.275 65.4019 108.156 65.4019C108.038 65.4019 107.934 65.3426 107.934 65.2536C107.934 65.1795 108.038 65.1498 108.156 65.1943C108.275 65.2536 108.379 65.3129 108.379 65.3426ZM94.1866 67.7006C94.2162 67.8637 94.3052 68.1455 94.409 68.3234C94.5128 68.5014 94.587 68.7387 94.587 68.8573C94.587 68.976 94.7204 69.1836 94.8687 69.3171C95.0319 69.4654 95.1653 69.6878 95.1505 69.8213C95.1505 69.9696 95.2543 70.3403 95.3878 70.6666C95.5064 70.9929 95.6102 71.3636 95.6251 71.4971C95.6251 71.6306 95.7289 71.942 95.8475 72.1793C95.9662 72.4314 96.0848 72.8911 96.1145 73.2025C96.1293 73.5288 96.2035 73.8699 96.2628 73.9589C96.3369 74.0627 96.3369 74.2258 96.2924 74.3148C96.2331 74.3889 96.2776 74.5817 96.3962 74.7152C96.5149 74.8487 96.6187 75.3232 96.6484 75.7682C96.6632 76.2131 96.7373 76.6876 96.7967 76.8063C96.8708 76.9397 96.8856 77.3401 96.856 77.7109C96.8115 78.0816 96.767 78.6155 96.7522 78.8973C96.7225 79.5498 96.2924 79.6388 96.2924 79.0011C96.2924 78.7787 96.2183 78.5414 96.1441 78.482C96.0551 78.4227 95.9662 78.2151 95.9513 78.0075C95.9513 77.7999 95.8624 77.6219 95.7734 77.5922C95.6992 77.5626 95.6251 77.3698 95.6251 77.1622C95.6251 76.9694 95.5361 76.7024 95.4175 76.5838C95.2988 76.48 95.2395 76.2427 95.284 76.0648C95.3285 75.8868 95.284 75.694 95.1802 75.6347C95.0615 75.5605 94.9726 75.1601 94.9429 74.6707C94.9132 74.1665 94.8094 73.7216 94.6611 73.5733C94.5425 73.425 94.4387 73.1581 94.4387 72.9801C94.4387 72.8021 94.3793 72.5352 94.3052 72.4017C94.1421 72.0903 93.9493 70.7704 93.9344 69.7471C93.9196 69.3319 93.8751 68.9463 93.8306 68.887C93.7713 68.8425 93.7861 68.5607 93.8455 68.279C93.9048 67.9972 93.9345 67.6264 93.89 67.4336C93.8306 67.1964 93.8455 67.1519 93.9641 67.2557C94.0531 67.3447 94.1569 67.5375 94.1866 67.7006ZM102.002 68.1603C102.002 68.279 102.076 68.3679 102.165 68.3679C102.239 68.3679 102.417 68.6052 102.536 68.887C102.655 69.1688 102.803 69.406 102.862 69.406C102.936 69.406 103.055 69.8806 103.159 70.4738C103.263 71.1708 103.411 71.6157 103.574 71.7344C103.737 71.853 103.841 72.1348 103.841 72.4759C103.856 72.7873 103.915 73.0839 103.974 73.1284C104.152 73.247 104.404 74.4334 104.301 74.6114C104.241 74.6856 104.286 74.7449 104.375 74.7449C104.479 74.7449 104.508 74.8635 104.449 75.0415C104.404 75.1898 104.434 75.4864 104.538 75.6643C104.642 75.8571 104.716 76.2427 104.701 76.5245C104.657 77.3253 104.657 78.0816 104.686 78.2448C104.746 78.5562 104.657 78.7638 104.493 78.7193C104.404 78.6897 104.301 78.5265 104.286 78.3782C104.256 78.2151 104.167 78.0668 104.093 78.0371C104.004 78.0075 103.93 77.8592 103.93 77.7257C103.93 77.5774 103.796 77.3401 103.633 77.1918C103.47 77.0435 103.337 76.8063 103.337 76.6728C103.337 76.5393 103.263 76.3613 103.159 76.2575C102.936 76.0351 102.595 75.086 102.536 74.4928C102.506 74.2406 102.373 73.8699 102.239 73.6771C102.106 73.4991 102.002 73.0691 102.002 72.7132C102.002 72.3721 101.943 72.0606 101.854 72.0013C101.78 71.9568 101.75 71.8233 101.809 71.7047C101.854 71.5712 101.809 71.3784 101.705 71.2598C101.513 71.0225 101.409 69.4209 101.587 69.3171C101.646 69.2726 101.631 69.0798 101.557 68.887C101.483 68.6942 101.453 68.279 101.483 67.9675C101.513 67.6561 101.542 67.3298 101.542 67.2557C101.557 67.0332 102.002 67.923 102.002 68.1603ZM108.809 67.5078C108.765 67.8934 108.824 68.0713 109.031 68.0713C109.269 68.0713 109.462 68.4718 109.328 68.6794C109.284 68.7684 109.417 68.9611 109.625 69.1243C109.832 69.2874 110.01 69.5395 110.01 69.673C110.01 69.8065 110.203 70.1772 110.44 70.4886C110.692 70.8149 110.841 71.156 110.796 71.3191C110.752 71.4674 110.796 71.6454 110.885 71.6899C110.974 71.7492 111.004 71.9568 110.959 72.1496C110.9 72.3721 111.004 72.728 111.226 73.1432C111.419 73.4843 111.671 74.1813 111.775 74.6707C111.879 75.1601 112.072 75.7533 112.19 75.9906C112.339 76.2724 112.353 76.4652 112.264 76.5541C112.175 76.6431 112.161 76.8211 112.235 76.9546C112.442 77.3698 112.709 78.7342 112.606 78.8973C112.487 79.0901 111.938 79.0901 111.938 78.8973C111.938 78.8231 111.538 78.3338 111.048 77.8295C110.559 77.3105 110.159 76.7914 110.159 76.658C110.159 76.5245 110.025 76.302 109.862 76.1537C109.699 76.0054 109.565 75.8275 109.565 75.7682C109.565 75.694 109.402 75.2936 109.209 74.8635C108.898 74.1665 108.646 73.4102 108.616 73.0691C108.601 73.0098 108.512 72.8911 108.394 72.8318C108.26 72.7428 108.216 72.5204 108.26 72.1348C108.305 71.8085 108.231 71.3933 108.112 71.1263C107.979 70.8891 107.949 70.6666 108.023 70.6369C108.097 70.6073 108.127 70.1476 108.112 69.6137C108.082 69.0353 108.127 68.5607 108.216 68.4718C108.423 68.2641 108.423 68.0268 108.231 68.1455C108.023 68.279 108.038 67.9824 108.26 67.6264C108.468 67.3002 108.854 67.226 108.809 67.5078ZM86.3414 69.2874C86.297 69.3616 86.3711 69.4505 86.4897 69.495C86.6232 69.5395 86.727 69.7175 86.727 69.8806C86.727 70.0437 86.8012 70.3107 86.905 70.4886C87.0088 70.6666 87.0978 70.8742 87.1274 70.9632C87.424 72.12 87.4982 72.5055 87.4982 72.8466C87.4982 73.0542 87.5723 73.2767 87.6762 73.3064C87.8393 73.3805 88.1507 74.73 88.0914 75.0711C88.0766 75.1305 88.1359 75.5309 88.2397 75.9609C88.3287 76.391 88.4028 76.8063 88.388 76.8952C88.2694 77.874 88.2694 78.4227 88.388 78.6452C88.4622 78.7787 88.477 78.9714 88.4177 79.0604C88.3583 79.1642 88.2249 79.0159 88.0766 78.7193C87.9431 78.4376 87.7651 78.1113 87.6762 77.9927C87.5872 77.874 87.513 77.6367 87.4982 77.4439C87.4982 77.266 87.3796 76.9101 87.2609 76.658C87.1423 76.4207 87.0681 76.0944 87.0978 75.9313C87.1274 75.7681 86.994 75.1898 86.8012 74.6411C86.6084 74.1072 86.4749 73.603 86.5342 73.514C86.5787 73.4398 86.5491 73.336 86.4453 73.2767C86.3563 73.2174 86.2673 72.7725 86.2376 72.2831C86.208 71.7937 86.119 71.2895 86.0597 71.1708C85.9855 71.0522 85.8965 70.4738 85.8669 69.8806C85.8224 68.8425 85.8372 68.8128 86.119 68.9908C86.2821 69.0798 86.3711 69.2281 86.3414 69.2874ZM99.036 72.6093C99.036 72.728 98.9767 72.7873 98.8877 72.7428C98.8135 72.6983 98.7394 72.5945 98.7394 72.5055C98.7394 72.4314 98.8135 72.3721 98.8877 72.3721C98.9767 72.3721 99.036 72.4759 99.036 72.6093ZM99.2436 73.1877C99.2881 73.3064 99.2584 73.4102 99.1843 73.4102C99.0953 73.4102 99.036 73.3064 99.036 73.1877C99.036 73.0691 99.0657 72.9653 99.0953 72.9653C99.125 72.9653 99.1843 73.0691 99.2436 73.1877ZM99.5995 74.4334C99.4512 74.6707 99.4661 74.7745 99.6589 74.997C99.7775 75.1453 99.8517 75.3529 99.822 75.4419C99.7775 75.5457 99.822 75.6347 99.8961 75.6347C100.015 75.6347 100.282 76.7321 100.193 76.8507C100.178 76.8804 100.267 77.0584 100.371 77.266C100.489 77.4736 100.593 77.7257 100.608 77.8295C100.623 77.9482 100.741 78.1113 100.86 78.2003C100.964 78.3041 101.157 78.66 101.261 79.0159C101.379 79.3719 101.587 79.7278 101.72 79.8019C101.869 79.8761 102.032 80.1727 102.091 80.4545C102.135 80.7511 102.299 81.0477 102.447 81.1218C102.595 81.2108 102.818 81.4777 102.951 81.715C103.144 82.1302 103.144 82.2044 102.921 82.6048C102.64 83.109 102.477 83.1684 101.112 83.4353C100.445 83.5688 100.193 83.5094 99.822 83.1684C99.6292 82.9904 99.3474 82.8273 99.214 82.8273C98.8432 82.8273 98.7839 81.8633 99.125 81.6112C99.3178 81.4629 99.3771 81.2404 99.3474 80.7362C99.3326 80.3655 99.3919 79.9651 99.4809 79.8612C99.5699 79.7426 99.644 79.4312 99.644 79.1642C99.644 78.0223 99.5106 75.7978 99.4067 74.997C99.3178 74.2703 99.3326 74.1517 99.5402 74.1517C99.7478 74.1517 99.7478 74.1962 99.5995 74.4334ZM107.934 78.3189C107.934 78.571 108.082 78.66 108.394 78.6303C108.438 78.6155 108.453 78.7638 108.423 78.9418C108.379 79.1791 108.468 79.3422 108.779 79.5202C109.017 79.6536 109.298 79.9206 109.387 80.1134C109.491 80.3061 109.773 80.5731 110.01 80.7066C110.262 80.84 110.455 81.0625 110.455 81.196C110.455 81.3146 110.589 81.4184 110.752 81.4184C111.078 81.4184 111.553 81.6557 111.923 82.0116C112.205 82.2785 112.324 82.9014 112.101 82.9014C112.012 82.9014 111.938 83.0497 111.938 83.2277C111.923 83.7616 111.256 84.1471 110.337 84.1471C109.743 84.1471 109.491 84.0878 109.343 83.895C109.239 83.7467 109.091 83.6429 109.031 83.6577C108.809 83.7171 108.082 83.465 108.082 83.3463C108.082 83.287 107.771 82.9311 107.385 82.5603C106.762 81.9375 106.703 81.8336 106.866 81.537C106.955 81.3443 107.074 80.9735 107.118 80.7066C107.178 80.4544 107.267 80.232 107.326 80.232C107.4 80.232 107.445 79.8168 107.43 79.2977C107.43 78.7935 107.474 78.2596 107.534 78.1113C107.652 77.785 107.934 77.9185 107.934 78.3189Z" fill="#E3E3E3"/>
<path d="M117.396 67.8786C117.499 67.923 117.633 67.9082 117.677 67.8637C117.737 67.8192 117.648 67.7747 117.485 67.7896C117.321 67.7896 117.277 67.8341 117.396 67.8786Z" fill="#E3E3E3"/>
<path d="M152.647 76.5096C152.602 76.5393 152.35 76.5986 152.098 76.6283C151.831 76.6579 151.386 76.7024 151.104 76.7321C150.541 76.7914 150.066 77.2956 150.051 77.8147C150.051 78.1854 150.526 78.749 150.837 78.749C150.926 78.7638 151.416 78.7935 151.905 78.8231C153.714 78.9566 159.543 78.9863 159.543 78.8676C159.543 78.7935 159.617 78.7786 159.706 78.8231C159.78 78.8825 160.077 78.9566 160.329 79.0011C160.596 79.0308 160.863 79.1197 160.922 79.1939C160.996 79.2532 161.293 79.2532 161.589 79.1791C161.886 79.1197 162.197 79.1049 162.271 79.1642C162.42 79.2532 163.013 79.2829 165.994 79.3867C166.646 79.4163 167.254 79.3718 167.358 79.2977C167.462 79.2235 167.67 79.2384 167.848 79.3422C168.025 79.4312 168.381 79.5201 168.634 79.5201C168.9 79.5201 169.182 79.5943 169.286 79.6684C169.39 79.7426 169.538 79.7723 169.627 79.7129C169.701 79.6685 170.087 79.5943 170.458 79.5646C171.807 79.4608 172.386 78.3486 171.57 77.4439L171.125 76.9694L169.004 76.8804C167.833 76.8359 166.646 76.7618 166.365 76.7321C164.896 76.5838 152.765 76.3762 152.647 76.5096Z" fill="#E3E3E3"/>
<path d="M30.9066 77.9778C30.8621 78.052 30.5507 78.1261 30.1948 78.141C28.6673 78.2448 28.4004 78.3486 28.2076 78.9863C27.7478 80.4396 28.5931 80.8549 31.9596 80.84C32.6862 80.84 33.665 80.84 34.1544 80.8549C34.6438 80.8697 35.7412 80.8549 36.6014 80.8252C37.4615 80.7955 38.4551 80.7807 38.8259 80.7955C39.8343 80.84 41.6881 80.8104 43.4232 80.7511C44.2834 80.7214 45.8405 80.6621 46.9083 80.6324C48.1244 80.5879 48.851 80.4989 48.8807 80.3951C48.9103 80.3062 49.0142 80.232 49.1031 80.232C49.3997 80.2172 49.9485 79.6833 49.9485 79.4163C49.9485 78.9714 49.3552 78.3041 48.9697 78.3041C48.7769 78.3041 48.6137 78.2448 48.6137 78.1706C48.6137 77.9927 47.7388 77.874 47.635 78.0371C47.5905 78.1113 47.457 78.0816 47.3235 77.9927C47.1604 77.8444 46.9973 77.8444 46.5969 77.9927C46.3151 78.0965 45.9443 78.1261 45.7515 78.0668C45.366 77.9333 44.7876 77.9778 44.4317 78.1706C44.2685 78.2596 44.1647 78.2596 44.1647 78.1706C44.1647 78.0965 43.9126 78.0371 43.616 78.052C43.3046 78.052 42.2961 78.0223 41.3767 77.9778C40.472 77.9333 39.686 77.9482 39.6416 78.0223C39.5971 78.0816 39.3894 78.0816 39.1818 78.0075C38.9742 77.9185 38.7517 77.8889 38.6924 77.9185C38.4403 78.0816 35.6374 78.1261 35.4595 77.9927C35.3557 77.9037 35.2074 77.8889 35.1035 77.9482C34.8218 78.1113 33.2053 78.1558 33.1015 77.9927C33.0422 77.8889 32.9532 77.9037 32.8197 78.0075C32.5528 78.2299 31.5888 78.2448 31.3812 78.0371C31.1736 77.8295 31.0104 77.8147 30.9066 77.9778ZM42.83 79.357C42.83 79.446 42.7707 79.4608 42.6817 79.4163C42.6076 79.3719 42.5334 79.2532 42.5334 79.1791C42.5334 79.0901 42.6076 79.0753 42.6817 79.1197C42.7707 79.1642 42.83 79.2829 42.83 79.357Z" fill="#E3E3E3"/>
<path d="M57.9122 106.956C57.6008 107.045 57.1855 107.267 56.9927 107.46C56.7999 107.653 56.5627 107.816 56.4737 107.816C56.3995 107.816 56.3254 107.92 56.3254 108.038C56.3254 108.157 56.2661 108.261 56.1771 108.261C56.1029 108.261 55.8805 108.409 55.6877 108.587C54.3826 109.848 53.8488 110.278 53.6856 110.218C53.5966 110.189 53.5077 110.263 53.5077 110.382C53.5077 110.515 53.4483 110.634 53.3594 110.663C53.2111 110.708 50.9717 112.74 50.5565 113.184C50.4378 113.333 50.2154 113.451 50.0819 113.451C49.9484 113.451 49.7853 113.6 49.7408 113.778C49.637 114.178 48.9993 114.905 48.4209 115.275C48.1985 115.409 48.0205 115.631 48.0205 115.75C48.0205 115.869 47.9612 115.972 47.8722 115.972C47.7981 115.972 47.7239 116.047 47.7239 116.136C47.7239 116.343 47.3384 116.669 46.8786 116.862C46.6858 116.936 46.5375 117.1 46.5375 117.218C46.5375 117.337 46.4486 117.5 46.3447 117.559C46.2409 117.619 46.0036 117.989 45.8109 118.375C45.5439 118.894 45.4846 119.191 45.5587 119.591C45.6626 120.11 45.6922 120.125 46.2854 120.125C46.6265 120.125 47.0418 120.021 47.1901 119.902C47.3532 119.784 47.6053 119.71 47.7388 119.754C47.9167 119.813 48.0799 119.68 48.2875 119.309C48.4654 119.027 48.6731 118.79 48.762 118.79C48.8362 118.79 48.9103 118.701 48.9103 118.597C48.9103 118.479 49.0735 118.301 49.2811 118.197C49.4887 118.093 49.6518 117.945 49.6518 117.886C49.6518 117.826 49.815 117.737 50.0078 117.693C50.3637 117.604 50.8383 116.892 50.8383 116.462C50.8383 116.343 50.8976 116.284 50.9717 116.328C51.0459 116.373 51.2832 116.225 51.4908 116.002C51.7132 115.78 52.3064 115.157 52.8403 114.593C53.3594 114.045 53.9526 113.54 54.175 113.451C54.3826 113.377 54.5458 113.214 54.5458 113.081C54.5458 112.962 54.7237 112.754 54.9314 112.606C55.139 112.473 55.4949 112.191 55.7173 111.983C56.4737 111.242 57.3487 110.485 57.4228 110.485C57.5859 110.485 58.6982 109.225 58.6982 109.032C58.6982 108.943 58.7575 108.854 58.8465 108.854C58.9206 108.854 59.0541 108.602 59.1283 108.305C59.2617 107.831 59.2469 107.682 58.9503 107.267C58.7723 107 58.5944 106.793 58.5499 106.793C58.5054 106.808 58.2236 106.882 57.9122 106.956Z" fill="#E3E3E3"/>
<path d="M136.704 107.327C136.497 107.623 136.363 108.009 136.378 108.172C136.452 108.543 137.105 109.447 137.312 109.447C137.401 109.447 137.668 109.625 137.906 109.848C138.143 110.085 138.499 110.396 138.721 110.56C138.929 110.723 139.255 111.019 139.433 111.212C140.249 112.131 140.501 112.369 140.753 112.458C140.886 112.517 141.005 112.636 141.005 112.74C141.005 112.843 141.213 113.095 141.48 113.303C141.732 113.511 142.162 113.896 142.429 114.148C142.696 114.415 142.978 114.638 143.066 114.638C143.141 114.638 143.467 114.934 143.778 115.305C144.075 115.676 144.401 115.972 144.505 115.972C144.594 115.972 144.787 116.106 144.935 116.269C145.083 116.432 145.261 116.566 145.321 116.566C145.528 116.566 146.047 117.055 146.047 117.248C146.047 117.337 146.21 117.485 146.418 117.574C146.626 117.678 146.833 117.856 146.878 117.975C146.937 118.093 147.204 118.316 147.486 118.449C147.782 118.583 148.049 118.82 148.079 118.953C148.124 119.102 148.272 119.265 148.405 119.309C148.539 119.339 148.717 119.532 148.791 119.71C148.88 119.902 149.028 120.036 149.132 120.006C149.236 119.991 149.518 120.199 149.755 120.481C150.2 120.985 150.541 121.044 151.312 120.718C151.475 120.659 151.727 120.555 151.876 120.51C152.068 120.451 152.113 120.318 152.054 119.947C151.89 118.968 151.801 118.642 151.698 118.642C151.638 118.642 151.282 118.345 150.912 117.975C150.541 117.604 150.185 117.307 150.126 117.307C150.051 117.307 149.74 117.025 149.399 116.669C149.058 116.314 148.405 115.735 147.946 115.394C147.471 115.038 147.085 114.697 147.085 114.623C147.085 114.549 146.848 114.341 146.566 114.163C146.285 113.97 146.047 113.748 146.047 113.644C146.047 113.555 145.929 113.437 145.795 113.392C145.647 113.348 145.232 113.006 144.861 112.636C144.49 112.28 144.075 111.983 143.927 111.968C143.778 111.968 143.704 111.909 143.749 111.82C143.793 111.746 143.704 111.568 143.526 111.42C143.363 111.271 143.23 111.079 143.23 110.975C143.23 110.812 142.948 110.708 142.607 110.767C142.547 110.767 142.458 110.648 142.414 110.485C142.355 110.322 142.236 110.189 142.117 110.189C141.88 110.189 141.391 109.788 140.234 108.661C139.745 108.202 139.3 107.816 139.225 107.816C139.151 107.816 138.973 107.668 138.825 107.475C138.439 107.03 137.98 106.778 137.49 106.778C137.179 106.778 136.986 106.926 136.704 107.327Z" fill="#E3E3E3"/>
</svg>
