<svg width="91" height="91" viewBox="0 0 91 91" fill="none" xmlns="http://www.w3.org/2000/svg">
<g clip-path="url(#clip0_2260_3795)">
<path d="M56.3413 65.6492H57.5242L58.8932 57.3387H57.7105L56.3413 65.6492Z" fill="white"/>
<path d="M40.3235 74.3239L41.5063 74.3352L42.8759 66.0189L41.6916 66.0192L40.3235 74.3239Z" fill="white"/>
<path d="M34.2913 63.9995L36.9684 47.7491H25.9196C25.082 47.7491 24.3728 48.3635 24.2331 49.2101L21.4644 66.019H35.928L36.27 63.9995H34.2913Z" fill="white"/>
<path d="M52.111 11.6277H50.9281L49.5593 19.9384H50.7418L52.1107 11.6277H52.111Z" fill="white"/>
<path d="M72.2341 11.2581L71.8922 13.2775H73.8748L70.2626 35.5511H81.6406C82.2867 35.5511 82.8329 35.0769 82.9392 34.4235L86.6961 11.2581H72.2341Z" fill="white"/>
<path d="M66.7588 11.2579L68.1286 2.94116L66.946 2.94219L65.5762 11.2579H66.7588Z" fill="white"/>
<path d="M56.2261 19.9381H45.1702C44.3363 19.9381 43.6276 20.5493 43.4849 21.3914L36.2698 63.9994L35.928 66.0191H47.3152C47.9567 66.0191 48.5021 65.549 48.6119 64.901L56.2259 19.9382L56.2261 19.9381Z" fill="white"/>
<path d="M72.2317 11.2581H61.1765C60.342 11.2581 59.6336 11.8693 59.491 12.7113L51.9336 57.3391H63.3212C63.9627 57.3391 64.5083 56.8685 64.6178 56.2208L71.8898 13.2775L72.2317 11.2581Z" fill="white"/>
<path d="M5.71382 79.7173H4.2202L3.2392 87.8939H1.33609L2.31709 79.7173H0.82373L1.04307 77.8867H5.93316L5.71382 79.7173Z" fill="white"/>
<path d="M8.87558 84.6682C8.77273 83.2728 8.62641 81.8774 8.6853 80.4671C8.5827 80.9776 8.4801 81.5024 8.34883 82.0126C8.12897 82.9128 7.82143 83.7829 7.54307 84.6682H8.87558ZM9.13928 87.8938L8.97818 86.2133H7.0599L6.51848 87.8938H4.61511L8.05581 77.8867H10.0618L11.1598 87.8938H9.13928Z" fill="white"/>
<path d="M16.5174 87.6385C16.1073 87.8484 15.6388 87.9985 15.0383 87.9985C14.3062 87.9985 13.6474 87.7886 13.0912 87.2032C12.4763 86.5583 12.0955 85.4634 12.0955 84.113C12.0955 82.3425 12.6666 80.0771 13.9842 78.8169C14.6579 78.1569 15.4923 77.7819 16.605 77.7819C17.0442 77.7819 17.4101 77.8567 17.8349 78.0665L17.5567 80.1519C17.1616 79.7322 16.7222 79.6719 16.4878 79.6719C16.049 79.6719 15.6388 79.8972 15.3166 80.2122C14.5408 81.0075 14.145 82.7927 14.145 83.9628C14.145 84.2778 14.1895 85.0881 14.5699 85.598C14.8774 86.0032 15.2874 86.0936 15.5508 86.0936C15.917 86.0936 16.3855 85.9585 16.7954 85.5681L16.5174 87.6385Z" fill="white"/>
<path d="M23.1489 79.7173H21.6553L20.6743 87.8939H18.771L19.752 79.7173H18.2588L18.4781 77.8867H23.3682L23.1489 79.7173Z" fill="white"/>
<path d="M24.8171 87.8938H22.9138L24.1145 77.8867H26.0179L24.8171 87.8938Z" fill="white"/>
<path d="M31.0687 87.6385C30.6585 87.8484 30.19 87.9985 29.5896 87.9985C28.8575 87.9985 28.1987 87.7886 27.6425 87.2032C27.0276 86.5583 26.6467 85.4634 26.6467 84.113C26.6467 82.3425 27.2178 80.0771 28.5354 78.8169C29.2092 78.1569 30.0436 77.7819 31.1562 77.7819C31.5957 77.7819 31.9614 77.8567 32.3862 78.0665L32.1079 80.1519C31.7128 79.7322 31.2735 79.6719 31.0391 79.6719C30.6003 79.6719 30.19 79.8972 29.8678 80.2122C29.092 81.0075 28.6963 82.7927 28.6963 83.9628C28.6963 84.2778 28.7408 85.0881 29.1212 85.598C29.4286 86.0032 29.8386 86.0936 30.1021 86.0936C30.4683 86.0936 30.9369 85.9585 31.3467 85.5681L31.0687 87.6385Z" fill="white"/>
<path d="M36.1916 84.6682C36.0888 83.2728 35.9425 81.8774 36.0015 80.4671C35.8986 80.9776 35.796 81.5024 35.6646 82.0126C35.4449 82.9128 35.1375 83.7829 34.8591 84.6682H36.1916ZM36.4553 87.8938L36.2942 86.2133H34.3759L33.8345 87.8938H31.9312L35.3719 77.8867H37.3778L38.4758 87.8938H36.4553Z" fill="white"/>
<path d="M43.1598 87.8938H39.2653L40.466 77.8867H42.3694L41.403 86.0184H43.3943L43.1598 87.8938Z" fill="white"/>
<path d="M52.5435 79.7173H51.0499L50.0689 87.8939H48.1657L49.1467 79.7173H47.6533L47.8727 77.8867H52.7627L52.5434 79.7173H52.5435Z" fill="white"/>
<path d="M54.8996 82.1926C55.0018 82.2075 55.0898 82.2075 55.1925 82.2075C56.1442 82.2075 56.6126 81.4422 56.6126 80.5422C56.6126 79.822 56.3051 79.4471 55.5876 79.4471H55.2217L54.8996 82.1926ZM55.5729 77.8867C56.2463 77.8867 57.0368 77.9471 57.6081 78.3668C58.2376 78.8318 58.4721 79.6271 58.4721 80.3923C58.4721 81.6974 57.8717 82.6876 56.7737 83.3478L57.901 87.8938H55.9097L54.7677 83.2877L54.2112 87.8938H52.308L53.5087 77.8867H55.5729Z" fill="white"/>
<path d="M62.8779 84.6682C62.775 83.2728 62.6287 81.8774 62.6876 80.4671C62.585 80.9776 62.4824 81.5024 62.3509 82.0126C62.1312 82.9128 61.8237 83.7829 61.5454 84.6682H62.8779ZM63.1416 87.8938L62.9805 86.2133H61.0622L60.5208 87.8938H58.6174L62.0581 77.8867H64.0641L65.1621 87.8938H63.1416Z" fill="white"/>
<path d="M68.1911 86.063C69.8604 86.078 70.4462 83.5126 70.4462 82.1625C70.4462 81.0372 70.197 79.7172 68.8503 79.6419L68.0744 86.0631H68.1911V86.063ZM68.7479 77.8865C69.4357 77.8865 70.0215 77.9164 70.6511 78.2314C71.9981 78.9069 72.3786 80.4371 72.3786 81.8474C72.3786 83.5274 71.9247 85.5082 70.739 86.7537C69.9485 87.5936 68.9232 87.8938 67.8107 87.8938H65.9512L67.152 77.8865H68.7477H68.7479Z" fill="white"/>
<path d="M74.8953 87.8938H72.9922L74.1929 77.8867H76.0963L74.8953 87.8938Z" fill="white"/>
<path d="M82.3471 87.8938H80.5612L78.9209 81.8625C78.9209 82.2976 78.9209 82.7174 78.8626 83.1527L78.2913 87.8938H76.3881L77.5888 77.8867H79.3896L81.0296 83.9329C81.015 83.6931 81.015 83.4528 81.015 83.213C81.015 82.9877 81.015 82.7777 81.0441 82.5524L81.6154 77.8867H83.5478L82.3471 87.8938Z" fill="white"/>
<path d="M88.8764 80.8575C88.8764 80.2724 88.8034 79.477 88.0567 79.477C86.5339 79.477 86.1826 83.1229 86.1826 84.2479C86.1826 85.0132 86.2852 86.2585 87.2953 86.2585C88.3205 86.2585 88.5986 84.9081 88.7155 84.098H87.5005L87.7054 82.3276H90.8094C90.7068 83.3028 90.6041 84.278 90.2965 85.2084C89.8135 86.7083 88.7007 88.0589 87.0467 88.0589C84.9089 88.0589 84.162 85.9884 84.162 84.1278C84.162 83.243 84.2647 82.3426 84.4841 81.4876C84.9672 79.6421 86.1971 77.7367 88.2615 77.7367C89.7259 77.7367 90.5894 78.667 90.8239 80.1073L88.8764 80.8575Z" fill="white"/>
</g>
<defs>
<clipPath id="clip0_2260_3795">
<rect width="90" height="90" fill="white" transform="translate(0.82373 0.5)"/>
</clipPath>
</defs>
</svg>
