<?xml version="1.0" encoding="UTF-8"?>
<svg id="Capa_2" xmlns="http://www.w3.org/2000/svg" viewBox="0 0 1531.7 428.47">
  <defs>
    <style>
      .cls-1 {
        fill: #fff;
      }
    </style>
  </defs>
  <g id="Capa_1-2" data-name="Capa_1">
    <g>
      <path class="cls-1" d="M237.06,85.43v22.63c-5.24-13.2-13.99-21.27-28.85-22.56v33.57c-5.61.46-10.86.79-16.08,1.34-22.84,2.4-44.33,24.12-45.95,47.2-.43,6.07-2.6,9.62-7.7,12.56-7.64,4.4-14.81,9.59-22.33,14.2-2.6,1.6-3.01,3.08-2.28,6.04,6.06,24.82,26.59,42.55,52.02,44.62.98.08,1.96.2,3.78.39-5.73,60.63-11.44,121.13-17.28,183.03-11.73-5.06-22.85-9.02-33.2-14.46-51.86-27.26-87.84-68.68-106.87-124.04C-1.24,250.57-4.18,209.95,6.39,169.42,29.53,80.68,85.97,23.79,175.64,5.07c78.77-16.45,147.56,7.46,202.49,66.45,39.74,42.67,59.02,94.27,56.87,152.8-3.1,84.43-43.02,146.8-115.85,188.65-7,4.02-14.43,3.87-21.62.66-5.48-2.44-8.01-6.95-8-13.18.1-41.84.05-83.67.05-125.51,0-29-.22-58.01.07-87.01.23-23.09-7.03-42.48-26.05-56.51-2.78-2.05-1.44-3.85-.58-6,7-17.35-2.39-35.32-20.55-39.34-1.58-.35-3.22-.39-5.42-.65Z"/>
      <path class="cls-1" d="M734.61,320.49c-3.01,0-5.26,0-7.5,0-10,0-20-.16-29.99.08-3.67.09-5.31-1.25-6.42-4.64-3.68-11.22-7.73-22.32-11.44-33.54-.93-2.8-2.21-3.87-5.29-3.86-27.83.13-55.65.14-83.48,0-3.37-.02-4.63,1.38-5.59,4.23-3.83,11.35-7.72,22.68-11.88,33.91-.58,1.58-2.77,3.6-4.26,3.63-12.32.27-24.65.13-36.98.09-.47,0-.93-.3-2.07-.68,1.04-3.25,1.98-6.51,3.12-9.69,24.83-69.74,49.71-139.46,74.42-209.24,1.35-3.82,3.16-5.21,7.13-5.15,11.66.2,23.33.21,34.99,0,4.09-.07,6.16,1.24,7.58,5.26,18.88,53.49,37.94,106.93,56.94,160.37,6.35,17.87,12.7,35.74,19.03,53.62.53,1.51.94,3.07,1.7,5.58ZM598.38,242.89h67.74c-11.16-32.7-22.13-64.81-33.09-96.92-.46,0-.93-.02-1.39-.02-11.06,32.23-22.12,64.45-33.26,96.94Z"/>
      <path class="cls-1" d="M874.87,302.72v5.64c0,25.99-.09,51.99.09,77.98.03,4.74-1.36,6.49-6.24,6.32-9.15-.33-18.34-.41-27.48.02-5.38.25-5.88-2.28-5.88-6.6.09-54.15.06-108.31.06-162.46,0-17.16.13-34.33-.08-51.49-.06-4.64,1.52-6.13,6.09-5.95,7.82.31,15.67.39,23.48-.03,4.82-.25,6.59,1.62,6.75,6.11.15,4.24.59,8.46.91,12.75,5.45-4.58,10.04-9.46,15.54-12.89,23.25-14.5,55.12-11.64,76.01,6.04,16.42,13.89,24.56,31.75,27,52.8,2.35,20.23.04,39.61-9.97,57.53-12.9,23.1-32.86,35.66-59.3,35.94-17.51.19-33.57-4.99-44.88-19.85-.36-.47-.88-.8-2.09-1.87ZM874.87,243.44c-.12,0-.25.01-.37.02.4,6.45-.1,13.12,1.38,19.32,3.54,14.74,15.6,24.44,31.07,26.22,17.6,2.03,32.02-4.69,39.31-19.36,8.42-16.95,8.3-34.52.29-51.49-7.88-16.68-25.72-23.88-44.75-19.23-16.67,4.07-26.86,17.7-26.92,36.03-.01,2.83,0,5.66,0,8.49Z"/>
      <path class="cls-1" d="M1494.26,184.95c.49-5.08,1.07-9.83,1.36-14.61.15-2.5,1.11-3.57,3.64-3.56,9.66.06,19.33.07,28.99,0,2.64-.02,3.5,1.19,3.45,3.65-.08,4.16,0,8.33,0,12.5,0,43.66,0,87.32,0,130.98,0,6.63-.02,6.64-6.45,6.64-7.83,0-15.67-.2-23.49.08-4.31.16-6.42-.8-6.28-5.66.12-4.24-.78-8.52-1.24-12.9-4.72,4.21-8.75,8.94-13.77,12.09-32.58,20.5-75.24,10.07-93.93-24.43-17.46-32.22-17.14-65.58,2.91-96.77,23.34-36.31,69.66-37.08,94.23-17.84,3.63,2.84,6.8,6.27,10.6,9.83ZM1492.86,244.09c.21-.05.42-.1.64-.15-1.08-7.69-1.09-15.73-3.48-22.98-4.66-14.17-19.16-22.83-35.83-22.91-16.47-.08-30.37,9.31-36.09,24.26-3.47,9.08-3.73,18.49-3.18,28.02,1.24,21.46,16.82,41.46,44.1,38.9,16.67-1.57,30.16-13.24,32.85-29.74.82-5.05.69-10.26.99-15.4Z"/>
      <path class="cls-1" d="M1133.9,184.62c.62-5.41,1.29-11.17,2-17.38h35.05v153.3h-16.44c-3.17,0-6.33.06-9.5-.01-11.29-.26-8.34,1.9-10.22-9.56-.47-2.89-.61-5.84-1.04-10.23-6.24,8.71-13.31,14.25-21.84,17.97-31.85,13.9-68.99,2.3-85.74-28.95-17.29-32.25-17.05-65.54,2.89-96.83,19.02-29.84,58.98-39.13,88.47-21.62,5.88,3.49,10.75,8.67,16.38,13.31ZM1132,243.65c.29-.02.58-.03.87-.05-.59-6.44-.61-13-1.89-19.3-2.51-12.39-15.99-25.66-35.43-26.24-16.84-.5-31.62,8.55-37.56,24.21-3.61,9.52-4.09,19.33-3.2,29.45,1.83,20.74,17.39,39.78,43.41,37.56,17.96-1.53,31.9-14.26,33.73-32.18.45-4.44.07-8.97.07-13.46Z"/>
      <path class="cls-1" d="M1354.74,221.73c-12.86,2-25.48,3.96-38.32,5.95-.58-1.69-1.13-3.04-1.51-4.44-3.59-13.12-12.36-21.29-25.23-24.4-14.2-3.43-26.84.32-36.58,11.52-9.7,11.16-11.76,24.69-10.68,38.88.67,8.72,2.86,17.04,7.99,24.36,9.12,13.01,22.01,17.54,37.09,15.31,14.35-2.13,24.24-10.49,28.43-24.68,1.03-3.49,2.37-4.24,5.93-3.53,8.96,1.8,18.03,3.04,27.04,4.55,1.93.32,3.83.83,6.04,1.33-2.25,14.82-8.46,27.21-19.02,37.28-31.21,29.76-93.27,28.82-120.36-12.93-11.58-17.85-14.54-37.68-12.46-58.39,1.92-19.17,9.26-35.98,23.55-49.33,16.26-15.2,35.86-20.88,57.73-20.26,23.41.66,43.08,9.14,57.93,27.59,7.03,8.73,11.95,21.41,12.41,31.19Z"/>
      <path class="cls-1" d="M756.97,96.31h38.47v223.82h-38.47V96.31Z"/>
      <path class="cls-1" d="M175.25,191.96c-.9-10.96,1.64-13.76,12.17-13.77,4.62,0,9.24,0,13.81,0,.9,11.42-8.81,16.45-25.97,13.77Z"/>
    </g>
  </g>
</svg>