<?xml version="1.0" encoding="UTF-8"?>
<svg id="Capa_2" xmlns="http://www.w3.org/2000/svg" viewBox="0 0 708.5 209.7">
  <defs>
    <style>
      .cls-1 {
        fill: #fff;
      }
    </style>
  </defs>
  <g id="Capa_1-2" data-name="Capa_1">
    <g>
      <path class="cls-1" d="M17.9.7h9c1.1,0,2.2.1,3.1.4,1,.3,1.8.7,2.5,1.2s1.3,1.2,1.6,2c.4.8.6,1.8.6,2.9s-.4,2.7-1.3,3.6c-.8.9-1.9,1.6-3.2,2.1h0c.8.1,1.5.3,2.2.7s1.3.8,1.8,1.4c.5.6.9,1.3,1.2,2s.4,1.6.4,2.5-.2,2.2-.7,3.1c-.5.9-1.1,1.6-2,2.3-.8.6-1.8,1.1-2.9,1.4-1.1.3-2.3.5-3.6.5h-8.8V.8l.1-.1ZM21.4,11.5h4.8c.7,0,1.3,0,1.9-.2.6-.1,1.1-.4,1.5-.7s.8-.7,1.1-1.2c.3-.5.4-1.1.4-1.8,0-1-.3-1.9-1-2.7-.7-.7-1.7-1.1-3.1-1.1h-5.6v7.7ZM21.4,23.6h5.2c.5,0,1.1,0,1.8-.2.7-.1,1.3-.3,1.8-.7.5-.3,1.1-.8,1.4-1.3.4-.5.6-1.3.6-2.2,0-1.5-.5-2.7-1.5-3.5s-2.3-1.2-4.1-1.2h-5.2v9.1Z"/>
      <path class="cls-1" d="M100.3,27.4c-2,0-3.8-.4-5.5-1.1-1.7-.7-3.1-1.6-4.3-2.9-1.2-1.2-2.1-2.7-2.8-4.3-.7-1.7-1-3.4-1-5.4s.4-3.7,1-5.4c.7-1.7,1.6-3.1,2.8-4.3,1.2-1.2,2.6-2.2,4.3-2.9,1.7-.7,3.5-1.1,5.5-1.1s3.8.4,5.5,1.1,3.1,1.6,4.3,2.9c1.2,1.2,2.1,2.7,2.8,4.3.7,1.7,1,3.4,1,5.4s-.4,3.7-1,5.4c-.7,1.7-1.6,3.1-2.8,4.3-1.2,1.2-2.6,2.2-4.3,2.9-1.6.7-3.5,1.1-5.5,1.1M100.3,24.1c1.5,0,2.9-.3,4-.8,1.2-.5,2.2-1.3,3.1-2.2s1.5-2,2-3.3.7-2.6.7-4-.2-2.7-.7-4-1.1-2.4-2-3.3c-.9-.9-1.9-1.7-3.1-2.2s-2.5-.8-4-.8-2.9.3-4,.8c-1.2.6-2.2,1.3-3.1,2.2s-1.5,2-2,3.3-.7,2.6-.7,4,.2,2.8.7,4c.5,1.3,1.1,2.4,2,3.3.9.9,1.9,1.7,3.1,2.2s2.5.8,4,.8"/>
      <polygon class="cls-1" points="166.1 .7 169.7 .7 169.7 23.4 181.6 23.4 181.6 26.7 166.1 26.7 166.1 .7"/>
      <path class="cls-1" d="M233.3,21.3c.6.9,1.4,1.6,2.4,2.1s2,.7,3.1.7,1.2,0,1.8-.3c.6-.2,1.2-.5,1.7-.8.5-.4.9-.8,1.2-1.4.3-.5.5-1.2.5-1.9,0-1-.3-1.8-.9-2.3-.6-.5-1.4-1-2.3-1.3-.9-.4-2-.7-3.1-1s-2.2-.8-3.1-1.4c-.9-.6-1.7-1.4-2.4-2.3-.6-1-.9-2.4-.9-4s.2-1.6.5-2.4c.3-.9.9-1.6,1.6-2.4.7-.7,1.6-1.3,2.7-1.8,1.1-.5,2.5-.7,4-.7s2.8.2,4.1.6,2.4,1.2,3.4,2.4l-2.9,2.6c-.4-.7-1.1-1.3-1.9-1.6-.8-.4-1.7-.6-2.7-.6s-1.8.1-2.4.4c-.7.3-1.2.6-1.6,1-.4.4-.7.8-.8,1.3-.2.5-.2.9-.2,1.3,0,1.1.3,2,.9,2.5.6.6,1.4,1.1,2.3,1.4.9.4,2,.7,3.1,1s2.2.7,3.1,1.2c.9.5,1.7,1.3,2.4,2.1.6.9.9,2.1.9,3.7s-.2,2.4-.7,3.4-1.1,1.8-1.9,2.5c-.8.7-1.8,1.2-2.9,1.6-1.1.4-2.3.6-3.5.6s-3.2-.3-4.7-.9c-1.5-.6-2.7-1.5-3.6-2.7l2.9-2.5-.1-.1Z"/>
      <path class="cls-1" d="M308.3.7h3.2l11.1,26h-4.1l-2.6-6.4h-12.4l-2.6,6.4h-4.1s11.5-26,11.5-26ZM314.6,17.2l-4.9-11.9h0l-4.9,11.9h9.9-.1Z"/>
      <path class="cls-1" d="M590.3,209.6c10.3,0,15.9-7.5,15.9-16.3v-17.7h-7.9v24c0,1-.8,1.9-1.9,1.9h-12.2c-1,0-1.9-.8-1.9-1.9v-24h-7.9v17.7c0,10.4,7.1,16.3,15.9,16.3"/>
      <path class="cls-1" d="M554,175.6h-18.8v33.3h7.9v-25.9h14.8c1,0,1.9.8,1.9,1.9v24h7.9v-19.5c0-7.6-6.2-13.8-13.8-13.8"/>
      <path class="cls-1" d="M632,175.6h-16.9v7.5h18.6c.9,0,1.7.8,1.7,1.7v4.1h-13c-5.2,0-10,3.7-10,10.5s5.4,10.3,12,10.3,11-3.6,11-8.2h-14.6c-1.1,0-1.9-.9-1.9-1.9v-2.5c0-1.1.9-1.9,1.9-1.9h14.6v13.8h7.3v-22.5c0-6-4.8-10.8-10.8-10.8"/>
      <path class="cls-1" d="M679.7,181.2h0l-.6-.6c-3.1-3.2-7.2-5-11.7-5h-16.4v33.3h7.9v-25.8h14.8c1,0,1.9.8,1.9,1.9v23.9h7.9v-23.9c0-1.1.9-1.9,1.9-1.9h12.9c1,0,1.9.8,1.9,1.9v24h7.9v-19.5c0-6.3-4.5-13.8-14.9-13.8s-12.3,4-13.7,5.6"/>
      <rect class="cls-1" x="497.4" y="190.74" width="26.7" height="5.6" transform="translate(12.74 417.84) rotate(-45)"/>
      <rect class="cls-1" x="508.02" y="180.19" width="5.6" height="26.7" transform="translate(12.76 417.89) rotate(-45)"/>
    </g>
    <g>
      <g>
        <path class="cls-1" d="M46.6,58.3v20.7h-2.6c-.4-4.1-1.6-7.6-3.5-10.3-1.9-2.8-4.3-4.8-7.1-6-2.8-1.3-5.8-1.9-9-1.9-4.6,0-8.4,1.2-11.4,3.6s-4.5,5.6-4.5,9.7,1.1,6.9,3.3,9.7c2.2,2.8,5.3,5.5,9.4,8.1,4,2.6,8.1,5.2,12.3,7.7,4.1,2.5,7.5,5.1,10.2,7.8,3,3,5,5.8,6.1,8.6s1.7,5.8,1.7,9-.7,6.7-2,9.8c-1.3,3-3.1,5.7-5.4,8-2.3,2.3-5,4.1-8.1,5.4-3.1,1.3-6.4,2-9.7,2s-5.2-.3-7.4-.9c-2.2-.6-4.8-1.4-7.6-2.3-2.8-1-4.6-1.5-5.2-1.5-1.4,0-2.5,1.1-3.4,3.4H0v-23.9h2.6c0,5,1.2,9.2,3.5,12.4,2.3,3.3,5.1,5.6,8.5,7.1,3.3,1.5,6.4,2.2,9.3,2.2s6.7-.6,9.3-1.9c2.6-1.3,4.7-3.1,6.2-5.5s2.3-5.2,2.3-8.4-1.2-6.8-3.5-9.7c-2.4-3-5.7-5.8-10-8.6s-8.2-5.3-11.7-7.5-6.3-4.3-8.5-6.4c-5-5-7.5-11.2-7.5-18.5s1-8.4,3-11.9c2-3.4,4.9-6.1,8.6-8.1,3.7-1.9,7.9-2.9,12.4-2.9s5.1.2,7,.7c1.9.5,3.9,1,5.9,1.7s3.5,1,4.4,1,1.2-.1,1.4-.4c.3-.3.5-1,.8-2.1h2.5l.1.1Z"/>
        <path class="cls-1" d="M236.5,76v71.9h-2.6l-62.5-76.9h-.3v62c0,4.4.9,7.6,2.8,9.4,1.8,1.9,4.8,2.8,8.9,2.8v2.6h-26.8v-2.6c2.7,0,4.8-.4,6.3-1.2s2.7-2.2,3.5-4.4c.8-2.1,1.2-5.3,1.2-9.6v-51.7c0-5.3-.9-9.2-2.8-11.8-1.9-2.6-5.3-4.1-10.3-4.5v-2.6h22.7l55.3,68.9h.3v-51.7c0-5.6-.8-9.5-2.4-11.5-1.6-2-4.4-3.1-8.4-3.1v-2.6h26.6v2.6c-4.3,0-7.2,1-8.9,3.1-1.7,2-2.5,5.7-2.5,10.9h-.1Z"/>
        <path class="cls-1" d="M304.4,63.9v67.8c0,5.3.7,8.8,2,10.7s3.8,2.8,7.6,2.8v2.6h-31.4v-2.6c2.3,0,4.1-.3,5.6-1s2.6-2.1,3.4-4.2c.8-2.1,1.2-5,1.2-8.8V63.8h-12.8c-6,0-10.4,1-13.3,2.9-2.8,1.9-4.4,5.2-4.8,9.8h-2.6v-20.4h2.6c1.2,1.1,2.8,1.9,4.8,2.5,2.2.5,5,.8,8.4.8h46.4c3.8,0,6.8-.3,8.8-.8,2.1-.5,3.8-1.3,5.2-2.5h2.8v20.4h-1.7c-1-4.3-2.7-7.5-5.2-9.6s-7-3.1-13.5-3.1h-13.4l-.1.1Z"/>
        <path class="cls-1" d="M369.7,76.2v55.1c0,3.6.3,6.4.9,8.4s1.7,3.4,3.2,4.3c1.5.9,3.5,1.3,5.9,1.3v2.6h-31.8v-2.6c3.8,0,6.4-1,7.8-2.9,1.5-1.9,2.2-5.6,2.2-11.1v-55.1c0-5.5-.7-9.3-2.1-11.2-1.4-1.9-4-2.9-7.9-2.9v-2.6h31.8v2.6c-2.5,0-4.5.4-6,1.3s-2.5,2.3-3.1,4.3-.9,4.8-.9,8.4v.1Z"/>
        <path class="cls-1" d="M465.5,143.1c-1.6-1.5-3.1-4.3-4.4-8.4l-25.6-76.1h-9.1l-24.4,72.9c-1,3.1-2,5.5-2.9,7.3-1,1.8-2.2,3.2-3.8,4.4-1.6,1.1-3.7,1.9-6.4,2.2v2.6h22.8v-2.6c-4.7-.2-7.1-2.1-7.1-5.7s.8-5.2,2.3-9.7l6-17.7h0l14-42.9h.3l14.2,42.9h0l8,24.4c.4,1.2.6,2.3.6,3.5,0,3.5-2.5,5.2-7.5,5.2v2.6h31.1v-2.6c-3.8,0-6.5-.7-8.2-2.2l.1-.1Z"/>
        <path class="cls-1" d="M137.6,143.1c-1.6-1.5-3.1-4.3-4.4-8.4l-25.6-76.1h-9.1l-24.4,72.9c-1,3.1-2,5.5-2.9,7.3-1,1.8-2.2,3.2-3.8,4.4-1.6,1.1-3.7,1.9-6.4,2.2v2.6h22.8v-2.6c-4.7-.2-7.1-2.1-7.1-5.7s.8-5.2,2.3-9.7l6-17.7h0l14-42.9h.3l14.2,42.9h0l8,24.4c.4,1.2.6,2.3.6,3.5,0,3.5-2.5,5.2-7.5,5.2v2.6h31.1v-2.6c-3.8,0-6.5-.7-8.2-2.2l.1-.1Z"/>
      </g>
      <path class="cls-1" d="M515.9,95.9v19.8h29.4c-3.7,9.2-12,14.5-22.8,14.5s-24.2-11.2-24.2-26.7,2.6-14.1,7.2-19c4.7-5,11.3-7.7,18.6-7.7s16.3,5.9,19.7,10.8l1.8,2.6,15.9-12.3-1.7-2.3c-8.9-12.1-21.2-18.5-35.6-18.5s-24.9,4.9-33.5,13.8c-8.3,8.6-12.9,20.2-12.9,32.7,0,26.1,19.7,46.5,44.8,46.5s45.8-20.1,45.8-51.1v-3h-52.3l-.2-.1Z"/>
      <path class="cls-1" d="M619.3,130.1c-5.8-.7-11.1-3.3-15.1-7.6-4.6-5-7.2-11.7-7.2-18.9s2.6-13.9,7.2-18.9c4.1-4.3,9.4-7,15.3-7.6l-12-17.5c-7.7,2.6-14.5,7.2-19.9,13.4-7.2,8.4-11.2,19.3-11.2,30.6s4,22.2,11.2,30.6c5.2,6,11.8,10.6,19.2,13.2l12.5-17.3Z"/>
      <path class="cls-1" d="M628.7,77.5h0l-.1-.2s0,.1.1.2Z"/>
      <polygon class="cls-1" points="681.4 113.2 669.1 130.2 683.2 149.3 708 149.3 681.4 113.2"/>
      <polygon class="cls-1" points="708.5 57.9 683.2 57.9 668.4 76.2 681.7 93.1 708.5 57.9"/>
      <path class="cls-1" d="M640.2,147.9l5.9-7.8,17.5-23.4,6.1-8.2,4.2-5.7-3.2-4.2-8.1-10.7-14.8-19.5-8-10.5h-25c3.6,5.2,9.9,14.2,13.6,19.5v.2c.1,0,19.1,25.9,19.1,25.9l-19.1,26.3-2.4,3.3-5.8,7.9c-2.1,3-4.2,6-5.9,8.4h24.7l1.1-1.5h.1Z"/>
    </g>
  </g>
</svg>