<svg width="115" height="28" viewBox="0 0 115 28" fill="none" xmlns="http://www.w3.org/2000/svg">
<path d="M48.7741 5.07178H48.4741V23.9655H48.7741V5.07178Z" fill="white"/>
<path d="M39.5803 23.9656L39.5678 15.6719L44.7115 15.6719V12.4344L39.5615 12.4344L39.5553 8.31563L45.699 8.31563V5.07813L35.4053 5.07812L35.4303 22.2656L39.5803 23.9656Z" fill="white"/>
<path d="M28.693 10.9656V19.5031L32.193 20.9406V5.07813L22.8492 9.78438L13.5117 5.07812V9.49063L22.8492 13.3156L28.693 10.9656Z" fill="white"/>
<path d="M55.9489 5.37788V5.88413C55.6032 5.60768 55.1676 5.46879 54.7257 5.49417C54.2838 5.51955 53.8669 5.70742 53.5552 6.02163C53.3857 6.18869 53.2518 6.38834 53.1616 6.60854C53.0713 6.82874 53.0266 7.06494 53.0301 7.30288C53.0266 7.54083 53.0713 7.77702 53.1616 7.99722C53.2518 8.21742 53.3857 8.41707 53.5552 8.58413C53.8669 8.89835 54.2838 9.08621 54.7257 9.1116C55.1676 9.13698 55.6032 8.99809 55.9489 8.72163V8.72163V9.06538C55.9521 9.12053 55.9382 9.17532 55.9091 9.22229C55.88 9.26926 55.8372 9.30613 55.7864 9.32788C55.4818 9.49017 55.1439 9.57999 54.7989 9.59038C54.5019 9.59605 54.2069 9.5401 53.9326 9.42608C53.6583 9.31205 53.4106 9.14242 53.2052 8.92788C52.992 8.71871 52.8235 8.46856 52.7096 8.19251C52.5958 7.91646 52.539 7.62022 52.5426 7.32163C52.539 7.02304 52.5958 6.7268 52.7096 6.45075C52.8235 6.1747 52.992 5.92455 53.2052 5.71538C53.4103 5.50001 53.6578 5.32942 53.9321 5.21433C54.2064 5.09925 54.5015 5.04215 54.7989 5.04663C55.2023 5.04508 55.5982 5.15542 55.9427 5.36538C55.9427 5.36538 55.9427 5.36538 55.9427 5.36538" fill="white"/>
<path d="M58.0493 6.0406C57.8778 6.20646 57.7422 6.40575 57.6508 6.62613C57.5594 6.84651 57.5142 7.0833 57.518 7.32185C57.5142 7.56039 57.5594 7.79718 57.6508 8.01757C57.7422 8.23795 57.8778 8.43724 58.0493 8.6031C58.215 8.77128 58.4125 8.90484 58.6303 8.996C58.8482 9.08715 59.0819 9.1341 59.318 9.1341C59.5542 9.1341 59.7879 9.08715 60.0057 8.996C60.2235 8.90484 60.4211 8.77128 60.5868 8.6031C60.7545 8.44088 60.8879 8.24666 60.9791 8.03195C61.0704 7.81724 61.1176 7.5864 61.118 7.3531C61.1219 7.11455 61.0767 6.87776 60.9853 6.65738C60.8939 6.437 60.7583 6.23771 60.5868 6.07185C60.4211 5.90367 60.2235 5.77011 60.0057 5.67895C59.7879 5.58779 59.5542 5.54085 59.318 5.54085C59.0819 5.54085 58.8482 5.58779 58.6303 5.67895C58.4125 5.77011 58.215 5.90367 58.0493 6.07185V6.0406ZM61.5743 7.3531C61.5794 7.65189 61.5233 7.94856 61.4094 8.22482C61.2954 8.50108 61.1261 8.75106 60.9118 8.95935C60.7028 9.16911 60.4544 9.33554 60.1809 9.4491C59.9074 9.56267 59.6142 9.62112 59.318 9.62112C59.0219 9.62112 58.7287 9.56267 58.4552 9.4491C58.1817 9.33554 57.9333 9.16911 57.7243 8.95935C57.5073 8.74654 57.3365 8.49131 57.2225 8.20958C57.1086 7.92785 57.0538 7.62566 57.0618 7.32185C57.0613 7.02147 57.1221 6.72414 57.2403 6.44799C57.3585 6.17183 57.5317 5.92264 57.7493 5.7156C57.957 5.50357 58.205 5.33512 58.4787 5.22013C58.7523 5.10513 59.0462 5.0459 59.343 5.0459C59.6399 5.0459 59.9337 5.10513 60.2074 5.22013C60.4811 5.33512 60.729 5.50357 60.9368 5.7156C61.1511 5.92388 61.3204 6.17387 61.4344 6.45013C61.5483 6.72638 61.6044 7.02306 61.5993 7.32185" fill="white"/>
<path d="M63.043 5.15292L65.0118 7.71542L66.9805 5.17167C66.9907 5.15921 67.0044 5.15006 67.0198 5.14539C67.0352 5.14071 67.0516 5.14072 67.067 5.14541C67.0824 5.15009 67.0961 5.15925 67.1063 5.17171C67.1165 5.18418 67.1227 5.19939 67.1242 5.21542V9.47792H66.8555C66.8107 9.47792 66.7678 9.46014 66.7362 9.42849C66.7045 9.39684 66.6868 9.35392 66.6868 9.30917V6.29042L65.043 8.39667C65.0396 8.40182 65.0349 8.40605 65.0295 8.40898C65.024 8.4119 65.0179 8.41344 65.0118 8.41344C65.0056 8.41344 64.9995 8.4119 64.994 8.40898C64.9886 8.40605 64.9839 8.40182 64.9805 8.39667L63.3742 6.29042V9.47792H62.9617V5.21542C62.9601 5.1972 62.9647 5.17897 62.9747 5.16367C62.9847 5.14837 62.9996 5.13691 63.017 5.13112C63.0343 5.12534 63.0531 5.12558 63.0703 5.1318C63.0875 5.13803 63.1021 5.14987 63.1117 5.16542" fill="white"/>
<path d="M69.2489 9.49678H68.8364V5.16553H69.2489V9.47803" fill="white"/>
<path d="M72.0241 9.14063C72.2206 9.14028 72.4154 9.10428 72.5991 9.03438C72.7659 8.95534 72.8963 8.81562 72.9637 8.64373C73.031 8.47185 73.0303 8.28074 72.9616 8.10938C72.9246 8.01714 72.8696 7.93317 72.7999 7.86235C72.7301 7.79154 72.647 7.73529 72.5553 7.69688L71.2616 7.07188H71.2178C71.0978 7.01426 70.9906 6.93312 70.9026 6.83327C70.8146 6.73342 70.7475 6.6169 70.7053 6.49063C70.6353 6.28818 70.6353 6.06808 70.7053 5.86563C70.7407 5.74072 70.8001 5.62394 70.8803 5.52188C71.024 5.33844 71.2202 5.20324 71.4428 5.13438C71.56 5.10216 71.6789 5.07712 71.7991 5.05938C71.9322 5.04987 72.0659 5.04987 72.1991 5.05938C72.5822 5.06775 72.9593 5.15721 73.3053 5.32188C73.3053 5.32188 73.3053 5.32188 73.3053 5.32188V5.79063L73.2303 5.74688C72.9163 5.57988 72.5672 5.48991 72.2116 5.48438C72.1014 5.47477 71.9905 5.47477 71.8803 5.48438L71.5991 5.54688C71.4978 5.57983 71.4042 5.63299 71.3241 5.70313C71.2447 5.77845 71.1865 5.87328 71.1553 5.97813C71.1206 6.08154 71.1206 6.19348 71.1553 6.29688C71.1874 6.37834 71.2363 6.45215 71.2987 6.51352C71.3612 6.57489 71.4358 6.62246 71.5178 6.65313L72.7678 7.24063C73.0551 7.37075 73.2797 7.60875 73.3928 7.90313C73.4546 8.04622 73.4864 8.20042 73.4864 8.35626C73.4864 8.5121 73.4546 8.66629 73.3928 8.80938C73.3366 8.95055 73.2521 9.07877 73.1447 9.18622C73.0372 9.29368 72.909 9.37812 72.7678 9.43438C72.5308 9.53538 72.2755 9.58645 72.0178 9.58438C71.6256 9.59894 71.2362 9.51288 70.8866 9.33438C70.8375 9.31276 70.7962 9.27661 70.7682 9.23079C70.7403 9.18497 70.7271 9.1317 70.7303 9.07813V8.74688L70.9366 8.89063C71.2515 9.07843 71.6138 9.17171 71.9803 9.15938" fill="white"/>
<path d="M75.2489 9.49678H74.8364V5.16553H75.2489V9.47803" fill="white"/>
<path d="M78.6304 4.82168L78.4679 4.65918L79.0929 4.03418L79.5179 4.03418L78.7054 4.85293C78.6984 4.86201 78.6894 4.86936 78.6791 4.87442C78.6688 4.87948 78.6575 4.88211 78.646 4.88211C78.6346 4.88211 78.6232 4.87948 78.6129 4.87442C78.6027 4.86936 78.5937 4.86201 78.5867 4.85293L78.6304 4.82168ZM77.5617 6.04043C77.3922 6.20749 77.2583 6.40714 77.1681 6.62734C77.0778 6.84754 77.0331 7.08373 77.0367 7.32168C77.0331 7.55962 77.0778 7.79582 77.1681 8.01602C77.2583 8.23622 77.3922 8.43587 77.5617 8.60293C77.7279 8.7713 77.926 8.90498 78.1443 8.99622C78.3626 9.08746 78.5969 9.13445 78.8335 9.13445C79.0702 9.13445 79.3044 9.08746 79.5228 8.99622C79.7411 8.90498 79.9391 8.7713 80.1054 8.60293C80.2711 8.43955 80.4028 8.24497 80.4929 8.03043C80.583 7.81589 80.6297 7.58563 80.6304 7.35293C80.6339 7.11499 80.5892 6.87879 80.499 6.65859C80.4088 6.43839 80.2749 6.23874 80.1054 6.07168C79.9391 5.90331 79.7411 5.76963 79.5228 5.67839C79.3044 5.58714 79.0702 5.54016 78.8335 5.54016C78.5969 5.54016 78.3626 5.58714 78.1443 5.67839C77.926 5.76963 77.7279 5.90331 77.5617 6.07168V6.04043ZM81.0867 7.35293C81.0918 7.65172 81.0357 7.94839 80.9217 8.22465C80.8078 8.50091 80.6384 8.75089 80.4242 8.95918C80.2157 9.16875 79.9678 9.33505 79.6948 9.44853C79.4219 9.56201 79.1291 9.62042 78.8335 9.62042C78.5379 9.62042 78.2452 9.56201 77.9722 9.44853C77.6993 9.33505 77.4514 9.16875 77.2429 8.95918C77.0286 8.75089 76.8593 8.50091 76.7453 8.22465C76.6314 7.94839 76.5753 7.65172 76.5804 7.35293C76.5753 7.05414 76.6314 6.75746 76.7453 6.48121C76.8593 6.20495 77.0286 5.95497 77.2429 5.74668C77.4501 5.53483 77.6976 5.36651 77.9707 5.2516C78.2438 5.13668 78.5372 5.07749 78.8335 5.07749C79.1299 5.07749 79.4232 5.13668 79.6964 5.2516C79.9695 5.36651 80.2169 5.53483 80.4242 5.74668C80.6384 5.95497 80.8078 6.20495 80.9217 6.48121C81.0357 6.75746 81.0918 7.05414 81.0867 7.35293" fill="white"/>
<path d="M85.3867 9.52175C85.3688 9.52708 85.3497 9.52696 85.3319 9.52139C85.3141 9.51583 85.2984 9.50507 85.2867 9.4905L82.8617 6.29675V9.478H82.4429V5.2155C82.4421 5.19604 82.4478 5.17686 82.4592 5.16101C82.4705 5.14516 82.4868 5.13355 82.5054 5.128C82.5201 5.11778 82.5376 5.1123 82.5554 5.1123C82.5733 5.1123 82.5908 5.11778 82.6054 5.128L84.9929 8.3405V5.3155C84.9929 5.27074 85.0107 5.22782 85.0424 5.19617C85.074 5.16453 85.1169 5.14675 85.1617 5.14675L85.4304 5.14675V9.43425C85.4312 9.45371 85.4255 9.47288 85.4142 9.48873C85.4029 9.50458 85.3866 9.5162 85.3679 9.52175" fill="white"/>
<path d="M52.9989 14.3841H53.9989C54.1486 14.3944 54.2975 14.3545 54.422 14.2707C54.5465 14.187 54.6395 14.0641 54.6864 13.9216C54.7696 13.7043 54.7696 13.4639 54.6864 13.2466C54.6394 13.1046 54.5461 12.9825 54.4214 12.8998C54.2968 12.8171 54.148 12.7785 53.9989 12.7903H52.9989V14.3841ZM52.9989 14.8403V16.6591H52.5864V12.3528H53.9989C54.2537 12.3474 54.5036 12.4241 54.7114 12.5716C54.8946 12.7076 55.0337 12.8945 55.1114 13.1091C55.1742 13.2682 55.206 13.4379 55.2052 13.6091C55.2055 13.7822 55.1737 13.9538 55.1114 14.1153C55.0333 14.3279 54.8942 14.5127 54.7114 14.6466C54.5005 14.7852 54.251 14.8531 53.9989 14.8403H52.9989Z" fill="white"/>
<path d="M57.6615 13.284L56.8053 15.2465H58.5178L57.6615 13.284ZM56.1865 16.6652H55.7178L57.5928 12.3777C57.5973 12.3568 57.6093 12.3382 57.6266 12.3255C57.6439 12.3129 57.6652 12.307 57.6865 12.309C57.7074 12.3092 57.7276 12.316 57.7444 12.3283C57.7612 12.3407 57.7738 12.3579 57.7803 12.3777L59.6553 16.6652H59.3053C59.2643 16.6698 59.223 16.6598 59.1887 16.6369C59.1544 16.6141 59.1293 16.5798 59.1178 16.5402L58.749 15.6965H56.6053L56.1865 16.6652Z" fill="white"/>
<path d="M61.0429 14.3842H62.0366C62.1861 14.3934 62.3345 14.353 62.4588 14.2694C62.583 14.1858 62.6763 14.0636 62.7241 13.9217C62.8073 13.7043 62.8073 13.464 62.7241 13.2467C62.6761 13.1053 62.5826 12.9838 62.4582 12.9013C62.3338 12.8187 62.1855 12.7797 62.0366 12.7904H61.0429V14.3842ZM61.0429 14.8404V16.6592H60.6304V12.3529H62.0616C62.3146 12.3466 62.5627 12.4234 62.7679 12.5717C62.9529 12.7073 63.0941 12.8942 63.1741 13.1092C63.2369 13.2683 63.2687 13.438 63.2679 13.6092C63.2682 13.7822 63.2364 13.9539 63.1741 14.1154C63.1035 14.3208 62.974 14.5008 62.8017 14.6331C62.6294 14.7653 62.422 14.844 62.2054 14.8592L63.5304 16.6717H63.1366C63.0974 16.6745 63.0581 16.6667 63.0229 16.6491C62.9877 16.6315 62.9579 16.6048 62.9366 16.5717L61.6866 14.8842C61.6753 14.8682 61.6603 14.8554 61.6429 14.8466C61.6254 14.8379 61.6061 14.8336 61.5866 14.8342L61.0429 14.8404Z" fill="white"/>
<path d="M65.9115 13.2841L65.0553 15.2466H66.7678L65.9115 13.2841ZM64.4365 16.6654H63.9678L65.8428 12.3779C65.8484 12.3576 65.8607 12.3397 65.8777 12.3272C65.8947 12.3148 65.9154 12.3084 65.9365 12.3091C65.9574 12.3094 65.9776 12.3162 65.9944 12.3285C66.0112 12.3408 66.0238 12.3581 66.0303 12.3779L67.9053 16.6654H67.5553C67.5145 16.6688 67.4738 16.6583 67.4397 16.6356C67.4057 16.6129 67.3803 16.5793 67.3678 16.5404L66.999 15.6966H64.8553L64.4365 16.6654Z" fill="white"/>
<path d="M71.6053 14.1655H72.8553V14.4343C72.8553 14.479 72.8375 14.522 72.8059 14.5536C72.7742 14.5852 72.7313 14.603 72.6866 14.603H71.6053V16.1968H72.6866C72.7089 16.1948 72.7315 16.1983 72.7522 16.207C72.7729 16.2157 72.7911 16.2294 72.8053 16.2468C72.8213 16.2621 72.834 16.2806 72.8426 16.301C72.8512 16.3214 72.8555 16.3434 72.8553 16.3655V16.6343H71.3116C71.2894 16.6349 71.2673 16.6307 71.2468 16.6221C71.2263 16.6135 71.2079 16.6006 71.1928 16.5843C71.1781 16.5696 71.1667 16.552 71.1591 16.5326C71.1516 16.5133 71.1482 16.4925 71.1491 16.4718V12.353H72.8178V12.7655H71.5678L71.6053 14.1655Z" fill="white"/>
<path d="M75.8743 16.2218C75.8956 16.2208 75.9169 16.2248 75.9364 16.2335C75.956 16.2422 75.9732 16.2553 75.9868 16.2718C76.0042 16.286 76.0178 16.3042 76.0265 16.3249C76.0352 16.3456 76.0388 16.3682 76.0368 16.3905V16.6593H74.5118C74.4896 16.6599 74.4675 16.6557 74.447 16.6471C74.4265 16.6385 74.4081 16.6256 74.393 16.6093C74.3783 16.5946 74.3669 16.577 74.3593 16.5576C74.3518 16.5383 74.3484 16.5175 74.3493 16.4968V12.353H74.7618V16.2218H75.8743Z" fill="white"/>
<path d="M79.8053 12.3344L81.7741 14.8782L83.7428 12.3344C83.7561 12.3238 83.7726 12.318 83.7897 12.318C83.8067 12.318 83.8233 12.3238 83.8366 12.3344C83.8531 12.3387 83.8676 12.3484 83.8778 12.362C83.8881 12.3757 83.8934 12.3924 83.8928 12.4094V16.6844H83.6241C83.6017 16.6864 83.5792 16.6829 83.5585 16.6742C83.5378 16.6655 83.5195 16.6518 83.5053 16.6344C83.4898 16.62 83.4774 16.6026 83.4688 16.5833C83.4602 16.564 83.4556 16.5431 83.4553 16.5219V13.4782L81.8241 15.5782C81.8206 15.5833 81.816 15.5876 81.8105 15.5905C81.8051 15.5934 81.799 15.5949 81.7928 15.5949C81.7866 15.5949 81.7805 15.5934 81.7751 15.5905C81.7696 15.5876 81.765 15.5833 81.7616 15.5782L80.1303 13.4782V16.6594H79.7178V12.3844C79.7173 12.3674 79.7225 12.3507 79.7328 12.337C79.743 12.3234 79.7576 12.3137 79.7741 12.3094C79.7874 12.2988 79.8039 12.293 79.8209 12.293C79.838 12.293 79.8545 12.2988 79.8678 12.3094" fill="white"/>
<path d="M86.0364 14.1655H87.2864V14.4343C87.2864 14.479 87.2686 14.522 87.2369 14.5536C87.2053 14.5852 87.1624 14.603 87.1176 14.603H86.0364V16.1968H87.1239C87.1462 16.1948 87.1688 16.1983 87.1895 16.207C87.2102 16.2157 87.2284 16.2294 87.2426 16.2468C87.2586 16.2621 87.2713 16.2806 87.2799 16.301C87.2885 16.3214 87.2928 16.3434 87.2926 16.3655V16.6343H85.7676C85.7454 16.6349 85.7233 16.6307 85.7028 16.6221C85.6824 16.6135 85.664 16.6006 85.6489 16.5843C85.6342 16.5696 85.6227 16.552 85.6152 16.5326C85.6076 16.5133 85.6042 16.4925 85.6051 16.4718V12.353H87.2739V12.7655H86.0239L86.0364 14.1655Z" fill="white"/>
<path d="M89.2431 14.3843H90.2493C90.3998 14.3949 90.5496 14.3552 90.6752 14.2715C90.8008 14.1878 90.895 14.0648 90.9431 13.9218C91.0263 13.7045 91.0263 13.4641 90.9431 13.2468C90.8948 13.1043 90.8003 12.982 90.6746 12.8993C90.549 12.8167 90.3993 12.7784 90.2493 12.7905H89.2618L89.2431 14.3843ZM89.2431 14.8405V16.6593H88.8306V12.353H90.2493C90.5044 12.3458 90.7548 12.4226 90.9618 12.5718C91.1468 12.7074 91.288 12.8943 91.3681 13.1093C91.4279 13.2693 91.4596 13.4384 91.4618 13.6093C91.4591 13.7821 91.4274 13.9532 91.3681 14.1155C91.2974 14.3209 91.1679 14.5009 90.9956 14.6332C90.8234 14.7654 90.616 14.8441 90.3993 14.8593L91.7243 16.6718H91.3243C91.2853 16.6728 91.2467 16.6642 91.2118 16.6468C91.1769 16.6293 91.1469 16.6036 91.1243 16.5718L89.8743 14.8843C89.863 14.8684 89.848 14.8555 89.8306 14.8468C89.8131 14.838 89.7938 14.8337 89.7743 14.8343L89.2431 14.8405Z" fill="white"/>
<path d="M95.9053 12.5653V13.0653C95.6396 12.8545 95.3197 12.723 94.9826 12.6861C94.6454 12.6491 94.3047 12.7082 93.9996 12.8565C93.6946 13.0048 93.4376 13.2362 93.2584 13.5242C93.0791 13.8121 92.9849 14.1449 92.9865 14.484C92.982 14.7227 93.0268 14.9597 93.1183 15.1802C93.2097 15.4007 93.3457 15.5999 93.5178 15.7653C93.6789 15.9344 93.8729 16.0688 94.0879 16.1601C94.3028 16.2515 94.5342 16.2979 94.7678 16.2965C95.1742 16.3002 95.5695 16.1633 95.8865 15.909V15.909V16.2528C95.8897 16.3079 95.8758 16.3627 95.8468 16.4097C95.8177 16.4567 95.7748 16.4935 95.724 16.5153C95.4171 16.6674 95.0791 16.7465 94.7365 16.7465C94.4393 16.7499 94.1445 16.6923 93.8704 16.5773C93.5963 16.4622 93.3486 16.2923 93.1428 16.0778C92.7191 15.6505 92.4814 15.0732 92.4814 14.4715C92.4814 13.8699 92.7191 13.2925 93.1428 12.8653C93.4954 12.5112 93.9559 12.2847 94.4516 12.2213C94.9473 12.1579 95.4499 12.2614 95.8803 12.5153C95.8803 12.5153 95.8803 12.5153 95.8803 12.5153" fill="white"/>
<path d="M98.6303 13.284L97.749 15.2465H99.4615L98.6303 13.284ZM97.1553 16.6652H96.6865L98.5615 12.3777C98.566 12.3568 98.5781 12.3382 98.5953 12.3255C98.6126 12.3129 98.6339 12.307 98.6553 12.309C98.6761 12.3092 98.6964 12.316 98.7132 12.3283C98.73 12.3407 98.7425 12.3579 98.749 12.3777L100.624 16.6652H100.249C100.208 16.6698 100.167 16.6598 100.132 16.6369C100.098 16.6141 100.073 16.5798 100.062 16.5402L99.6928 15.6965H97.5803L97.1553 16.6652Z" fill="white"/>
<path d="M102.011 16.2217H102.849C103.165 16.2273 103.473 16.126 103.724 15.9342C103.951 15.7476 104.12 15.5006 104.211 15.2217C104.37 14.7556 104.37 14.2503 104.211 13.7842C104.12 13.5071 103.95 13.2621 103.724 13.0779C103.474 12.8834 103.165 12.7818 102.849 12.7904H102.011V16.2217ZM103.999 12.7154C104.293 12.9565 104.51 13.2779 104.624 13.6404C104.724 13.919 104.775 14.2131 104.774 14.5092C104.775 14.8073 104.724 15.1034 104.624 15.3842C104.507 15.7451 104.29 16.0657 103.999 16.3092C103.67 16.5631 103.264 16.6956 102.849 16.6842H101.718C101.675 16.6826 101.635 16.665 101.604 16.6349C101.574 16.6047 101.557 16.5643 101.555 16.5217V12.3529H102.805C103.234 12.3248 103.658 12.4536 103.999 12.7154" fill="white"/>
<path d="M106.724 13.2215C106.388 13.563 106.199 14.0232 106.199 14.5027C106.199 14.9822 106.388 15.4425 106.724 15.784C106.89 15.9523 107.088 16.086 107.307 16.1773C107.525 16.2685 107.759 16.3155 107.996 16.3155C108.233 16.3155 108.467 16.2685 108.685 16.1773C108.904 16.086 109.102 15.9523 109.268 15.784C109.519 15.5324 109.691 15.2123 109.762 14.8637C109.833 14.5151 109.8 14.1533 109.667 13.8235C109.533 13.4936 109.306 13.2103 109.013 13.0087C108.72 12.8072 108.374 12.6965 108.018 12.6902C107.785 12.6903 107.554 12.7374 107.339 12.8286C107.124 12.9199 106.93 13.0535 106.768 13.2215H106.724ZM110.293 14.4715C110.298 14.7703 110.242 15.0671 110.129 15.3434C110.015 15.6197 109.845 15.8697 109.63 16.0777C109.423 16.2898 109.175 16.4582 108.901 16.5732C108.627 16.6882 108.334 16.7474 108.037 16.7474C107.74 16.7474 107.446 16.6882 107.172 16.5732C106.899 16.4582 106.651 16.2898 106.443 16.0777C106.022 15.6489 105.787 15.0722 105.787 14.4715C105.787 13.8708 106.022 13.294 106.443 12.8652C106.763 12.5625 107.165 12.3602 107.599 12.2832C108.033 12.2063 108.48 12.258 108.885 12.4322C109.289 12.6064 109.634 12.8952 109.877 13.2632C110.119 13.6311 110.249 14.062 110.249 14.5027" fill="white"/>
<path d="M52.9989 23.8404H52.5864V19.5342H54.2489V19.9529H52.9989V21.3342H54.2489V21.6029C54.2491 21.6251 54.2448 21.6471 54.2362 21.6675C54.2276 21.6879 54.2149 21.7063 54.1989 21.7217C54.1841 21.7383 54.1657 21.7514 54.1452 21.7601C54.1247 21.7687 54.1024 21.7727 54.0802 21.7717H52.9989V23.8404Z" fill="white"/>
<path d="M56.1117 23.8592H55.6992V19.5342H56.1117V23.8404" fill="white"/>
<path d="M60.7992 23.8842C60.7815 23.8916 60.7618 23.8925 60.7435 23.8868C60.7252 23.8811 60.7095 23.8691 60.6992 23.8529L58.2742 20.6654V23.8404H57.8554V19.5904C57.8534 19.5707 57.8586 19.551 57.8701 19.5349C57.8816 19.5187 57.8986 19.5074 57.9179 19.5029C57.9356 19.4955 57.9553 19.4946 57.9736 19.5003C57.9919 19.506 58.0076 19.518 58.0179 19.5342L60.4054 22.7154V19.6779C60.4048 19.6557 60.409 19.6336 60.4176 19.6132C60.4262 19.5927 60.4391 19.5743 60.4554 19.5592C60.4701 19.5445 60.4877 19.533 60.5071 19.5255C60.5264 19.518 60.5472 19.5145 60.5679 19.5154H60.8742V23.7842C60.8747 23.8028 60.8687 23.8211 60.8573 23.8359C60.846 23.8507 60.8298 23.8611 60.8117 23.8654" fill="white"/>
<path d="M63.7867 20.4652L62.9305 22.434H64.6242L63.7867 20.4652ZM62.3117 23.8527H61.8242L63.6992 19.5652C63.7063 19.5461 63.7191 19.5296 63.7359 19.5179C63.7526 19.5062 63.7726 19.5 63.793 19.5C63.8134 19.5 63.8333 19.5062 63.8501 19.5179C63.8668 19.5296 63.8796 19.5461 63.8867 19.5652L65.7617 23.8527H65.4117C65.3719 23.8554 65.3322 23.8454 65.2985 23.824C65.2648 23.8027 65.2388 23.7711 65.2242 23.734L64.8555 22.884H62.7492L62.3117 23.8527Z" fill="white"/>
<path d="M69.6927 23.8842C69.675 23.8916 69.6553 23.8925 69.637 23.8868C69.6187 23.8811 69.603 23.8691 69.5927 23.8529L67.1677 20.6654V23.8404H66.749V19.5904C66.7469 19.5707 66.7522 19.551 66.7637 19.5349C66.7752 19.5187 66.7922 19.5074 66.8115 19.5029C66.8291 19.4955 66.8489 19.4946 66.8672 19.5003C66.8855 19.506 66.9012 19.518 66.9115 19.5342L69.299 22.7154V19.6779C69.3005 19.6336 69.3183 19.5913 69.349 19.5592C69.3637 19.5445 69.3813 19.533 69.4006 19.5255C69.42 19.518 69.4407 19.5145 69.4615 19.5154H69.7365V23.7842C69.737 23.8028 69.731 23.8211 69.7196 23.8359C69.7083 23.8507 69.6921 23.8611 69.674 23.8654" fill="white"/>
<path d="M74.4803 19.7468V20.2531C74.1651 19.9997 73.7721 19.8628 73.3678 19.8656C73.1349 19.8649 72.9042 19.911 72.6894 20.0011C72.4747 20.0913 72.2803 20.2238 72.1178 20.3906C71.7807 20.7331 71.5918 21.1944 71.5918 21.675C71.5918 22.1555 71.7807 22.6168 72.1178 22.9593C72.4277 23.2744 72.8438 23.4629 73.285 23.4883C73.7262 23.5137 74.1612 23.3742 74.5053 23.0968V23.0968V23.4406C74.5084 23.4957 74.4945 23.5505 74.4655 23.5975C74.4364 23.6445 74.3935 23.6813 74.3428 23.7031C74.0363 23.8567 73.698 23.9359 73.3553 23.9343C73.0583 23.94 72.7633 23.8841 72.489 23.77C72.2147 23.656 71.967 23.4864 71.7615 23.2718C71.3638 22.8858 71.1216 22.3673 71.0808 21.8145C71.0401 21.2618 71.2037 20.7133 71.5405 20.2732C71.8774 19.8331 72.364 19.5319 72.9082 19.4268C73.4524 19.3217 74.0163 19.42 74.4928 19.7031C74.4928 19.7031 74.4928 19.7031 74.4928 19.7031" fill="white"/>
<path d="M76.393 23.8592H75.9805V19.5342H76.393V23.8404" fill="white"/>
<path d="M78.5554 21.3529H79.8054V21.6217C79.8062 21.6435 79.8026 21.6653 79.7948 21.6858C79.7871 21.7062 79.7752 21.7249 79.76 21.7406C79.7449 21.7564 79.7267 21.7689 79.7065 21.7775C79.6864 21.786 79.6647 21.7904 79.6429 21.7904H78.5554V23.4029H79.6241C79.6685 23.4045 79.7108 23.4223 79.7429 23.4529C79.758 23.4686 79.7698 23.4872 79.7773 23.5077C79.7848 23.5281 79.788 23.5499 79.7866 23.5717V23.8404H78.2679C78.2461 23.8418 78.2243 23.8387 78.2039 23.8311C78.1834 23.8236 78.1648 23.8119 78.1491 23.7967C78.1174 23.7653 78.0994 23.7226 78.0991 23.6779V19.5342H79.7679V19.9529H78.5179L78.5554 21.3529Z" fill="white"/>
<path d="M81.7615 21.5654H82.749C82.8985 21.5746 83.0469 21.5343 83.1712 21.4506C83.2955 21.367 83.3887 21.2448 83.4365 21.1029C83.4799 20.9979 83.5012 20.8851 83.499 20.7716C83.5019 20.656 83.4806 20.541 83.4365 20.4341C83.3887 20.2922 83.2955 20.1699 83.1712 20.0863C83.0469 20.0027 82.8985 19.9624 82.749 19.9716H81.7553L81.7615 21.5654ZM81.7615 22.0216V23.8404H81.3428V19.5341H82.749C82.9906 19.522 83.2296 19.5886 83.4302 19.7238C83.6308 19.859 83.7821 20.0556 83.8615 20.2841C83.9244 20.4454 83.9562 20.6172 83.9553 20.7904C83.9551 20.9614 83.9233 21.1309 83.8615 21.2904C83.7931 21.4971 83.6641 21.6785 83.4914 21.8111C83.3187 21.9437 83.1102 22.0214 82.8928 22.0341L84.2178 23.8466H83.8053C83.7661 23.8488 83.7271 23.8408 83.692 23.8232C83.6569 23.8057 83.627 23.7793 83.6053 23.7466L82.3553 22.0591C82.3427 22.0431 82.3265 22.0302 82.3081 22.0216C82.2896 22.0129 82.2694 22.0086 82.249 22.0091L81.7615 22.0216Z" fill="white"/>
<path d="M86.0053 20.4029C85.6683 20.7455 85.4794 21.2068 85.4794 21.6873C85.4794 22.1679 85.6683 22.6291 86.0053 22.9717C86.1716 23.1401 86.3696 23.2737 86.588 23.365C86.8063 23.4562 87.0406 23.5032 87.2772 23.5032C87.5138 23.5032 87.7481 23.4562 87.9664 23.365C88.1848 23.2737 88.3828 23.1401 88.5491 22.9717C88.8861 22.6291 89.075 22.1679 89.075 21.6873C89.075 21.2068 88.8861 20.7455 88.5491 20.4029C88.2108 20.0674 87.7536 19.8792 87.2772 19.8792C86.8008 19.8792 86.3436 20.0674 86.0053 20.4029ZM89.5303 21.6904C89.5355 21.9892 89.4793 22.2859 89.3654 22.5622C89.2515 22.8384 89.0821 23.0884 88.8678 23.2967C88.6593 23.5062 88.4115 23.6726 88.1385 23.786C87.8655 23.8995 87.5728 23.9579 87.2772 23.9579C86.9816 23.9579 86.6889 23.8995 86.4159 23.786C86.1429 23.6726 85.8951 23.5062 85.6866 23.2967C85.4193 23.0355 85.2209 22.7122 85.1091 22.3557C84.9972 21.9991 84.9755 21.6204 85.0457 21.2534C85.1159 20.8864 85.2759 20.5425 85.5115 20.2524C85.747 19.9623 86.0507 19.735 86.3955 19.591C86.7403 19.4469 87.1154 19.3904 87.4873 19.4267C87.8592 19.4629 88.2164 19.5907 88.5269 19.7987C88.8373 20.0066 89.0915 20.2882 89.2666 20.6183C89.4417 20.9484 89.5323 21.3168 89.5303 21.6904" fill="white"/>
<path d="M18.5303 15.3468C18.4814 15.6601 18.4018 15.9678 18.2928 16.2655C17.9218 17.287 17.2492 18.1717 16.3641 18.8023C15.479 19.4329 14.4232 19.7797 13.3366 19.7968C12.3725 19.787 11.4293 19.5145 10.6086 19.0084C9.78791 18.5024 9.1208 17.7821 8.67911 16.9251C8.23741 16.068 8.03787 15.1068 8.10196 14.1447C8.16605 13.1827 8.49135 12.2564 9.04284 11.4655L5.19909 9.88428C4.40103 11.3112 3.98789 12.9213 4.00027 14.5562C4.01265 16.1911 4.45011 17.7947 5.26968 19.2094C6.08926 20.6241 7.26275 21.8013 8.67488 22.6253C10.087 23.4493 11.6892 23.8918 13.3241 23.9093C14.9969 23.9069 16.6383 23.4549 18.0765 22.6005C19.5148 21.7462 20.6968 20.5209 21.4991 19.053C21.8702 18.3779 22.1577 17.6601 22.3553 16.9155L18.5303 15.3468Z" fill="white"/>
</svg>
