<?xml version="1.0" encoding="UTF-8"?>
<svg id="Capa_2" xmlns="http://www.w3.org/2000/svg" viewBox="0 0 467.01 100.34">
  <defs>
    <style>
      .cls-1 {
        fill: #fff;
      }
    </style>
  </defs>
  <g id="Capa_1-2" data-name="Capa_1">
    <g>
      <path class="cls-1" d="M321.06,64c-.24-19.93,15.28-35.34,35.93-35.68,20.64-.34,36.71,15.2,37.1,35.84.36,19.35-15.7,35.57-35.48,35.83-21.95.29-37.29-14.41-37.55-35.99ZM357.17,82.93c10.66.09,19.18-8.23,19.18-18.72,0-10.64-8.33-19.02-18.94-19.04-10.45-.02-18.75,8.14-18.88,18.56-.13,10.89,7.85,19.11,18.64,19.2Z"/>
      <path class="cls-1" d="M259.25,98.06h-17.06c0-10.71.06-21.16-.03-31.62-.03-3.32-.21-6.67-.77-9.93-1.16-6.73-4.92-10.43-10.93-11.25-6.2-.85-11.81,1.71-14.31,7.63-1.57,3.71-2.25,8.01-2.4,12.08-.34,9.32-.1,18.66-.12,28,0,1.62-.16,3.24-.26,5.09h-16.83V29.9h16.72c.24,2.33.46,4.39.63,6.09,4.56-2.33,8.79-5.6,13.52-6.72,17.52-4.13,30.83,5.93,31.69,24.23.69,14.62.14,29.31.14,44.55Z"/>
      <path class="cls-1" d="M467.01,44.8c-4.66,2.87-9.33,5.75-14.42,8.88-4.41-5.37-9.67-9.08-17.07-8.13-5.34.69-9.92,2.68-13.31,7.02-6.03,7.72-4.88,19.95,2.5,26.27,8.06,6.89,19.56,5.5,27.78-3.79,4.68,2.78,9.47,5.63,14.24,8.46-4.79,11.19-21.53,18.76-35.87,16.39-17.43-2.88-29.02-15.98-30.17-34.1-1.02-15.97,9.15-30.65,24.56-35.46,16.26-5.07,33.89.97,41.77,14.46Z"/>
      <path class="cls-1" d="M118.48,46.06h-10.44v-16.08c1.57-.13,3.01-.35,4.45-.36,3.9-.05,5.96-1.94,5.77-5.86-.84-18.14,11.16-25.41,28.45-23.44,1.79.2,3.56.68,5.63,1.09v14.29c-15.81-.07-17.84,1.68-15.73,13.92h17.04v16.42h-17.61v51.86h-17.58v-51.83Z"/>
      <path class="cls-1" d="M277.37,46.27h-10.72v-16c.25-.15.51-.44.79-.45,10.46-.41,10.78,1.41,11.67-12.17.14-2.13.26-4.26.42-6.71h15.47v18.68c5.13,0,9.75.1,14.35-.04,2.74-.08,3.92.86,3.79,3.74-.18,4.11-.05,8.23-.05,12.76h-17.77c0,10.34-.15,20.27.08,30.18.08,3.58,2.6,5.87,6.13,6.15,4.08.32,8.21.08,12.56.08v15.28c-16.01,5.18-30.63.79-34.75-11.59-1.29-3.87-1.77-8.13-1.89-12.23-.27-9.1-.09-18.22-.09-27.66Z"/>
      <path class="cls-1" d="M78.2,64.12c0,7.99.06,15.98-.01,23.97-.06,6.97-3.13,10.08-10,10.22-3.66.07-7.32.13-10.98-.04-5.22-.24-8.6-3.22-8.66-8.42-.19-17.31-.18-34.62,0-51.92.05-4.51,2.8-7.6,7.41-7.97,4.79-.38,9.65-.44,14.43-.05,5.06.41,7.68,3.7,7.77,9.26.13,8.32.03,16.64.04,24.96Z"/>
      <path class="cls-1" d="M166.6,29.85h16.72v68.17h-16.72V29.85Z"/>
      <path class="cls-1" d="M41.27,64.15c0,8.99.04,17.98-.01,26.98-.04,5.8-1.62,7.14-8.13,7.19-7.83.06-9.25-.89-9.28-6.98-.08-18.32-.08-36.64.01-54.95.03-5.71,1.68-6.81,9.06-6.77,6.54.03,8.27,1.41,8.32,7.06.08,9.16.02,18.32.02,27.48Z"/>
      <path class="cls-1" d="M16.44,63.63c0,9.67.01,19.34,0,29.01,0,2.5.24,5.51-3.39,5.5-3.5,0-3.56-2.91-3.56-5.46-.02-19.17-.02-38.34,0-57.51,0-2.6.32-5.66,3.72-5.07,1.33.23,3.03,3.24,3.09,5.03.31,9.49.14,19,.14,28.5Z"/>
      <path class="cls-1" d="M175.1,21.21c-5.89.09-10.59-4.45-10.57-10.22.02-5.51,4.6-9.98,10.28-10.01,6-.04,10.53,4.37,10.53,10.24,0,5.57-4.44,9.9-10.24,10Z"/>
      <path class="cls-1" d="M0,98.05V29.96c.5,0,1,0,1.5,0v68.06c-.5,0-1,.02-1.5.02Z"/>
    </g>
  </g>
</svg>