<?xml version="1.0" encoding="UTF-8"?>
<svg id="Capa_2" data-name="Capa 2" xmlns="http://www.w3.org/2000/svg" viewBox="0 0 740.48 115.72">
  <defs>
    <style>
      .cls-1 {
        fill: #fff;
      }
    </style>
  </defs>
  <g id="Capa_1-2" data-name="Capa 1">
    <g>
      <path class="cls-1" d="M37.58,57.56l15.81-30.42h13.12l17.3,30.42h-14.02l-8.95-17.89-9.54,17.89h-13.72Z"/>
      <path class="cls-1" d="M37.58,68.6l9.84-.3s2.95,11.65,11.04,11.93c8.65.3,8.65-.6,13.72-11.93h10.74s2.09,24.46-22.07,24.46-23.26-24.16-23.26-24.16Z"/>
      <path class="cls-1" d="M0,20.28h11.93v-11.04h95.74v67.7h11.04V0H0v20.28Z"/>
      <path class="cls-1" d="M118.71,95.44h-11.93v11.04H11.04V38.77H0v76.95h118.71v-20.28Z"/>
      <path class="cls-1" d="M0,20.28h11.93v-11.04h95.74v67.7h11.04V0H0v20.28Z"/>
      <path class="cls-1" d="M157.48,39.49h13.51l11.17,29.25,11.17-29.25h13.46l-17.23,40.77h-14.8l-17.28-40.77Z"/>
      <path class="cls-1" d="M223.05,62.67c.1,1.85.6,3.51,1.49,4.97.89,1.46,2.18,2.6,3.87,3.43,1.72.83,3.77,1.24,6.16,1.24,2.15,0,4.04-.26,5.66-.79,1.66-.53,3.05-1.18,4.17-1.94,1.16-.79,2.02-1.56,2.58-2.28l5.21,7.75c-.93,1.16-2.17,2.23-3.72,3.23-1.52.96-3.48,1.72-5.86,2.28-2.35.6-5.3.89-8.84.89-4.47,0-8.39-.88-11.77-2.63-3.38-1.75-6.01-4.29-7.89-7.6-1.89-3.31-2.83-7.25-2.83-11.82,0-3.97.84-7.55,2.53-10.73,1.69-3.21,4.14-5.74,7.35-7.6,3.24-1.85,7.13-2.78,11.67-2.78,4.27,0,7.96.83,11.07,2.48,3.14,1.62,5.58,4.01,7.3,7.15,1.72,3.14,2.58,6.98,2.58,11.52,0,.26-.02.81-.05,1.64,0,.79-.03,1.32-.1,1.59h-30.59ZM241.97,54.88c-.03-1.06-.36-2.2-.99-3.43-.6-1.22-1.54-2.27-2.83-3.13-1.29-.86-3.01-1.29-5.16-1.29s-3.92.41-5.31,1.24c-1.36.83-2.38,1.85-3.08,3.08-.7,1.19-1.09,2.37-1.19,3.53h18.57Z"/>
      <path class="cls-1" d="M300.29,39.49h7.35v-16.73h12.51v16.73h12.55v10.48h-12.55v14.75c0,1.95.31,3.48.94,4.57.63,1.06,1.62,1.59,2.98,1.59,1.03,0,1.87-.2,2.53-.6.66-.43,1.06-.73,1.19-.89l4.47,9.04c-.2.2-.84.55-1.94,1.04-1.06.5-2.43.94-4.12,1.34-1.66.43-3.53.65-5.61.65-3.74,0-6.84-1.08-9.29-3.23-2.45-2.18-3.67-5.56-3.67-10.13v-18.12h-7.35v-10.48Z"/>
      <path class="cls-1" d="M358.59,81.44c-4.34,0-8.21-.93-11.62-2.78-3.38-1.85-6.02-4.39-7.94-7.6-1.92-3.24-2.88-6.93-2.88-11.07s.96-7.83,2.88-11.07c1.92-3.28,4.57-5.86,7.94-7.75,3.41-1.92,7.28-2.88,11.62-2.88s8.23.96,11.57,2.88c3.34,1.89,5.96,4.47,7.85,7.75,1.89,3.24,2.83,6.94,2.83,11.07s-.94,7.83-2.83,11.07c-1.89,3.21-4.5,5.74-7.85,7.6-3.34,1.85-7.2,2.78-11.57,2.78ZM358.59,70.97c2.09,0,3.89-.46,5.41-1.39,1.56-.96,2.75-2.27,3.57-3.92.86-1.69,1.29-3.59,1.29-5.71s-.43-4.02-1.29-5.71c-.83-1.69-2.02-3.01-3.57-3.97-1.52-.99-3.33-1.49-5.41-1.49s-3.91.5-5.46,1.49c-1.52.96-2.71,2.28-3.57,3.97-.86,1.69-1.29,3.59-1.29,5.71s.43,4.02,1.29,5.71c.86,1.66,2.05,2.96,3.57,3.92,1.56.93,3.38,1.39,5.46,1.39Z"/>
      <path class="cls-1" d="M401.07,80.25h-12.61v-40.77h12.61v6.6h-.25c.23-.79.86-1.8,1.89-3.03,1.06-1.22,2.52-2.32,4.37-3.28,1.85-.99,4.09-1.49,6.7-1.49,1.89,0,3.59.28,5.11.84,1.56.53,2.66,1.06,3.33,1.59l-4.97,10.33c-.43-.53-1.24-1.08-2.43-1.64-1.16-.56-2.61-.84-4.37-.84-2.09,0-3.82.58-5.21,1.74-1.39,1.13-2.43,2.52-3.13,4.17-.7,1.62-1.04,3.14-1.04,4.57v21.2Z"/>
      <path class="cls-1" d="M279.53,71.41c2.15,0,3.91-.36,5.26-1.09,1.36-.73,3.49-3.13,3.92-3.49l8.95,5.96c-.46.36-5.65,5.45-6.91,6.12-1.26.66-2.86,1.24-4.82,1.74-1.92.53-4.12.79-6.6.79-4.3,0-8.16-.86-11.57-2.58-3.41-1.75-6.11-4.24-8.09-7.45-1.95-3.24-2.93-7.1-2.93-11.57s.98-8.36,2.93-11.57c1.99-3.21,4.68-5.68,8.09-7.4,3.41-1.72,7.27-2.58,11.57-2.58,2.45,0,4.62.27,6.5.79,1.92.53,3.53,1.14,4.82,1.84,1.29.66,4.27,4.87,4.77,5.3l-6.71,5.69c-.23-.26-2.06-1.24-2.72-1.71-.66-.46-1.54-.89-2.63-1.29-1.06-.4-2.33-.6-3.82-.6-1.82,0-3.56.48-5.21,1.44-1.62.96-2.95,2.3-3.97,4.02-1.03,1.72-1.54,3.74-1.54,6.06s.51,4.35,1.54,6.11c1.03,1.72,2.35,3.06,3.97,4.02,1.66.96,3.39,1.44,5.21,1.44Z"/>
      <path class="cls-1" d="M535.58,80.25v-7.1c-.3.73-1.06,1.75-2.29,3.08-1.22,1.32-2.88,2.53-4.96,3.62-2.06,1.06-4.47,1.59-7.25,1.59-3.9,0-7.36-.93-10.37-2.78-3.01-1.89-5.38-4.45-7.1-7.7-1.69-3.28-2.53-6.97-2.53-11.07s.84-7.78,2.53-11.02c1.72-3.28,4.09-5.86,7.1-7.75,3.01-1.89,6.47-2.83,10.37-2.83,2.72,0,5.07.46,7.05,1.39,2.02.89,3.64,1.95,4.86,3.18,1.26,1.19,2.07,2.27,2.43,3.23v-6.6h12.52v40.76h-12.36ZM513.43,59.89c0,2.28.51,4.3,1.54,6.06,1.03,1.72,2.38,3.06,4.07,4.02,1.68.96,3.52,1.44,5.51,1.44,2.09,0,3.94-.48,5.56-1.44,1.62-.99,2.89-2.35,3.82-4.07.96-1.75,1.44-3.76,1.44-6.01s-.48-4.24-1.44-5.96c-.93-1.75-2.2-3.13-3.82-4.12-1.62-.99-3.48-1.49-5.56-1.49s-3.82.5-5.51,1.49c-1.69.96-3.05,2.32-4.07,4.07-1.03,1.72-1.54,3.72-1.54,6.01Z"/>
      <path class="cls-1" d="M570.8,100.91h-12.51v-61.42h12.66v6.6c.39-.96,1.25-2.05,2.58-3.28,1.32-1.22,3.05-2.28,5.17-3.18,2.15-.89,4.6-1.34,7.35-1.34,3.87,0,7.25.94,10.13,2.83,2.88,1.89,5.1,4.47,6.65,7.75,1.59,3.24,2.38,6.92,2.38,11.02s-.83,7.8-2.48,11.07c-1.66,3.24-3.96,5.81-6.9,7.7-2.95,1.85-6.37,2.78-10.28,2.78-2.94,0-5.48-.53-7.6-1.59-2.12-1.06-3.77-2.25-4.97-3.57-1.19-1.32-1.92-2.37-2.18-3.13v27.76ZM592.85,59.89c0-2.28-.5-4.29-1.49-6.01-.96-1.75-2.25-3.11-3.87-4.07-1.62-.99-3.43-1.49-5.42-1.49-2.08,0-3.97.5-5.66,1.49-1.69.99-3.03,2.37-4.02,4.12-.96,1.72-1.44,3.71-1.44,5.96s.48,4.25,1.44,6.01c.99,1.72,2.33,3.08,4.02,4.07,1.68.96,3.57,1.44,5.66,1.44s3.79-.48,5.42-1.44c1.62-.96,2.91-2.3,3.87-4.02,1-1.75,1.49-3.77,1.49-6.06Z"/>
      <path class="cls-1" d="M614.07,80.25v-40.76h12.56v40.76h-12.56ZM620.53,28.96c-2.09,0-3.86-.73-5.31-2.18-1.42-1.46-2.13-3.19-2.13-5.21s.73-3.77,2.18-5.26c1.46-1.49,3.21-2.23,5.26-2.23,1.36,0,2.6.35,3.72,1.04,1.13.66,2.04,1.56,2.73,2.68.7,1.13,1.05,2.38,1.05,3.77,0,2.02-.75,3.76-2.24,5.21-1.46,1.46-3.21,2.18-5.26,2.18Z"/>
      <path class="cls-1" d="M634.63,39.49h7.35v-16.73h12.51v16.73h12.29v10.48h-12.29v14.75c0,1.95.31,3.48.94,4.57.63,1.06,1.62,1.59,2.98,1.59,1.03,0,1.87-.2,2.53-.6,1.36-.46,4.21-1.78,4.34-1.95l4.48,8.95c-.2.2-4,1.69-5.1,2.19-1.06.5-2.43.94-4.12,1.34-1.65.43-3.52.65-5.61.65-3.74,0-6.84-1.08-9.29-3.23-2.45-2.18-3.68-5.56-3.68-10.13v-18.12h-7.35v-10.48Z"/>
      <path class="cls-1" d="M705,80.25v-7.1c-.3.73-1.06,1.75-2.28,3.08-1.23,1.32-2.88,2.53-4.97,3.62-2.05,1.06-4.47,1.59-7.25,1.59-3.91,0-7.36-.93-10.38-2.78-3.01-1.89-5.38-4.45-7.1-7.7-1.68-3.28-2.53-6.97-2.53-11.07s.85-7.78,2.53-11.02c1.72-3.28,4.09-5.86,7.1-7.75,3.01-1.89,6.47-2.83,10.38-2.83,2.72,0,5.06.46,7.05,1.39,2.02.89,3.64,1.95,4.87,3.18,1.25,1.19,2.07,2.27,2.43,3.23v-6.6h12.51v40.76h-12.36ZM682.85,59.89c0,2.28.51,4.3,1.54,6.06,1.03,1.72,2.38,3.06,4.07,4.02,1.69.96,3.53,1.44,5.51,1.44,2.09,0,3.94-.48,5.56-1.44,1.62-.99,2.9-2.35,3.82-4.07.96-1.75,1.44-3.76,1.44-6.01s-.48-4.24-1.44-5.96c-.93-1.75-2.2-3.13-3.82-4.12-1.62-.99-3.47-1.49-5.56-1.49s-3.82.5-5.51,1.49c-1.68.96-3.04,2.32-4.07,4.07-1.03,1.72-1.54,3.72-1.54,6.01Z"/>
      <path class="cls-1" d="M740.48,80.25h-12.66V11.93h12.66v68.32Z"/>
      <path class="cls-1" d="M479.12,71.89c2.15,0,3.91-.36,5.26-1.09,1.36-.73,4-4.62,4.43-4.98l8.95,5.97c-.46.36-6.16,6.94-7.42,7.61-1.25.66-2.86,1.24-4.81,1.74-1.92.53-4.12.79-6.61.79-4.3,0-8.16-.86-11.57-2.58-3.41-1.75-6.11-4.24-8.1-7.45-1.95-3.24-2.93-7.1-2.93-11.57s.97-8.36,2.93-11.57c1.99-3.21,4.68-5.68,8.1-7.4,3.41-1.72,7.27-2.58,11.57-2.58,2.45,0,4.62.26,6.5.79,1.92.53,3.53,1.14,4.82,1.84,1.29.66,7.02,7.58,7.52,8.01l-8.95,4.47c-.23-.26-2.57-2.73-3.24-3.2-.66-.46-1.54-.89-2.63-1.29-1.06-.4-2.33-.6-3.82-.6-1.82,0-3.56.48-5.21,1.44-1.62.96-2.95,2.3-3.97,4.02-1.03,1.72-1.54,3.74-1.54,6.06s.51,4.35,1.54,6.11c1.02,1.72,2.35,3.06,3.97,4.02,1.65.96,3.39,1.44,5.21,1.44Z"/>
    </g>
  </g>
</svg>